<?xml version="1.0" encoding="utf-8" standalone="no"?>
<!DOCTYPE svg PUBLIC "-//W3C//DTD SVG 1.1//EN"
  "http://www.w3.org/Graphics/SVG/1.1/DTD/svg11.dtd">
<svg xmlns:xlink="http://www.w3.org/1999/xlink" width="864pt" height="360pt" viewBox="0 0 864 360" xmlns="http://www.w3.org/2000/svg" version="1.1">
 <metadata>
  <rdf:RDF xmlns:dc="http://purl.org/dc/elements/1.1/" xmlns:cc="http://creativecommons.org/ns#" xmlns:rdf="http://www.w3.org/1999/02/22-rdf-syntax-ns#">
   <cc:Work>
    <dc:type rdf:resource="http://purl.org/dc/dcmitype/StillImage"/>
    <dc:date>2023-02-06T08:56:21.206160</dc:date>
    <dc:format>image/svg+xml</dc:format>
    <dc:creator>
     <cc:Agent>
      <dc:title>Matplotlib v3.6.3, https://matplotlib.org/</dc:title>
     </cc:Agent>
    </dc:creator>
   </cc:Work>
  </rdf:RDF>
 </metadata>
 <defs>
  <style type="text/css">*{stroke-linejoin: round; stroke-linecap: butt}</style>
 </defs>
 <g id="figure_1">
  <g id="patch_1">
   <path d="M 0 360 
L 864 360 
L 864 0 
L 0 0 
L 0 360 
z
" style="fill: none; opacity: 0"/>
  </g>
  <g id="axes_1">
   <g id="patch_2">
    <path d="M 108 320.4 
L 777.6 320.4 
L 777.6 43.2 
L 108 43.2 
L 108 320.4 
z
" style="fill: none; opacity: 0"/>
   </g>
   <g id="matplotlib.axis_1">
    <g id="xtick_1">
     <g id="line2d_1">
      <path d="M 113.524038 320.4 
L 113.524038 43.2 
" clip-path="url(#pf191f7dff7)" style="fill: none; stroke-dasharray: 5.12,1.28,0.8,1.28; stroke-dashoffset: 0; stroke: #b0b0b0; stroke-width: 0.8"/>
     </g>
     <g id="line2d_2">
      <defs>
       <path id="mdc86023f79" d="M 0 0 
L 0 3.5 
" style="stroke: #a9a9a9; stroke-width: 0.8"/>
      </defs>
      <g>
       <use xlink:href="#mdc86023f79" x="113.524038" y="320.4" style="fill: #a9a9a9; stroke: #a9a9a9; stroke-width: 0.8"/>
      </g>
     </g>
     <g id="text_1">
      <!-- 2021-07 -->
      <g style="fill: #a9a9a9" transform="translate(92.632631 334.998438) scale(0.1 -0.1)">
       <defs>
        <path id="DejaVuSans-32" d="M 1228 531 
L 3431 531 
L 3431 0 
L 469 0 
L 469 531 
Q 828 903 1448 1529 
Q 2069 2156 2228 2338 
Q 2531 2678 2651 2914 
Q 2772 3150 2772 3378 
Q 2772 3750 2511 3984 
Q 2250 4219 1831 4219 
Q 1534 4219 1204 4116 
Q 875 4013 500 3803 
L 500 4441 
Q 881 4594 1212 4672 
Q 1544 4750 1819 4750 
Q 2544 4750 2975 4387 
Q 3406 4025 3406 3419 
Q 3406 3131 3298 2873 
Q 3191 2616 2906 2266 
Q 2828 2175 2409 1742 
Q 1991 1309 1228 531 
z
" transform="scale(0.015625)"/>
        <path id="DejaVuSans-30" d="M 2034 4250 
Q 1547 4250 1301 3770 
Q 1056 3291 1056 2328 
Q 1056 1369 1301 889 
Q 1547 409 2034 409 
Q 2525 409 2770 889 
Q 3016 1369 3016 2328 
Q 3016 3291 2770 3770 
Q 2525 4250 2034 4250 
z
M 2034 4750 
Q 2819 4750 3233 4129 
Q 3647 3509 3647 2328 
Q 3647 1150 3233 529 
Q 2819 -91 2034 -91 
Q 1250 -91 836 529 
Q 422 1150 422 2328 
Q 422 3509 836 4129 
Q 1250 4750 2034 4750 
z
" transform="scale(0.015625)"/>
        <path id="DejaVuSans-31" d="M 794 531 
L 1825 531 
L 1825 4091 
L 703 3866 
L 703 4441 
L 1819 4666 
L 2450 4666 
L 2450 531 
L 3481 531 
L 3481 0 
L 794 0 
L 794 531 
z
" transform="scale(0.015625)"/>
        <path id="DejaVuSans-2d" d="M 313 2009 
L 1997 2009 
L 1997 1497 
L 313 1497 
L 313 2009 
z
" transform="scale(0.015625)"/>
        <path id="DejaVuSans-37" d="M 525 4666 
L 3525 4666 
L 3525 4397 
L 1831 0 
L 1172 0 
L 2766 4134 
L 525 4134 
L 525 4666 
z
" transform="scale(0.015625)"/>
       </defs>
       <use xlink:href="#DejaVuSans-32"/>
       <use xlink:href="#DejaVuSans-30" x="63.623047"/>
       <use xlink:href="#DejaVuSans-32" x="127.246094"/>
       <use xlink:href="#DejaVuSans-31" x="190.869141"/>
       <use xlink:href="#DejaVuSans-2d" x="254.492188"/>
       <use xlink:href="#DejaVuSans-30" x="290.576172"/>
       <use xlink:href="#DejaVuSans-37" x="354.199219"/>
      </g>
     </g>
    </g>
    <g id="xtick_2">
     <g id="line2d_3">
      <path d="M 180.679004 320.4 
L 180.679004 43.2 
" clip-path="url(#pf191f7dff7)" style="fill: none; stroke-dasharray: 5.12,1.28,0.8,1.28; stroke-dashoffset: 0; stroke: #b0b0b0; stroke-width: 0.8"/>
     </g>
     <g id="line2d_4">
      <g>
       <use xlink:href="#mdc86023f79" x="180.679004" y="320.4" style="fill: #a9a9a9; stroke: #a9a9a9; stroke-width: 0.8"/>
      </g>
     </g>
     <g id="text_2">
      <!-- 2021-09 -->
      <g style="fill: #a9a9a9" transform="translate(159.787597 334.998438) scale(0.1 -0.1)">
       <defs>
        <path id="DejaVuSans-39" d="M 703 97 
L 703 672 
Q 941 559 1184 500 
Q 1428 441 1663 441 
Q 2288 441 2617 861 
Q 2947 1281 2994 2138 
Q 2813 1869 2534 1725 
Q 2256 1581 1919 1581 
Q 1219 1581 811 2004 
Q 403 2428 403 3163 
Q 403 3881 828 4315 
Q 1253 4750 1959 4750 
Q 2769 4750 3195 4129 
Q 3622 3509 3622 2328 
Q 3622 1225 3098 567 
Q 2575 -91 1691 -91 
Q 1453 -91 1209 -44 
Q 966 3 703 97 
z
M 1959 2075 
Q 2384 2075 2632 2365 
Q 2881 2656 2881 3163 
Q 2881 3666 2632 3958 
Q 2384 4250 1959 4250 
Q 1534 4250 1286 3958 
Q 1038 3666 1038 3163 
Q 1038 2656 1286 2365 
Q 1534 2075 1959 2075 
z
" transform="scale(0.015625)"/>
       </defs>
       <use xlink:href="#DejaVuSans-32"/>
       <use xlink:href="#DejaVuSans-30" x="63.623047"/>
       <use xlink:href="#DejaVuSans-32" x="127.246094"/>
       <use xlink:href="#DejaVuSans-31" x="190.869141"/>
       <use xlink:href="#DejaVuSans-2d" x="254.492188"/>
       <use xlink:href="#DejaVuSans-30" x="290.576172"/>
       <use xlink:href="#DejaVuSans-39" x="354.199219"/>
      </g>
     </g>
    </g>
    <g id="xtick_3">
     <g id="line2d_5">
      <path d="M 246.750825 320.4 
L 246.750825 43.2 
" clip-path="url(#pf191f7dff7)" style="fill: none; stroke-dasharray: 5.12,1.28,0.8,1.28; stroke-dashoffset: 0; stroke: #b0b0b0; stroke-width: 0.8"/>
     </g>
     <g id="line2d_6">
      <g>
       <use xlink:href="#mdc86023f79" x="246.750825" y="320.4" style="fill: #a9a9a9; stroke: #a9a9a9; stroke-width: 0.8"/>
      </g>
     </g>
     <g id="text_3">
      <!-- 2021-11 -->
      <g style="fill: #a9a9a9" transform="translate(225.859419 334.998438) scale(0.1 -0.1)">
       <use xlink:href="#DejaVuSans-32"/>
       <use xlink:href="#DejaVuSans-30" x="63.623047"/>
       <use xlink:href="#DejaVuSans-32" x="127.246094"/>
       <use xlink:href="#DejaVuSans-31" x="190.869141"/>
       <use xlink:href="#DejaVuSans-2d" x="254.492188"/>
       <use xlink:href="#DejaVuSans-31" x="290.576172"/>
       <use xlink:href="#DejaVuSans-31" x="354.199219"/>
      </g>
     </g>
    </g>
    <g id="xtick_4">
     <g id="line2d_7">
      <path d="M 312.822646 320.4 
L 312.822646 43.2 
" clip-path="url(#pf191f7dff7)" style="fill: none; stroke-dasharray: 5.12,1.28,0.8,1.28; stroke-dashoffset: 0; stroke: #b0b0b0; stroke-width: 0.8"/>
     </g>
     <g id="line2d_8">
      <g>
       <use xlink:href="#mdc86023f79" x="312.822646" y="320.4" style="fill: #a9a9a9; stroke: #a9a9a9; stroke-width: 0.8"/>
      </g>
     </g>
     <g id="text_4">
      <!-- 2022-01 -->
      <g style="fill: #a9a9a9" transform="translate(291.93124 334.998438) scale(0.1 -0.1)">
       <use xlink:href="#DejaVuSans-32"/>
       <use xlink:href="#DejaVuSans-30" x="63.623047"/>
       <use xlink:href="#DejaVuSans-32" x="127.246094"/>
       <use xlink:href="#DejaVuSans-32" x="190.869141"/>
       <use xlink:href="#DejaVuSans-2d" x="254.492188"/>
       <use xlink:href="#DejaVuSans-30" x="290.576172"/>
       <use xlink:href="#DejaVuSans-31" x="354.199219"/>
      </g>
     </g>
    </g>
    <g id="xtick_5">
     <g id="line2d_9">
      <path d="M 376.728179 320.4 
L 376.728179 43.2 
" clip-path="url(#pf191f7dff7)" style="fill: none; stroke-dasharray: 5.12,1.28,0.8,1.28; stroke-dashoffset: 0; stroke: #b0b0b0; stroke-width: 0.8"/>
     </g>
     <g id="line2d_10">
      <g>
       <use xlink:href="#mdc86023f79" x="376.728179" y="320.4" style="fill: #a9a9a9; stroke: #a9a9a9; stroke-width: 0.8"/>
      </g>
     </g>
     <g id="text_5">
      <!-- 2022-03 -->
      <g style="fill: #a9a9a9" transform="translate(355.836772 334.998438) scale(0.1 -0.1)">
       <defs>
        <path id="DejaVuSans-33" d="M 2597 2516 
Q 3050 2419 3304 2112 
Q 3559 1806 3559 1356 
Q 3559 666 3084 287 
Q 2609 -91 1734 -91 
Q 1441 -91 1130 -33 
Q 819 25 488 141 
L 488 750 
Q 750 597 1062 519 
Q 1375 441 1716 441 
Q 2309 441 2620 675 
Q 2931 909 2931 1356 
Q 2931 1769 2642 2001 
Q 2353 2234 1838 2234 
L 1294 2234 
L 1294 2753 
L 1863 2753 
Q 2328 2753 2575 2939 
Q 2822 3125 2822 3475 
Q 2822 3834 2567 4026 
Q 2313 4219 1838 4219 
Q 1578 4219 1281 4162 
Q 984 4106 628 3988 
L 628 4550 
Q 988 4650 1302 4700 
Q 1616 4750 1894 4750 
Q 2613 4750 3031 4423 
Q 3450 4097 3450 3541 
Q 3450 3153 3228 2886 
Q 3006 2619 2597 2516 
z
" transform="scale(0.015625)"/>
       </defs>
       <use xlink:href="#DejaVuSans-32"/>
       <use xlink:href="#DejaVuSans-30" x="63.623047"/>
       <use xlink:href="#DejaVuSans-32" x="127.246094"/>
       <use xlink:href="#DejaVuSans-32" x="190.869141"/>
       <use xlink:href="#DejaVuSans-2d" x="254.492188"/>
       <use xlink:href="#DejaVuSans-30" x="290.576172"/>
       <use xlink:href="#DejaVuSans-33" x="354.199219"/>
      </g>
     </g>
    </g>
    <g id="xtick_6">
     <g id="line2d_11">
      <path d="M 442.8 320.4 
L 442.8 43.2 
" clip-path="url(#pf191f7dff7)" style="fill: none; stroke-dasharray: 5.12,1.28,0.8,1.28; stroke-dashoffset: 0; stroke: #b0b0b0; stroke-width: 0.8"/>
     </g>
     <g id="line2d_12">
      <g>
       <use xlink:href="#mdc86023f79" x="442.8" y="320.4" style="fill: #a9a9a9; stroke: #a9a9a9; stroke-width: 0.8"/>
      </g>
     </g>
     <g id="text_6">
      <!-- 2022-05 -->
      <g style="fill: #a9a9a9" transform="translate(421.908594 334.998438) scale(0.1 -0.1)">
       <defs>
        <path id="DejaVuSans-35" d="M 691 4666 
L 3169 4666 
L 3169 4134 
L 1269 4134 
L 1269 2991 
Q 1406 3038 1543 3061 
Q 1681 3084 1819 3084 
Q 2600 3084 3056 2656 
Q 3513 2228 3513 1497 
Q 3513 744 3044 326 
Q 2575 -91 1722 -91 
Q 1428 -91 1123 -41 
Q 819 9 494 109 
L 494 744 
Q 775 591 1075 516 
Q 1375 441 1709 441 
Q 2250 441 2565 725 
Q 2881 1009 2881 1497 
Q 2881 1984 2565 2268 
Q 2250 2553 1709 2553 
Q 1456 2553 1204 2497 
Q 953 2441 691 2322 
L 691 4666 
z
" transform="scale(0.015625)"/>
       </defs>
       <use xlink:href="#DejaVuSans-32"/>
       <use xlink:href="#DejaVuSans-30" x="63.623047"/>
       <use xlink:href="#DejaVuSans-32" x="127.246094"/>
       <use xlink:href="#DejaVuSans-32" x="190.869141"/>
       <use xlink:href="#DejaVuSans-2d" x="254.492188"/>
       <use xlink:href="#DejaVuSans-30" x="290.576172"/>
       <use xlink:href="#DejaVuSans-35" x="354.199219"/>
      </g>
     </g>
    </g>
    <g id="xtick_7">
     <g id="line2d_13">
      <path d="M 508.871821 320.4 
L 508.871821 43.2 
" clip-path="url(#pf191f7dff7)" style="fill: none; stroke-dasharray: 5.12,1.28,0.8,1.28; stroke-dashoffset: 0; stroke: #b0b0b0; stroke-width: 0.8"/>
     </g>
     <g id="line2d_14">
      <g>
       <use xlink:href="#mdc86023f79" x="508.871821" y="320.4" style="fill: #a9a9a9; stroke: #a9a9a9; stroke-width: 0.8"/>
      </g>
     </g>
     <g id="text_7">
      <!-- 2022-07 -->
      <g style="fill: #a9a9a9" transform="translate(487.980415 334.998438) scale(0.1 -0.1)">
       <use xlink:href="#DejaVuSans-32"/>
       <use xlink:href="#DejaVuSans-30" x="63.623047"/>
       <use xlink:href="#DejaVuSans-32" x="127.246094"/>
       <use xlink:href="#DejaVuSans-32" x="190.869141"/>
       <use xlink:href="#DejaVuSans-2d" x="254.492188"/>
       <use xlink:href="#DejaVuSans-30" x="290.576172"/>
       <use xlink:href="#DejaVuSans-37" x="354.199219"/>
      </g>
     </g>
    </g>
    <g id="xtick_8">
     <g id="line2d_15">
      <path d="M 576.026787 320.4 
L 576.026787 43.2 
" clip-path="url(#pf191f7dff7)" style="fill: none; stroke-dasharray: 5.12,1.28,0.8,1.28; stroke-dashoffset: 0; stroke: #b0b0b0; stroke-width: 0.8"/>
     </g>
     <g id="line2d_16">
      <g>
       <use xlink:href="#mdc86023f79" x="576.026787" y="320.4" style="fill: #a9a9a9; stroke: #a9a9a9; stroke-width: 0.8"/>
      </g>
     </g>
     <g id="text_8">
      <!-- 2022-09 -->
      <g style="fill: #a9a9a9" transform="translate(555.135381 334.998438) scale(0.1 -0.1)">
       <use xlink:href="#DejaVuSans-32"/>
       <use xlink:href="#DejaVuSans-30" x="63.623047"/>
       <use xlink:href="#DejaVuSans-32" x="127.246094"/>
       <use xlink:href="#DejaVuSans-32" x="190.869141"/>
       <use xlink:href="#DejaVuSans-2d" x="254.492188"/>
       <use xlink:href="#DejaVuSans-30" x="290.576172"/>
       <use xlink:href="#DejaVuSans-39" x="354.199219"/>
      </g>
     </g>
    </g>
    <g id="xtick_9">
     <g id="line2d_17">
      <path d="M 642.098609 320.4 
L 642.098609 43.2 
" clip-path="url(#pf191f7dff7)" style="fill: none; stroke-dasharray: 5.12,1.28,0.8,1.28; stroke-dashoffset: 0; stroke: #b0b0b0; stroke-width: 0.8"/>
     </g>
     <g id="line2d_18">
      <g>
       <use xlink:href="#mdc86023f79" x="642.098609" y="320.4" style="fill: #a9a9a9; stroke: #a9a9a9; stroke-width: 0.8"/>
      </g>
     </g>
     <g id="text_9">
      <!-- 2022-11 -->
      <g style="fill: #a9a9a9" transform="translate(621.207203 334.998438) scale(0.1 -0.1)">
       <use xlink:href="#DejaVuSans-32"/>
       <use xlink:href="#DejaVuSans-30" x="63.623047"/>
       <use xlink:href="#DejaVuSans-32" x="127.246094"/>
       <use xlink:href="#DejaVuSans-32" x="190.869141"/>
       <use xlink:href="#DejaVuSans-2d" x="254.492188"/>
       <use xlink:href="#DejaVuSans-31" x="290.576172"/>
       <use xlink:href="#DejaVuSans-31" x="354.199219"/>
      </g>
     </g>
    </g>
    <g id="xtick_10">
     <g id="line2d_19">
      <path d="M 708.17043 320.4 
L 708.17043 43.2 
" clip-path="url(#pf191f7dff7)" style="fill: none; stroke-dasharray: 5.12,1.28,0.8,1.28; stroke-dashoffset: 0; stroke: #b0b0b0; stroke-width: 0.8"/>
     </g>
     <g id="line2d_20">
      <g>
       <use xlink:href="#mdc86023f79" x="708.17043" y="320.4" style="fill: #a9a9a9; stroke: #a9a9a9; stroke-width: 0.8"/>
      </g>
     </g>
     <g id="text_10">
      <!-- 2023-01 -->
      <g style="fill: #a9a9a9" transform="translate(687.279024 334.998438) scale(0.1 -0.1)">
       <use xlink:href="#DejaVuSans-32"/>
       <use xlink:href="#DejaVuSans-30" x="63.623047"/>
       <use xlink:href="#DejaVuSans-32" x="127.246094"/>
       <use xlink:href="#DejaVuSans-33" x="190.869141"/>
       <use xlink:href="#DejaVuSans-2d" x="254.492188"/>
       <use xlink:href="#DejaVuSans-30" x="290.576172"/>
       <use xlink:href="#DejaVuSans-31" x="354.199219"/>
      </g>
     </g>
    </g>
    <g id="xtick_11">
     <g id="line2d_21">
      <path d="M 772.075962 320.4 
L 772.075962 43.2 
" clip-path="url(#pf191f7dff7)" style="fill: none; stroke-dasharray: 5.12,1.28,0.8,1.28; stroke-dashoffset: 0; stroke: #b0b0b0; stroke-width: 0.8"/>
     </g>
     <g id="line2d_22">
      <g>
       <use xlink:href="#mdc86023f79" x="772.075962" y="320.4" style="fill: #a9a9a9; stroke: #a9a9a9; stroke-width: 0.8"/>
      </g>
     </g>
     <g id="text_11">
      <!-- 2023-03 -->
      <g style="fill: #a9a9a9" transform="translate(751.184556 334.998438) scale(0.1 -0.1)">
       <use xlink:href="#DejaVuSans-32"/>
       <use xlink:href="#DejaVuSans-30" x="63.623047"/>
       <use xlink:href="#DejaVuSans-32" x="127.246094"/>
       <use xlink:href="#DejaVuSans-33" x="190.869141"/>
       <use xlink:href="#DejaVuSans-2d" x="254.492188"/>
       <use xlink:href="#DejaVuSans-30" x="290.576172"/>
       <use xlink:href="#DejaVuSans-33" x="354.199219"/>
      </g>
     </g>
    </g>
   </g>
   <g id="matplotlib.axis_2">
    <g id="ytick_1">
     <g id="line2d_23">
      <path d="M 108 307.866702 
L 777.6 307.866702 
" clip-path="url(#pf191f7dff7)" style="fill: none; stroke-dasharray: 5.12,1.28,0.8,1.28; stroke-dashoffset: 0; stroke: #b0b0b0; stroke-width: 0.8"/>
     </g>
     <g id="line2d_24">
      <defs>
       <path id="mc5643009ba" d="M 0 0 
L -3.5 0 
" style="stroke: #a9a9a9; stroke-width: 0.8"/>
      </defs>
      <g>
       <use xlink:href="#mc5643009ba" x="108" y="307.866702" style="fill: #a9a9a9; stroke: #a9a9a9; stroke-width: 0.8"/>
      </g>
     </g>
     <g id="text_12">
      <!-- 0 -->
      <g style="fill: #a9a9a9" transform="translate(94.6375 311.665921) scale(0.1 -0.1)">
       <use xlink:href="#DejaVuSans-30"/>
      </g>
     </g>
    </g>
    <g id="ytick_2">
     <g id="line2d_25">
      <path d="M 108 274.515723 
L 777.6 274.515723 
" clip-path="url(#pf191f7dff7)" style="fill: none; stroke-dasharray: 5.12,1.28,0.8,1.28; stroke-dashoffset: 0; stroke: #b0b0b0; stroke-width: 0.8"/>
     </g>
     <g id="line2d_26">
      <g>
       <use xlink:href="#mc5643009ba" x="108" y="274.515723" style="fill: #a9a9a9; stroke: #a9a9a9; stroke-width: 0.8"/>
      </g>
     </g>
     <g id="text_13">
      <!-- 500 -->
      <g style="fill: #a9a9a9" transform="translate(81.9125 278.314941) scale(0.1 -0.1)">
       <use xlink:href="#DejaVuSans-35"/>
       <use xlink:href="#DejaVuSans-30" x="63.623047"/>
       <use xlink:href="#DejaVuSans-30" x="127.246094"/>
      </g>
     </g>
    </g>
    <g id="ytick_3">
     <g id="line2d_27">
      <path d="M 108 241.164743 
L 777.6 241.164743 
" clip-path="url(#pf191f7dff7)" style="fill: none; stroke-dasharray: 5.12,1.28,0.8,1.28; stroke-dashoffset: 0; stroke: #b0b0b0; stroke-width: 0.8"/>
     </g>
     <g id="line2d_28">
      <g>
       <use xlink:href="#mc5643009ba" x="108" y="241.164743" style="fill: #a9a9a9; stroke: #a9a9a9; stroke-width: 0.8"/>
      </g>
     </g>
     <g id="text_14">
      <!-- 1000 -->
      <g style="fill: #a9a9a9" transform="translate(75.55 244.963962) scale(0.1 -0.1)">
       <use xlink:href="#DejaVuSans-31"/>
       <use xlink:href="#DejaVuSans-30" x="63.623047"/>
       <use xlink:href="#DejaVuSans-30" x="127.246094"/>
       <use xlink:href="#DejaVuSans-30" x="190.869141"/>
      </g>
     </g>
    </g>
    <g id="ytick_4">
     <g id="line2d_29">
      <path d="M 108 207.813764 
L 777.6 207.813764 
" clip-path="url(#pf191f7dff7)" style="fill: none; stroke-dasharray: 5.12,1.28,0.8,1.28; stroke-dashoffset: 0; stroke: #b0b0b0; stroke-width: 0.8"/>
     </g>
     <g id="line2d_30">
      <g>
       <use xlink:href="#mc5643009ba" x="108" y="207.813764" style="fill: #a9a9a9; stroke: #a9a9a9; stroke-width: 0.8"/>
      </g>
     </g>
     <g id="text_15">
      <!-- 1500 -->
      <g style="fill: #a9a9a9" transform="translate(75.55 211.612983) scale(0.1 -0.1)">
       <use xlink:href="#DejaVuSans-31"/>
       <use xlink:href="#DejaVuSans-35" x="63.623047"/>
       <use xlink:href="#DejaVuSans-30" x="127.246094"/>
       <use xlink:href="#DejaVuSans-30" x="190.869141"/>
      </g>
     </g>
    </g>
    <g id="ytick_5">
     <g id="line2d_31">
      <path d="M 108 174.462785 
L 777.6 174.462785 
" clip-path="url(#pf191f7dff7)" style="fill: none; stroke-dasharray: 5.12,1.28,0.8,1.28; stroke-dashoffset: 0; stroke: #b0b0b0; stroke-width: 0.8"/>
     </g>
     <g id="line2d_32">
      <g>
       <use xlink:href="#mc5643009ba" x="108" y="174.462785" style="fill: #a9a9a9; stroke: #a9a9a9; stroke-width: 0.8"/>
      </g>
     </g>
     <g id="text_16">
      <!-- 2000 -->
      <g style="fill: #a9a9a9" transform="translate(75.55 178.262003) scale(0.1 -0.1)">
       <use xlink:href="#DejaVuSans-32"/>
       <use xlink:href="#DejaVuSans-30" x="63.623047"/>
       <use xlink:href="#DejaVuSans-30" x="127.246094"/>
       <use xlink:href="#DejaVuSans-30" x="190.869141"/>
      </g>
     </g>
    </g>
    <g id="ytick_6">
     <g id="line2d_33">
      <path d="M 108 141.111805 
L 777.6 141.111805 
" clip-path="url(#pf191f7dff7)" style="fill: none; stroke-dasharray: 5.12,1.28,0.8,1.28; stroke-dashoffset: 0; stroke: #b0b0b0; stroke-width: 0.8"/>
     </g>
     <g id="line2d_34">
      <g>
       <use xlink:href="#mc5643009ba" x="108" y="141.111805" style="fill: #a9a9a9; stroke: #a9a9a9; stroke-width: 0.8"/>
      </g>
     </g>
     <g id="text_17">
      <!-- 2500 -->
      <g style="fill: #a9a9a9" transform="translate(75.55 144.911024) scale(0.1 -0.1)">
       <use xlink:href="#DejaVuSans-32"/>
       <use xlink:href="#DejaVuSans-35" x="63.623047"/>
       <use xlink:href="#DejaVuSans-30" x="127.246094"/>
       <use xlink:href="#DejaVuSans-30" x="190.869141"/>
      </g>
     </g>
    </g>
    <g id="ytick_7">
     <g id="line2d_35">
      <path d="M 108 107.760826 
L 777.6 107.760826 
" clip-path="url(#pf191f7dff7)" style="fill: none; stroke-dasharray: 5.12,1.28,0.8,1.28; stroke-dashoffset: 0; stroke: #b0b0b0; stroke-width: 0.8"/>
     </g>
     <g id="line2d_36">
      <g>
       <use xlink:href="#mc5643009ba" x="108" y="107.760826" style="fill: #a9a9a9; stroke: #a9a9a9; stroke-width: 0.8"/>
      </g>
     </g>
     <g id="text_18">
      <!-- 3000 -->
      <g style="fill: #a9a9a9" transform="translate(75.55 111.560045) scale(0.1 -0.1)">
       <use xlink:href="#DejaVuSans-33"/>
       <use xlink:href="#DejaVuSans-30" x="63.623047"/>
       <use xlink:href="#DejaVuSans-30" x="127.246094"/>
       <use xlink:href="#DejaVuSans-30" x="190.869141"/>
      </g>
     </g>
    </g>
    <g id="ytick_8">
     <g id="line2d_37">
      <path d="M 108 74.409846 
L 777.6 74.409846 
" clip-path="url(#pf191f7dff7)" style="fill: none; stroke-dasharray: 5.12,1.28,0.8,1.28; stroke-dashoffset: 0; stroke: #b0b0b0; stroke-width: 0.8"/>
     </g>
     <g id="line2d_38">
      <g>
       <use xlink:href="#mc5643009ba" x="108" y="74.409846" style="fill: #a9a9a9; stroke: #a9a9a9; stroke-width: 0.8"/>
      </g>
     </g>
     <g id="text_19">
      <!-- 3500 -->
      <g style="fill: #a9a9a9" transform="translate(75.55 78.209065) scale(0.1 -0.1)">
       <use xlink:href="#DejaVuSans-33"/>
       <use xlink:href="#DejaVuSans-35" x="63.623047"/>
       <use xlink:href="#DejaVuSans-30" x="127.246094"/>
       <use xlink:href="#DejaVuSans-30" x="190.869141"/>
      </g>
     </g>
    </g>
   </g>
   <g id="line2d_39">
    <path d="M 138.436364 307.599894 
L 142.768942 307.266384 
L 143.852087 307.13298 
L 144.935231 307.13298 
L 146.018376 306.732769 
L 148.184665 306.599365 
L 155.766677 305.198624 
L 157.932967 305.06522 
L 159.016111 304.865114 
L 162.265545 304.665008 
L 163.34869 304.131392 
L 164.431834 303.864584 
L 165.514979 302.663949 
L 166.598124 301.99693 
L 167.681268 299.729063 
L 168.764413 299.595659 
L 169.847557 298.861938 
L 170.930702 298.461726 
L 172.013847 297.92811 
L 175.26328 295.460138 
L 176.346425 294.926522 
L 178.512714 294.126098 
L 179.595859 293.392377 
L 180.679004 292.992165 
L 181.762148 292.458549 
L 182.845293 291.79153 
L 183.928437 291.45802 
L 185.011582 289.857173 
L 186.094727 289.05675 
L 187.177871 288.456432 
L 188.261016 287.989518 
L 192.593594 287.389201 
L 195.843028 286.855585 
L 198.009317 286.722181 
L 199.092462 286.522075 
L 200.175607 285.98846 
L 204.508185 285.65495 
L 207.757619 285.32144 
L 208.840764 284.98793 
L 214.256487 283.987401 
L 216.422776 283.787295 
L 217.50592 283.520487 
L 220.755354 283.120275 
L 221.838499 282.58666 
L 222.921643 282.453256 
L 225.087933 281.719534 
L 227.254222 281.519428 
L 228.337367 281.185918 
L 232.669945 280.585601 
L 233.75309 280.252091 
L 235.919379 279.918581 
L 237.002523 279.918581 
L 242.418247 279.251562 
L 244.584536 278.651244 
L 245.66768 278.384436 
L 247.83397 278.18433 
L 248.917114 278.117628 
L 252.166548 277.517311 
L 253.249693 277.117099 
L 254.332837 275.78306 
L 255.415982 275.382848 
L 256.499126 274.849232 
L 257.582271 274.715828 
L 258.665416 274.449021 
L 259.74856 274.315617 
L 261.91485 273.448491 
L 262.997994 273.381789 
L 268.413717 272.04775 
L 269.496862 272.04775 
L 271.663151 271.780942 
L 273.82944 271.180625 
L 277.078874 270.380201 
L 278.162019 270.313499 
L 280.328308 269.446374 
L 281.411453 269.31297 
L 282.494597 268.846056 
L 284.660886 268.64595 
L 285.744031 268.579248 
L 288.993465 268.045633 
L 291.159754 267.712123 
L 294.409188 267.111805 
L 295.492333 266.778295 
L 296.575477 266.644891 
L 298.741766 265.91117 
L 299.824911 265.310852 
L 300.908056 265.044044 
L 301.9912 264.910641 
L 304.157489 264.243621 
L 306.323779 263.109688 
L 307.406923 262.442668 
L 308.490068 262.309264 
L 309.573213 261.975754 
L 310.656357 261.84235 
L 311.739502 261.575543 
L 312.822646 261.442139 
L 313.905791 260.975225 
L 316.07208 260.641715 
L 317.155225 260.1081 
L 318.238369 259.707888 
L 319.321514 259.44108 
L 320.404659 259.307676 
L 321.487803 258.907464 
L 325.820382 258.107041 
L 327.986671 257.239915 
L 329.069816 257.039809 
L 330.15296 256.639598 
L 331.236105 256.506194 
L 332.319249 256.03928 
L 333.402394 255.772472 
L 335.568683 255.639068 
L 337.734973 254.972049 
L 338.818117 254.838645 
L 339.901262 254.838645 
L 340.984406 254.371731 
L 343.150696 254.038221 
L 344.23384 253.63801 
L 346.400129 253.571308 
L 347.483274 253.437904 
L 348.566419 253.437904 
L 350.732708 253.104394 
L 352.898997 252.103864 
L 355.065286 251.170037 
L 356.148431 250.903229 
L 357.231576 250.23621 
L 358.31472 249.9027 
L 360.481009 248.968872 
L 361.564154 248.768767 
L 363.730443 248.035045 
L 364.813588 247.368025 
L 365.896732 246.83441 
L 366.979877 245.767178 
L 368.063022 244.099629 
L 369.146166 242.832292 
L 370.229311 242.498782 
L 371.312456 242.498782 
L 372.3956 241.831763 
L 373.478745 241.031339 
L 374.561889 240.764531 
L 375.645034 240.230916 
L 376.728179 240.03081 
L 377.811323 239.096983 
L 378.894468 238.830175 
L 382.143902 237.429434 
L 383.227046 236.228798 
L 384.310191 234.694653 
L 385.393335 234.094336 
L 386.47648 232.426787 
L 387.559625 231.426257 
L 388.642769 230.959344 
L 389.725914 230.692536 
L 390.809059 230.025516 
L 392.975348 229.024987 
L 397.307926 226.090101 
L 398.391071 224.689359 
L 399.474215 222.354791 
L 400.55736 220.887348 
L 401.640505 220.086924 
L 402.723649 219.620011 
L 407.056228 216.218211 
L 409.222517 214.617364 
L 410.305662 213.750238 
L 411.388806 212.349497 
L 412.471951 211.41567 
L 418.970819 207.01334 
L 420.053963 206.746533 
L 421.137108 206.279619 
L 422.220252 205.679301 
L 423.303397 205.212388 
L 425.469686 204.078454 
L 426.552831 203.678242 
L 428.71912 201.87729 
L 429.802265 200.609952 
L 431.968554 199.275913 
L 433.051698 199.009105 
L 434.134843 198.47549 
L 435.217988 197.741768 
L 437.384277 196.674537 
L 438.467422 196.474431 
L 439.550566 195.807411 
L 441.716855 194.74018 
L 442.8 193.739651 
L 443.883145 193.005929 
L 444.966289 192.672419 
L 446.049434 192.0054 
L 447.132578 191.538486 
L 448.215723 190.871466 
L 449.298868 190.471255 
L 450.382012 189.804235 
L 451.465157 188.93711 
L 453.631446 188.203388 
L 454.714591 187.736474 
L 455.797735 187.536368 
L 456.88088 186.869349 
L 457.964025 186.669243 
L 460.130314 185.935521 
L 461.213458 185.602012 
L 463.379748 184.734886 
L 464.462892 184.334674 
L 465.546037 184.067867 
L 466.629181 183.667655 
L 468.795471 183.334145 
L 470.96176 181.599894 
L 472.044905 181.199682 
L 474.211194 180.065749 
L 476.377483 178.931816 
L 478.543772 178.331498 
L 479.626917 177.531075 
L 480.710061 177.264267 
L 482.876351 175.930228 
L 483.959495 175.396612 
L 487.208929 174.729592 
L 489.375218 174.129275 
L 492.624652 172.395024 
L 493.707797 172.26162 
L 494.790941 171.861408 
L 495.874086 171.728004 
L 496.957231 171.327792 
L 498.040375 170.660773 
L 500.206665 169.19333 
L 501.289809 168.993224 
L 502.372954 168.593012 
L 503.456098 168.459608 
L 504.539243 168.126098 
L 505.622388 167.392377 
L 506.705532 167.058867 
L 507.788677 166.591953 
L 512.121255 165.45802 
L 513.2044 165.391318 
L 514.287544 165.057808 
L 516.453834 164.190683 
L 517.536978 163.857173 
L 518.620123 163.657067 
L 519.703268 163.190154 
L 520.786412 162.856644 
L 521.869557 162.38973 
L 524.035846 161.789412 
L 525.118991 161.72271 
L 527.28528 161.255797 
L 528.368424 160.788883 
L 529.451569 160.588777 
L 531.617858 159.721652 
L 534.867292 158.320911 
L 537.033581 156.986871 
L 538.116726 156.720064 
L 539.199871 156.119746 
L 540.283015 155.719534 
L 541.36616 155.119217 
L 543.532449 154.652303 
L 544.615594 154.051985 
L 545.698738 153.585071 
L 546.781883 153.251562 
L 548.948172 152.918052 
L 550.031317 152.18433 
L 551.114461 151.650715 
L 552.197606 151.450609 
L 554.363895 150.583483 
L 555.44704 150.383377 
L 556.530184 149.849762 
L 560.862763 149.249444 
L 563.029052 148.315617 
L 564.112197 147.515193 
L 565.195341 145.71424 
L 566.278486 145.447433 
L 567.361631 145.314029 
L 568.444775 145.047221 
L 570.611064 143.913287 
L 571.694209 143.513076 
L 572.777354 142.97946 
L 573.860498 142.712652 
L 576.026787 141.712123 
L 578.193077 140.711593 
L 580.359366 139.844468 
L 581.442511 139.177448 
L 582.525655 138.777237 
L 583.6088 138.510429 
L 584.691944 138.377025 
L 585.775089 138.110217 
L 587.941378 137.109688 
L 589.024523 136.642774 
L 590.107667 136.442668 
L 593.357101 135.242033 
L 595.52339 133.974696 
L 596.606535 133.307676 
L 597.68968 132.77406 
L 598.772824 132.573954 
L 599.855969 132.240445 
L 600.939114 132.173743 
L 605.271692 130.839704 
L 606.354837 130.773002 
L 607.437981 130.03928 
L 608.521126 129.772472 
L 609.60427 129.305558 
L 612.853704 128.371731 
L 613.936849 127.771413 
L 615.019994 127.437904 
L 616.103138 126.770884 
L 617.186283 126.30397 
L 618.269427 125.703653 
L 623.68515 123.702594 
L 624.768295 123.102276 
L 625.85144 122.368555 
L 626.934584 121.234621 
L 628.017729 120.567602 
L 629.100874 120.367496 
L 631.267163 118.833351 
L 632.350307 118.499841 
L 633.433452 117.032398 
L 634.516597 116.632186 
L 635.599741 115.898465 
L 636.682886 115.765061 
L 637.76603 115.098041 
L 638.849175 114.631128 
L 639.93232 114.431022 
L 641.015464 114.03081 
L 642.098609 113.230386 
L 643.181753 112.896877 
L 646.431187 110.829116 
L 647.514332 110.362202 
L 649.680621 109.228269 
L 650.763766 108.761355 
L 651.84691 108.627951 
L 652.930055 108.22774 
L 655.096344 107.093806 
L 656.179489 105.492959 
L 657.262633 104.49243 
L 658.345778 103.892112 
L 659.428923 103.625304 
L 661.595212 102.424669 
L 662.678357 102.224563 
L 663.761501 101.690948 
L 667.010935 100.490312 
L 668.09408 99.956697 
L 670.260369 98.555956 
L 672.426658 96.421493 
L 673.509803 95.621069 
L 675.676092 94.353732 
L 676.759236 93.353203 
L 680.00867 90.951932 
L 681.091815 90.418317 
L 682.17496 89.284383 
L 683.258104 88.550662 
L 685.424393 87.81694 
L 686.507538 86.883113 
L 688.673827 85.882583 
L 689.756972 85.615776 
L 690.840116 84.882054 
L 691.923261 84.615246 
L 694.08955 83.748121 
L 696.25584 82.280678 
L 697.338984 81.747062 
L 699.505273 81.146744 
L 700.588418 80.546427 
L 706.004141 78.812176 
L 708.17043 77.811646 
L 709.253575 76.944521 
L 710.33672 76.477607 
L 712.503009 75.743886 
L 713.586153 75.276972 
L 714.669298 74.943462 
L 715.752443 74.209741 
L 719.001876 72.808999 
L 720.085021 72.075278 
L 721.168166 71.541662 
L 722.25131 69.4072 
L 723.334455 67.606247 
L 725.500744 65.204976 
L 726.583889 64.471255 
L 728.750178 63.404023 
L 730.916467 62.536898 
L 731.999612 62.336792 
L 733.082756 61.803176 
L 734.165901 61.536368 
L 735.249046 61.136157 
L 736.33219 60.869349 
L 739.581624 59.2018 
L 741.747913 57.667655 
L 743.914203 56.867231 
L 746.080492 55.8 
L 747.163636 55.8 
L 747.163636 55.8 
" clip-path="url(#pf191f7dff7)" style="fill: none; stroke: #1f77b4; stroke-width: 1.5; stroke-linecap: square"/>
   </g>
   <g id="line2d_40">
    <path d="M 139.519508 307.8 
L 141.685797 307.8 
L 143.852087 307.533192 
L 150.350954 307.46649 
L 153.600388 307.333086 
L 156.849822 307.266384 
L 159.016111 307.199682 
L 162.265545 307.199682 
L 163.34869 306.932875 
L 166.598124 306.866173 
L 172.013847 306.265855 
L 180.679004 305.798941 
L 181.762148 305.798941 
L 182.845293 305.598835 
L 186.094727 305.532133 
L 188.261016 305.265326 
L 192.593594 305.265326 
L 193.676739 305.131922 
L 199.092462 305.06522 
L 202.341896 304.931816 
L 212.090197 304.865114 
L 214.256487 304.798412 
L 218.589065 304.73171 
L 221.838499 304.598306 
L 226.171077 304.598306 
L 227.254222 304.464902 
L 230.503656 304.3982 
L 234.836234 304.198094 
L 242.418247 304.131392 
L 244.584536 304.06469 
L 248.917114 303.997988 
L 252.166548 303.597777 
L 257.582271 303.531075 
L 262.997994 303.264267 
L 268.413717 303.197565 
L 271.663151 303.064161 
L 273.82944 302.997459 
L 275.99573 302.797353 
L 280.328308 302.597247 
L 283.577742 302.530545 
L 285.744031 302.463843 
L 287.91032 302.463843 
L 288.993465 302.330439 
L 292.242899 302.330439 
L 294.409188 302.130334 
L 297.658622 301.99693 
L 303.074345 301.930228 
L 306.323779 301.596718 
L 308.490068 301.463314 
L 309.573213 301.263208 
L 313.905791 301.196506 
L 317.155225 300.929698 
L 319.321514 300.729592 
L 324.737237 300.462785 
L 327.986671 300.396083 
L 331.236105 300.262679 
L 332.319249 300.262679 
L 334.485539 300.062573 
L 336.651828 299.995871 
L 337.734973 299.995871 
L 338.818117 299.862467 
L 340.984406 299.795765 
L 346.400129 299.528957 
L 348.566419 299.462255 
L 351.815852 299.328851 
L 355.065286 299.262149 
L 357.231576 299.195447 
L 362.647299 299.128745 
L 366.979877 298.661832 
L 368.063022 298.661832 
L 370.229311 298.461726 
L 372.3956 298.395024 
L 377.811323 297.994812 
L 378.894468 297.728004 
L 381.060757 297.5946 
L 382.143902 297.327792 
L 385.393335 297.060985 
L 387.559625 296.594071 
L 389.725914 296.527369 
L 391.892203 296.527369 
L 392.975348 296.393965 
L 394.058492 296.393965 
L 396.224782 296.060455 
L 400.55736 295.326734 
L 401.640505 295.326734 
L 402.723649 295.19333 
L 405.973083 295.126628 
L 420.053963 294.259502 
L 421.137108 294.059397 
L 424.386542 293.859291 
L 426.552831 293.525781 
L 428.71912 293.325675 
L 430.885409 293.258973 
L 433.051698 293.258973 
L 434.134843 292.992165 
L 435.217988 292.858761 
L 439.550566 292.792059 
L 441.716855 292.591953 
L 442.8 292.591953 
L 446.049434 292.12504 
L 447.132578 291.858232 
L 448.215723 291.724828 
L 450.382012 291.658126 
L 455.797735 291.391318 
L 459.047169 291.324616 
L 473.128049 290.524193 
L 475.294338 290.524193 
L 477.460628 290.324087 
L 479.626917 290.324087 
L 482.876351 289.990577 
L 487.208929 289.790471 
L 489.375218 289.723769 
L 490.458363 289.590365 
L 494.790941 289.523663 
L 502.372954 289.123452 
L 507.788677 289.05675 
L 509.954966 288.990048 
L 511.038111 288.990048 
L 512.121255 288.789942 
L 514.287544 288.72324 
L 520.786412 288.656538 
L 524.035846 288.523134 
L 528.368424 288.456432 
L 529.451569 288.256326 
L 535.950437 288.189624 
L 538.116726 288.122922 
L 540.283015 288.05622 
L 542.449304 287.989518 
L 544.615594 287.922816 
L 552.197606 287.522605 
L 558.696474 287.455903 
L 561.945907 287.189095 
L 564.112197 286.988989 
L 566.278486 286.922287 
L 568.444775 286.922287 
L 569.52792 286.788883 
L 572.777354 286.722181 
L 573.860498 286.455373 
L 578.193077 286.255267 
L 587.941378 286.188565 
L 593.357101 285.788354 
L 596.606535 285.454844 
L 602.022258 285.388142 
L 605.271692 285.054632 
L 611.77056 284.721122 
L 613.936849 284.65442 
L 618.269427 284.454314 
L 622.602006 284.387612 
L 625.85144 284.254209 
L 630.184018 284.187507 
L 633.433452 283.853997 
L 635.599741 283.787295 
L 639.93232 283.720593 
L 643.181753 283.453785 
L 644.264898 283.320381 
L 645.348043 283.320381 
L 646.431187 283.120275 
L 648.597477 283.053573 
L 652.930055 282.986871 
L 655.096344 282.653362 
L 664.844646 282.58666 
L 667.010935 282.386554 
L 668.09408 282.25315 
L 670.260369 282.186448 
L 672.426658 282.119746 
L 673.509803 281.852938 
L 675.676092 281.786236 
L 676.759236 281.58613 
L 678.925526 281.58613 
L 682.17496 281.25262 
L 702.754707 280.051985 
L 704.920996 279.985283 
L 707.087286 279.918581 
L 720.085021 279.851879 
L 723.334455 279.718475 
L 724.417599 279.718475 
L 725.500744 279.384966 
L 727.667033 279.318264 
L 733.082756 279.251562 
L 735.249046 279.18486 
L 738.498479 279.18486 
L 739.581624 279.051456 
L 743.914203 278.984754 
L 746.080492 278.918052 
L 747.163636 278.918052 
L 747.163636 278.918052 
" clip-path="url(#pf191f7dff7)" style="fill: none; stroke: #ff7f0e; stroke-width: 1.5; stroke-linecap: square"/>
   </g>
   <g id="patch_3">
    <path d="M 108 320.4 
L 108 43.2 
" style="fill: none; stroke: #a9a9a9; stroke-width: 0.8; stroke-linejoin: miter; stroke-linecap: square"/>
   </g>
   <g id="patch_4">
    <path d="M 777.6 320.4 
L 777.6 43.2 
" style="fill: none"/>
   </g>
   <g id="patch_5">
    <path d="M 108 320.4 
L 777.6 320.4 
" style="fill: none; stroke: #a9a9a9; stroke-width: 0.8; stroke-linejoin: miter; stroke-linecap: square"/>
   </g>
   <g id="patch_6">
    <path d="M 108 43.2 
L 777.6 43.2 
" style="fill: none"/>
   </g>
   <g id="text_20">
    <!-- get_subscribe history -->
    <g style="fill: #a9a9a9" transform="translate(378.6075 37.2) scale(0.12 -0.12)">
     <defs>
      <path id="DejaVuSans-67" d="M 2906 1791 
Q 2906 2416 2648 2759 
Q 2391 3103 1925 3103 
Q 1463 3103 1205 2759 
Q 947 2416 947 1791 
Q 947 1169 1205 825 
Q 1463 481 1925 481 
Q 2391 481 2648 825 
Q 2906 1169 2906 1791 
z
M 3481 434 
Q 3481 -459 3084 -895 
Q 2688 -1331 1869 -1331 
Q 1566 -1331 1297 -1286 
Q 1028 -1241 775 -1147 
L 775 -588 
Q 1028 -725 1275 -790 
Q 1522 -856 1778 -856 
Q 2344 -856 2625 -561 
Q 2906 -266 2906 331 
L 2906 616 
Q 2728 306 2450 153 
Q 2172 0 1784 0 
Q 1141 0 747 490 
Q 353 981 353 1791 
Q 353 2603 747 3093 
Q 1141 3584 1784 3584 
Q 2172 3584 2450 3431 
Q 2728 3278 2906 2969 
L 2906 3500 
L 3481 3500 
L 3481 434 
z
" transform="scale(0.015625)"/>
      <path id="DejaVuSans-65" d="M 3597 1894 
L 3597 1613 
L 953 1613 
Q 991 1019 1311 708 
Q 1631 397 2203 397 
Q 2534 397 2845 478 
Q 3156 559 3463 722 
L 3463 178 
Q 3153 47 2828 -22 
Q 2503 -91 2169 -91 
Q 1331 -91 842 396 
Q 353 884 353 1716 
Q 353 2575 817 3079 
Q 1281 3584 2069 3584 
Q 2775 3584 3186 3129 
Q 3597 2675 3597 1894 
z
M 3022 2063 
Q 3016 2534 2758 2815 
Q 2500 3097 2075 3097 
Q 1594 3097 1305 2825 
Q 1016 2553 972 2059 
L 3022 2063 
z
" transform="scale(0.015625)"/>
      <path id="DejaVuSans-74" d="M 1172 4494 
L 1172 3500 
L 2356 3500 
L 2356 3053 
L 1172 3053 
L 1172 1153 
Q 1172 725 1289 603 
Q 1406 481 1766 481 
L 2356 481 
L 2356 0 
L 1766 0 
Q 1100 0 847 248 
Q 594 497 594 1153 
L 594 3053 
L 172 3053 
L 172 3500 
L 594 3500 
L 594 4494 
L 1172 4494 
z
" transform="scale(0.015625)"/>
      <path id="DejaVuSans-5f" d="M 3263 -1063 
L 3263 -1509 
L -63 -1509 
L -63 -1063 
L 3263 -1063 
z
" transform="scale(0.015625)"/>
      <path id="DejaVuSans-73" d="M 2834 3397 
L 2834 2853 
Q 2591 2978 2328 3040 
Q 2066 3103 1784 3103 
Q 1356 3103 1142 2972 
Q 928 2841 928 2578 
Q 928 2378 1081 2264 
Q 1234 2150 1697 2047 
L 1894 2003 
Q 2506 1872 2764 1633 
Q 3022 1394 3022 966 
Q 3022 478 2636 193 
Q 2250 -91 1575 -91 
Q 1294 -91 989 -36 
Q 684 19 347 128 
L 347 722 
Q 666 556 975 473 
Q 1284 391 1588 391 
Q 1994 391 2212 530 
Q 2431 669 2431 922 
Q 2431 1156 2273 1281 
Q 2116 1406 1581 1522 
L 1381 1569 
Q 847 1681 609 1914 
Q 372 2147 372 2553 
Q 372 3047 722 3315 
Q 1072 3584 1716 3584 
Q 2034 3584 2315 3537 
Q 2597 3491 2834 3397 
z
" transform="scale(0.015625)"/>
      <path id="DejaVuSans-75" d="M 544 1381 
L 544 3500 
L 1119 3500 
L 1119 1403 
Q 1119 906 1312 657 
Q 1506 409 1894 409 
Q 2359 409 2629 706 
Q 2900 1003 2900 1516 
L 2900 3500 
L 3475 3500 
L 3475 0 
L 2900 0 
L 2900 538 
Q 2691 219 2414 64 
Q 2138 -91 1772 -91 
Q 1169 -91 856 284 
Q 544 659 544 1381 
z
M 1991 3584 
L 1991 3584 
z
" transform="scale(0.015625)"/>
      <path id="DejaVuSans-62" d="M 3116 1747 
Q 3116 2381 2855 2742 
Q 2594 3103 2138 3103 
Q 1681 3103 1420 2742 
Q 1159 2381 1159 1747 
Q 1159 1113 1420 752 
Q 1681 391 2138 391 
Q 2594 391 2855 752 
Q 3116 1113 3116 1747 
z
M 1159 2969 
Q 1341 3281 1617 3432 
Q 1894 3584 2278 3584 
Q 2916 3584 3314 3078 
Q 3713 2572 3713 1747 
Q 3713 922 3314 415 
Q 2916 -91 2278 -91 
Q 1894 -91 1617 61 
Q 1341 213 1159 525 
L 1159 0 
L 581 0 
L 581 4863 
L 1159 4863 
L 1159 2969 
z
" transform="scale(0.015625)"/>
      <path id="DejaVuSans-63" d="M 3122 3366 
L 3122 2828 
Q 2878 2963 2633 3030 
Q 2388 3097 2138 3097 
Q 1578 3097 1268 2742 
Q 959 2388 959 1747 
Q 959 1106 1268 751 
Q 1578 397 2138 397 
Q 2388 397 2633 464 
Q 2878 531 3122 666 
L 3122 134 
Q 2881 22 2623 -34 
Q 2366 -91 2075 -91 
Q 1284 -91 818 406 
Q 353 903 353 1747 
Q 353 2603 823 3093 
Q 1294 3584 2113 3584 
Q 2378 3584 2631 3529 
Q 2884 3475 3122 3366 
z
" transform="scale(0.015625)"/>
      <path id="DejaVuSans-72" d="M 2631 2963 
Q 2534 3019 2420 3045 
Q 2306 3072 2169 3072 
Q 1681 3072 1420 2755 
Q 1159 2438 1159 1844 
L 1159 0 
L 581 0 
L 581 3500 
L 1159 3500 
L 1159 2956 
Q 1341 3275 1631 3429 
Q 1922 3584 2338 3584 
Q 2397 3584 2469 3576 
Q 2541 3569 2628 3553 
L 2631 2963 
z
" transform="scale(0.015625)"/>
      <path id="DejaVuSans-69" d="M 603 3500 
L 1178 3500 
L 1178 0 
L 603 0 
L 603 3500 
z
M 603 4863 
L 1178 4863 
L 1178 4134 
L 603 4134 
L 603 4863 
z
" transform="scale(0.015625)"/>
      <path id="DejaVuSans-20" transform="scale(0.015625)"/>
      <path id="DejaVuSans-68" d="M 3513 2113 
L 3513 0 
L 2938 0 
L 2938 2094 
Q 2938 2591 2744 2837 
Q 2550 3084 2163 3084 
Q 1697 3084 1428 2787 
Q 1159 2491 1159 1978 
L 1159 0 
L 581 0 
L 581 4863 
L 1159 4863 
L 1159 2956 
Q 1366 3272 1645 3428 
Q 1925 3584 2291 3584 
Q 2894 3584 3203 3211 
Q 3513 2838 3513 2113 
z
" transform="scale(0.015625)"/>
      <path id="DejaVuSans-6f" d="M 1959 3097 
Q 1497 3097 1228 2736 
Q 959 2375 959 1747 
Q 959 1119 1226 758 
Q 1494 397 1959 397 
Q 2419 397 2687 759 
Q 2956 1122 2956 1747 
Q 2956 2369 2687 2733 
Q 2419 3097 1959 3097 
z
M 1959 3584 
Q 2709 3584 3137 3096 
Q 3566 2609 3566 1747 
Q 3566 888 3137 398 
Q 2709 -91 1959 -91 
Q 1206 -91 779 398 
Q 353 888 353 1747 
Q 353 2609 779 3096 
Q 1206 3584 1959 3584 
z
" transform="scale(0.015625)"/>
      <path id="DejaVuSans-79" d="M 2059 -325 
Q 1816 -950 1584 -1140 
Q 1353 -1331 966 -1331 
L 506 -1331 
L 506 -850 
L 844 -850 
Q 1081 -850 1212 -737 
Q 1344 -625 1503 -206 
L 1606 56 
L 191 3500 
L 800 3500 
L 1894 763 
L 2988 3500 
L 3597 3500 
L 2059 -325 
z
" transform="scale(0.015625)"/>
     </defs>
     <use xlink:href="#DejaVuSans-67"/>
     <use xlink:href="#DejaVuSans-65" x="63.476562"/>
     <use xlink:href="#DejaVuSans-74" x="125"/>
     <use xlink:href="#DejaVuSans-5f" x="164.208984"/>
     <use xlink:href="#DejaVuSans-73" x="214.208984"/>
     <use xlink:href="#DejaVuSans-75" x="266.308594"/>
     <use xlink:href="#DejaVuSans-62" x="329.6875"/>
     <use xlink:href="#DejaVuSans-73" x="393.164062"/>
     <use xlink:href="#DejaVuSans-63" x="445.263672"/>
     <use xlink:href="#DejaVuSans-72" x="500.244141"/>
     <use xlink:href="#DejaVuSans-69" x="541.357422"/>
     <use xlink:href="#DejaVuSans-62" x="569.140625"/>
     <use xlink:href="#DejaVuSans-65" x="632.617188"/>
     <use xlink:href="#DejaVuSans-20" x="694.140625"/>
     <use xlink:href="#DejaVuSans-68" x="725.927734"/>
     <use xlink:href="#DejaVuSans-69" x="789.306641"/>
     <use xlink:href="#DejaVuSans-73" x="817.089844"/>
     <use xlink:href="#DejaVuSans-74" x="869.189453"/>
     <use xlink:href="#DejaVuSans-6f" x="908.398438"/>
     <use xlink:href="#DejaVuSans-72" x="969.580078"/>
     <use xlink:href="#DejaVuSans-79" x="1010.693359"/>
    </g>
   </g>
   <g id="legend_1">
    <g id="line2d_41">
     <path d="M 815.08 328.498438 
L 825.08 328.498438 
L 835.08 328.498438 
" style="fill: none; stroke: #1f77b4; stroke-width: 1.5; stroke-linecap: square"/>
    </g>
    <g id="text_21">
     <!-- star -->
     <g style="fill: #a9a9a9" transform="translate(843.08 331.998438) scale(0.1 -0.1)">
      <defs>
       <path id="DejaVuSans-61" d="M 2194 1759 
Q 1497 1759 1228 1600 
Q 959 1441 959 1056 
Q 959 750 1161 570 
Q 1363 391 1709 391 
Q 2188 391 2477 730 
Q 2766 1069 2766 1631 
L 2766 1759 
L 2194 1759 
z
M 3341 1997 
L 3341 0 
L 2766 0 
L 2766 531 
Q 2569 213 2275 61 
Q 1981 -91 1556 -91 
Q 1019 -91 701 211 
Q 384 513 384 1019 
Q 384 1609 779 1909 
Q 1175 2209 1959 2209 
L 2766 2209 
L 2766 2266 
Q 2766 2663 2505 2880 
Q 2244 3097 1772 3097 
Q 1472 3097 1187 3025 
Q 903 2953 641 2809 
L 641 3341 
Q 956 3463 1253 3523 
Q 1550 3584 1831 3584 
Q 2591 3584 2966 3190 
Q 3341 2797 3341 1997 
z
" transform="scale(0.015625)"/>
      </defs>
      <use xlink:href="#DejaVuSans-73"/>
      <use xlink:href="#DejaVuSans-74" x="52.099609"/>
      <use xlink:href="#DejaVuSans-61" x="91.308594"/>
      <use xlink:href="#DejaVuSans-72" x="152.587891"/>
     </g>
    </g>
    <g id="line2d_42">
     <path d="M 815.08 343.176562 
L 825.08 343.176562 
L 835.08 343.176562 
" style="fill: none; stroke: #ff7f0e; stroke-width: 1.5; stroke-linecap: square"/>
    </g>
    <g id="text_22">
     <!-- fork -->
     <g style="fill: #a9a9a9" transform="translate(843.08 346.676562) scale(0.1 -0.1)">
      <defs>
       <path id="DejaVuSans-66" d="M 2375 4863 
L 2375 4384 
L 1825 4384 
Q 1516 4384 1395 4259 
Q 1275 4134 1275 3809 
L 1275 3500 
L 2222 3500 
L 2222 3053 
L 1275 3053 
L 1275 0 
L 697 0 
L 697 3053 
L 147 3053 
L 147 3500 
L 697 3500 
L 697 3744 
Q 697 4328 969 4595 
Q 1241 4863 1831 4863 
L 2375 4863 
z
" transform="scale(0.015625)"/>
       <path id="DejaVuSans-6b" d="M 581 4863 
L 1159 4863 
L 1159 1991 
L 2875 3500 
L 3609 3500 
L 1753 1863 
L 3688 0 
L 2938 0 
L 1159 1709 
L 1159 0 
L 581 0 
L 581 4863 
z
" transform="scale(0.015625)"/>
      </defs>
      <use xlink:href="#DejaVuSans-66"/>
      <use xlink:href="#DejaVuSans-6f" x="35.205078"/>
      <use xlink:href="#DejaVuSans-72" x="96.386719"/>
      <use xlink:href="#DejaVuSans-6b" x="137.5"/>
     </g>
    </g>
   </g>
  </g>
 </g>
 <defs>
  <clipPath id="pf191f7dff7">
   <rect x="108" y="43.2" width="669.6" height="277.2"/>
  </clipPath>
 </defs>
</svg>
