<?xml version="1.0" encoding="utf-8" standalone="no"?>
<!DOCTYPE svg PUBLIC "-//W3C//DTD SVG 1.1//EN"
  "http://www.w3.org/Graphics/SVG/1.1/DTD/svg11.dtd">
<svg xmlns:xlink="http://www.w3.org/1999/xlink" width="864pt" height="360pt" viewBox="0 0 864 360" xmlns="http://www.w3.org/2000/svg" version="1.1">
 <metadata>
  <rdf:RDF xmlns:dc="http://purl.org/dc/elements/1.1/" xmlns:cc="http://creativecommons.org/ns#" xmlns:rdf="http://www.w3.org/1999/02/22-rdf-syntax-ns#">
   <cc:Work>
    <dc:type rdf:resource="http://purl.org/dc/dcmitype/StillImage"/>
    <dc:date>2023-02-09T08:57:34.262177</dc:date>
    <dc:format>image/svg+xml</dc:format>
    <dc:creator>
     <cc:Agent>
      <dc:title>Matplotlib v3.6.3, https://matplotlib.org/</dc:title>
     </cc:Agent>
    </dc:creator>
   </cc:Work>
  </rdf:RDF>
 </metadata>
 <defs>
  <style type="text/css">*{stroke-linejoin: round; stroke-linecap: butt}</style>
 </defs>
 <g id="figure_1">
  <g id="patch_1">
   <path d="M 0 360 
L 864 360 
L 864 0 
L 0 0 
L 0 360 
z
" style="fill: none; opacity: 0"/>
  </g>
  <g id="axes_1">
   <g id="patch_2">
    <path d="M 108 320.4 
L 777.6 320.4 
L 777.6 43.2 
L 108 43.2 
L 108 320.4 
z
" style="fill: none; opacity: 0"/>
   </g>
   <g id="matplotlib.axis_1">
    <g id="xtick_1">
     <g id="line2d_1">
      <path d="M 113.656315 320.4 
L 113.656315 43.2 
" clip-path="url(#p5d857d3206)" style="fill: none; stroke-dasharray: 5.12,1.28,0.8,1.28; stroke-dashoffset: 0; stroke: #b0b0b0; stroke-width: 0.8"/>
     </g>
     <g id="line2d_2">
      <defs>
       <path id="m0f1b4deffe" d="M 0 0 
L 0 3.5 
" style="stroke: #a9a9a9; stroke-width: 0.8"/>
      </defs>
      <g>
       <use xlink:href="#m0f1b4deffe" x="113.656315" y="320.4" style="fill: #a9a9a9; stroke: #a9a9a9; stroke-width: 0.8"/>
      </g>
     </g>
     <g id="text_1">
      <!-- 2021-07 -->
      <g style="fill: #a9a9a9" transform="translate(92.764909 334.998438) scale(0.1 -0.1)">
       <defs>
        <path id="DejaVuSans-32" d="M 1228 531 
L 3431 531 
L 3431 0 
L 469 0 
L 469 531 
Q 828 903 1448 1529 
Q 2069 2156 2228 2338 
Q 2531 2678 2651 2914 
Q 2772 3150 2772 3378 
Q 2772 3750 2511 3984 
Q 2250 4219 1831 4219 
Q 1534 4219 1204 4116 
Q 875 4013 500 3803 
L 500 4441 
Q 881 4594 1212 4672 
Q 1544 4750 1819 4750 
Q 2544 4750 2975 4387 
Q 3406 4025 3406 3419 
Q 3406 3131 3298 2873 
Q 3191 2616 2906 2266 
Q 2828 2175 2409 1742 
Q 1991 1309 1228 531 
z
" transform="scale(0.015625)"/>
        <path id="DejaVuSans-30" d="M 2034 4250 
Q 1547 4250 1301 3770 
Q 1056 3291 1056 2328 
Q 1056 1369 1301 889 
Q 1547 409 2034 409 
Q 2525 409 2770 889 
Q 3016 1369 3016 2328 
Q 3016 3291 2770 3770 
Q 2525 4250 2034 4250 
z
M 2034 4750 
Q 2819 4750 3233 4129 
Q 3647 3509 3647 2328 
Q 3647 1150 3233 529 
Q 2819 -91 2034 -91 
Q 1250 -91 836 529 
Q 422 1150 422 2328 
Q 422 3509 836 4129 
Q 1250 4750 2034 4750 
z
" transform="scale(0.015625)"/>
        <path id="DejaVuSans-31" d="M 794 531 
L 1825 531 
L 1825 4091 
L 703 3866 
L 703 4441 
L 1819 4666 
L 2450 4666 
L 2450 531 
L 3481 531 
L 3481 0 
L 794 0 
L 794 531 
z
" transform="scale(0.015625)"/>
        <path id="DejaVuSans-2d" d="M 313 2009 
L 1997 2009 
L 1997 1497 
L 313 1497 
L 313 2009 
z
" transform="scale(0.015625)"/>
        <path id="DejaVuSans-37" d="M 525 4666 
L 3525 4666 
L 3525 4397 
L 1831 0 
L 1172 0 
L 2766 4134 
L 525 4134 
L 525 4666 
z
" transform="scale(0.015625)"/>
       </defs>
       <use xlink:href="#DejaVuSans-32"/>
       <use xlink:href="#DejaVuSans-30" x="63.623047"/>
       <use xlink:href="#DejaVuSans-32" x="127.246094"/>
       <use xlink:href="#DejaVuSans-31" x="190.869141"/>
       <use xlink:href="#DejaVuSans-2d" x="254.492188"/>
       <use xlink:href="#DejaVuSans-30" x="290.576172"/>
       <use xlink:href="#DejaVuSans-37" x="354.199219"/>
      </g>
     </g>
    </g>
    <g id="xtick_2">
     <g id="line2d_3">
      <path d="M 180.454706 320.4 
L 180.454706 43.2 
" clip-path="url(#p5d857d3206)" style="fill: none; stroke-dasharray: 5.12,1.28,0.8,1.28; stroke-dashoffset: 0; stroke: #b0b0b0; stroke-width: 0.8"/>
     </g>
     <g id="line2d_4">
      <g>
       <use xlink:href="#m0f1b4deffe" x="180.454706" y="320.4" style="fill: #a9a9a9; stroke: #a9a9a9; stroke-width: 0.8"/>
      </g>
     </g>
     <g id="text_2">
      <!-- 2021-09 -->
      <g style="fill: #a9a9a9" transform="translate(159.5633 334.998438) scale(0.1 -0.1)">
       <defs>
        <path id="DejaVuSans-39" d="M 703 97 
L 703 672 
Q 941 559 1184 500 
Q 1428 441 1663 441 
Q 2288 441 2617 861 
Q 2947 1281 2994 2138 
Q 2813 1869 2534 1725 
Q 2256 1581 1919 1581 
Q 1219 1581 811 2004 
Q 403 2428 403 3163 
Q 403 3881 828 4315 
Q 1253 4750 1959 4750 
Q 2769 4750 3195 4129 
Q 3622 3509 3622 2328 
Q 3622 1225 3098 567 
Q 2575 -91 1691 -91 
Q 1453 -91 1209 -44 
Q 966 3 703 97 
z
M 1959 2075 
Q 2384 2075 2632 2365 
Q 2881 2656 2881 3163 
Q 2881 3666 2632 3958 
Q 2384 4250 1959 4250 
Q 1534 4250 1286 3958 
Q 1038 3666 1038 3163 
Q 1038 2656 1286 2365 
Q 1534 2075 1959 2075 
z
" transform="scale(0.015625)"/>
       </defs>
       <use xlink:href="#DejaVuSans-32"/>
       <use xlink:href="#DejaVuSans-30" x="63.623047"/>
       <use xlink:href="#DejaVuSans-32" x="127.246094"/>
       <use xlink:href="#DejaVuSans-31" x="190.869141"/>
       <use xlink:href="#DejaVuSans-2d" x="254.492188"/>
       <use xlink:href="#DejaVuSans-30" x="290.576172"/>
       <use xlink:href="#DejaVuSans-39" x="354.199219"/>
      </g>
     </g>
    </g>
    <g id="xtick_3">
     <g id="line2d_5">
      <path d="M 246.175704 320.4 
L 246.175704 43.2 
" clip-path="url(#p5d857d3206)" style="fill: none; stroke-dasharray: 5.12,1.28,0.8,1.28; stroke-dashoffset: 0; stroke: #b0b0b0; stroke-width: 0.8"/>
     </g>
     <g id="line2d_6">
      <g>
       <use xlink:href="#m0f1b4deffe" x="246.175704" y="320.4" style="fill: #a9a9a9; stroke: #a9a9a9; stroke-width: 0.8"/>
      </g>
     </g>
     <g id="text_3">
      <!-- 2021-11 -->
      <g style="fill: #a9a9a9" transform="translate(225.284298 334.998438) scale(0.1 -0.1)">
       <use xlink:href="#DejaVuSans-32"/>
       <use xlink:href="#DejaVuSans-30" x="63.623047"/>
       <use xlink:href="#DejaVuSans-32" x="127.246094"/>
       <use xlink:href="#DejaVuSans-31" x="190.869141"/>
       <use xlink:href="#DejaVuSans-2d" x="254.492188"/>
       <use xlink:href="#DejaVuSans-31" x="290.576172"/>
       <use xlink:href="#DejaVuSans-31" x="354.199219"/>
      </g>
     </g>
    </g>
    <g id="xtick_4">
     <g id="line2d_7">
      <path d="M 311.896702 320.4 
L 311.896702 43.2 
" clip-path="url(#p5d857d3206)" style="fill: none; stroke-dasharray: 5.12,1.28,0.8,1.28; stroke-dashoffset: 0; stroke: #b0b0b0; stroke-width: 0.8"/>
     </g>
     <g id="line2d_8">
      <g>
       <use xlink:href="#m0f1b4deffe" x="311.896702" y="320.4" style="fill: #a9a9a9; stroke: #a9a9a9; stroke-width: 0.8"/>
      </g>
     </g>
     <g id="text_4">
      <!-- 2022-01 -->
      <g style="fill: #a9a9a9" transform="translate(291.005295 334.998438) scale(0.1 -0.1)">
       <use xlink:href="#DejaVuSans-32"/>
       <use xlink:href="#DejaVuSans-30" x="63.623047"/>
       <use xlink:href="#DejaVuSans-32" x="127.246094"/>
       <use xlink:href="#DejaVuSans-32" x="190.869141"/>
       <use xlink:href="#DejaVuSans-2d" x="254.492188"/>
       <use xlink:href="#DejaVuSans-30" x="290.576172"/>
       <use xlink:href="#DejaVuSans-31" x="354.199219"/>
      </g>
     </g>
    </g>
    <g id="xtick_5">
     <g id="line2d_9">
      <path d="M 375.462912 320.4 
L 375.462912 43.2 
" clip-path="url(#p5d857d3206)" style="fill: none; stroke-dasharray: 5.12,1.28,0.8,1.28; stroke-dashoffset: 0; stroke: #b0b0b0; stroke-width: 0.8"/>
     </g>
     <g id="line2d_10">
      <g>
       <use xlink:href="#m0f1b4deffe" x="375.462912" y="320.4" style="fill: #a9a9a9; stroke: #a9a9a9; stroke-width: 0.8"/>
      </g>
     </g>
     <g id="text_5">
      <!-- 2022-03 -->
      <g style="fill: #a9a9a9" transform="translate(354.571506 334.998438) scale(0.1 -0.1)">
       <defs>
        <path id="DejaVuSans-33" d="M 2597 2516 
Q 3050 2419 3304 2112 
Q 3559 1806 3559 1356 
Q 3559 666 3084 287 
Q 2609 -91 1734 -91 
Q 1441 -91 1130 -33 
Q 819 25 488 141 
L 488 750 
Q 750 597 1062 519 
Q 1375 441 1716 441 
Q 2309 441 2620 675 
Q 2931 909 2931 1356 
Q 2931 1769 2642 2001 
Q 2353 2234 1838 2234 
L 1294 2234 
L 1294 2753 
L 1863 2753 
Q 2328 2753 2575 2939 
Q 2822 3125 2822 3475 
Q 2822 3834 2567 4026 
Q 2313 4219 1838 4219 
Q 1578 4219 1281 4162 
Q 984 4106 628 3988 
L 628 4550 
Q 988 4650 1302 4700 
Q 1616 4750 1894 4750 
Q 2613 4750 3031 4423 
Q 3450 4097 3450 3541 
Q 3450 3153 3228 2886 
Q 3006 2619 2597 2516 
z
" transform="scale(0.015625)"/>
       </defs>
       <use xlink:href="#DejaVuSans-32"/>
       <use xlink:href="#DejaVuSans-30" x="63.623047"/>
       <use xlink:href="#DejaVuSans-32" x="127.246094"/>
       <use xlink:href="#DejaVuSans-32" x="190.869141"/>
       <use xlink:href="#DejaVuSans-2d" x="254.492188"/>
       <use xlink:href="#DejaVuSans-30" x="290.576172"/>
       <use xlink:href="#DejaVuSans-33" x="354.199219"/>
      </g>
     </g>
    </g>
    <g id="xtick_6">
     <g id="line2d_11">
      <path d="M 441.18391 320.4 
L 441.18391 43.2 
" clip-path="url(#p5d857d3206)" style="fill: none; stroke-dasharray: 5.12,1.28,0.8,1.28; stroke-dashoffset: 0; stroke: #b0b0b0; stroke-width: 0.8"/>
     </g>
     <g id="line2d_12">
      <g>
       <use xlink:href="#m0f1b4deffe" x="441.18391" y="320.4" style="fill: #a9a9a9; stroke: #a9a9a9; stroke-width: 0.8"/>
      </g>
     </g>
     <g id="text_6">
      <!-- 2022-05 -->
      <g style="fill: #a9a9a9" transform="translate(420.292504 334.998438) scale(0.1 -0.1)">
       <defs>
        <path id="DejaVuSans-35" d="M 691 4666 
L 3169 4666 
L 3169 4134 
L 1269 4134 
L 1269 2991 
Q 1406 3038 1543 3061 
Q 1681 3084 1819 3084 
Q 2600 3084 3056 2656 
Q 3513 2228 3513 1497 
Q 3513 744 3044 326 
Q 2575 -91 1722 -91 
Q 1428 -91 1123 -41 
Q 819 9 494 109 
L 494 744 
Q 775 591 1075 516 
Q 1375 441 1709 441 
Q 2250 441 2565 725 
Q 2881 1009 2881 1497 
Q 2881 1984 2565 2268 
Q 2250 2553 1709 2553 
Q 1456 2553 1204 2497 
Q 953 2441 691 2322 
L 691 4666 
z
" transform="scale(0.015625)"/>
       </defs>
       <use xlink:href="#DejaVuSans-32"/>
       <use xlink:href="#DejaVuSans-30" x="63.623047"/>
       <use xlink:href="#DejaVuSans-32" x="127.246094"/>
       <use xlink:href="#DejaVuSans-32" x="190.869141"/>
       <use xlink:href="#DejaVuSans-2d" x="254.492188"/>
       <use xlink:href="#DejaVuSans-30" x="290.576172"/>
       <use xlink:href="#DejaVuSans-35" x="354.199219"/>
      </g>
     </g>
    </g>
    <g id="xtick_7">
     <g id="line2d_13">
      <path d="M 506.904907 320.4 
L 506.904907 43.2 
" clip-path="url(#p5d857d3206)" style="fill: none; stroke-dasharray: 5.12,1.28,0.8,1.28; stroke-dashoffset: 0; stroke: #b0b0b0; stroke-width: 0.8"/>
     </g>
     <g id="line2d_14">
      <g>
       <use xlink:href="#m0f1b4deffe" x="506.904907" y="320.4" style="fill: #a9a9a9; stroke: #a9a9a9; stroke-width: 0.8"/>
      </g>
     </g>
     <g id="text_7">
      <!-- 2022-07 -->
      <g style="fill: #a9a9a9" transform="translate(486.013501 334.998438) scale(0.1 -0.1)">
       <use xlink:href="#DejaVuSans-32"/>
       <use xlink:href="#DejaVuSans-30" x="63.623047"/>
       <use xlink:href="#DejaVuSans-32" x="127.246094"/>
       <use xlink:href="#DejaVuSans-32" x="190.869141"/>
       <use xlink:href="#DejaVuSans-2d" x="254.492188"/>
       <use xlink:href="#DejaVuSans-30" x="290.576172"/>
       <use xlink:href="#DejaVuSans-37" x="354.199219"/>
      </g>
     </g>
    </g>
    <g id="xtick_8">
     <g id="line2d_15">
      <path d="M 573.703298 320.4 
L 573.703298 43.2 
" clip-path="url(#p5d857d3206)" style="fill: none; stroke-dasharray: 5.12,1.28,0.8,1.28; stroke-dashoffset: 0; stroke: #b0b0b0; stroke-width: 0.8"/>
     </g>
     <g id="line2d_16">
      <g>
       <use xlink:href="#m0f1b4deffe" x="573.703298" y="320.4" style="fill: #a9a9a9; stroke: #a9a9a9; stroke-width: 0.8"/>
      </g>
     </g>
     <g id="text_8">
      <!-- 2022-09 -->
      <g style="fill: #a9a9a9" transform="translate(552.811892 334.998438) scale(0.1 -0.1)">
       <use xlink:href="#DejaVuSans-32"/>
       <use xlink:href="#DejaVuSans-30" x="63.623047"/>
       <use xlink:href="#DejaVuSans-32" x="127.246094"/>
       <use xlink:href="#DejaVuSans-32" x="190.869141"/>
       <use xlink:href="#DejaVuSans-2d" x="254.492188"/>
       <use xlink:href="#DejaVuSans-30" x="290.576172"/>
       <use xlink:href="#DejaVuSans-39" x="354.199219"/>
      </g>
     </g>
    </g>
    <g id="xtick_9">
     <g id="line2d_17">
      <path d="M 639.424296 320.4 
L 639.424296 43.2 
" clip-path="url(#p5d857d3206)" style="fill: none; stroke-dasharray: 5.12,1.28,0.8,1.28; stroke-dashoffset: 0; stroke: #b0b0b0; stroke-width: 0.8"/>
     </g>
     <g id="line2d_18">
      <g>
       <use xlink:href="#m0f1b4deffe" x="639.424296" y="320.4" style="fill: #a9a9a9; stroke: #a9a9a9; stroke-width: 0.8"/>
      </g>
     </g>
     <g id="text_9">
      <!-- 2022-11 -->
      <g style="fill: #a9a9a9" transform="translate(618.53289 334.998438) scale(0.1 -0.1)">
       <use xlink:href="#DejaVuSans-32"/>
       <use xlink:href="#DejaVuSans-30" x="63.623047"/>
       <use xlink:href="#DejaVuSans-32" x="127.246094"/>
       <use xlink:href="#DejaVuSans-32" x="190.869141"/>
       <use xlink:href="#DejaVuSans-2d" x="254.492188"/>
       <use xlink:href="#DejaVuSans-31" x="290.576172"/>
       <use xlink:href="#DejaVuSans-31" x="354.199219"/>
      </g>
     </g>
    </g>
    <g id="xtick_10">
     <g id="line2d_19">
      <path d="M 705.145294 320.4 
L 705.145294 43.2 
" clip-path="url(#p5d857d3206)" style="fill: none; stroke-dasharray: 5.12,1.28,0.8,1.28; stroke-dashoffset: 0; stroke: #b0b0b0; stroke-width: 0.8"/>
     </g>
     <g id="line2d_20">
      <g>
       <use xlink:href="#m0f1b4deffe" x="705.145294" y="320.4" style="fill: #a9a9a9; stroke: #a9a9a9; stroke-width: 0.8"/>
      </g>
     </g>
     <g id="text_10">
      <!-- 2023-01 -->
      <g style="fill: #a9a9a9" transform="translate(684.253887 334.998438) scale(0.1 -0.1)">
       <use xlink:href="#DejaVuSans-32"/>
       <use xlink:href="#DejaVuSans-30" x="63.623047"/>
       <use xlink:href="#DejaVuSans-32" x="127.246094"/>
       <use xlink:href="#DejaVuSans-33" x="190.869141"/>
       <use xlink:href="#DejaVuSans-2d" x="254.492188"/>
       <use xlink:href="#DejaVuSans-30" x="290.576172"/>
       <use xlink:href="#DejaVuSans-31" x="354.199219"/>
      </g>
     </g>
    </g>
    <g id="xtick_11">
     <g id="line2d_21">
      <path d="M 768.711504 320.4 
L 768.711504 43.2 
" clip-path="url(#p5d857d3206)" style="fill: none; stroke-dasharray: 5.12,1.28,0.8,1.28; stroke-dashoffset: 0; stroke: #b0b0b0; stroke-width: 0.8"/>
     </g>
     <g id="line2d_22">
      <g>
       <use xlink:href="#m0f1b4deffe" x="768.711504" y="320.4" style="fill: #a9a9a9; stroke: #a9a9a9; stroke-width: 0.8"/>
      </g>
     </g>
     <g id="text_11">
      <!-- 2023-03 -->
      <g style="fill: #a9a9a9" transform="translate(747.820098 334.998438) scale(0.1 -0.1)">
       <use xlink:href="#DejaVuSans-32"/>
       <use xlink:href="#DejaVuSans-30" x="63.623047"/>
       <use xlink:href="#DejaVuSans-32" x="127.246094"/>
       <use xlink:href="#DejaVuSans-33" x="190.869141"/>
       <use xlink:href="#DejaVuSans-2d" x="254.492188"/>
       <use xlink:href="#DejaVuSans-30" x="290.576172"/>
       <use xlink:href="#DejaVuSans-33" x="354.199219"/>
      </g>
     </g>
    </g>
   </g>
   <g id="matplotlib.axis_2">
    <g id="ytick_1">
     <g id="line2d_23">
      <path d="M 108 307.866298 
L 777.6 307.866298 
" clip-path="url(#p5d857d3206)" style="fill: none; stroke-dasharray: 5.12,1.28,0.8,1.28; stroke-dashoffset: 0; stroke: #b0b0b0; stroke-width: 0.8"/>
     </g>
     <g id="line2d_24">
      <defs>
       <path id="m8b679adeba" d="M 0 0 
L -3.5 0 
" style="stroke: #a9a9a9; stroke-width: 0.8"/>
      </defs>
      <g>
       <use xlink:href="#m8b679adeba" x="108" y="307.866298" style="fill: #a9a9a9; stroke: #a9a9a9; stroke-width: 0.8"/>
      </g>
     </g>
     <g id="text_12">
      <!-- 0 -->
      <g style="fill: #a9a9a9" transform="translate(94.6375 311.665517) scale(0.1 -0.1)">
       <use xlink:href="#DejaVuSans-30"/>
      </g>
     </g>
    </g>
    <g id="ytick_2">
     <g id="line2d_25">
      <path d="M 108 274.717127 
L 777.6 274.717127 
" clip-path="url(#p5d857d3206)" style="fill: none; stroke-dasharray: 5.12,1.28,0.8,1.28; stroke-dashoffset: 0; stroke: #b0b0b0; stroke-width: 0.8"/>
     </g>
     <g id="line2d_26">
      <g>
       <use xlink:href="#m8b679adeba" x="108" y="274.717127" style="fill: #a9a9a9; stroke: #a9a9a9; stroke-width: 0.8"/>
      </g>
     </g>
     <g id="text_13">
      <!-- 500 -->
      <g style="fill: #a9a9a9" transform="translate(81.9125 278.516346) scale(0.1 -0.1)">
       <use xlink:href="#DejaVuSans-35"/>
       <use xlink:href="#DejaVuSans-30" x="63.623047"/>
       <use xlink:href="#DejaVuSans-30" x="127.246094"/>
      </g>
     </g>
    </g>
    <g id="ytick_3">
     <g id="line2d_27">
      <path d="M 108 241.567956 
L 777.6 241.567956 
" clip-path="url(#p5d857d3206)" style="fill: none; stroke-dasharray: 5.12,1.28,0.8,1.28; stroke-dashoffset: 0; stroke: #b0b0b0; stroke-width: 0.8"/>
     </g>
     <g id="line2d_28">
      <g>
       <use xlink:href="#m8b679adeba" x="108" y="241.567956" style="fill: #a9a9a9; stroke: #a9a9a9; stroke-width: 0.8"/>
      </g>
     </g>
     <g id="text_14">
      <!-- 1000 -->
      <g style="fill: #a9a9a9" transform="translate(75.55 245.367175) scale(0.1 -0.1)">
       <use xlink:href="#DejaVuSans-31"/>
       <use xlink:href="#DejaVuSans-30" x="63.623047"/>
       <use xlink:href="#DejaVuSans-30" x="127.246094"/>
       <use xlink:href="#DejaVuSans-30" x="190.869141"/>
      </g>
     </g>
    </g>
    <g id="ytick_4">
     <g id="line2d_29">
      <path d="M 108 208.418785 
L 777.6 208.418785 
" clip-path="url(#p5d857d3206)" style="fill: none; stroke-dasharray: 5.12,1.28,0.8,1.28; stroke-dashoffset: 0; stroke: #b0b0b0; stroke-width: 0.8"/>
     </g>
     <g id="line2d_30">
      <g>
       <use xlink:href="#m8b679adeba" x="108" y="208.418785" style="fill: #a9a9a9; stroke: #a9a9a9; stroke-width: 0.8"/>
      </g>
     </g>
     <g id="text_15">
      <!-- 1500 -->
      <g style="fill: #a9a9a9" transform="translate(75.55 212.218003) scale(0.1 -0.1)">
       <use xlink:href="#DejaVuSans-31"/>
       <use xlink:href="#DejaVuSans-35" x="63.623047"/>
       <use xlink:href="#DejaVuSans-30" x="127.246094"/>
       <use xlink:href="#DejaVuSans-30" x="190.869141"/>
      </g>
     </g>
    </g>
    <g id="ytick_5">
     <g id="line2d_31">
      <path d="M 108 175.269613 
L 777.6 175.269613 
" clip-path="url(#p5d857d3206)" style="fill: none; stroke-dasharray: 5.12,1.28,0.8,1.28; stroke-dashoffset: 0; stroke: #b0b0b0; stroke-width: 0.8"/>
     </g>
     <g id="line2d_32">
      <g>
       <use xlink:href="#m8b679adeba" x="108" y="175.269613" style="fill: #a9a9a9; stroke: #a9a9a9; stroke-width: 0.8"/>
      </g>
     </g>
     <g id="text_16">
      <!-- 2000 -->
      <g style="fill: #a9a9a9" transform="translate(75.55 179.068832) scale(0.1 -0.1)">
       <use xlink:href="#DejaVuSans-32"/>
       <use xlink:href="#DejaVuSans-30" x="63.623047"/>
       <use xlink:href="#DejaVuSans-30" x="127.246094"/>
       <use xlink:href="#DejaVuSans-30" x="190.869141"/>
      </g>
     </g>
    </g>
    <g id="ytick_6">
     <g id="line2d_33">
      <path d="M 108 142.120442 
L 777.6 142.120442 
" clip-path="url(#p5d857d3206)" style="fill: none; stroke-dasharray: 5.12,1.28,0.8,1.28; stroke-dashoffset: 0; stroke: #b0b0b0; stroke-width: 0.8"/>
     </g>
     <g id="line2d_34">
      <g>
       <use xlink:href="#m8b679adeba" x="108" y="142.120442" style="fill: #a9a9a9; stroke: #a9a9a9; stroke-width: 0.8"/>
      </g>
     </g>
     <g id="text_17">
      <!-- 2500 -->
      <g style="fill: #a9a9a9" transform="translate(75.55 145.919661) scale(0.1 -0.1)">
       <use xlink:href="#DejaVuSans-32"/>
       <use xlink:href="#DejaVuSans-35" x="63.623047"/>
       <use xlink:href="#DejaVuSans-30" x="127.246094"/>
       <use xlink:href="#DejaVuSans-30" x="190.869141"/>
      </g>
     </g>
    </g>
    <g id="ytick_7">
     <g id="line2d_35">
      <path d="M 108 108.971271 
L 777.6 108.971271 
" clip-path="url(#p5d857d3206)" style="fill: none; stroke-dasharray: 5.12,1.28,0.8,1.28; stroke-dashoffset: 0; stroke: #b0b0b0; stroke-width: 0.8"/>
     </g>
     <g id="line2d_36">
      <g>
       <use xlink:href="#m8b679adeba" x="108" y="108.971271" style="fill: #a9a9a9; stroke: #a9a9a9; stroke-width: 0.8"/>
      </g>
     </g>
     <g id="text_18">
      <!-- 3000 -->
      <g style="fill: #a9a9a9" transform="translate(75.55 112.770489) scale(0.1 -0.1)">
       <use xlink:href="#DejaVuSans-33"/>
       <use xlink:href="#DejaVuSans-30" x="63.623047"/>
       <use xlink:href="#DejaVuSans-30" x="127.246094"/>
       <use xlink:href="#DejaVuSans-30" x="190.869141"/>
      </g>
     </g>
    </g>
    <g id="ytick_8">
     <g id="line2d_37">
      <path d="M 108 75.822099 
L 777.6 75.822099 
" clip-path="url(#p5d857d3206)" style="fill: none; stroke-dasharray: 5.12,1.28,0.8,1.28; stroke-dashoffset: 0; stroke: #b0b0b0; stroke-width: 0.8"/>
     </g>
     <g id="line2d_38">
      <g>
       <use xlink:href="#m8b679adeba" x="108" y="75.822099" style="fill: #a9a9a9; stroke: #a9a9a9; stroke-width: 0.8"/>
      </g>
     </g>
     <g id="text_19">
      <!-- 3500 -->
      <g style="fill: #a9a9a9" transform="translate(75.55 79.621318) scale(0.1 -0.1)">
       <use xlink:href="#DejaVuSans-33"/>
       <use xlink:href="#DejaVuSans-35" x="63.623047"/>
       <use xlink:href="#DejaVuSans-30" x="127.246094"/>
       <use xlink:href="#DejaVuSans-30" x="190.869141"/>
      </g>
     </g>
    </g>
   </g>
   <g id="line2d_39">
    <path d="M 138.436364 307.601105 
L 142.745937 307.269613 
L 143.823331 307.137017 
L 144.900724 307.137017 
L 145.978117 306.739227 
L 148.132904 306.60663 
L 155.674658 305.214365 
L 157.829445 305.081768 
L 158.906838 304.882873 
L 162.139019 304.683978 
L 163.216412 304.153591 
L 164.293805 303.888398 
L 165.371199 302.695028 
L 166.448592 302.032044 
L 167.525986 299.777901 
L 168.603379 299.645304 
L 169.680772 298.916022 
L 170.758166 298.518232 
L 171.835559 297.987845 
L 175.067739 295.534807 
L 176.145133 295.00442 
L 178.29992 294.20884 
L 179.377313 293.479558 
L 180.454706 293.081768 
L 181.5321 292.551381 
L 182.609493 291.888398 
L 183.686887 291.556906 
L 184.76428 289.965746 
L 185.841673 289.170166 
L 186.919067 288.573481 
L 187.99646 288.109392 
L 192.306034 287.512707 
L 195.538214 286.98232 
L 197.693001 286.849724 
L 198.770394 286.650829 
L 199.847788 286.120442 
L 204.157361 285.78895 
L 207.389541 285.457459 
L 208.466935 285.125967 
L 213.853902 284.131492 
L 216.008689 283.932597 
L 217.086082 283.667403 
L 220.318262 283.269613 
L 221.395656 282.739227 
L 222.473049 282.60663 
L 224.627836 281.877348 
L 226.782623 281.678453 
L 227.860016 281.346961 
L 232.16959 280.750276 
L 233.246983 280.418785 
L 235.40177 280.087293 
L 236.479163 280.087293 
L 241.86613 279.424309 
L 244.020917 278.827624 
L 245.098311 278.562431 
L 247.253097 278.363536 
L 248.330491 278.297238 
L 251.562671 277.700552 
L 252.640064 277.302762 
L 253.717458 275.976796 
L 254.794851 275.579006 
L 255.872245 275.048619 
L 256.949638 274.916022 
L 258.027031 274.650829 
L 259.104425 274.518232 
L 261.259212 273.656354 
L 262.336605 273.590055 
L 267.723572 272.264088 
L 268.800965 272.264088 
L 270.955752 271.998895 
L 273.110539 271.40221 
L 276.342719 270.60663 
L 277.420113 270.540331 
L 279.574899 269.678453 
L 280.652293 269.545856 
L 281.729686 269.081768 
L 283.884473 268.882873 
L 284.961866 268.816575 
L 288.194047 268.286188 
L 290.348833 267.954696 
L 295.7358 266.960221 
L 297.890587 266.230939 
L 298.967981 265.634254 
L 300.045374 265.369061 
L 301.122767 265.236464 
L 303.277554 264.573481 
L 305.432341 263.446409 
L 306.509735 262.783425 
L 307.587128 262.650829 
L 308.664521 262.319337 
L 309.741915 262.18674 
L 310.819308 261.921547 
L 311.896702 261.78895 
L 312.974095 261.324862 
L 315.128882 260.99337 
L 316.206275 260.462983 
L 317.283669 260.065193 
L 318.361062 259.8 
L 319.438455 259.667403 
L 320.515849 259.269613 
L 324.825422 258.474033 
L 326.980209 257.612155 
L 328.057603 257.41326 
L 329.134996 257.01547 
L 330.212389 256.882873 
L 331.289783 256.418785 
L 332.367176 256.153591 
L 334.521963 256.020994 
L 336.67675 255.358011 
L 337.754143 255.225414 
L 338.831537 255.225414 
L 339.90893 254.761326 
L 342.063717 254.429834 
L 343.14111 254.032044 
L 345.295897 253.965746 
L 346.37329 253.833149 
L 347.450684 253.833149 
L 349.605471 253.501657 
L 351.760257 252.507182 
L 353.915044 251.579006 
L 354.992438 251.313812 
L 356.069831 250.650829 
L 357.147224 250.319337 
L 359.302011 249.39116 
L 360.379405 249.192265 
L 362.534191 248.462983 
L 363.611585 247.8 
L 364.688978 247.269613 
L 365.766372 246.20884 
L 366.843765 244.551381 
L 367.921158 243.291713 
L 368.998552 242.960221 
L 370.075945 242.960221 
L 371.153339 242.297238 
L 372.230732 241.501657 
L 373.308126 241.236464 
L 374.385519 240.706077 
L 375.462912 240.507182 
L 376.540306 239.579006 
L 377.617699 239.313812 
L 380.849879 237.921547 
L 381.927273 236.728177 
L 383.004666 235.203315 
L 384.08206 234.60663 
L 385.159453 232.949171 
L 386.236846 231.954696 
L 387.31424 231.490608 
L 388.391633 231.225414 
L 389.469027 230.562431 
L 391.623813 229.567956 
L 395.933387 226.650829 
L 397.01078 225.258564 
L 398.088174 222.938122 
L 399.165567 221.479558 
L 400.242961 220.683978 
L 401.320354 220.21989 
L 405.629928 216.838674 
L 407.784714 215.247514 
L 408.862108 214.385635 
L 409.939501 212.99337 
L 411.016895 212.065193 
L 417.481255 207.689503 
L 418.558648 207.424309 
L 419.636042 206.960221 
L 420.713435 206.363536 
L 421.790829 205.899448 
L 423.945615 204.772376 
L 425.023009 204.374586 
L 427.177796 202.58453 
L 428.255189 201.324862 
L 430.409976 199.998895 
L 431.487369 199.733702 
L 432.564763 199.203315 
L 433.642156 198.474033 
L 435.796943 197.41326 
L 436.874336 197.214365 
L 437.95173 196.551381 
L 440.106516 195.490608 
L 441.18391 194.496133 
L 442.261303 193.766851 
L 443.338697 193.435359 
L 444.41609 192.772376 
L 445.493484 192.308287 
L 446.570877 191.645304 
L 447.64827 191.247514 
L 448.725664 190.58453 
L 449.803057 189.722652 
L 451.957844 188.99337 
L 453.035237 188.529282 
L 454.112631 188.330387 
L 455.190024 187.667403 
L 456.267418 187.468508 
L 458.422204 186.739227 
L 459.499598 186.407735 
L 461.654385 185.545856 
L 462.731778 185.148066 
L 463.809171 184.882873 
L 464.886565 184.485083 
L 467.041352 184.153591 
L 469.196138 182.429834 
L 470.273532 182.032044 
L 472.428319 180.904972 
L 474.583105 179.777901 
L 476.737892 179.181215 
L 477.815286 178.385635 
L 478.892679 178.120442 
L 481.047466 176.794475 
L 482.124859 176.264088 
L 485.357039 175.601105 
L 487.511826 175.00442 
L 490.744006 173.280663 
L 491.8214 173.148066 
L 492.898793 172.750276 
L 493.976187 172.61768 
L 495.05358 172.21989 
L 496.130973 171.556906 
L 498.28576 170.098343 
L 499.363154 169.899448 
L 500.440547 169.501657 
L 501.51794 169.369061 
L 502.595334 169.037569 
L 503.672727 168.308287 
L 504.750121 167.976796 
L 505.827514 167.512707 
L 510.137088 166.385635 
L 511.214481 166.319337 
L 512.291874 165.987845 
L 514.446661 165.125967 
L 515.524055 164.794475 
L 516.601448 164.59558 
L 517.678842 164.131492 
L 518.756235 163.8 
L 519.833628 163.335912 
L 521.988415 162.739227 
L 523.065809 162.672928 
L 525.220595 162.20884 
L 526.297989 161.744751 
L 527.375382 161.545856 
L 529.530169 160.683978 
L 532.762349 159.291713 
L 534.917136 157.965746 
L 535.994529 157.700552 
L 537.071923 157.103867 
L 538.149316 156.706077 
L 539.22671 156.109392 
L 541.381496 155.645304 
L 542.45889 155.048619 
L 543.536283 154.58453 
L 544.613677 154.253039 
L 546.768463 153.921547 
L 547.845857 153.192265 
L 548.92325 152.661878 
L 550.000644 152.462983 
L 552.15543 151.601105 
L 553.232824 151.40221 
L 554.310217 150.871823 
L 558.619791 150.275138 
L 560.774578 149.346961 
L 561.851971 148.551381 
L 562.929364 146.761326 
L 564.006758 146.496133 
L 565.084151 146.363536 
L 566.161545 146.098343 
L 568.316331 144.971271 
L 569.393725 144.573481 
L 570.471118 144.043094 
L 571.548512 143.777901 
L 573.703298 142.783425 
L 575.858085 141.78895 
L 578.012872 140.927072 
L 579.090265 140.264088 
L 580.167659 139.866298 
L 583.399839 139.269613 
L 585.554626 138.275138 
L 586.632019 137.81105 
L 587.709413 137.612155 
L 590.941593 136.418785 
L 593.09638 135.159116 
L 594.173773 134.496133 
L 595.251167 133.965746 
L 596.32856 133.766851 
L 597.405953 133.435359 
L 598.483347 133.369061 
L 602.79292 132.043094 
L 603.870314 131.976796 
L 604.947707 131.247514 
L 606.025101 130.98232 
L 607.102494 130.518232 
L 610.334674 129.590055 
L 611.412068 128.99337 
L 612.489461 128.661878 
L 613.566854 127.998895 
L 614.644248 127.534807 
L 615.721641 126.938122 
L 621.108608 124.949171 
L 622.186002 124.352486 
L 623.263395 123.623204 
L 624.340788 122.496133 
L 625.418182 121.833149 
L 626.495575 121.634254 
L 628.650362 120.109392 
L 629.727755 119.777901 
L 630.805149 118.319337 
L 631.882542 117.921547 
L 632.959936 117.192265 
L 634.037329 117.059669 
L 635.114722 116.396685 
L 636.192116 115.932597 
L 637.269509 115.733702 
L 638.346903 115.335912 
L 639.424296 114.540331 
L 640.501689 114.20884 
L 643.73387 112.153591 
L 644.811263 111.689503 
L 646.96605 110.562431 
L 648.043443 110.098343 
L 649.120837 109.965746 
L 650.19823 109.567956 
L 652.353017 108.440884 
L 653.43041 106.849724 
L 654.507804 105.855249 
L 655.585197 105.258564 
L 656.662591 104.99337 
L 658.817377 103.8 
L 659.894771 103.601105 
L 660.972164 103.070718 
L 664.204344 101.877348 
L 665.281738 101.346961 
L 667.436525 99.954696 
L 669.591311 97.833149 
L 670.668705 97.037569 
L 672.823492 95.777901 
L 673.900885 94.783425 
L 677.133065 92.396685 
L 678.210459 91.866298 
L 679.287852 90.739227 
L 680.365245 90.009945 
L 682.520032 89.280663 
L 683.597426 88.352486 
L 685.752212 87.358011 
L 686.829606 87.092818 
L 687.906999 86.363536 
L 688.984393 86.098343 
L 691.139179 85.236464 
L 693.293966 83.777901 
L 694.37136 83.247514 
L 696.526146 82.650829 
L 697.60354 82.054144 
L 702.990507 80.330387 
L 705.145294 79.335912 
L 706.222687 78.474033 
L 707.30008 78.009945 
L 709.454867 77.280663 
L 710.532261 76.816575 
L 711.609654 76.485083 
L 712.687047 75.755801 
L 715.919228 74.363536 
L 716.996621 73.634254 
L 718.074014 73.103867 
L 719.151408 70.98232 
L 720.228801 69.192265 
L 722.383588 66.805525 
L 723.460981 66.076243 
L 725.615768 65.01547 
L 727.770555 64.153591 
L 728.847949 63.954696 
L 729.925342 63.424309 
L 731.002735 63.159116 
L 732.080129 62.761326 
L 733.157522 62.496133 
L 736.389702 60.838674 
L 738.544489 59.313812 
L 740.699276 58.518232 
L 743.931456 56.927072 
L 745.00885 56.19779 
L 746.086243 55.8 
L 747.163636 55.8 
L 747.163636 55.8 
" clip-path="url(#p5d857d3206)" style="fill: none; stroke: #1f77b4; stroke-width: 1.5; stroke-linecap: square"/>
   </g>
   <g id="line2d_40">
    <path d="M 139.513757 307.8 
L 141.668544 307.8 
L 143.823331 307.534807 
L 150.287691 307.468508 
L 153.519871 307.335912 
L 156.752051 307.269613 
L 158.906838 307.203315 
L 162.139019 307.203315 
L 163.216412 306.938122 
L 166.448592 306.871823 
L 171.835559 306.275138 
L 180.454706 305.81105 
L 181.5321 305.81105 
L 182.609493 305.612155 
L 185.841673 305.545856 
L 187.99646 305.280663 
L 192.306034 305.280663 
L 193.383427 305.148066 
L 198.770394 305.081768 
L 202.002574 304.949171 
L 211.699115 304.882873 
L 213.853902 304.816575 
L 218.163475 304.750276 
L 221.395656 304.61768 
L 225.705229 304.61768 
L 226.782623 304.485083 
L 230.014803 304.418785 
L 234.324377 304.21989 
L 241.86613 304.153591 
L 244.020917 304.087293 
L 248.330491 304.020994 
L 251.562671 303.623204 
L 256.949638 303.556906 
L 262.336605 303.291713 
L 267.723572 303.225414 
L 270.955752 303.092818 
L 273.110539 303.026519 
L 275.265326 302.827624 
L 279.574899 302.628729 
L 282.80708 302.562431 
L 284.961866 302.496133 
L 287.116653 302.496133 
L 288.194047 302.363536 
L 291.426227 302.363536 
L 293.581014 302.164641 
L 296.813194 302.032044 
L 302.200161 301.965746 
L 305.432341 301.634254 
L 307.587128 301.501657 
L 308.664521 301.302762 
L 312.974095 301.236464 
L 316.206275 300.971271 
L 318.361062 300.772376 
L 323.748029 300.507182 
L 326.980209 300.440884 
L 330.212389 300.308287 
L 331.289783 300.308287 
L 333.44457 300.109392 
L 335.599356 300.043094 
L 336.67675 300.043094 
L 337.754143 299.910497 
L 339.90893 299.844199 
L 345.295897 299.579006 
L 347.450684 299.512707 
L 350.682864 299.38011 
L 353.915044 299.313812 
L 356.069831 299.247514 
L 361.456798 299.181215 
L 365.766372 298.717127 
L 366.843765 298.717127 
L 368.998552 298.518232 
L 371.153339 298.451934 
L 376.540306 298.054144 
L 377.617699 297.78895 
L 379.772486 297.656354 
L 380.849879 297.39116 
L 384.08206 297.125967 
L 386.236846 296.661878 
L 388.391633 296.59558 
L 390.54642 296.59558 
L 391.623813 296.462983 
L 392.701207 296.462983 
L 394.855994 296.131492 
L 399.165567 295.40221 
L 400.242961 295.40221 
L 401.320354 295.269613 
L 404.552534 295.203315 
L 418.558648 294.341436 
L 419.636042 294.142541 
L 422.868222 293.943646 
L 425.023009 293.612155 
L 427.177796 293.41326 
L 429.332582 293.346961 
L 431.487369 293.346961 
L 432.564763 293.081768 
L 433.642156 292.949171 
L 437.95173 292.882873 
L 440.106516 292.683978 
L 441.18391 292.683978 
L 444.41609 292.21989 
L 445.493484 291.954696 
L 446.570877 291.822099 
L 448.725664 291.755801 
L 454.112631 291.490608 
L 457.344811 291.424309 
L 471.350925 290.628729 
L 473.505712 290.628729 
L 475.660499 290.429834 
L 477.815286 290.429834 
L 481.047466 290.098343 
L 485.357039 289.899448 
L 487.511826 289.833149 
L 488.58922 289.700552 
L 492.898793 289.634254 
L 500.440547 289.236464 
L 505.827514 289.170166 
L 507.982301 289.103867 
L 509.059694 289.103867 
L 510.137088 288.904972 
L 512.291874 288.838674 
L 518.756235 288.772376 
L 521.988415 288.639779 
L 526.297989 288.573481 
L 527.375382 288.374586 
L 533.839743 288.308287 
L 535.994529 288.241989 
L 538.149316 288.175691 
L 540.304103 288.109392 
L 542.45889 288.043094 
L 550.000644 287.645304 
L 556.465004 287.579006 
L 559.697184 287.313812 
L 561.851971 287.114917 
L 564.006758 287.048619 
L 566.161545 287.048619 
L 567.238938 286.916022 
L 570.471118 286.849724 
L 571.548512 286.58453 
L 575.858085 286.385635 
L 585.554626 286.319337 
L 590.941593 285.921547 
L 594.173773 285.590055 
L 599.56074 285.523757 
L 602.79292 285.192265 
L 609.257281 284.860773 
L 611.412068 284.794475 
L 615.721641 284.59558 
L 620.031215 284.529282 
L 623.263395 284.396685 
L 627.572969 284.330387 
L 630.805149 283.998895 
L 632.959936 283.932597 
L 637.269509 283.866298 
L 640.501689 283.601105 
L 641.579083 283.468508 
L 642.656476 283.468508 
L 643.73387 283.269613 
L 645.888656 283.203315 
L 650.19823 283.137017 
L 652.353017 282.805525 
L 662.049558 282.739227 
L 664.204344 282.540331 
L 665.281738 282.407735 
L 667.436525 282.341436 
L 669.591311 282.275138 
L 670.668705 282.009945 
L 672.823492 281.943646 
L 673.900885 281.744751 
L 676.055672 281.744751 
L 679.287852 281.41326 
L 699.758327 280.21989 
L 701.913113 280.153591 
L 704.0679 280.087293 
L 716.996621 280.020994 
L 720.228801 279.888398 
L 721.306195 279.888398 
L 722.383588 279.556906 
L 724.538375 279.490608 
L 729.925342 279.424309 
L 732.080129 279.358011 
L 735.312309 279.358011 
L 736.389702 279.225414 
L 740.699276 279.159116 
L 742.854063 279.092818 
L 743.931456 279.092818 
L 746.086243 278.827624 
L 747.163636 278.827624 
L 747.163636 278.827624 
" clip-path="url(#p5d857d3206)" style="fill: none; stroke: #ff7f0e; stroke-width: 1.5; stroke-linecap: square"/>
   </g>
   <g id="patch_3">
    <path d="M 108 320.4 
L 108 43.2 
" style="fill: none; stroke: #a9a9a9; stroke-width: 0.8; stroke-linejoin: miter; stroke-linecap: square"/>
   </g>
   <g id="patch_4">
    <path d="M 777.6 320.4 
L 777.6 43.2 
" style="fill: none"/>
   </g>
   <g id="patch_5">
    <path d="M 108 320.4 
L 777.6 320.4 
" style="fill: none; stroke: #a9a9a9; stroke-width: 0.8; stroke-linejoin: miter; stroke-linecap: square"/>
   </g>
   <g id="patch_6">
    <path d="M 108 43.2 
L 777.6 43.2 
" style="fill: none"/>
   </g>
   <g id="text_20">
    <!-- get_subscribe history -->
    <g style="fill: #a9a9a9" transform="translate(378.6075 37.2) scale(0.12 -0.12)">
     <defs>
      <path id="DejaVuSans-67" d="M 2906 1791 
Q 2906 2416 2648 2759 
Q 2391 3103 1925 3103 
Q 1463 3103 1205 2759 
Q 947 2416 947 1791 
Q 947 1169 1205 825 
Q 1463 481 1925 481 
Q 2391 481 2648 825 
Q 2906 1169 2906 1791 
z
M 3481 434 
Q 3481 -459 3084 -895 
Q 2688 -1331 1869 -1331 
Q 1566 -1331 1297 -1286 
Q 1028 -1241 775 -1147 
L 775 -588 
Q 1028 -725 1275 -790 
Q 1522 -856 1778 -856 
Q 2344 -856 2625 -561 
Q 2906 -266 2906 331 
L 2906 616 
Q 2728 306 2450 153 
Q 2172 0 1784 0 
Q 1141 0 747 490 
Q 353 981 353 1791 
Q 353 2603 747 3093 
Q 1141 3584 1784 3584 
Q 2172 3584 2450 3431 
Q 2728 3278 2906 2969 
L 2906 3500 
L 3481 3500 
L 3481 434 
z
" transform="scale(0.015625)"/>
      <path id="DejaVuSans-65" d="M 3597 1894 
L 3597 1613 
L 953 1613 
Q 991 1019 1311 708 
Q 1631 397 2203 397 
Q 2534 397 2845 478 
Q 3156 559 3463 722 
L 3463 178 
Q 3153 47 2828 -22 
Q 2503 -91 2169 -91 
Q 1331 -91 842 396 
Q 353 884 353 1716 
Q 353 2575 817 3079 
Q 1281 3584 2069 3584 
Q 2775 3584 3186 3129 
Q 3597 2675 3597 1894 
z
M 3022 2063 
Q 3016 2534 2758 2815 
Q 2500 3097 2075 3097 
Q 1594 3097 1305 2825 
Q 1016 2553 972 2059 
L 3022 2063 
z
" transform="scale(0.015625)"/>
      <path id="DejaVuSans-74" d="M 1172 4494 
L 1172 3500 
L 2356 3500 
L 2356 3053 
L 1172 3053 
L 1172 1153 
Q 1172 725 1289 603 
Q 1406 481 1766 481 
L 2356 481 
L 2356 0 
L 1766 0 
Q 1100 0 847 248 
Q 594 497 594 1153 
L 594 3053 
L 172 3053 
L 172 3500 
L 594 3500 
L 594 4494 
L 1172 4494 
z
" transform="scale(0.015625)"/>
      <path id="DejaVuSans-5f" d="M 3263 -1063 
L 3263 -1509 
L -63 -1509 
L -63 -1063 
L 3263 -1063 
z
" transform="scale(0.015625)"/>
      <path id="DejaVuSans-73" d="M 2834 3397 
L 2834 2853 
Q 2591 2978 2328 3040 
Q 2066 3103 1784 3103 
Q 1356 3103 1142 2972 
Q 928 2841 928 2578 
Q 928 2378 1081 2264 
Q 1234 2150 1697 2047 
L 1894 2003 
Q 2506 1872 2764 1633 
Q 3022 1394 3022 966 
Q 3022 478 2636 193 
Q 2250 -91 1575 -91 
Q 1294 -91 989 -36 
Q 684 19 347 128 
L 347 722 
Q 666 556 975 473 
Q 1284 391 1588 391 
Q 1994 391 2212 530 
Q 2431 669 2431 922 
Q 2431 1156 2273 1281 
Q 2116 1406 1581 1522 
L 1381 1569 
Q 847 1681 609 1914 
Q 372 2147 372 2553 
Q 372 3047 722 3315 
Q 1072 3584 1716 3584 
Q 2034 3584 2315 3537 
Q 2597 3491 2834 3397 
z
" transform="scale(0.015625)"/>
      <path id="DejaVuSans-75" d="M 544 1381 
L 544 3500 
L 1119 3500 
L 1119 1403 
Q 1119 906 1312 657 
Q 1506 409 1894 409 
Q 2359 409 2629 706 
Q 2900 1003 2900 1516 
L 2900 3500 
L 3475 3500 
L 3475 0 
L 2900 0 
L 2900 538 
Q 2691 219 2414 64 
Q 2138 -91 1772 -91 
Q 1169 -91 856 284 
Q 544 659 544 1381 
z
M 1991 3584 
L 1991 3584 
z
" transform="scale(0.015625)"/>
      <path id="DejaVuSans-62" d="M 3116 1747 
Q 3116 2381 2855 2742 
Q 2594 3103 2138 3103 
Q 1681 3103 1420 2742 
Q 1159 2381 1159 1747 
Q 1159 1113 1420 752 
Q 1681 391 2138 391 
Q 2594 391 2855 752 
Q 3116 1113 3116 1747 
z
M 1159 2969 
Q 1341 3281 1617 3432 
Q 1894 3584 2278 3584 
Q 2916 3584 3314 3078 
Q 3713 2572 3713 1747 
Q 3713 922 3314 415 
Q 2916 -91 2278 -91 
Q 1894 -91 1617 61 
Q 1341 213 1159 525 
L 1159 0 
L 581 0 
L 581 4863 
L 1159 4863 
L 1159 2969 
z
" transform="scale(0.015625)"/>
      <path id="DejaVuSans-63" d="M 3122 3366 
L 3122 2828 
Q 2878 2963 2633 3030 
Q 2388 3097 2138 3097 
Q 1578 3097 1268 2742 
Q 959 2388 959 1747 
Q 959 1106 1268 751 
Q 1578 397 2138 397 
Q 2388 397 2633 464 
Q 2878 531 3122 666 
L 3122 134 
Q 2881 22 2623 -34 
Q 2366 -91 2075 -91 
Q 1284 -91 818 406 
Q 353 903 353 1747 
Q 353 2603 823 3093 
Q 1294 3584 2113 3584 
Q 2378 3584 2631 3529 
Q 2884 3475 3122 3366 
z
" transform="scale(0.015625)"/>
      <path id="DejaVuSans-72" d="M 2631 2963 
Q 2534 3019 2420 3045 
Q 2306 3072 2169 3072 
Q 1681 3072 1420 2755 
Q 1159 2438 1159 1844 
L 1159 0 
L 581 0 
L 581 3500 
L 1159 3500 
L 1159 2956 
Q 1341 3275 1631 3429 
Q 1922 3584 2338 3584 
Q 2397 3584 2469 3576 
Q 2541 3569 2628 3553 
L 2631 2963 
z
" transform="scale(0.015625)"/>
      <path id="DejaVuSans-69" d="M 603 3500 
L 1178 3500 
L 1178 0 
L 603 0 
L 603 3500 
z
M 603 4863 
L 1178 4863 
L 1178 4134 
L 603 4134 
L 603 4863 
z
" transform="scale(0.015625)"/>
      <path id="DejaVuSans-20" transform="scale(0.015625)"/>
      <path id="DejaVuSans-68" d="M 3513 2113 
L 3513 0 
L 2938 0 
L 2938 2094 
Q 2938 2591 2744 2837 
Q 2550 3084 2163 3084 
Q 1697 3084 1428 2787 
Q 1159 2491 1159 1978 
L 1159 0 
L 581 0 
L 581 4863 
L 1159 4863 
L 1159 2956 
Q 1366 3272 1645 3428 
Q 1925 3584 2291 3584 
Q 2894 3584 3203 3211 
Q 3513 2838 3513 2113 
z
" transform="scale(0.015625)"/>
      <path id="DejaVuSans-6f" d="M 1959 3097 
Q 1497 3097 1228 2736 
Q 959 2375 959 1747 
Q 959 1119 1226 758 
Q 1494 397 1959 397 
Q 2419 397 2687 759 
Q 2956 1122 2956 1747 
Q 2956 2369 2687 2733 
Q 2419 3097 1959 3097 
z
M 1959 3584 
Q 2709 3584 3137 3096 
Q 3566 2609 3566 1747 
Q 3566 888 3137 398 
Q 2709 -91 1959 -91 
Q 1206 -91 779 398 
Q 353 888 353 1747 
Q 353 2609 779 3096 
Q 1206 3584 1959 3584 
z
" transform="scale(0.015625)"/>
      <path id="DejaVuSans-79" d="M 2059 -325 
Q 1816 -950 1584 -1140 
Q 1353 -1331 966 -1331 
L 506 -1331 
L 506 -850 
L 844 -850 
Q 1081 -850 1212 -737 
Q 1344 -625 1503 -206 
L 1606 56 
L 191 3500 
L 800 3500 
L 1894 763 
L 2988 3500 
L 3597 3500 
L 2059 -325 
z
" transform="scale(0.015625)"/>
     </defs>
     <use xlink:href="#DejaVuSans-67"/>
     <use xlink:href="#DejaVuSans-65" x="63.476562"/>
     <use xlink:href="#DejaVuSans-74" x="125"/>
     <use xlink:href="#DejaVuSans-5f" x="164.208984"/>
     <use xlink:href="#DejaVuSans-73" x="214.208984"/>
     <use xlink:href="#DejaVuSans-75" x="266.308594"/>
     <use xlink:href="#DejaVuSans-62" x="329.6875"/>
     <use xlink:href="#DejaVuSans-73" x="393.164062"/>
     <use xlink:href="#DejaVuSans-63" x="445.263672"/>
     <use xlink:href="#DejaVuSans-72" x="500.244141"/>
     <use xlink:href="#DejaVuSans-69" x="541.357422"/>
     <use xlink:href="#DejaVuSans-62" x="569.140625"/>
     <use xlink:href="#DejaVuSans-65" x="632.617188"/>
     <use xlink:href="#DejaVuSans-20" x="694.140625"/>
     <use xlink:href="#DejaVuSans-68" x="725.927734"/>
     <use xlink:href="#DejaVuSans-69" x="789.306641"/>
     <use xlink:href="#DejaVuSans-73" x="817.089844"/>
     <use xlink:href="#DejaVuSans-74" x="869.189453"/>
     <use xlink:href="#DejaVuSans-6f" x="908.398438"/>
     <use xlink:href="#DejaVuSans-72" x="969.580078"/>
     <use xlink:href="#DejaVuSans-79" x="1010.693359"/>
    </g>
   </g>
   <g id="legend_1">
    <g id="line2d_41">
     <path d="M 815.08 328.498438 
L 825.08 328.498438 
L 835.08 328.498438 
" style="fill: none; stroke: #1f77b4; stroke-width: 1.5; stroke-linecap: square"/>
    </g>
    <g id="text_21">
     <!-- star -->
     <g style="fill: #a9a9a9" transform="translate(843.08 331.998438) scale(0.1 -0.1)">
      <defs>
       <path id="DejaVuSans-61" d="M 2194 1759 
Q 1497 1759 1228 1600 
Q 959 1441 959 1056 
Q 959 750 1161 570 
Q 1363 391 1709 391 
Q 2188 391 2477 730 
Q 2766 1069 2766 1631 
L 2766 1759 
L 2194 1759 
z
M 3341 1997 
L 3341 0 
L 2766 0 
L 2766 531 
Q 2569 213 2275 61 
Q 1981 -91 1556 -91 
Q 1019 -91 701 211 
Q 384 513 384 1019 
Q 384 1609 779 1909 
Q 1175 2209 1959 2209 
L 2766 2209 
L 2766 2266 
Q 2766 2663 2505 2880 
Q 2244 3097 1772 3097 
Q 1472 3097 1187 3025 
Q 903 2953 641 2809 
L 641 3341 
Q 956 3463 1253 3523 
Q 1550 3584 1831 3584 
Q 2591 3584 2966 3190 
Q 3341 2797 3341 1997 
z
" transform="scale(0.015625)"/>
      </defs>
      <use xlink:href="#DejaVuSans-73"/>
      <use xlink:href="#DejaVuSans-74" x="52.099609"/>
      <use xlink:href="#DejaVuSans-61" x="91.308594"/>
      <use xlink:href="#DejaVuSans-72" x="152.587891"/>
     </g>
    </g>
    <g id="line2d_42">
     <path d="M 815.08 343.176562 
L 825.08 343.176562 
L 835.08 343.176562 
" style="fill: none; stroke: #ff7f0e; stroke-width: 1.5; stroke-linecap: square"/>
    </g>
    <g id="text_22">
     <!-- fork -->
     <g style="fill: #a9a9a9" transform="translate(843.08 346.676562) scale(0.1 -0.1)">
      <defs>
       <path id="DejaVuSans-66" d="M 2375 4863 
L 2375 4384 
L 1825 4384 
Q 1516 4384 1395 4259 
Q 1275 4134 1275 3809 
L 1275 3500 
L 2222 3500 
L 2222 3053 
L 1275 3053 
L 1275 0 
L 697 0 
L 697 3053 
L 147 3053 
L 147 3500 
L 697 3500 
L 697 3744 
Q 697 4328 969 4595 
Q 1241 4863 1831 4863 
L 2375 4863 
z
" transform="scale(0.015625)"/>
       <path id="DejaVuSans-6b" d="M 581 4863 
L 1159 4863 
L 1159 1991 
L 2875 3500 
L 3609 3500 
L 1753 1863 
L 3688 0 
L 2938 0 
L 1159 1709 
L 1159 0 
L 581 0 
L 581 4863 
z
" transform="scale(0.015625)"/>
      </defs>
      <use xlink:href="#DejaVuSans-66"/>
      <use xlink:href="#DejaVuSans-6f" x="35.205078"/>
      <use xlink:href="#DejaVuSans-72" x="96.386719"/>
      <use xlink:href="#DejaVuSans-6b" x="137.5"/>
     </g>
    </g>
   </g>
  </g>
 </g>
 <defs>
  <clipPath id="p5d857d3206">
   <rect x="108" y="43.2" width="669.6" height="277.2"/>
  </clipPath>
 </defs>
</svg>
