<?xml version="1.0" encoding="utf-8" standalone="no"?>
<!DOCTYPE svg PUBLIC "-//W3C//DTD SVG 1.1//EN"
  "http://www.w3.org/Graphics/SVG/1.1/DTD/svg11.dtd">
<svg xmlns:xlink="http://www.w3.org/1999/xlink" width="864pt" height="360pt" viewBox="0 0 864 360" xmlns="http://www.w3.org/2000/svg" version="1.1">
 <metadata>
  <rdf:RDF xmlns:dc="http://purl.org/dc/elements/1.1/" xmlns:cc="http://creativecommons.org/ns#" xmlns:rdf="http://www.w3.org/1999/02/22-rdf-syntax-ns#">
   <cc:Work>
    <dc:type rdf:resource="http://purl.org/dc/dcmitype/StillImage"/>
    <dc:date>2023-02-06T20:22:39.640481</dc:date>
    <dc:format>image/svg+xml</dc:format>
    <dc:creator>
     <cc:Agent>
      <dc:title>Matplotlib v3.6.3, https://matplotlib.org/</dc:title>
     </cc:Agent>
    </dc:creator>
   </cc:Work>
  </rdf:RDF>
 </metadata>
 <defs>
  <style type="text/css">*{stroke-linejoin: round; stroke-linecap: butt}</style>
 </defs>
 <g id="figure_1">
  <g id="patch_1">
   <path d="M 0 360 
L 864 360 
L 864 0 
L 0 0 
L 0 360 
z
" style="fill: none; opacity: 0"/>
  </g>
  <g id="axes_1">
   <g id="patch_2">
    <path d="M 108 320.4 
L 777.6 320.4 
L 777.6 43.2 
L 108 43.2 
L 108 320.4 
z
" style="fill: none; opacity: 0"/>
   </g>
   <g id="matplotlib.axis_1">
    <g id="xtick_1">
     <g id="line2d_1">
      <path d="M 113.524038 320.4 
L 113.524038 43.2 
" clip-path="url(#p873eb501c8)" style="fill: none; stroke-dasharray: 5.12,1.28,0.8,1.28; stroke-dashoffset: 0; stroke: #b0b0b0; stroke-width: 0.8"/>
     </g>
     <g id="line2d_2">
      <defs>
       <path id="m7603c7725f" d="M 0 0 
L 0 3.5 
" style="stroke: #a9a9a9; stroke-width: 0.8"/>
      </defs>
      <g>
       <use xlink:href="#m7603c7725f" x="113.524038" y="320.4" style="fill: #a9a9a9; stroke: #a9a9a9; stroke-width: 0.8"/>
      </g>
     </g>
     <g id="text_1">
      <!-- 2021-07 -->
      <g style="fill: #a9a9a9" transform="translate(92.632631 334.998438) scale(0.1 -0.1)">
       <defs>
        <path id="DejaVuSans-32" d="M 1228 531 
L 3431 531 
L 3431 0 
L 469 0 
L 469 531 
Q 828 903 1448 1529 
Q 2069 2156 2228 2338 
Q 2531 2678 2651 2914 
Q 2772 3150 2772 3378 
Q 2772 3750 2511 3984 
Q 2250 4219 1831 4219 
Q 1534 4219 1204 4116 
Q 875 4013 500 3803 
L 500 4441 
Q 881 4594 1212 4672 
Q 1544 4750 1819 4750 
Q 2544 4750 2975 4387 
Q 3406 4025 3406 3419 
Q 3406 3131 3298 2873 
Q 3191 2616 2906 2266 
Q 2828 2175 2409 1742 
Q 1991 1309 1228 531 
z
" transform="scale(0.015625)"/>
        <path id="DejaVuSans-30" d="M 2034 4250 
Q 1547 4250 1301 3770 
Q 1056 3291 1056 2328 
Q 1056 1369 1301 889 
Q 1547 409 2034 409 
Q 2525 409 2770 889 
Q 3016 1369 3016 2328 
Q 3016 3291 2770 3770 
Q 2525 4250 2034 4250 
z
M 2034 4750 
Q 2819 4750 3233 4129 
Q 3647 3509 3647 2328 
Q 3647 1150 3233 529 
Q 2819 -91 2034 -91 
Q 1250 -91 836 529 
Q 422 1150 422 2328 
Q 422 3509 836 4129 
Q 1250 4750 2034 4750 
z
" transform="scale(0.015625)"/>
        <path id="DejaVuSans-31" d="M 794 531 
L 1825 531 
L 1825 4091 
L 703 3866 
L 703 4441 
L 1819 4666 
L 2450 4666 
L 2450 531 
L 3481 531 
L 3481 0 
L 794 0 
L 794 531 
z
" transform="scale(0.015625)"/>
        <path id="DejaVuSans-2d" d="M 313 2009 
L 1997 2009 
L 1997 1497 
L 313 1497 
L 313 2009 
z
" transform="scale(0.015625)"/>
        <path id="DejaVuSans-37" d="M 525 4666 
L 3525 4666 
L 3525 4397 
L 1831 0 
L 1172 0 
L 2766 4134 
L 525 4134 
L 525 4666 
z
" transform="scale(0.015625)"/>
       </defs>
       <use xlink:href="#DejaVuSans-32"/>
       <use xlink:href="#DejaVuSans-30" x="63.623047"/>
       <use xlink:href="#DejaVuSans-32" x="127.246094"/>
       <use xlink:href="#DejaVuSans-31" x="190.869141"/>
       <use xlink:href="#DejaVuSans-2d" x="254.492188"/>
       <use xlink:href="#DejaVuSans-30" x="290.576172"/>
       <use xlink:href="#DejaVuSans-37" x="354.199219"/>
      </g>
     </g>
    </g>
    <g id="xtick_2">
     <g id="line2d_3">
      <path d="M 180.679004 320.4 
L 180.679004 43.2 
" clip-path="url(#p873eb501c8)" style="fill: none; stroke-dasharray: 5.12,1.28,0.8,1.28; stroke-dashoffset: 0; stroke: #b0b0b0; stroke-width: 0.8"/>
     </g>
     <g id="line2d_4">
      <g>
       <use xlink:href="#m7603c7725f" x="180.679004" y="320.4" style="fill: #a9a9a9; stroke: #a9a9a9; stroke-width: 0.8"/>
      </g>
     </g>
     <g id="text_2">
      <!-- 2021-09 -->
      <g style="fill: #a9a9a9" transform="translate(159.787597 334.998438) scale(0.1 -0.1)">
       <defs>
        <path id="DejaVuSans-39" d="M 703 97 
L 703 672 
Q 941 559 1184 500 
Q 1428 441 1663 441 
Q 2288 441 2617 861 
Q 2947 1281 2994 2138 
Q 2813 1869 2534 1725 
Q 2256 1581 1919 1581 
Q 1219 1581 811 2004 
Q 403 2428 403 3163 
Q 403 3881 828 4315 
Q 1253 4750 1959 4750 
Q 2769 4750 3195 4129 
Q 3622 3509 3622 2328 
Q 3622 1225 3098 567 
Q 2575 -91 1691 -91 
Q 1453 -91 1209 -44 
Q 966 3 703 97 
z
M 1959 2075 
Q 2384 2075 2632 2365 
Q 2881 2656 2881 3163 
Q 2881 3666 2632 3958 
Q 2384 4250 1959 4250 
Q 1534 4250 1286 3958 
Q 1038 3666 1038 3163 
Q 1038 2656 1286 2365 
Q 1534 2075 1959 2075 
z
" transform="scale(0.015625)"/>
       </defs>
       <use xlink:href="#DejaVuSans-32"/>
       <use xlink:href="#DejaVuSans-30" x="63.623047"/>
       <use xlink:href="#DejaVuSans-32" x="127.246094"/>
       <use xlink:href="#DejaVuSans-31" x="190.869141"/>
       <use xlink:href="#DejaVuSans-2d" x="254.492188"/>
       <use xlink:href="#DejaVuSans-30" x="290.576172"/>
       <use xlink:href="#DejaVuSans-39" x="354.199219"/>
      </g>
     </g>
    </g>
    <g id="xtick_3">
     <g id="line2d_5">
      <path d="M 246.750825 320.4 
L 246.750825 43.2 
" clip-path="url(#p873eb501c8)" style="fill: none; stroke-dasharray: 5.12,1.28,0.8,1.28; stroke-dashoffset: 0; stroke: #b0b0b0; stroke-width: 0.8"/>
     </g>
     <g id="line2d_6">
      <g>
       <use xlink:href="#m7603c7725f" x="246.750825" y="320.4" style="fill: #a9a9a9; stroke: #a9a9a9; stroke-width: 0.8"/>
      </g>
     </g>
     <g id="text_3">
      <!-- 2021-11 -->
      <g style="fill: #a9a9a9" transform="translate(225.859419 334.998438) scale(0.1 -0.1)">
       <use xlink:href="#DejaVuSans-32"/>
       <use xlink:href="#DejaVuSans-30" x="63.623047"/>
       <use xlink:href="#DejaVuSans-32" x="127.246094"/>
       <use xlink:href="#DejaVuSans-31" x="190.869141"/>
       <use xlink:href="#DejaVuSans-2d" x="254.492188"/>
       <use xlink:href="#DejaVuSans-31" x="290.576172"/>
       <use xlink:href="#DejaVuSans-31" x="354.199219"/>
      </g>
     </g>
    </g>
    <g id="xtick_4">
     <g id="line2d_7">
      <path d="M 312.822646 320.4 
L 312.822646 43.2 
" clip-path="url(#p873eb501c8)" style="fill: none; stroke-dasharray: 5.12,1.28,0.8,1.28; stroke-dashoffset: 0; stroke: #b0b0b0; stroke-width: 0.8"/>
     </g>
     <g id="line2d_8">
      <g>
       <use xlink:href="#m7603c7725f" x="312.822646" y="320.4" style="fill: #a9a9a9; stroke: #a9a9a9; stroke-width: 0.8"/>
      </g>
     </g>
     <g id="text_4">
      <!-- 2022-01 -->
      <g style="fill: #a9a9a9" transform="translate(291.93124 334.998438) scale(0.1 -0.1)">
       <use xlink:href="#DejaVuSans-32"/>
       <use xlink:href="#DejaVuSans-30" x="63.623047"/>
       <use xlink:href="#DejaVuSans-32" x="127.246094"/>
       <use xlink:href="#DejaVuSans-32" x="190.869141"/>
       <use xlink:href="#DejaVuSans-2d" x="254.492188"/>
       <use xlink:href="#DejaVuSans-30" x="290.576172"/>
       <use xlink:href="#DejaVuSans-31" x="354.199219"/>
      </g>
     </g>
    </g>
    <g id="xtick_5">
     <g id="line2d_9">
      <path d="M 376.728179 320.4 
L 376.728179 43.2 
" clip-path="url(#p873eb501c8)" style="fill: none; stroke-dasharray: 5.12,1.28,0.8,1.28; stroke-dashoffset: 0; stroke: #b0b0b0; stroke-width: 0.8"/>
     </g>
     <g id="line2d_10">
      <g>
       <use xlink:href="#m7603c7725f" x="376.728179" y="320.4" style="fill: #a9a9a9; stroke: #a9a9a9; stroke-width: 0.8"/>
      </g>
     </g>
     <g id="text_5">
      <!-- 2022-03 -->
      <g style="fill: #a9a9a9" transform="translate(355.836772 334.998438) scale(0.1 -0.1)">
       <defs>
        <path id="DejaVuSans-33" d="M 2597 2516 
Q 3050 2419 3304 2112 
Q 3559 1806 3559 1356 
Q 3559 666 3084 287 
Q 2609 -91 1734 -91 
Q 1441 -91 1130 -33 
Q 819 25 488 141 
L 488 750 
Q 750 597 1062 519 
Q 1375 441 1716 441 
Q 2309 441 2620 675 
Q 2931 909 2931 1356 
Q 2931 1769 2642 2001 
Q 2353 2234 1838 2234 
L 1294 2234 
L 1294 2753 
L 1863 2753 
Q 2328 2753 2575 2939 
Q 2822 3125 2822 3475 
Q 2822 3834 2567 4026 
Q 2313 4219 1838 4219 
Q 1578 4219 1281 4162 
Q 984 4106 628 3988 
L 628 4550 
Q 988 4650 1302 4700 
Q 1616 4750 1894 4750 
Q 2613 4750 3031 4423 
Q 3450 4097 3450 3541 
Q 3450 3153 3228 2886 
Q 3006 2619 2597 2516 
z
" transform="scale(0.015625)"/>
       </defs>
       <use xlink:href="#DejaVuSans-32"/>
       <use xlink:href="#DejaVuSans-30" x="63.623047"/>
       <use xlink:href="#DejaVuSans-32" x="127.246094"/>
       <use xlink:href="#DejaVuSans-32" x="190.869141"/>
       <use xlink:href="#DejaVuSans-2d" x="254.492188"/>
       <use xlink:href="#DejaVuSans-30" x="290.576172"/>
       <use xlink:href="#DejaVuSans-33" x="354.199219"/>
      </g>
     </g>
    </g>
    <g id="xtick_6">
     <g id="line2d_11">
      <path d="M 442.8 320.4 
L 442.8 43.2 
" clip-path="url(#p873eb501c8)" style="fill: none; stroke-dasharray: 5.12,1.28,0.8,1.28; stroke-dashoffset: 0; stroke: #b0b0b0; stroke-width: 0.8"/>
     </g>
     <g id="line2d_12">
      <g>
       <use xlink:href="#m7603c7725f" x="442.8" y="320.4" style="fill: #a9a9a9; stroke: #a9a9a9; stroke-width: 0.8"/>
      </g>
     </g>
     <g id="text_6">
      <!-- 2022-05 -->
      <g style="fill: #a9a9a9" transform="translate(421.908594 334.998438) scale(0.1 -0.1)">
       <defs>
        <path id="DejaVuSans-35" d="M 691 4666 
L 3169 4666 
L 3169 4134 
L 1269 4134 
L 1269 2991 
Q 1406 3038 1543 3061 
Q 1681 3084 1819 3084 
Q 2600 3084 3056 2656 
Q 3513 2228 3513 1497 
Q 3513 744 3044 326 
Q 2575 -91 1722 -91 
Q 1428 -91 1123 -41 
Q 819 9 494 109 
L 494 744 
Q 775 591 1075 516 
Q 1375 441 1709 441 
Q 2250 441 2565 725 
Q 2881 1009 2881 1497 
Q 2881 1984 2565 2268 
Q 2250 2553 1709 2553 
Q 1456 2553 1204 2497 
Q 953 2441 691 2322 
L 691 4666 
z
" transform="scale(0.015625)"/>
       </defs>
       <use xlink:href="#DejaVuSans-32"/>
       <use xlink:href="#DejaVuSans-30" x="63.623047"/>
       <use xlink:href="#DejaVuSans-32" x="127.246094"/>
       <use xlink:href="#DejaVuSans-32" x="190.869141"/>
       <use xlink:href="#DejaVuSans-2d" x="254.492188"/>
       <use xlink:href="#DejaVuSans-30" x="290.576172"/>
       <use xlink:href="#DejaVuSans-35" x="354.199219"/>
      </g>
     </g>
    </g>
    <g id="xtick_7">
     <g id="line2d_13">
      <path d="M 508.871821 320.4 
L 508.871821 43.2 
" clip-path="url(#p873eb501c8)" style="fill: none; stroke-dasharray: 5.12,1.28,0.8,1.28; stroke-dashoffset: 0; stroke: #b0b0b0; stroke-width: 0.8"/>
     </g>
     <g id="line2d_14">
      <g>
       <use xlink:href="#m7603c7725f" x="508.871821" y="320.4" style="fill: #a9a9a9; stroke: #a9a9a9; stroke-width: 0.8"/>
      </g>
     </g>
     <g id="text_7">
      <!-- 2022-07 -->
      <g style="fill: #a9a9a9" transform="translate(487.980415 334.998438) scale(0.1 -0.1)">
       <use xlink:href="#DejaVuSans-32"/>
       <use xlink:href="#DejaVuSans-30" x="63.623047"/>
       <use xlink:href="#DejaVuSans-32" x="127.246094"/>
       <use xlink:href="#DejaVuSans-32" x="190.869141"/>
       <use xlink:href="#DejaVuSans-2d" x="254.492188"/>
       <use xlink:href="#DejaVuSans-30" x="290.576172"/>
       <use xlink:href="#DejaVuSans-37" x="354.199219"/>
      </g>
     </g>
    </g>
    <g id="xtick_8">
     <g id="line2d_15">
      <path d="M 576.026787 320.4 
L 576.026787 43.2 
" clip-path="url(#p873eb501c8)" style="fill: none; stroke-dasharray: 5.12,1.28,0.8,1.28; stroke-dashoffset: 0; stroke: #b0b0b0; stroke-width: 0.8"/>
     </g>
     <g id="line2d_16">
      <g>
       <use xlink:href="#m7603c7725f" x="576.026787" y="320.4" style="fill: #a9a9a9; stroke: #a9a9a9; stroke-width: 0.8"/>
      </g>
     </g>
     <g id="text_8">
      <!-- 2022-09 -->
      <g style="fill: #a9a9a9" transform="translate(555.135381 334.998438) scale(0.1 -0.1)">
       <use xlink:href="#DejaVuSans-32"/>
       <use xlink:href="#DejaVuSans-30" x="63.623047"/>
       <use xlink:href="#DejaVuSans-32" x="127.246094"/>
       <use xlink:href="#DejaVuSans-32" x="190.869141"/>
       <use xlink:href="#DejaVuSans-2d" x="254.492188"/>
       <use xlink:href="#DejaVuSans-30" x="290.576172"/>
       <use xlink:href="#DejaVuSans-39" x="354.199219"/>
      </g>
     </g>
    </g>
    <g id="xtick_9">
     <g id="line2d_17">
      <path d="M 642.098609 320.4 
L 642.098609 43.2 
" clip-path="url(#p873eb501c8)" style="fill: none; stroke-dasharray: 5.12,1.28,0.8,1.28; stroke-dashoffset: 0; stroke: #b0b0b0; stroke-width: 0.8"/>
     </g>
     <g id="line2d_18">
      <g>
       <use xlink:href="#m7603c7725f" x="642.098609" y="320.4" style="fill: #a9a9a9; stroke: #a9a9a9; stroke-width: 0.8"/>
      </g>
     </g>
     <g id="text_9">
      <!-- 2022-11 -->
      <g style="fill: #a9a9a9" transform="translate(621.207203 334.998438) scale(0.1 -0.1)">
       <use xlink:href="#DejaVuSans-32"/>
       <use xlink:href="#DejaVuSans-30" x="63.623047"/>
       <use xlink:href="#DejaVuSans-32" x="127.246094"/>
       <use xlink:href="#DejaVuSans-32" x="190.869141"/>
       <use xlink:href="#DejaVuSans-2d" x="254.492188"/>
       <use xlink:href="#DejaVuSans-31" x="290.576172"/>
       <use xlink:href="#DejaVuSans-31" x="354.199219"/>
      </g>
     </g>
    </g>
    <g id="xtick_10">
     <g id="line2d_19">
      <path d="M 708.17043 320.4 
L 708.17043 43.2 
" clip-path="url(#p873eb501c8)" style="fill: none; stroke-dasharray: 5.12,1.28,0.8,1.28; stroke-dashoffset: 0; stroke: #b0b0b0; stroke-width: 0.8"/>
     </g>
     <g id="line2d_20">
      <g>
       <use xlink:href="#m7603c7725f" x="708.17043" y="320.4" style="fill: #a9a9a9; stroke: #a9a9a9; stroke-width: 0.8"/>
      </g>
     </g>
     <g id="text_10">
      <!-- 2023-01 -->
      <g style="fill: #a9a9a9" transform="translate(687.279024 334.998438) scale(0.1 -0.1)">
       <use xlink:href="#DejaVuSans-32"/>
       <use xlink:href="#DejaVuSans-30" x="63.623047"/>
       <use xlink:href="#DejaVuSans-32" x="127.246094"/>
       <use xlink:href="#DejaVuSans-33" x="190.869141"/>
       <use xlink:href="#DejaVuSans-2d" x="254.492188"/>
       <use xlink:href="#DejaVuSans-30" x="290.576172"/>
       <use xlink:href="#DejaVuSans-31" x="354.199219"/>
      </g>
     </g>
    </g>
    <g id="xtick_11">
     <g id="line2d_21">
      <path d="M 772.075962 320.4 
L 772.075962 43.2 
" clip-path="url(#p873eb501c8)" style="fill: none; stroke-dasharray: 5.12,1.28,0.8,1.28; stroke-dashoffset: 0; stroke: #b0b0b0; stroke-width: 0.8"/>
     </g>
     <g id="line2d_22">
      <g>
       <use xlink:href="#m7603c7725f" x="772.075962" y="320.4" style="fill: #a9a9a9; stroke: #a9a9a9; stroke-width: 0.8"/>
      </g>
     </g>
     <g id="text_11">
      <!-- 2023-03 -->
      <g style="fill: #a9a9a9" transform="translate(751.184556 334.998438) scale(0.1 -0.1)">
       <use xlink:href="#DejaVuSans-32"/>
       <use xlink:href="#DejaVuSans-30" x="63.623047"/>
       <use xlink:href="#DejaVuSans-32" x="127.246094"/>
       <use xlink:href="#DejaVuSans-33" x="190.869141"/>
       <use xlink:href="#DejaVuSans-2d" x="254.492188"/>
       <use xlink:href="#DejaVuSans-30" x="290.576172"/>
       <use xlink:href="#DejaVuSans-33" x="354.199219"/>
      </g>
     </g>
    </g>
   </g>
   <g id="matplotlib.axis_2">
    <g id="ytick_1">
     <g id="line2d_23">
      <path d="M 108 307.866631 
L 777.6 307.866631 
" clip-path="url(#p873eb501c8)" style="fill: none; stroke-dasharray: 5.12,1.28,0.8,1.28; stroke-dashoffset: 0; stroke: #b0b0b0; stroke-width: 0.8"/>
     </g>
     <g id="line2d_24">
      <defs>
       <path id="m72ad039c62" d="M 0 0 
L -3.5 0 
" style="stroke: #a9a9a9; stroke-width: 0.8"/>
      </defs>
      <g>
       <use xlink:href="#m72ad039c62" x="108" y="307.866631" style="fill: #a9a9a9; stroke: #a9a9a9; stroke-width: 0.8"/>
      </g>
     </g>
     <g id="text_12">
      <!-- 0 -->
      <g style="fill: #a9a9a9" transform="translate(94.6375 311.66585) scale(0.1 -0.1)">
       <use xlink:href="#DejaVuSans-30"/>
      </g>
     </g>
    </g>
    <g id="ytick_2">
     <g id="line2d_25">
      <path d="M 108 274.550925 
L 777.6 274.550925 
" clip-path="url(#p873eb501c8)" style="fill: none; stroke-dasharray: 5.12,1.28,0.8,1.28; stroke-dashoffset: 0; stroke: #b0b0b0; stroke-width: 0.8"/>
     </g>
     <g id="line2d_26">
      <g>
       <use xlink:href="#m72ad039c62" x="108" y="274.550925" style="fill: #a9a9a9; stroke: #a9a9a9; stroke-width: 0.8"/>
      </g>
     </g>
     <g id="text_13">
      <!-- 500 -->
      <g style="fill: #a9a9a9" transform="translate(81.9125 278.350144) scale(0.1 -0.1)">
       <use xlink:href="#DejaVuSans-35"/>
       <use xlink:href="#DejaVuSans-30" x="63.623047"/>
       <use xlink:href="#DejaVuSans-30" x="127.246094"/>
      </g>
     </g>
    </g>
    <g id="ytick_3">
     <g id="line2d_27">
      <path d="M 108 241.235219 
L 777.6 241.235219 
" clip-path="url(#p873eb501c8)" style="fill: none; stroke-dasharray: 5.12,1.28,0.8,1.28; stroke-dashoffset: 0; stroke: #b0b0b0; stroke-width: 0.8"/>
     </g>
     <g id="line2d_28">
      <g>
       <use xlink:href="#m72ad039c62" x="108" y="241.235219" style="fill: #a9a9a9; stroke: #a9a9a9; stroke-width: 0.8"/>
      </g>
     </g>
     <g id="text_14">
      <!-- 1000 -->
      <g style="fill: #a9a9a9" transform="translate(75.55 245.034438) scale(0.1 -0.1)">
       <use xlink:href="#DejaVuSans-31"/>
       <use xlink:href="#DejaVuSans-30" x="63.623047"/>
       <use xlink:href="#DejaVuSans-30" x="127.246094"/>
       <use xlink:href="#DejaVuSans-30" x="190.869141"/>
      </g>
     </g>
    </g>
    <g id="ytick_4">
     <g id="line2d_29">
      <path d="M 108 207.919513 
L 777.6 207.919513 
" clip-path="url(#p873eb501c8)" style="fill: none; stroke-dasharray: 5.12,1.28,0.8,1.28; stroke-dashoffset: 0; stroke: #b0b0b0; stroke-width: 0.8"/>
     </g>
     <g id="line2d_30">
      <g>
       <use xlink:href="#m72ad039c62" x="108" y="207.919513" style="fill: #a9a9a9; stroke: #a9a9a9; stroke-width: 0.8"/>
      </g>
     </g>
     <g id="text_15">
      <!-- 1500 -->
      <g style="fill: #a9a9a9" transform="translate(75.55 211.718732) scale(0.1 -0.1)">
       <use xlink:href="#DejaVuSans-31"/>
       <use xlink:href="#DejaVuSans-35" x="63.623047"/>
       <use xlink:href="#DejaVuSans-30" x="127.246094"/>
       <use xlink:href="#DejaVuSans-30" x="190.869141"/>
      </g>
     </g>
    </g>
    <g id="ytick_5">
     <g id="line2d_31">
      <path d="M 108 174.603808 
L 777.6 174.603808 
" clip-path="url(#p873eb501c8)" style="fill: none; stroke-dasharray: 5.12,1.28,0.8,1.28; stroke-dashoffset: 0; stroke: #b0b0b0; stroke-width: 0.8"/>
     </g>
     <g id="line2d_32">
      <g>
       <use xlink:href="#m72ad039c62" x="108" y="174.603808" style="fill: #a9a9a9; stroke: #a9a9a9; stroke-width: 0.8"/>
      </g>
     </g>
     <g id="text_16">
      <!-- 2000 -->
      <g style="fill: #a9a9a9" transform="translate(75.55 178.403026) scale(0.1 -0.1)">
       <use xlink:href="#DejaVuSans-32"/>
       <use xlink:href="#DejaVuSans-30" x="63.623047"/>
       <use xlink:href="#DejaVuSans-30" x="127.246094"/>
       <use xlink:href="#DejaVuSans-30" x="190.869141"/>
      </g>
     </g>
    </g>
    <g id="ytick_6">
     <g id="line2d_33">
      <path d="M 108 141.288102 
L 777.6 141.288102 
" clip-path="url(#p873eb501c8)" style="fill: none; stroke-dasharray: 5.12,1.28,0.8,1.28; stroke-dashoffset: 0; stroke: #b0b0b0; stroke-width: 0.8"/>
     </g>
     <g id="line2d_34">
      <g>
       <use xlink:href="#m72ad039c62" x="108" y="141.288102" style="fill: #a9a9a9; stroke: #a9a9a9; stroke-width: 0.8"/>
      </g>
     </g>
     <g id="text_17">
      <!-- 2500 -->
      <g style="fill: #a9a9a9" transform="translate(75.55 145.08732) scale(0.1 -0.1)">
       <use xlink:href="#DejaVuSans-32"/>
       <use xlink:href="#DejaVuSans-35" x="63.623047"/>
       <use xlink:href="#DejaVuSans-30" x="127.246094"/>
       <use xlink:href="#DejaVuSans-30" x="190.869141"/>
      </g>
     </g>
    </g>
    <g id="ytick_7">
     <g id="line2d_35">
      <path d="M 108 107.972396 
L 777.6 107.972396 
" clip-path="url(#p873eb501c8)" style="fill: none; stroke-dasharray: 5.12,1.28,0.8,1.28; stroke-dashoffset: 0; stroke: #b0b0b0; stroke-width: 0.8"/>
     </g>
     <g id="line2d_36">
      <g>
       <use xlink:href="#m72ad039c62" x="108" y="107.972396" style="fill: #a9a9a9; stroke: #a9a9a9; stroke-width: 0.8"/>
      </g>
     </g>
     <g id="text_18">
      <!-- 3000 -->
      <g style="fill: #a9a9a9" transform="translate(75.55 111.771614) scale(0.1 -0.1)">
       <use xlink:href="#DejaVuSans-33"/>
       <use xlink:href="#DejaVuSans-30" x="63.623047"/>
       <use xlink:href="#DejaVuSans-30" x="127.246094"/>
       <use xlink:href="#DejaVuSans-30" x="190.869141"/>
      </g>
     </g>
    </g>
    <g id="ytick_8">
     <g id="line2d_37">
      <path d="M 108 74.65669 
L 777.6 74.65669 
" clip-path="url(#p873eb501c8)" style="fill: none; stroke-dasharray: 5.12,1.28,0.8,1.28; stroke-dashoffset: 0; stroke: #b0b0b0; stroke-width: 0.8"/>
     </g>
     <g id="line2d_38">
      <g>
       <use xlink:href="#m72ad039c62" x="108" y="74.65669" style="fill: #a9a9a9; stroke: #a9a9a9; stroke-width: 0.8"/>
      </g>
     </g>
     <g id="text_19">
      <!-- 3500 -->
      <g style="fill: #a9a9a9" transform="translate(75.55 78.455908) scale(0.1 -0.1)">
       <use xlink:href="#DejaVuSans-33"/>
       <use xlink:href="#DejaVuSans-35" x="63.623047"/>
       <use xlink:href="#DejaVuSans-30" x="127.246094"/>
       <use xlink:href="#DejaVuSans-30" x="190.869141"/>
      </g>
     </g>
    </g>
   </g>
   <g id="line2d_39">
    <path d="M 138.436364 307.600106 
L 142.768942 307.266949 
L 143.852087 307.133686 
L 144.935231 307.133686 
L 146.018376 306.733897 
L 148.184665 306.600635 
L 155.766677 305.201375 
L 157.932967 305.068112 
L 159.016111 304.868218 
L 162.265545 304.668324 
L 163.34869 304.135272 
L 164.431834 303.868747 
L 165.514979 302.669381 
L 166.598124 302.003067 
L 167.681268 299.737599 
L 168.764413 299.604336 
L 169.847557 298.871391 
L 170.930702 298.471602 
L 172.013847 297.938551 
L 175.26328 295.473189 
L 176.346425 294.940137 
L 178.512714 294.140561 
L 179.595859 293.407615 
L 180.679004 293.007827 
L 181.762148 292.474775 
L 182.845293 291.808461 
L 183.928437 291.475304 
L 185.011582 289.87615 
L 186.094727 289.076573 
L 187.177871 288.476891 
L 188.261016 288.010471 
L 192.593594 287.410788 
L 195.843028 286.877737 
L 198.009317 286.744474 
L 199.092462 286.54458 
L 200.175607 286.011528 
L 204.508185 285.678371 
L 207.757619 285.345214 
L 208.840764 285.012057 
L 214.256487 284.012586 
L 216.422776 283.812692 
L 217.50592 283.546166 
L 220.755354 283.146378 
L 221.838499 282.613326 
L 222.921643 282.480063 
L 225.087933 281.747118 
L 227.254222 281.547224 
L 228.337367 281.214067 
L 232.669945 280.614384 
L 233.75309 280.281227 
L 235.919379 279.94807 
L 237.002523 279.94807 
L 242.418247 279.281756 
L 244.584536 278.682073 
L 245.66768 278.415547 
L 247.83397 278.215653 
L 248.917114 278.149022 
L 252.166548 277.549339 
L 253.249693 277.149551 
L 254.332837 275.816922 
L 255.415982 275.417134 
L 256.499126 274.884082 
L 257.582271 274.75082 
L 258.665416 274.484294 
L 259.74856 274.351031 
L 261.91485 273.484823 
L 262.997994 273.418191 
L 268.413717 272.085563 
L 269.496862 272.085563 
L 271.663151 271.819038 
L 273.82944 271.219355 
L 277.078874 270.419778 
L 278.162019 270.353146 
L 280.328308 269.486938 
L 281.411453 269.353675 
L 282.494597 268.887255 
L 284.660886 268.687361 
L 285.744031 268.62073 
L 288.993465 268.087678 
L 291.159754 267.754521 
L 294.409188 267.154839 
L 295.492333 266.821682 
L 296.575477 266.688419 
L 298.741766 265.955473 
L 299.824911 265.355791 
L 300.908056 265.089265 
L 301.9912 264.956002 
L 304.157489 264.289688 
L 306.323779 263.156954 
L 307.406923 262.49064 
L 308.490068 262.357377 
L 309.573213 262.02422 
L 310.656357 261.890957 
L 311.739502 261.624432 
L 312.822646 261.491169 
L 313.905791 261.024749 
L 316.07208 260.691592 
L 317.155225 260.15854 
L 318.238369 259.758752 
L 319.321514 259.492226 
L 320.404659 259.358964 
L 321.487803 258.959175 
L 325.820382 258.159598 
L 327.986671 257.29339 
L 329.069816 257.093496 
L 330.15296 256.693707 
L 331.236105 256.560444 
L 332.319249 256.094024 
L 333.402394 255.827499 
L 335.568683 255.694236 
L 337.734973 255.027922 
L 338.818117 254.894659 
L 339.901262 254.894659 
L 340.984406 254.428239 
L 343.150696 254.095082 
L 344.23384 253.695293 
L 346.400129 253.628662 
L 347.483274 253.495399 
L 348.566419 253.495399 
L 350.732708 253.162242 
L 352.898997 252.162771 
L 355.065286 251.229931 
L 356.148431 250.963406 
L 357.231576 250.297091 
L 358.31472 249.963934 
L 360.481009 249.031095 
L 361.564154 248.8312 
L 363.730443 248.098255 
L 364.813588 247.431941 
L 365.896732 246.898889 
L 366.979877 245.832787 
L 368.063022 244.167002 
L 369.146166 242.901005 
L 370.229311 242.567848 
L 371.312456 242.567848 
L 372.3956 241.901534 
L 373.478745 241.101957 
L 374.561889 240.835431 
L 375.645034 240.30238 
L 376.728179 240.102485 
L 377.811323 239.169646 
L 378.894468 238.90312 
L 382.143902 237.50386 
L 383.227046 236.304495 
L 384.310191 234.771973 
L 385.393335 234.17229 
L 386.47648 232.506504 
L 387.559625 231.507033 
L 388.642769 231.040613 
L 389.725914 230.774088 
L 390.809059 230.107774 
L 392.975348 229.108302 
L 397.307926 226.17652 
L 398.391071 224.777261 
L 399.474215 222.445161 
L 400.55736 220.97927 
L 401.640505 220.179693 
L 402.723649 219.713273 
L 407.056228 216.315071 
L 409.222517 214.715918 
L 410.305662 213.849709 
L 411.388806 212.450449 
L 412.471951 211.51761 
L 418.970819 207.119937 
L 420.053963 206.853411 
L 421.137108 206.386991 
L 422.220252 205.787308 
L 423.303397 205.320888 
L 425.469686 204.188154 
L 426.552831 203.788366 
L 428.71912 201.989318 
L 429.802265 200.723321 
L 431.968554 199.390693 
L 433.051698 199.124167 
L 434.134843 198.591116 
L 435.217988 197.85817 
L 437.384277 196.792068 
L 438.467422 196.592173 
L 439.550566 195.925859 
L 441.716855 194.859757 
L 442.8 193.860286 
L 443.883145 193.12734 
L 444.966289 192.794183 
L 446.049434 192.127869 
L 447.132578 191.661449 
L 448.215723 190.995135 
L 449.298868 190.595346 
L 450.382012 189.929032 
L 451.465157 189.062824 
L 453.631446 188.329878 
L 454.714591 187.863458 
L 455.797735 187.663564 
L 456.88088 186.99725 
L 457.964025 186.797356 
L 460.130314 186.06441 
L 461.213458 185.731253 
L 463.379748 184.865045 
L 464.462892 184.465256 
L 465.546037 184.198731 
L 466.629181 183.798942 
L 468.795471 183.465785 
L 470.96176 181.733369 
L 472.044905 181.33358 
L 474.211194 180.200846 
L 476.377483 179.068112 
L 478.543772 178.468429 
L 479.626917 177.668852 
L 480.710061 177.402327 
L 482.876351 176.069699 
L 483.959495 175.536647 
L 487.208929 174.870333 
L 489.375218 174.27065 
L 492.624652 172.538234 
L 493.707797 172.404971 
L 494.790941 172.005182 
L 495.874086 171.87192 
L 496.957231 171.472131 
L 498.040375 170.805817 
L 500.206665 169.339926 
L 501.289809 169.140032 
L 502.372954 168.740243 
L 503.456098 168.60698 
L 504.539243 168.273823 
L 505.622388 167.540878 
L 506.705532 167.207721 
L 507.788677 166.741301 
L 512.121255 165.608567 
L 513.2044 165.541935 
L 514.287544 165.208778 
L 516.453834 164.34257 
L 517.536978 164.009413 
L 518.620123 163.809519 
L 519.703268 163.343099 
L 520.786412 163.009942 
L 521.869557 162.543522 
L 524.035846 161.943839 
L 525.118991 161.877208 
L 527.28528 161.410788 
L 528.368424 160.944368 
L 529.451569 160.744474 
L 531.617858 159.878265 
L 534.867292 158.479006 
L 537.033581 157.146378 
L 538.116726 156.879852 
L 539.199871 156.280169 
L 540.283015 155.880381 
L 541.36616 155.280698 
L 543.532449 154.814278 
L 544.615594 154.214595 
L 545.698738 153.748176 
L 546.781883 153.415019 
L 548.948172 153.081861 
L 550.031317 152.348916 
L 551.114461 151.815865 
L 552.197606 151.61597 
L 554.363895 150.749762 
L 555.44704 150.549868 
L 556.530184 150.016816 
L 560.862763 149.417134 
L 563.029052 148.484294 
L 564.112197 147.684717 
L 565.195341 145.885669 
L 566.278486 145.619143 
L 567.361631 145.48588 
L 568.444775 145.219355 
L 570.611064 144.086621 
L 571.694209 143.686832 
L 572.777354 143.153781 
L 573.860498 142.887255 
L 576.026787 141.887784 
L 578.193077 140.888313 
L 580.359366 140.022105 
L 581.442511 139.355791 
L 582.525655 138.956002 
L 583.6088 138.689476 
L 584.691944 138.556214 
L 585.775089 138.289688 
L 587.941378 137.290217 
L 589.024523 136.823797 
L 590.107667 136.623903 
L 593.357101 135.424537 
L 595.52339 134.15854 
L 596.606535 133.492226 
L 597.68968 132.959175 
L 598.772824 132.759281 
L 599.855969 132.426124 
L 600.939114 132.359492 
L 605.271692 131.026864 
L 606.354837 130.960233 
L 607.437981 130.227287 
L 608.521126 129.960762 
L 609.60427 129.494342 
L 612.853704 128.561502 
L 613.936849 127.961819 
L 615.019994 127.628662 
L 616.103138 126.962348 
L 617.186283 126.495928 
L 618.269427 125.896245 
L 623.68515 123.897303 
L 624.768295 123.29762 
L 625.85144 122.564675 
L 626.934584 121.431941 
L 628.017729 120.765627 
L 629.100874 120.565732 
L 631.267163 119.03321 
L 632.350307 118.700053 
L 633.433452 117.234162 
L 634.516597 116.834373 
L 635.599741 116.101428 
L 636.682886 115.968165 
L 637.76603 115.301851 
L 638.849175 114.835431 
L 639.93232 114.635537 
L 641.015464 114.235748 
L 642.098609 113.436171 
L 643.181753 113.103014 
L 646.431187 111.037441 
L 647.514332 110.571021 
L 649.680621 109.438287 
L 650.763766 108.971867 
L 651.84691 108.838604 
L 652.930055 108.438815 
L 655.096344 107.306081 
L 656.179489 105.706928 
L 657.262633 104.707456 
L 658.345778 104.107774 
L 659.428923 103.841248 
L 661.595212 102.641883 
L 662.678357 102.441988 
L 663.761501 101.908937 
L 667.010935 100.709572 
L 668.09408 100.17652 
L 670.260369 98.777261 
L 672.426658 96.645056 
L 673.509803 95.845479 
L 675.676092 94.579482 
L 676.759236 93.580011 
L 680.00867 91.18128 
L 681.091815 90.648228 
L 682.17496 89.515494 
L 683.258104 88.782549 
L 685.424393 88.049603 
L 686.507538 87.116764 
L 688.673827 86.117292 
L 689.756972 85.850767 
L 690.840116 85.117821 
L 691.923261 84.851296 
L 694.08955 83.985087 
L 696.25584 82.519196 
L 697.338984 81.986145 
L 699.505273 81.386462 
L 700.588418 80.786779 
L 706.004141 79.054363 
L 708.17043 78.054892 
L 709.253575 77.188683 
L 710.33672 76.722263 
L 712.503009 75.989318 
L 713.586153 75.522898 
L 714.669298 75.189741 
L 715.752443 74.456795 
L 719.001876 73.057536 
L 720.085021 72.32459 
L 721.168166 71.791539 
L 722.25131 69.659334 
L 723.334455 67.860286 
L 725.500744 65.461555 
L 726.583889 64.728609 
L 728.750178 63.662507 
L 730.916467 62.796298 
L 731.999612 62.596404 
L 733.082756 62.063353 
L 734.165901 61.796827 
L 735.249046 61.397039 
L 736.33219 61.130513 
L 739.581624 59.464728 
L 741.747913 57.932205 
L 743.914203 57.132628 
L 746.080492 56.066526 
L 747.163636 55.8 
L 747.163636 55.8 
" clip-path="url(#p873eb501c8)" style="fill: none; stroke: #1f77b4; stroke-width: 1.5; stroke-linecap: square"/>
   </g>
   <g id="line2d_40">
    <path d="M 139.519508 307.8 
L 141.685797 307.8 
L 143.852087 307.533474 
L 150.350954 307.466843 
L 153.600388 307.33358 
L 156.849822 307.266949 
L 159.016111 307.200317 
L 162.265545 307.200317 
L 163.34869 306.933792 
L 166.598124 306.86716 
L 172.013847 306.267478 
L 180.679004 305.801058 
L 181.762148 305.801058 
L 182.845293 305.601163 
L 186.094727 305.534532 
L 188.261016 305.268006 
L 192.593594 305.268006 
L 193.676739 305.134744 
L 199.092462 305.068112 
L 202.341896 304.934849 
L 212.090197 304.868218 
L 214.256487 304.801586 
L 218.589065 304.734955 
L 221.838499 304.601692 
L 226.171077 304.601692 
L 227.254222 304.468429 
L 230.503656 304.401798 
L 234.836234 304.201904 
L 242.418247 304.135272 
L 244.584536 304.068641 
L 248.917114 304.00201 
L 252.166548 303.602221 
L 257.582271 303.53559 
L 262.997994 303.269064 
L 268.413717 303.202433 
L 271.663151 303.06917 
L 273.82944 303.002538 
L 275.99573 302.802644 
L 280.328308 302.60275 
L 283.577742 302.536118 
L 285.744031 302.469487 
L 287.91032 302.469487 
L 288.993465 302.336224 
L 292.242899 302.336224 
L 294.409188 302.13633 
L 297.658622 302.003067 
L 303.074345 301.936436 
L 306.323779 301.603279 
L 308.490068 301.470016 
L 309.573213 301.270122 
L 313.905791 301.20349 
L 317.155225 300.936965 
L 319.321514 300.73707 
L 324.737237 300.470545 
L 327.986671 300.403913 
L 331.236105 300.27065 
L 332.319249 300.27065 
L 334.485539 300.070756 
L 336.651828 300.004125 
L 337.734973 300.004125 
L 338.818117 299.870862 
L 340.984406 299.804231 
L 346.400129 299.537705 
L 348.566419 299.471074 
L 351.815852 299.337811 
L 355.065286 299.271179 
L 357.231576 299.204548 
L 362.647299 299.137916 
L 366.979877 298.671497 
L 368.063022 298.671497 
L 370.229311 298.471602 
L 372.3956 298.404971 
L 377.811323 298.005182 
L 378.894468 297.738657 
L 381.060757 297.605394 
L 382.143902 297.338868 
L 385.393335 297.072343 
L 387.559625 296.605923 
L 389.725914 296.539291 
L 391.892203 296.539291 
L 392.975348 296.406029 
L 394.058492 296.406029 
L 396.224782 296.072871 
L 400.55736 295.339926 
L 401.640505 295.339926 
L 402.723649 295.206663 
L 405.973083 295.140032 
L 420.053963 294.273823 
L 421.137108 294.073929 
L 424.386542 293.874035 
L 426.552831 293.540878 
L 428.71912 293.340984 
L 430.885409 293.274352 
L 433.051698 293.274352 
L 434.134843 293.007827 
L 435.217988 292.874564 
L 439.550566 292.807932 
L 441.716855 292.608038 
L 442.8 292.608038 
L 446.049434 292.141618 
L 447.132578 291.875093 
L 448.215723 291.74183 
L 450.382012 291.675198 
L 455.797735 291.408673 
L 459.047169 291.342041 
L 473.128049 290.542464 
L 475.294338 290.542464 
L 477.460628 290.34257 
L 479.626917 290.34257 
L 482.876351 290.009413 
L 487.208929 289.809519 
L 489.375218 289.742887 
L 490.458363 289.609625 
L 494.790941 289.542993 
L 502.372954 289.143205 
L 507.788677 289.076573 
L 509.954966 289.009942 
L 511.038111 289.009942 
L 512.121255 288.810048 
L 514.287544 288.743416 
L 520.786412 288.676785 
L 524.035846 288.543522 
L 528.368424 288.476891 
L 529.451569 288.276996 
L 535.950437 288.210365 
L 538.116726 288.143733 
L 540.283015 288.077102 
L 542.449304 288.010471 
L 544.615594 287.943839 
L 552.197606 287.544051 
L 558.696474 287.477419 
L 561.945907 287.210894 
L 564.112197 287.010999 
L 566.278486 286.944368 
L 568.444775 286.944368 
L 569.52792 286.811105 
L 572.777354 286.744474 
L 573.860498 286.477948 
L 578.193077 286.278054 
L 587.941378 286.211423 
L 593.357101 285.811634 
L 596.606535 285.478477 
L 602.022258 285.411846 
L 605.271692 285.078689 
L 611.77056 284.745531 
L 613.936849 284.6789 
L 618.269427 284.479006 
L 622.602006 284.412374 
L 625.85144 284.279112 
L 630.184018 284.21248 
L 633.433452 283.879323 
L 635.599741 283.812692 
L 639.93232 283.74606 
L 643.181753 283.479535 
L 644.264898 283.346272 
L 645.348043 283.346272 
L 646.431187 283.146378 
L 648.597477 283.079746 
L 652.930055 283.013115 
L 655.096344 282.679958 
L 664.844646 282.613326 
L 667.010935 282.413432 
L 668.09408 282.280169 
L 670.260369 282.213538 
L 672.426658 282.146906 
L 673.509803 281.880381 
L 675.676092 281.813749 
L 676.759236 281.613855 
L 678.925526 281.613855 
L 682.17496 281.280698 
L 702.754707 280.081333 
L 704.920996 280.014701 
L 707.087286 279.94807 
L 720.085021 279.881438 
L 723.334455 279.748176 
L 724.417599 279.748176 
L 725.500744 279.415019 
L 727.667033 279.348387 
L 733.082756 279.281756 
L 735.249046 279.215124 
L 738.498479 279.215124 
L 739.581624 279.081861 
L 743.914203 279.01523 
L 746.080492 278.948599 
L 747.163636 278.948599 
L 747.163636 278.948599 
" clip-path="url(#p873eb501c8)" style="fill: none; stroke: #ff7f0e; stroke-width: 1.5; stroke-linecap: square"/>
   </g>
   <g id="patch_3">
    <path d="M 108 320.4 
L 108 43.2 
" style="fill: none; stroke: #a9a9a9; stroke-width: 0.8; stroke-linejoin: miter; stroke-linecap: square"/>
   </g>
   <g id="patch_4">
    <path d="M 777.6 320.4 
L 777.6 43.2 
" style="fill: none"/>
   </g>
   <g id="patch_5">
    <path d="M 108 320.4 
L 777.6 320.4 
" style="fill: none; stroke: #a9a9a9; stroke-width: 0.8; stroke-linejoin: miter; stroke-linecap: square"/>
   </g>
   <g id="patch_6">
    <path d="M 108 43.2 
L 777.6 43.2 
" style="fill: none"/>
   </g>
   <g id="text_20">
    <!-- get_subscribe history -->
    <g style="fill: #a9a9a9" transform="translate(378.6075 37.2) scale(0.12 -0.12)">
     <defs>
      <path id="DejaVuSans-67" d="M 2906 1791 
Q 2906 2416 2648 2759 
Q 2391 3103 1925 3103 
Q 1463 3103 1205 2759 
Q 947 2416 947 1791 
Q 947 1169 1205 825 
Q 1463 481 1925 481 
Q 2391 481 2648 825 
Q 2906 1169 2906 1791 
z
M 3481 434 
Q 3481 -459 3084 -895 
Q 2688 -1331 1869 -1331 
Q 1566 -1331 1297 -1286 
Q 1028 -1241 775 -1147 
L 775 -588 
Q 1028 -725 1275 -790 
Q 1522 -856 1778 -856 
Q 2344 -856 2625 -561 
Q 2906 -266 2906 331 
L 2906 616 
Q 2728 306 2450 153 
Q 2172 0 1784 0 
Q 1141 0 747 490 
Q 353 981 353 1791 
Q 353 2603 747 3093 
Q 1141 3584 1784 3584 
Q 2172 3584 2450 3431 
Q 2728 3278 2906 2969 
L 2906 3500 
L 3481 3500 
L 3481 434 
z
" transform="scale(0.015625)"/>
      <path id="DejaVuSans-65" d="M 3597 1894 
L 3597 1613 
L 953 1613 
Q 991 1019 1311 708 
Q 1631 397 2203 397 
Q 2534 397 2845 478 
Q 3156 559 3463 722 
L 3463 178 
Q 3153 47 2828 -22 
Q 2503 -91 2169 -91 
Q 1331 -91 842 396 
Q 353 884 353 1716 
Q 353 2575 817 3079 
Q 1281 3584 2069 3584 
Q 2775 3584 3186 3129 
Q 3597 2675 3597 1894 
z
M 3022 2063 
Q 3016 2534 2758 2815 
Q 2500 3097 2075 3097 
Q 1594 3097 1305 2825 
Q 1016 2553 972 2059 
L 3022 2063 
z
" transform="scale(0.015625)"/>
      <path id="DejaVuSans-74" d="M 1172 4494 
L 1172 3500 
L 2356 3500 
L 2356 3053 
L 1172 3053 
L 1172 1153 
Q 1172 725 1289 603 
Q 1406 481 1766 481 
L 2356 481 
L 2356 0 
L 1766 0 
Q 1100 0 847 248 
Q 594 497 594 1153 
L 594 3053 
L 172 3053 
L 172 3500 
L 594 3500 
L 594 4494 
L 1172 4494 
z
" transform="scale(0.015625)"/>
      <path id="DejaVuSans-5f" d="M 3263 -1063 
L 3263 -1509 
L -63 -1509 
L -63 -1063 
L 3263 -1063 
z
" transform="scale(0.015625)"/>
      <path id="DejaVuSans-73" d="M 2834 3397 
L 2834 2853 
Q 2591 2978 2328 3040 
Q 2066 3103 1784 3103 
Q 1356 3103 1142 2972 
Q 928 2841 928 2578 
Q 928 2378 1081 2264 
Q 1234 2150 1697 2047 
L 1894 2003 
Q 2506 1872 2764 1633 
Q 3022 1394 3022 966 
Q 3022 478 2636 193 
Q 2250 -91 1575 -91 
Q 1294 -91 989 -36 
Q 684 19 347 128 
L 347 722 
Q 666 556 975 473 
Q 1284 391 1588 391 
Q 1994 391 2212 530 
Q 2431 669 2431 922 
Q 2431 1156 2273 1281 
Q 2116 1406 1581 1522 
L 1381 1569 
Q 847 1681 609 1914 
Q 372 2147 372 2553 
Q 372 3047 722 3315 
Q 1072 3584 1716 3584 
Q 2034 3584 2315 3537 
Q 2597 3491 2834 3397 
z
" transform="scale(0.015625)"/>
      <path id="DejaVuSans-75" d="M 544 1381 
L 544 3500 
L 1119 3500 
L 1119 1403 
Q 1119 906 1312 657 
Q 1506 409 1894 409 
Q 2359 409 2629 706 
Q 2900 1003 2900 1516 
L 2900 3500 
L 3475 3500 
L 3475 0 
L 2900 0 
L 2900 538 
Q 2691 219 2414 64 
Q 2138 -91 1772 -91 
Q 1169 -91 856 284 
Q 544 659 544 1381 
z
M 1991 3584 
L 1991 3584 
z
" transform="scale(0.015625)"/>
      <path id="DejaVuSans-62" d="M 3116 1747 
Q 3116 2381 2855 2742 
Q 2594 3103 2138 3103 
Q 1681 3103 1420 2742 
Q 1159 2381 1159 1747 
Q 1159 1113 1420 752 
Q 1681 391 2138 391 
Q 2594 391 2855 752 
Q 3116 1113 3116 1747 
z
M 1159 2969 
Q 1341 3281 1617 3432 
Q 1894 3584 2278 3584 
Q 2916 3584 3314 3078 
Q 3713 2572 3713 1747 
Q 3713 922 3314 415 
Q 2916 -91 2278 -91 
Q 1894 -91 1617 61 
Q 1341 213 1159 525 
L 1159 0 
L 581 0 
L 581 4863 
L 1159 4863 
L 1159 2969 
z
" transform="scale(0.015625)"/>
      <path id="DejaVuSans-63" d="M 3122 3366 
L 3122 2828 
Q 2878 2963 2633 3030 
Q 2388 3097 2138 3097 
Q 1578 3097 1268 2742 
Q 959 2388 959 1747 
Q 959 1106 1268 751 
Q 1578 397 2138 397 
Q 2388 397 2633 464 
Q 2878 531 3122 666 
L 3122 134 
Q 2881 22 2623 -34 
Q 2366 -91 2075 -91 
Q 1284 -91 818 406 
Q 353 903 353 1747 
Q 353 2603 823 3093 
Q 1294 3584 2113 3584 
Q 2378 3584 2631 3529 
Q 2884 3475 3122 3366 
z
" transform="scale(0.015625)"/>
      <path id="DejaVuSans-72" d="M 2631 2963 
Q 2534 3019 2420 3045 
Q 2306 3072 2169 3072 
Q 1681 3072 1420 2755 
Q 1159 2438 1159 1844 
L 1159 0 
L 581 0 
L 581 3500 
L 1159 3500 
L 1159 2956 
Q 1341 3275 1631 3429 
Q 1922 3584 2338 3584 
Q 2397 3584 2469 3576 
Q 2541 3569 2628 3553 
L 2631 2963 
z
" transform="scale(0.015625)"/>
      <path id="DejaVuSans-69" d="M 603 3500 
L 1178 3500 
L 1178 0 
L 603 0 
L 603 3500 
z
M 603 4863 
L 1178 4863 
L 1178 4134 
L 603 4134 
L 603 4863 
z
" transform="scale(0.015625)"/>
      <path id="DejaVuSans-20" transform="scale(0.015625)"/>
      <path id="DejaVuSans-68" d="M 3513 2113 
L 3513 0 
L 2938 0 
L 2938 2094 
Q 2938 2591 2744 2837 
Q 2550 3084 2163 3084 
Q 1697 3084 1428 2787 
Q 1159 2491 1159 1978 
L 1159 0 
L 581 0 
L 581 4863 
L 1159 4863 
L 1159 2956 
Q 1366 3272 1645 3428 
Q 1925 3584 2291 3584 
Q 2894 3584 3203 3211 
Q 3513 2838 3513 2113 
z
" transform="scale(0.015625)"/>
      <path id="DejaVuSans-6f" d="M 1959 3097 
Q 1497 3097 1228 2736 
Q 959 2375 959 1747 
Q 959 1119 1226 758 
Q 1494 397 1959 397 
Q 2419 397 2687 759 
Q 2956 1122 2956 1747 
Q 2956 2369 2687 2733 
Q 2419 3097 1959 3097 
z
M 1959 3584 
Q 2709 3584 3137 3096 
Q 3566 2609 3566 1747 
Q 3566 888 3137 398 
Q 2709 -91 1959 -91 
Q 1206 -91 779 398 
Q 353 888 353 1747 
Q 353 2609 779 3096 
Q 1206 3584 1959 3584 
z
" transform="scale(0.015625)"/>
      <path id="DejaVuSans-79" d="M 2059 -325 
Q 1816 -950 1584 -1140 
Q 1353 -1331 966 -1331 
L 506 -1331 
L 506 -850 
L 844 -850 
Q 1081 -850 1212 -737 
Q 1344 -625 1503 -206 
L 1606 56 
L 191 3500 
L 800 3500 
L 1894 763 
L 2988 3500 
L 3597 3500 
L 2059 -325 
z
" transform="scale(0.015625)"/>
     </defs>
     <use xlink:href="#DejaVuSans-67"/>
     <use xlink:href="#DejaVuSans-65" x="63.476562"/>
     <use xlink:href="#DejaVuSans-74" x="125"/>
     <use xlink:href="#DejaVuSans-5f" x="164.208984"/>
     <use xlink:href="#DejaVuSans-73" x="214.208984"/>
     <use xlink:href="#DejaVuSans-75" x="266.308594"/>
     <use xlink:href="#DejaVuSans-62" x="329.6875"/>
     <use xlink:href="#DejaVuSans-73" x="393.164062"/>
     <use xlink:href="#DejaVuSans-63" x="445.263672"/>
     <use xlink:href="#DejaVuSans-72" x="500.244141"/>
     <use xlink:href="#DejaVuSans-69" x="541.357422"/>
     <use xlink:href="#DejaVuSans-62" x="569.140625"/>
     <use xlink:href="#DejaVuSans-65" x="632.617188"/>
     <use xlink:href="#DejaVuSans-20" x="694.140625"/>
     <use xlink:href="#DejaVuSans-68" x="725.927734"/>
     <use xlink:href="#DejaVuSans-69" x="789.306641"/>
     <use xlink:href="#DejaVuSans-73" x="817.089844"/>
     <use xlink:href="#DejaVuSans-74" x="869.189453"/>
     <use xlink:href="#DejaVuSans-6f" x="908.398438"/>
     <use xlink:href="#DejaVuSans-72" x="969.580078"/>
     <use xlink:href="#DejaVuSans-79" x="1010.693359"/>
    </g>
   </g>
   <g id="legend_1">
    <g id="line2d_41">
     <path d="M 815.08 328.498438 
L 825.08 328.498438 
L 835.08 328.498438 
" style="fill: none; stroke: #1f77b4; stroke-width: 1.5; stroke-linecap: square"/>
    </g>
    <g id="text_21">
     <!-- star -->
     <g style="fill: #a9a9a9" transform="translate(843.08 331.998438) scale(0.1 -0.1)">
      <defs>
       <path id="DejaVuSans-61" d="M 2194 1759 
Q 1497 1759 1228 1600 
Q 959 1441 959 1056 
Q 959 750 1161 570 
Q 1363 391 1709 391 
Q 2188 391 2477 730 
Q 2766 1069 2766 1631 
L 2766 1759 
L 2194 1759 
z
M 3341 1997 
L 3341 0 
L 2766 0 
L 2766 531 
Q 2569 213 2275 61 
Q 1981 -91 1556 -91 
Q 1019 -91 701 211 
Q 384 513 384 1019 
Q 384 1609 779 1909 
Q 1175 2209 1959 2209 
L 2766 2209 
L 2766 2266 
Q 2766 2663 2505 2880 
Q 2244 3097 1772 3097 
Q 1472 3097 1187 3025 
Q 903 2953 641 2809 
L 641 3341 
Q 956 3463 1253 3523 
Q 1550 3584 1831 3584 
Q 2591 3584 2966 3190 
Q 3341 2797 3341 1997 
z
" transform="scale(0.015625)"/>
      </defs>
      <use xlink:href="#DejaVuSans-73"/>
      <use xlink:href="#DejaVuSans-74" x="52.099609"/>
      <use xlink:href="#DejaVuSans-61" x="91.308594"/>
      <use xlink:href="#DejaVuSans-72" x="152.587891"/>
     </g>
    </g>
    <g id="line2d_42">
     <path d="M 815.08 343.176562 
L 825.08 343.176562 
L 835.08 343.176562 
" style="fill: none; stroke: #ff7f0e; stroke-width: 1.5; stroke-linecap: square"/>
    </g>
    <g id="text_22">
     <!-- fork -->
     <g style="fill: #a9a9a9" transform="translate(843.08 346.676562) scale(0.1 -0.1)">
      <defs>
       <path id="DejaVuSans-66" d="M 2375 4863 
L 2375 4384 
L 1825 4384 
Q 1516 4384 1395 4259 
Q 1275 4134 1275 3809 
L 1275 3500 
L 2222 3500 
L 2222 3053 
L 1275 3053 
L 1275 0 
L 697 0 
L 697 3053 
L 147 3053 
L 147 3500 
L 697 3500 
L 697 3744 
Q 697 4328 969 4595 
Q 1241 4863 1831 4863 
L 2375 4863 
z
" transform="scale(0.015625)"/>
       <path id="DejaVuSans-6b" d="M 581 4863 
L 1159 4863 
L 1159 1991 
L 2875 3500 
L 3609 3500 
L 1753 1863 
L 3688 0 
L 2938 0 
L 1159 1709 
L 1159 0 
L 581 0 
L 581 4863 
z
" transform="scale(0.015625)"/>
      </defs>
      <use xlink:href="#DejaVuSans-66"/>
      <use xlink:href="#DejaVuSans-6f" x="35.205078"/>
      <use xlink:href="#DejaVuSans-72" x="96.386719"/>
      <use xlink:href="#DejaVuSans-6b" x="137.5"/>
     </g>
    </g>
   </g>
  </g>
 </g>
 <defs>
  <clipPath id="p873eb501c8">
   <rect x="108" y="43.2" width="669.6" height="277.2"/>
  </clipPath>
 </defs>
</svg>
