<?xml version="1.0" encoding="utf-8" standalone="no"?>
<!DOCTYPE svg PUBLIC "-//W3C//DTD SVG 1.1//EN"
  "http://www.w3.org/Graphics/SVG/1.1/DTD/svg11.dtd">
<svg xmlns:xlink="http://www.w3.org/1999/xlink" width="864pt" height="360pt" viewBox="0 0 864 360" xmlns="http://www.w3.org/2000/svg" version="1.1">
 <metadata>
  <rdf:RDF xmlns:dc="http://purl.org/dc/elements/1.1/" xmlns:cc="http://creativecommons.org/ns#" xmlns:rdf="http://www.w3.org/1999/02/22-rdf-syntax-ns#">
   <cc:Work>
    <dc:type rdf:resource="http://purl.org/dc/dcmitype/StillImage"/>
    <dc:date>2023-02-07T20:22:35.457030</dc:date>
    <dc:format>image/svg+xml</dc:format>
    <dc:creator>
     <cc:Agent>
      <dc:title>Matplotlib v3.6.3, https://matplotlib.org/</dc:title>
     </cc:Agent>
    </dc:creator>
   </cc:Work>
  </rdf:RDF>
 </metadata>
 <defs>
  <style type="text/css">*{stroke-linejoin: round; stroke-linecap: butt}</style>
 </defs>
 <g id="figure_1">
  <g id="patch_1">
   <path d="M 0 360 
L 864 360 
L 864 0 
L 0 0 
L 0 360 
z
" style="fill: none; opacity: 0"/>
  </g>
  <g id="axes_1">
   <g id="patch_2">
    <path d="M 108 320.4 
L 777.6 320.4 
L 777.6 43.2 
L 108 43.2 
L 108 320.4 
z
" style="fill: none; opacity: 0"/>
   </g>
   <g id="matplotlib.axis_1">
    <g id="xtick_1">
     <g id="line2d_1">
      <path d="M 113.568287 320.4 
L 113.568287 43.2 
" clip-path="url(#pc871b892eb)" style="fill: none; stroke-dasharray: 5.12,1.28,0.8,1.28; stroke-dashoffset: 0; stroke: #b0b0b0; stroke-width: 0.8"/>
     </g>
     <g id="line2d_2">
      <defs>
       <path id="mabfc276cf0" d="M 0 0 
L 0 3.5 
" style="stroke: #a9a9a9; stroke-width: 0.8"/>
      </defs>
      <g>
       <use xlink:href="#mabfc276cf0" x="113.568287" y="320.4" style="fill: #a9a9a9; stroke: #a9a9a9; stroke-width: 0.8"/>
      </g>
     </g>
     <g id="text_1">
      <!-- 2021-07 -->
      <g style="fill: #a9a9a9" transform="translate(92.676881 334.998438) scale(0.1 -0.1)">
       <defs>
        <path id="DejaVuSans-32" d="M 1228 531 
L 3431 531 
L 3431 0 
L 469 0 
L 469 531 
Q 828 903 1448 1529 
Q 2069 2156 2228 2338 
Q 2531 2678 2651 2914 
Q 2772 3150 2772 3378 
Q 2772 3750 2511 3984 
Q 2250 4219 1831 4219 
Q 1534 4219 1204 4116 
Q 875 4013 500 3803 
L 500 4441 
Q 881 4594 1212 4672 
Q 1544 4750 1819 4750 
Q 2544 4750 2975 4387 
Q 3406 4025 3406 3419 
Q 3406 3131 3298 2873 
Q 3191 2616 2906 2266 
Q 2828 2175 2409 1742 
Q 1991 1309 1228 531 
z
" transform="scale(0.015625)"/>
        <path id="DejaVuSans-30" d="M 2034 4250 
Q 1547 4250 1301 3770 
Q 1056 3291 1056 2328 
Q 1056 1369 1301 889 
Q 1547 409 2034 409 
Q 2525 409 2770 889 
Q 3016 1369 3016 2328 
Q 3016 3291 2770 3770 
Q 2525 4250 2034 4250 
z
M 2034 4750 
Q 2819 4750 3233 4129 
Q 3647 3509 3647 2328 
Q 3647 1150 3233 529 
Q 2819 -91 2034 -91 
Q 1250 -91 836 529 
Q 422 1150 422 2328 
Q 422 3509 836 4129 
Q 1250 4750 2034 4750 
z
" transform="scale(0.015625)"/>
        <path id="DejaVuSans-31" d="M 794 531 
L 1825 531 
L 1825 4091 
L 703 3866 
L 703 4441 
L 1819 4666 
L 2450 4666 
L 2450 531 
L 3481 531 
L 3481 0 
L 794 0 
L 794 531 
z
" transform="scale(0.015625)"/>
        <path id="DejaVuSans-2d" d="M 313 2009 
L 1997 2009 
L 1997 1497 
L 313 1497 
L 313 2009 
z
" transform="scale(0.015625)"/>
        <path id="DejaVuSans-37" d="M 525 4666 
L 3525 4666 
L 3525 4397 
L 1831 0 
L 1172 0 
L 2766 4134 
L 525 4134 
L 525 4666 
z
" transform="scale(0.015625)"/>
       </defs>
       <use xlink:href="#DejaVuSans-32"/>
       <use xlink:href="#DejaVuSans-30" x="63.623047"/>
       <use xlink:href="#DejaVuSans-32" x="127.246094"/>
       <use xlink:href="#DejaVuSans-31" x="190.869141"/>
       <use xlink:href="#DejaVuSans-2d" x="254.492188"/>
       <use xlink:href="#DejaVuSans-30" x="290.576172"/>
       <use xlink:href="#DejaVuSans-37" x="354.199219"/>
      </g>
     </g>
    </g>
    <g id="xtick_2">
     <g id="line2d_3">
      <path d="M 180.603972 320.4 
L 180.603972 43.2 
" clip-path="url(#pc871b892eb)" style="fill: none; stroke-dasharray: 5.12,1.28,0.8,1.28; stroke-dashoffset: 0; stroke: #b0b0b0; stroke-width: 0.8"/>
     </g>
     <g id="line2d_4">
      <g>
       <use xlink:href="#mabfc276cf0" x="180.603972" y="320.4" style="fill: #a9a9a9; stroke: #a9a9a9; stroke-width: 0.8"/>
      </g>
     </g>
     <g id="text_2">
      <!-- 2021-09 -->
      <g style="fill: #a9a9a9" transform="translate(159.712566 334.998438) scale(0.1 -0.1)">
       <defs>
        <path id="DejaVuSans-39" d="M 703 97 
L 703 672 
Q 941 559 1184 500 
Q 1428 441 1663 441 
Q 2288 441 2617 861 
Q 2947 1281 2994 2138 
Q 2813 1869 2534 1725 
Q 2256 1581 1919 1581 
Q 1219 1581 811 2004 
Q 403 2428 403 3163 
Q 403 3881 828 4315 
Q 1253 4750 1959 4750 
Q 2769 4750 3195 4129 
Q 3622 3509 3622 2328 
Q 3622 1225 3098 567 
Q 2575 -91 1691 -91 
Q 1453 -91 1209 -44 
Q 966 3 703 97 
z
M 1959 2075 
Q 2384 2075 2632 2365 
Q 2881 2656 2881 3163 
Q 2881 3666 2632 3958 
Q 2384 4250 1959 4250 
Q 1534 4250 1286 3958 
Q 1038 3666 1038 3163 
Q 1038 2656 1286 2365 
Q 1534 2075 1959 2075 
z
" transform="scale(0.015625)"/>
       </defs>
       <use xlink:href="#DejaVuSans-32"/>
       <use xlink:href="#DejaVuSans-30" x="63.623047"/>
       <use xlink:href="#DejaVuSans-32" x="127.246094"/>
       <use xlink:href="#DejaVuSans-31" x="190.869141"/>
       <use xlink:href="#DejaVuSans-2d" x="254.492188"/>
       <use xlink:href="#DejaVuSans-30" x="290.576172"/>
       <use xlink:href="#DejaVuSans-39" x="354.199219"/>
      </g>
     </g>
    </g>
    <g id="xtick_3">
     <g id="line2d_5">
      <path d="M 246.558437 320.4 
L 246.558437 43.2 
" clip-path="url(#pc871b892eb)" style="fill: none; stroke-dasharray: 5.12,1.28,0.8,1.28; stroke-dashoffset: 0; stroke: #b0b0b0; stroke-width: 0.8"/>
     </g>
     <g id="line2d_6">
      <g>
       <use xlink:href="#mabfc276cf0" x="246.558437" y="320.4" style="fill: #a9a9a9; stroke: #a9a9a9; stroke-width: 0.8"/>
      </g>
     </g>
     <g id="text_3">
      <!-- 2021-11 -->
      <g style="fill: #a9a9a9" transform="translate(225.667031 334.998438) scale(0.1 -0.1)">
       <use xlink:href="#DejaVuSans-32"/>
       <use xlink:href="#DejaVuSans-30" x="63.623047"/>
       <use xlink:href="#DejaVuSans-32" x="127.246094"/>
       <use xlink:href="#DejaVuSans-31" x="190.869141"/>
       <use xlink:href="#DejaVuSans-2d" x="254.492188"/>
       <use xlink:href="#DejaVuSans-31" x="290.576172"/>
       <use xlink:href="#DejaVuSans-31" x="354.199219"/>
      </g>
     </g>
    </g>
    <g id="xtick_4">
     <g id="line2d_7">
      <path d="M 312.512902 320.4 
L 312.512902 43.2 
" clip-path="url(#pc871b892eb)" style="fill: none; stroke-dasharray: 5.12,1.28,0.8,1.28; stroke-dashoffset: 0; stroke: #b0b0b0; stroke-width: 0.8"/>
     </g>
     <g id="line2d_8">
      <g>
       <use xlink:href="#mabfc276cf0" x="312.512902" y="320.4" style="fill: #a9a9a9; stroke: #a9a9a9; stroke-width: 0.8"/>
      </g>
     </g>
     <g id="text_4">
      <!-- 2022-01 -->
      <g style="fill: #a9a9a9" transform="translate(291.621495 334.998438) scale(0.1 -0.1)">
       <use xlink:href="#DejaVuSans-32"/>
       <use xlink:href="#DejaVuSans-30" x="63.623047"/>
       <use xlink:href="#DejaVuSans-32" x="127.246094"/>
       <use xlink:href="#DejaVuSans-32" x="190.869141"/>
       <use xlink:href="#DejaVuSans-2d" x="254.492188"/>
       <use xlink:href="#DejaVuSans-30" x="290.576172"/>
       <use xlink:href="#DejaVuSans-31" x="354.199219"/>
      </g>
     </g>
    </g>
    <g id="xtick_5">
     <g id="line2d_9">
      <path d="M 376.304925 320.4 
L 376.304925 43.2 
" clip-path="url(#pc871b892eb)" style="fill: none; stroke-dasharray: 5.12,1.28,0.8,1.28; stroke-dashoffset: 0; stroke: #b0b0b0; stroke-width: 0.8"/>
     </g>
     <g id="line2d_10">
      <g>
       <use xlink:href="#mabfc276cf0" x="376.304925" y="320.4" style="fill: #a9a9a9; stroke: #a9a9a9; stroke-width: 0.8"/>
      </g>
     </g>
     <g id="text_5">
      <!-- 2022-03 -->
      <g style="fill: #a9a9a9" transform="translate(355.413519 334.998438) scale(0.1 -0.1)">
       <defs>
        <path id="DejaVuSans-33" d="M 2597 2516 
Q 3050 2419 3304 2112 
Q 3559 1806 3559 1356 
Q 3559 666 3084 287 
Q 2609 -91 1734 -91 
Q 1441 -91 1130 -33 
Q 819 25 488 141 
L 488 750 
Q 750 597 1062 519 
Q 1375 441 1716 441 
Q 2309 441 2620 675 
Q 2931 909 2931 1356 
Q 2931 1769 2642 2001 
Q 2353 2234 1838 2234 
L 1294 2234 
L 1294 2753 
L 1863 2753 
Q 2328 2753 2575 2939 
Q 2822 3125 2822 3475 
Q 2822 3834 2567 4026 
Q 2313 4219 1838 4219 
Q 1578 4219 1281 4162 
Q 984 4106 628 3988 
L 628 4550 
Q 988 4650 1302 4700 
Q 1616 4750 1894 4750 
Q 2613 4750 3031 4423 
Q 3450 4097 3450 3541 
Q 3450 3153 3228 2886 
Q 3006 2619 2597 2516 
z
" transform="scale(0.015625)"/>
       </defs>
       <use xlink:href="#DejaVuSans-32"/>
       <use xlink:href="#DejaVuSans-30" x="63.623047"/>
       <use xlink:href="#DejaVuSans-32" x="127.246094"/>
       <use xlink:href="#DejaVuSans-32" x="190.869141"/>
       <use xlink:href="#DejaVuSans-2d" x="254.492188"/>
       <use xlink:href="#DejaVuSans-30" x="290.576172"/>
       <use xlink:href="#DejaVuSans-33" x="354.199219"/>
      </g>
     </g>
    </g>
    <g id="xtick_6">
     <g id="line2d_11">
      <path d="M 442.25939 320.4 
L 442.25939 43.2 
" clip-path="url(#pc871b892eb)" style="fill: none; stroke-dasharray: 5.12,1.28,0.8,1.28; stroke-dashoffset: 0; stroke: #b0b0b0; stroke-width: 0.8"/>
     </g>
     <g id="line2d_12">
      <g>
       <use xlink:href="#mabfc276cf0" x="442.25939" y="320.4" style="fill: #a9a9a9; stroke: #a9a9a9; stroke-width: 0.8"/>
      </g>
     </g>
     <g id="text_6">
      <!-- 2022-05 -->
      <g style="fill: #a9a9a9" transform="translate(421.367983 334.998438) scale(0.1 -0.1)">
       <defs>
        <path id="DejaVuSans-35" d="M 691 4666 
L 3169 4666 
L 3169 4134 
L 1269 4134 
L 1269 2991 
Q 1406 3038 1543 3061 
Q 1681 3084 1819 3084 
Q 2600 3084 3056 2656 
Q 3513 2228 3513 1497 
Q 3513 744 3044 326 
Q 2575 -91 1722 -91 
Q 1428 -91 1123 -41 
Q 819 9 494 109 
L 494 744 
Q 775 591 1075 516 
Q 1375 441 1709 441 
Q 2250 441 2565 725 
Q 2881 1009 2881 1497 
Q 2881 1984 2565 2268 
Q 2250 2553 1709 2553 
Q 1456 2553 1204 2497 
Q 953 2441 691 2322 
L 691 4666 
z
" transform="scale(0.015625)"/>
       </defs>
       <use xlink:href="#DejaVuSans-32"/>
       <use xlink:href="#DejaVuSans-30" x="63.623047"/>
       <use xlink:href="#DejaVuSans-32" x="127.246094"/>
       <use xlink:href="#DejaVuSans-32" x="190.869141"/>
       <use xlink:href="#DejaVuSans-2d" x="254.492188"/>
       <use xlink:href="#DejaVuSans-30" x="290.576172"/>
       <use xlink:href="#DejaVuSans-35" x="354.199219"/>
      </g>
     </g>
    </g>
    <g id="xtick_7">
     <g id="line2d_13">
      <path d="M 508.213854 320.4 
L 508.213854 43.2 
" clip-path="url(#pc871b892eb)" style="fill: none; stroke-dasharray: 5.12,1.28,0.8,1.28; stroke-dashoffset: 0; stroke: #b0b0b0; stroke-width: 0.8"/>
     </g>
     <g id="line2d_14">
      <g>
       <use xlink:href="#mabfc276cf0" x="508.213854" y="320.4" style="fill: #a9a9a9; stroke: #a9a9a9; stroke-width: 0.8"/>
      </g>
     </g>
     <g id="text_7">
      <!-- 2022-07 -->
      <g style="fill: #a9a9a9" transform="translate(487.322448 334.998438) scale(0.1 -0.1)">
       <use xlink:href="#DejaVuSans-32"/>
       <use xlink:href="#DejaVuSans-30" x="63.623047"/>
       <use xlink:href="#DejaVuSans-32" x="127.246094"/>
       <use xlink:href="#DejaVuSans-32" x="190.869141"/>
       <use xlink:href="#DejaVuSans-2d" x="254.492188"/>
       <use xlink:href="#DejaVuSans-30" x="290.576172"/>
       <use xlink:href="#DejaVuSans-37" x="354.199219"/>
      </g>
     </g>
    </g>
    <g id="xtick_8">
     <g id="line2d_15">
      <path d="M 575.24954 320.4 
L 575.24954 43.2 
" clip-path="url(#pc871b892eb)" style="fill: none; stroke-dasharray: 5.12,1.28,0.8,1.28; stroke-dashoffset: 0; stroke: #b0b0b0; stroke-width: 0.8"/>
     </g>
     <g id="line2d_16">
      <g>
       <use xlink:href="#mabfc276cf0" x="575.24954" y="320.4" style="fill: #a9a9a9; stroke: #a9a9a9; stroke-width: 0.8"/>
      </g>
     </g>
     <g id="text_8">
      <!-- 2022-09 -->
      <g style="fill: #a9a9a9" transform="translate(554.358134 334.998438) scale(0.1 -0.1)">
       <use xlink:href="#DejaVuSans-32"/>
       <use xlink:href="#DejaVuSans-30" x="63.623047"/>
       <use xlink:href="#DejaVuSans-32" x="127.246094"/>
       <use xlink:href="#DejaVuSans-32" x="190.869141"/>
       <use xlink:href="#DejaVuSans-2d" x="254.492188"/>
       <use xlink:href="#DejaVuSans-30" x="290.576172"/>
       <use xlink:href="#DejaVuSans-39" x="354.199219"/>
      </g>
     </g>
    </g>
    <g id="xtick_9">
     <g id="line2d_17">
      <path d="M 641.204005 320.4 
L 641.204005 43.2 
" clip-path="url(#pc871b892eb)" style="fill: none; stroke-dasharray: 5.12,1.28,0.8,1.28; stroke-dashoffset: 0; stroke: #b0b0b0; stroke-width: 0.8"/>
     </g>
     <g id="line2d_18">
      <g>
       <use xlink:href="#mabfc276cf0" x="641.204005" y="320.4" style="fill: #a9a9a9; stroke: #a9a9a9; stroke-width: 0.8"/>
      </g>
     </g>
     <g id="text_9">
      <!-- 2022-11 -->
      <g style="fill: #a9a9a9" transform="translate(620.312598 334.998438) scale(0.1 -0.1)">
       <use xlink:href="#DejaVuSans-32"/>
       <use xlink:href="#DejaVuSans-30" x="63.623047"/>
       <use xlink:href="#DejaVuSans-32" x="127.246094"/>
       <use xlink:href="#DejaVuSans-32" x="190.869141"/>
       <use xlink:href="#DejaVuSans-2d" x="254.492188"/>
       <use xlink:href="#DejaVuSans-31" x="290.576172"/>
       <use xlink:href="#DejaVuSans-31" x="354.199219"/>
      </g>
     </g>
    </g>
    <g id="xtick_10">
     <g id="line2d_19">
      <path d="M 707.158469 320.4 
L 707.158469 43.2 
" clip-path="url(#pc871b892eb)" style="fill: none; stroke-dasharray: 5.12,1.28,0.8,1.28; stroke-dashoffset: 0; stroke: #b0b0b0; stroke-width: 0.8"/>
     </g>
     <g id="line2d_20">
      <g>
       <use xlink:href="#mabfc276cf0" x="707.158469" y="320.4" style="fill: #a9a9a9; stroke: #a9a9a9; stroke-width: 0.8"/>
      </g>
     </g>
     <g id="text_10">
      <!-- 2023-01 -->
      <g style="fill: #a9a9a9" transform="translate(686.267063 334.998438) scale(0.1 -0.1)">
       <use xlink:href="#DejaVuSans-32"/>
       <use xlink:href="#DejaVuSans-30" x="63.623047"/>
       <use xlink:href="#DejaVuSans-32" x="127.246094"/>
       <use xlink:href="#DejaVuSans-33" x="190.869141"/>
       <use xlink:href="#DejaVuSans-2d" x="254.492188"/>
       <use xlink:href="#DejaVuSans-30" x="290.576172"/>
       <use xlink:href="#DejaVuSans-31" x="354.199219"/>
      </g>
     </g>
    </g>
    <g id="xtick_11">
     <g id="line2d_21">
      <path d="M 770.950492 320.4 
L 770.950492 43.2 
" clip-path="url(#pc871b892eb)" style="fill: none; stroke-dasharray: 5.12,1.28,0.8,1.28; stroke-dashoffset: 0; stroke: #b0b0b0; stroke-width: 0.8"/>
     </g>
     <g id="line2d_22">
      <g>
       <use xlink:href="#mabfc276cf0" x="770.950492" y="320.4" style="fill: #a9a9a9; stroke: #a9a9a9; stroke-width: 0.8"/>
      </g>
     </g>
     <g id="text_11">
      <!-- 2023-03 -->
      <g style="fill: #a9a9a9" transform="translate(750.059086 334.998438) scale(0.1 -0.1)">
       <use xlink:href="#DejaVuSans-32"/>
       <use xlink:href="#DejaVuSans-30" x="63.623047"/>
       <use xlink:href="#DejaVuSans-32" x="127.246094"/>
       <use xlink:href="#DejaVuSans-33" x="190.869141"/>
       <use xlink:href="#DejaVuSans-2d" x="254.492188"/>
       <use xlink:href="#DejaVuSans-30" x="290.576172"/>
       <use xlink:href="#DejaVuSans-33" x="354.199219"/>
      </g>
     </g>
    </g>
   </g>
   <g id="matplotlib.axis_2">
    <g id="ytick_1">
     <g id="line2d_23">
      <path d="M 108 307.866438 
L 777.6 307.866438 
" clip-path="url(#pc871b892eb)" style="fill: none; stroke-dasharray: 5.12,1.28,0.8,1.28; stroke-dashoffset: 0; stroke: #b0b0b0; stroke-width: 0.8"/>
     </g>
     <g id="line2d_24">
      <defs>
       <path id="me903346d14" d="M 0 0 
L -3.5 0 
" style="stroke: #a9a9a9; stroke-width: 0.8"/>
      </defs>
      <g>
       <use xlink:href="#me903346d14" x="108" y="307.866438" style="fill: #a9a9a9; stroke: #a9a9a9; stroke-width: 0.8"/>
      </g>
     </g>
     <g id="text_12">
      <!-- 0 -->
      <g style="fill: #a9a9a9" transform="translate(94.6375 311.665657) scale(0.1 -0.1)">
       <use xlink:href="#DejaVuSans-30"/>
      </g>
     </g>
    </g>
    <g id="ytick_2">
     <g id="line2d_25">
      <path d="M 108 274.64735 
L 777.6 274.64735 
" clip-path="url(#pc871b892eb)" style="fill: none; stroke-dasharray: 5.12,1.28,0.8,1.28; stroke-dashoffset: 0; stroke: #b0b0b0; stroke-width: 0.8"/>
     </g>
     <g id="line2d_26">
      <g>
       <use xlink:href="#me903346d14" x="108" y="274.64735" style="fill: #a9a9a9; stroke: #a9a9a9; stroke-width: 0.8"/>
      </g>
     </g>
     <g id="text_13">
      <!-- 500 -->
      <g style="fill: #a9a9a9" transform="translate(81.9125 278.446569) scale(0.1 -0.1)">
       <use xlink:href="#DejaVuSans-35"/>
       <use xlink:href="#DejaVuSans-30" x="63.623047"/>
       <use xlink:href="#DejaVuSans-30" x="127.246094"/>
      </g>
     </g>
    </g>
    <g id="ytick_3">
     <g id="line2d_27">
      <path d="M 108 241.428263 
L 777.6 241.428263 
" clip-path="url(#pc871b892eb)" style="fill: none; stroke-dasharray: 5.12,1.28,0.8,1.28; stroke-dashoffset: 0; stroke: #b0b0b0; stroke-width: 0.8"/>
     </g>
     <g id="line2d_28">
      <g>
       <use xlink:href="#me903346d14" x="108" y="241.428263" style="fill: #a9a9a9; stroke: #a9a9a9; stroke-width: 0.8"/>
      </g>
     </g>
     <g id="text_14">
      <!-- 1000 -->
      <g style="fill: #a9a9a9" transform="translate(75.55 245.227481) scale(0.1 -0.1)">
       <use xlink:href="#DejaVuSans-31"/>
       <use xlink:href="#DejaVuSans-30" x="63.623047"/>
       <use xlink:href="#DejaVuSans-30" x="127.246094"/>
       <use xlink:href="#DejaVuSans-30" x="190.869141"/>
      </g>
     </g>
    </g>
    <g id="ytick_4">
     <g id="line2d_29">
      <path d="M 108 208.209175 
L 777.6 208.209175 
" clip-path="url(#pc871b892eb)" style="fill: none; stroke-dasharray: 5.12,1.28,0.8,1.28; stroke-dashoffset: 0; stroke: #b0b0b0; stroke-width: 0.8"/>
     </g>
     <g id="line2d_30">
      <g>
       <use xlink:href="#me903346d14" x="108" y="208.209175" style="fill: #a9a9a9; stroke: #a9a9a9; stroke-width: 0.8"/>
      </g>
     </g>
     <g id="text_15">
      <!-- 1500 -->
      <g style="fill: #a9a9a9" transform="translate(75.55 212.008394) scale(0.1 -0.1)">
       <use xlink:href="#DejaVuSans-31"/>
       <use xlink:href="#DejaVuSans-35" x="63.623047"/>
       <use xlink:href="#DejaVuSans-30" x="127.246094"/>
       <use xlink:href="#DejaVuSans-30" x="190.869141"/>
      </g>
     </g>
    </g>
    <g id="ytick_5">
     <g id="line2d_31">
      <path d="M 108 174.990087 
L 777.6 174.990087 
" clip-path="url(#pc871b892eb)" style="fill: none; stroke-dasharray: 5.12,1.28,0.8,1.28; stroke-dashoffset: 0; stroke: #b0b0b0; stroke-width: 0.8"/>
     </g>
     <g id="line2d_32">
      <g>
       <use xlink:href="#me903346d14" x="108" y="174.990087" style="fill: #a9a9a9; stroke: #a9a9a9; stroke-width: 0.8"/>
      </g>
     </g>
     <g id="text_16">
      <!-- 2000 -->
      <g style="fill: #a9a9a9" transform="translate(75.55 178.789306) scale(0.1 -0.1)">
       <use xlink:href="#DejaVuSans-32"/>
       <use xlink:href="#DejaVuSans-30" x="63.623047"/>
       <use xlink:href="#DejaVuSans-30" x="127.246094"/>
       <use xlink:href="#DejaVuSans-30" x="190.869141"/>
      </g>
     </g>
    </g>
    <g id="ytick_6">
     <g id="line2d_33">
      <path d="M 108 141.770999 
L 777.6 141.770999 
" clip-path="url(#pc871b892eb)" style="fill: none; stroke-dasharray: 5.12,1.28,0.8,1.28; stroke-dashoffset: 0; stroke: #b0b0b0; stroke-width: 0.8"/>
     </g>
     <g id="line2d_34">
      <g>
       <use xlink:href="#me903346d14" x="108" y="141.770999" style="fill: #a9a9a9; stroke: #a9a9a9; stroke-width: 0.8"/>
      </g>
     </g>
     <g id="text_17">
      <!-- 2500 -->
      <g style="fill: #a9a9a9" transform="translate(75.55 145.570218) scale(0.1 -0.1)">
       <use xlink:href="#DejaVuSans-32"/>
       <use xlink:href="#DejaVuSans-35" x="63.623047"/>
       <use xlink:href="#DejaVuSans-30" x="127.246094"/>
       <use xlink:href="#DejaVuSans-30" x="190.869141"/>
      </g>
     </g>
    </g>
    <g id="ytick_7">
     <g id="line2d_35">
      <path d="M 108 108.551911 
L 777.6 108.551911 
" clip-path="url(#pc871b892eb)" style="fill: none; stroke-dasharray: 5.12,1.28,0.8,1.28; stroke-dashoffset: 0; stroke: #b0b0b0; stroke-width: 0.8"/>
     </g>
     <g id="line2d_36">
      <g>
       <use xlink:href="#me903346d14" x="108" y="108.551911" style="fill: #a9a9a9; stroke: #a9a9a9; stroke-width: 0.8"/>
      </g>
     </g>
     <g id="text_18">
      <!-- 3000 -->
      <g style="fill: #a9a9a9" transform="translate(75.55 112.35113) scale(0.1 -0.1)">
       <use xlink:href="#DejaVuSans-33"/>
       <use xlink:href="#DejaVuSans-30" x="63.623047"/>
       <use xlink:href="#DejaVuSans-30" x="127.246094"/>
       <use xlink:href="#DejaVuSans-30" x="190.869141"/>
      </g>
     </g>
    </g>
    <g id="ytick_8">
     <g id="line2d_37">
      <path d="M 108 75.332824 
L 777.6 75.332824 
" clip-path="url(#pc871b892eb)" style="fill: none; stroke-dasharray: 5.12,1.28,0.8,1.28; stroke-dashoffset: 0; stroke: #b0b0b0; stroke-width: 0.8"/>
     </g>
     <g id="line2d_38">
      <g>
       <use xlink:href="#me903346d14" x="108" y="75.332824" style="fill: #a9a9a9; stroke: #a9a9a9; stroke-width: 0.8"/>
      </g>
     </g>
     <g id="text_19">
      <!-- 3500 -->
      <g style="fill: #a9a9a9" transform="translate(75.55 79.132042) scale(0.1 -0.1)">
       <use xlink:href="#DejaVuSans-33"/>
       <use xlink:href="#DejaVuSans-35" x="63.623047"/>
       <use xlink:href="#DejaVuSans-30" x="127.246094"/>
       <use xlink:href="#DejaVuSans-30" x="190.869141"/>
      </g>
     </g>
    </g>
   </g>
   <g id="line2d_39">
    <path d="M 138.436364 307.600685 
L 142.761247 307.268495 
L 143.842467 307.135618 
L 144.923688 307.135618 
L 146.004909 306.736989 
L 148.16735 306.604113 
L 155.735895 305.208911 
L 157.898337 305.076035 
L 158.979558 304.87672 
L 162.22322 304.677406 
L 163.30444 304.1459 
L 164.385661 303.880148 
L 165.466882 302.68426 
L 166.548103 302.019879 
L 167.629323 299.760981 
L 168.710544 299.628104 
L 169.791765 298.897284 
L 170.872986 298.498655 
L 171.954206 297.96715 
L 175.197869 295.508938 
L 176.279089 294.977432 
L 178.441531 294.180174 
L 179.522751 293.449354 
L 180.603972 293.050725 
L 181.685193 292.51922 
L 182.766414 291.854838 
L 183.847634 291.522647 
L 184.928855 289.928131 
L 186.010076 289.130873 
L 187.091297 288.532929 
L 188.172517 288.067862 
L 192.4974 287.469918 
L 195.741062 286.938413 
L 197.903504 286.805537 
L 198.984725 286.606222 
L 200.065945 286.074717 
L 204.390828 285.742526 
L 207.634491 285.410335 
L 208.715711 285.078144 
L 214.121815 284.081571 
L 216.284256 283.882257 
L 217.365477 283.616504 
L 220.609139 283.217875 
L 221.69036 282.68637 
L 222.771581 282.553493 
L 224.934022 281.822673 
L 227.096464 281.623359 
L 228.177684 281.291168 
L 232.502567 280.693224 
L 233.583788 280.361033 
L 235.74623 280.028843 
L 236.82745 280.028843 
L 242.233554 279.364461 
L 244.395995 278.766517 
L 245.477216 278.500765 
L 247.639658 278.30145 
L 248.720878 278.235012 
L 251.964541 277.637068 
L 253.045761 277.238439 
L 254.126982 275.909676 
L 255.208203 275.511047 
L 256.289424 274.979541 
L 257.370644 274.846665 
L 258.451865 274.580912 
L 259.533086 274.448036 
L 261.695527 273.58434 
L 262.776748 273.517901 
L 268.182852 272.189138 
L 269.264072 272.189138 
L 271.426514 271.923385 
L 273.588955 271.325442 
L 276.832617 270.528183 
L 277.913838 270.461745 
L 280.07628 269.598049 
L 281.1575 269.465173 
L 282.238721 269.000105 
L 284.401163 268.800791 
L 285.482383 268.734353 
L 288.726046 268.202847 
L 290.888487 267.870656 
L 296.294591 266.874084 
L 298.457032 266.143264 
L 299.538253 265.54532 
L 300.619474 265.279568 
L 301.700694 265.146691 
L 303.863136 264.48231 
L 306.025577 263.352861 
L 307.106798 262.688479 
L 308.188019 262.555602 
L 309.269239 262.223412 
L 310.35046 262.090535 
L 311.431681 261.824782 
L 312.512902 261.691906 
L 313.594122 261.226839 
L 315.756564 260.894648 
L 316.837785 260.363143 
L 317.919005 259.964514 
L 319.000226 259.698761 
L 320.081447 259.565885 
L 321.162668 259.167255 
L 325.48755 258.369997 
L 327.649992 257.506301 
L 328.731213 257.306987 
L 329.812433 256.908358 
L 330.893654 256.775481 
L 331.974875 256.310414 
L 333.056096 256.044661 
L 335.218537 255.911785 
L 337.380979 255.247403 
L 338.462199 255.114527 
L 339.54342 255.114527 
L 340.624641 254.64946 
L 342.787082 254.317269 
L 343.868303 253.91864 
L 346.030744 253.852201 
L 347.111965 253.719325 
L 348.193186 253.719325 
L 350.355627 253.387134 
L 352.518069 252.390562 
L 354.68051 251.460427 
L 355.761731 251.194674 
L 356.842952 250.530293 
L 357.924172 250.198102 
L 360.086614 249.267967 
L 361.167835 249.068653 
L 363.330276 248.337833 
L 364.411497 247.673451 
L 365.492718 247.141946 
L 366.573938 246.078935 
L 367.655159 244.41798 
L 368.73638 243.155655 
L 369.817601 242.823464 
L 370.898821 242.823464 
L 371.980042 242.159083 
L 373.061263 241.361824 
L 374.142483 241.096072 
L 375.223704 240.564566 
L 376.304925 240.365252 
L 377.386146 239.435117 
L 378.467366 239.169365 
L 381.711029 237.774163 
L 382.792249 236.578276 
L 383.87347 235.050198 
L 384.954691 234.452254 
L 386.035912 232.7913 
L 387.117132 231.794727 
L 388.198353 231.32966 
L 389.279574 231.063907 
L 390.360794 230.399525 
L 392.523236 229.402953 
L 396.848119 226.479673 
L 397.92934 225.084471 
L 399.01056 222.759135 
L 400.091781 221.297495 
L 401.173002 220.500237 
L 402.254223 220.03517 
L 406.579105 216.646823 
L 408.741547 215.052307 
L 409.822768 214.188611 
L 410.903988 212.793409 
L 411.985209 211.863274 
L 418.472534 207.478355 
L 419.553754 207.212602 
L 420.634975 206.747535 
L 421.716196 206.149591 
L 422.797416 205.684524 
L 424.959858 204.555075 
L 426.041079 204.156446 
L 428.20352 202.362615 
L 429.284741 201.10029 
L 431.447182 199.771526 
L 432.528403 199.505774 
L 433.609624 198.974268 
L 434.690845 198.243448 
L 436.853286 197.180438 
L 437.934507 196.981123 
L 439.015727 196.316741 
L 441.178169 195.253731 
L 442.25939 194.257158 
L 443.34061 193.526338 
L 444.421831 193.194147 
L 445.503052 192.529765 
L 446.584273 192.064698 
L 447.665493 191.400316 
L 448.746714 191.001687 
L 449.827935 190.337306 
L 450.909155 189.473609 
L 453.071597 188.742789 
L 454.152818 188.277722 
L 455.234038 188.078408 
L 456.315259 187.414026 
L 457.39648 187.214711 
L 459.558921 186.483891 
L 460.640142 186.151701 
L 462.802584 185.288004 
L 463.883804 184.889375 
L 464.965025 184.623622 
L 466.046246 184.224993 
L 468.208687 183.892803 
L 470.371129 182.16541 
L 471.452349 181.766781 
L 473.614791 180.637332 
L 475.777232 179.507883 
L 477.939674 178.909939 
L 479.020895 178.112681 
L 480.102115 177.846929 
L 482.264557 176.518165 
L 483.345777 175.98666 
L 486.58944 175.322278 
L 488.751881 174.724334 
L 491.995543 172.996942 
L 493.076764 172.864065 
L 494.157985 172.465436 
L 495.239206 172.33256 
L 496.320426 171.933931 
L 497.401647 171.269549 
L 499.564088 169.807909 
L 500.645309 169.608595 
L 501.72653 169.209966 
L 502.807751 169.077089 
L 503.888971 168.744898 
L 504.970192 168.014079 
L 506.051413 167.681888 
L 507.132634 167.21682 
L 511.457517 166.087371 
L 512.538737 166.020933 
L 513.619958 165.688742 
L 515.782399 164.825046 
L 516.86362 164.492855 
L 517.944841 164.293541 
L 519.026062 163.828474 
L 520.107282 163.496283 
L 521.188503 163.031215 
L 523.350945 162.433272 
L 524.432165 162.366834 
L 526.594607 161.901766 
L 527.675828 161.436699 
L 528.757048 161.237385 
L 530.91949 160.373688 
L 534.163152 158.978487 
L 536.325593 157.649723 
L 537.406814 157.38397 
L 538.488035 156.786027 
L 539.569256 156.387398 
L 540.650476 155.789454 
L 542.812918 155.324387 
L 543.894139 154.726443 
L 544.975359 154.261376 
L 546.05658 153.929185 
L 548.219021 153.596994 
L 549.300242 152.866175 
L 550.381463 152.334669 
L 551.462684 152.135355 
L 553.625125 151.271658 
L 554.706346 151.072344 
L 555.787567 150.540838 
L 560.11245 149.942895 
L 562.274891 149.01276 
L 563.356112 148.215502 
L 564.437332 146.421672 
L 565.518553 146.155919 
L 566.599774 146.023042 
L 567.680995 145.75729 
L 569.843436 144.627841 
L 570.924657 144.229212 
L 572.005878 143.697706 
L 573.087098 143.431954 
L 575.24954 142.435381 
L 577.411981 141.438808 
L 579.574423 140.575112 
L 580.655643 139.91073 
L 581.736864 139.512101 
L 584.980526 138.914158 
L 587.142968 137.917585 
L 588.224189 137.452518 
L 589.305409 137.253203 
L 592.549072 136.057316 
L 594.711513 134.794991 
L 595.792734 134.130609 
L 596.873954 133.599104 
L 597.955175 133.399789 
L 599.036396 133.067598 
L 600.117617 133.00116 
L 604.4425 131.672397 
L 605.52372 131.605958 
L 606.604941 130.875138 
L 607.686162 130.609386 
L 608.767383 130.144318 
L 612.011045 129.214184 
L 613.092265 128.61624 
L 614.173486 128.28405 
L 615.254707 127.619668 
L 616.335928 127.154601 
L 617.417148 126.556657 
L 622.823252 124.563512 
L 623.904473 123.965568 
L 624.985694 123.234748 
L 626.066914 122.105299 
L 627.148135 121.440917 
L 628.229356 121.241603 
L 630.391797 119.713525 
L 631.473018 119.381334 
L 632.554239 117.919694 
L 633.635459 117.521065 
L 634.71668 116.790245 
L 635.797901 116.657369 
L 636.879122 115.992987 
L 637.960342 115.52792 
L 639.041563 115.328605 
L 640.122784 114.929976 
L 641.204005 114.132718 
L 642.285225 113.800527 
L 645.528887 111.740944 
L 646.610108 111.275877 
L 648.77255 110.146428 
L 649.85377 109.68136 
L 650.934991 109.548484 
L 652.016212 109.149855 
L 654.178653 108.020406 
L 655.259874 106.42589 
L 656.341095 105.429317 
L 657.422316 104.831374 
L 658.503536 104.565621 
L 660.665978 103.369734 
L 661.747198 103.170419 
L 662.828419 102.638914 
L 666.072081 101.443027 
L 667.153302 100.911521 
L 669.315744 99.51632 
L 671.478185 97.390298 
L 672.559406 96.59304 
L 674.721847 95.330714 
L 675.803068 94.334142 
L 679.04673 91.942368 
L 680.127951 91.410862 
L 681.209172 90.281413 
L 682.290392 89.550593 
L 684.452834 88.819773 
L 685.534055 87.889639 
L 687.696496 86.893066 
L 688.777717 86.627313 
L 689.858938 85.896494 
L 690.940158 85.630741 
L 693.1026 84.767045 
L 695.265041 83.305405 
L 696.346262 82.773899 
L 698.508703 82.175956 
L 699.589924 81.578012 
L 704.996028 79.85062 
L 707.158469 78.854047 
L 708.23969 77.990351 
L 709.320911 77.525283 
L 711.483352 76.794463 
L 712.564573 76.329396 
L 713.645794 75.997205 
L 714.727014 75.266385 
L 717.970677 73.871184 
L 719.051897 73.140364 
L 720.133118 72.608858 
L 721.214339 70.482837 
L 722.29556 68.689006 
L 724.458001 66.297232 
L 725.539222 65.566412 
L 727.701663 64.503401 
L 729.864105 63.639705 
L 730.945325 63.44039 
L 732.026546 62.908885 
L 733.107767 62.643132 
L 734.188988 62.244503 
L 735.270208 61.97875 
L 738.51387 60.317796 
L 740.676312 58.789718 
L 742.838753 57.99246 
L 747.163636 55.8 
L 747.163636 55.8 
" clip-path="url(#pc871b892eb)" style="fill: none; stroke: #1f77b4; stroke-width: 1.5; stroke-linecap: square"/>
   </g>
   <g id="line2d_40">
    <path d="M 139.517584 307.8 
L 141.680026 307.8 
L 143.842467 307.534247 
L 150.329792 307.467809 
L 153.573454 307.334933 
L 156.817116 307.268495 
L 158.979558 307.202056 
L 162.22322 307.202056 
L 163.30444 306.936304 
L 166.548103 306.869866 
L 171.954206 306.271922 
L 180.603972 305.806855 
L 181.685193 305.806855 
L 182.766414 305.60754 
L 186.010076 305.541102 
L 188.172517 305.275349 
L 192.4974 305.275349 
L 193.578621 305.142473 
L 198.984725 305.076035 
L 202.228387 304.943158 
L 211.959373 304.87672 
L 214.121815 304.810282 
L 218.446698 304.743844 
L 221.69036 304.610968 
L 226.015243 304.610968 
L 227.096464 304.478091 
L 230.340126 304.411653 
L 234.665009 304.212339 
L 242.233554 304.1459 
L 244.395995 304.079462 
L 248.720878 304.013024 
L 251.964541 303.614395 
L 257.370644 303.547957 
L 262.776748 303.282204 
L 268.182852 303.215766 
L 271.426514 303.08289 
L 273.588955 303.016451 
L 275.751397 302.817137 
L 280.07628 302.617822 
L 283.319942 302.551384 
L 285.482383 302.484946 
L 287.644825 302.484946 
L 288.726046 302.35207 
L 291.969708 302.35207 
L 294.132149 302.152755 
L 297.375811 302.019879 
L 302.781915 301.953441 
L 306.025577 301.62125 
L 308.188019 301.488373 
L 309.269239 301.289059 
L 313.594122 301.222621 
L 316.837785 300.956868 
L 319.000226 300.757553 
L 324.40633 300.491801 
L 327.649992 300.425363 
L 330.893654 300.292486 
L 331.974875 300.292486 
L 334.137316 300.093172 
L 336.299758 300.026733 
L 337.380979 300.026733 
L 338.462199 299.893857 
L 340.624641 299.827419 
L 346.030744 299.561666 
L 348.193186 299.495228 
L 351.436848 299.362352 
L 354.68051 299.295914 
L 356.842952 299.229475 
L 362.249055 299.163037 
L 366.573938 298.69797 
L 367.655159 298.69797 
L 369.817601 298.498655 
L 371.980042 298.432217 
L 377.386146 298.033588 
L 378.467366 297.767835 
L 380.629808 297.634959 
L 381.711029 297.369206 
L 384.954691 297.103454 
L 387.117132 296.638387 
L 389.279574 296.571948 
L 391.442015 296.571948 
L 392.523236 296.439072 
L 393.604457 296.439072 
L 395.766898 296.106881 
L 400.091781 295.376061 
L 401.173002 295.376061 
L 402.254223 295.243185 
L 405.497885 295.176747 
L 419.553754 294.31305 
L 420.634975 294.113736 
L 423.878637 293.914421 
L 426.041079 293.58223 
L 428.20352 293.382916 
L 430.365962 293.316478 
L 432.528403 293.316478 
L 433.609624 293.050725 
L 434.690845 292.917849 
L 439.015727 292.85141 
L 441.178169 292.652096 
L 442.25939 292.652096 
L 445.503052 292.187029 
L 446.584273 291.921276 
L 447.665493 291.7884 
L 449.827935 291.721962 
L 455.234038 291.456209 
L 458.477701 291.389771 
L 472.53357 290.592513 
L 474.696012 290.592513 
L 476.858453 290.393198 
L 479.020895 290.393198 
L 482.264557 290.061007 
L 486.58944 289.861693 
L 488.751881 289.795254 
L 489.833102 289.662378 
L 494.157985 289.59594 
L 501.72653 289.197311 
L 507.132634 289.130873 
L 509.295075 289.064434 
L 510.376296 289.064434 
L 511.457517 288.86512 
L 513.619958 288.798682 
L 520.107282 288.732244 
L 523.350945 288.599367 
L 527.675828 288.532929 
L 528.757048 288.333615 
L 535.244373 288.267176 
L 537.406814 288.200738 
L 539.569256 288.1343 
L 541.731697 288.067862 
L 543.894139 288.001424 
L 551.462684 287.602795 
L 557.950008 287.536356 
L 561.19367 287.270604 
L 563.356112 287.071289 
L 565.518553 287.004851 
L 567.680995 287.004851 
L 568.762215 286.871975 
L 572.005878 286.805537 
L 573.087098 286.539784 
L 577.411981 286.340469 
L 587.142968 286.274031 
L 592.549072 285.875402 
L 595.792734 285.543211 
L 601.198837 285.476773 
L 604.4425 285.144582 
L 610.929824 284.812391 
L 613.092265 284.745953 
L 617.417148 284.546639 
L 621.742031 284.4802 
L 624.985694 284.347324 
L 629.310576 284.280886 
L 632.554239 283.948695 
L 634.71668 283.882257 
L 639.041563 283.815819 
L 642.285225 283.550066 
L 643.366446 283.41719 
L 644.447667 283.41719 
L 645.528887 283.217875 
L 647.691329 283.151437 
L 652.016212 283.084999 
L 654.178653 282.752808 
L 663.90964 282.68637 
L 666.072081 282.487055 
L 667.153302 282.354179 
L 669.315744 282.287741 
L 671.478185 282.221302 
L 672.559406 281.95555 
L 674.721847 281.889112 
L 675.803068 281.689797 
L 677.965509 281.689797 
L 681.209172 281.357606 
L 701.752366 280.161719 
L 703.914807 280.095281 
L 706.077249 280.028843 
L 719.051897 279.962404 
L 722.29556 279.829528 
L 723.37678 279.829528 
L 724.458001 279.497337 
L 726.620442 279.430899 
L 732.026546 279.364461 
L 734.188988 279.298023 
L 737.43265 279.298023 
L 738.51387 279.165146 
L 742.838753 279.098708 
L 745.001195 279.03227 
L 747.163636 278.965832 
L 747.163636 278.965832 
" clip-path="url(#pc871b892eb)" style="fill: none; stroke: #ff7f0e; stroke-width: 1.5; stroke-linecap: square"/>
   </g>
   <g id="patch_3">
    <path d="M 108 320.4 
L 108 43.2 
" style="fill: none; stroke: #a9a9a9; stroke-width: 0.8; stroke-linejoin: miter; stroke-linecap: square"/>
   </g>
   <g id="patch_4">
    <path d="M 777.6 320.4 
L 777.6 43.2 
" style="fill: none"/>
   </g>
   <g id="patch_5">
    <path d="M 108 320.4 
L 777.6 320.4 
" style="fill: none; stroke: #a9a9a9; stroke-width: 0.8; stroke-linejoin: miter; stroke-linecap: square"/>
   </g>
   <g id="patch_6">
    <path d="M 108 43.2 
L 777.6 43.2 
" style="fill: none"/>
   </g>
   <g id="text_20">
    <!-- get_subscribe history -->
    <g style="fill: #a9a9a9" transform="translate(378.6075 37.2) scale(0.12 -0.12)">
     <defs>
      <path id="DejaVuSans-67" d="M 2906 1791 
Q 2906 2416 2648 2759 
Q 2391 3103 1925 3103 
Q 1463 3103 1205 2759 
Q 947 2416 947 1791 
Q 947 1169 1205 825 
Q 1463 481 1925 481 
Q 2391 481 2648 825 
Q 2906 1169 2906 1791 
z
M 3481 434 
Q 3481 -459 3084 -895 
Q 2688 -1331 1869 -1331 
Q 1566 -1331 1297 -1286 
Q 1028 -1241 775 -1147 
L 775 -588 
Q 1028 -725 1275 -790 
Q 1522 -856 1778 -856 
Q 2344 -856 2625 -561 
Q 2906 -266 2906 331 
L 2906 616 
Q 2728 306 2450 153 
Q 2172 0 1784 0 
Q 1141 0 747 490 
Q 353 981 353 1791 
Q 353 2603 747 3093 
Q 1141 3584 1784 3584 
Q 2172 3584 2450 3431 
Q 2728 3278 2906 2969 
L 2906 3500 
L 3481 3500 
L 3481 434 
z
" transform="scale(0.015625)"/>
      <path id="DejaVuSans-65" d="M 3597 1894 
L 3597 1613 
L 953 1613 
Q 991 1019 1311 708 
Q 1631 397 2203 397 
Q 2534 397 2845 478 
Q 3156 559 3463 722 
L 3463 178 
Q 3153 47 2828 -22 
Q 2503 -91 2169 -91 
Q 1331 -91 842 396 
Q 353 884 353 1716 
Q 353 2575 817 3079 
Q 1281 3584 2069 3584 
Q 2775 3584 3186 3129 
Q 3597 2675 3597 1894 
z
M 3022 2063 
Q 3016 2534 2758 2815 
Q 2500 3097 2075 3097 
Q 1594 3097 1305 2825 
Q 1016 2553 972 2059 
L 3022 2063 
z
" transform="scale(0.015625)"/>
      <path id="DejaVuSans-74" d="M 1172 4494 
L 1172 3500 
L 2356 3500 
L 2356 3053 
L 1172 3053 
L 1172 1153 
Q 1172 725 1289 603 
Q 1406 481 1766 481 
L 2356 481 
L 2356 0 
L 1766 0 
Q 1100 0 847 248 
Q 594 497 594 1153 
L 594 3053 
L 172 3053 
L 172 3500 
L 594 3500 
L 594 4494 
L 1172 4494 
z
" transform="scale(0.015625)"/>
      <path id="DejaVuSans-5f" d="M 3263 -1063 
L 3263 -1509 
L -63 -1509 
L -63 -1063 
L 3263 -1063 
z
" transform="scale(0.015625)"/>
      <path id="DejaVuSans-73" d="M 2834 3397 
L 2834 2853 
Q 2591 2978 2328 3040 
Q 2066 3103 1784 3103 
Q 1356 3103 1142 2972 
Q 928 2841 928 2578 
Q 928 2378 1081 2264 
Q 1234 2150 1697 2047 
L 1894 2003 
Q 2506 1872 2764 1633 
Q 3022 1394 3022 966 
Q 3022 478 2636 193 
Q 2250 -91 1575 -91 
Q 1294 -91 989 -36 
Q 684 19 347 128 
L 347 722 
Q 666 556 975 473 
Q 1284 391 1588 391 
Q 1994 391 2212 530 
Q 2431 669 2431 922 
Q 2431 1156 2273 1281 
Q 2116 1406 1581 1522 
L 1381 1569 
Q 847 1681 609 1914 
Q 372 2147 372 2553 
Q 372 3047 722 3315 
Q 1072 3584 1716 3584 
Q 2034 3584 2315 3537 
Q 2597 3491 2834 3397 
z
" transform="scale(0.015625)"/>
      <path id="DejaVuSans-75" d="M 544 1381 
L 544 3500 
L 1119 3500 
L 1119 1403 
Q 1119 906 1312 657 
Q 1506 409 1894 409 
Q 2359 409 2629 706 
Q 2900 1003 2900 1516 
L 2900 3500 
L 3475 3500 
L 3475 0 
L 2900 0 
L 2900 538 
Q 2691 219 2414 64 
Q 2138 -91 1772 -91 
Q 1169 -91 856 284 
Q 544 659 544 1381 
z
M 1991 3584 
L 1991 3584 
z
" transform="scale(0.015625)"/>
      <path id="DejaVuSans-62" d="M 3116 1747 
Q 3116 2381 2855 2742 
Q 2594 3103 2138 3103 
Q 1681 3103 1420 2742 
Q 1159 2381 1159 1747 
Q 1159 1113 1420 752 
Q 1681 391 2138 391 
Q 2594 391 2855 752 
Q 3116 1113 3116 1747 
z
M 1159 2969 
Q 1341 3281 1617 3432 
Q 1894 3584 2278 3584 
Q 2916 3584 3314 3078 
Q 3713 2572 3713 1747 
Q 3713 922 3314 415 
Q 2916 -91 2278 -91 
Q 1894 -91 1617 61 
Q 1341 213 1159 525 
L 1159 0 
L 581 0 
L 581 4863 
L 1159 4863 
L 1159 2969 
z
" transform="scale(0.015625)"/>
      <path id="DejaVuSans-63" d="M 3122 3366 
L 3122 2828 
Q 2878 2963 2633 3030 
Q 2388 3097 2138 3097 
Q 1578 3097 1268 2742 
Q 959 2388 959 1747 
Q 959 1106 1268 751 
Q 1578 397 2138 397 
Q 2388 397 2633 464 
Q 2878 531 3122 666 
L 3122 134 
Q 2881 22 2623 -34 
Q 2366 -91 2075 -91 
Q 1284 -91 818 406 
Q 353 903 353 1747 
Q 353 2603 823 3093 
Q 1294 3584 2113 3584 
Q 2378 3584 2631 3529 
Q 2884 3475 3122 3366 
z
" transform="scale(0.015625)"/>
      <path id="DejaVuSans-72" d="M 2631 2963 
Q 2534 3019 2420 3045 
Q 2306 3072 2169 3072 
Q 1681 3072 1420 2755 
Q 1159 2438 1159 1844 
L 1159 0 
L 581 0 
L 581 3500 
L 1159 3500 
L 1159 2956 
Q 1341 3275 1631 3429 
Q 1922 3584 2338 3584 
Q 2397 3584 2469 3576 
Q 2541 3569 2628 3553 
L 2631 2963 
z
" transform="scale(0.015625)"/>
      <path id="DejaVuSans-69" d="M 603 3500 
L 1178 3500 
L 1178 0 
L 603 0 
L 603 3500 
z
M 603 4863 
L 1178 4863 
L 1178 4134 
L 603 4134 
L 603 4863 
z
" transform="scale(0.015625)"/>
      <path id="DejaVuSans-20" transform="scale(0.015625)"/>
      <path id="DejaVuSans-68" d="M 3513 2113 
L 3513 0 
L 2938 0 
L 2938 2094 
Q 2938 2591 2744 2837 
Q 2550 3084 2163 3084 
Q 1697 3084 1428 2787 
Q 1159 2491 1159 1978 
L 1159 0 
L 581 0 
L 581 4863 
L 1159 4863 
L 1159 2956 
Q 1366 3272 1645 3428 
Q 1925 3584 2291 3584 
Q 2894 3584 3203 3211 
Q 3513 2838 3513 2113 
z
" transform="scale(0.015625)"/>
      <path id="DejaVuSans-6f" d="M 1959 3097 
Q 1497 3097 1228 2736 
Q 959 2375 959 1747 
Q 959 1119 1226 758 
Q 1494 397 1959 397 
Q 2419 397 2687 759 
Q 2956 1122 2956 1747 
Q 2956 2369 2687 2733 
Q 2419 3097 1959 3097 
z
M 1959 3584 
Q 2709 3584 3137 3096 
Q 3566 2609 3566 1747 
Q 3566 888 3137 398 
Q 2709 -91 1959 -91 
Q 1206 -91 779 398 
Q 353 888 353 1747 
Q 353 2609 779 3096 
Q 1206 3584 1959 3584 
z
" transform="scale(0.015625)"/>
      <path id="DejaVuSans-79" d="M 2059 -325 
Q 1816 -950 1584 -1140 
Q 1353 -1331 966 -1331 
L 506 -1331 
L 506 -850 
L 844 -850 
Q 1081 -850 1212 -737 
Q 1344 -625 1503 -206 
L 1606 56 
L 191 3500 
L 800 3500 
L 1894 763 
L 2988 3500 
L 3597 3500 
L 2059 -325 
z
" transform="scale(0.015625)"/>
     </defs>
     <use xlink:href="#DejaVuSans-67"/>
     <use xlink:href="#DejaVuSans-65" x="63.476562"/>
     <use xlink:href="#DejaVuSans-74" x="125"/>
     <use xlink:href="#DejaVuSans-5f" x="164.208984"/>
     <use xlink:href="#DejaVuSans-73" x="214.208984"/>
     <use xlink:href="#DejaVuSans-75" x="266.308594"/>
     <use xlink:href="#DejaVuSans-62" x="329.6875"/>
     <use xlink:href="#DejaVuSans-73" x="393.164062"/>
     <use xlink:href="#DejaVuSans-63" x="445.263672"/>
     <use xlink:href="#DejaVuSans-72" x="500.244141"/>
     <use xlink:href="#DejaVuSans-69" x="541.357422"/>
     <use xlink:href="#DejaVuSans-62" x="569.140625"/>
     <use xlink:href="#DejaVuSans-65" x="632.617188"/>
     <use xlink:href="#DejaVuSans-20" x="694.140625"/>
     <use xlink:href="#DejaVuSans-68" x="725.927734"/>
     <use xlink:href="#DejaVuSans-69" x="789.306641"/>
     <use xlink:href="#DejaVuSans-73" x="817.089844"/>
     <use xlink:href="#DejaVuSans-74" x="869.189453"/>
     <use xlink:href="#DejaVuSans-6f" x="908.398438"/>
     <use xlink:href="#DejaVuSans-72" x="969.580078"/>
     <use xlink:href="#DejaVuSans-79" x="1010.693359"/>
    </g>
   </g>
   <g id="legend_1">
    <g id="line2d_41">
     <path d="M 815.08 328.498438 
L 825.08 328.498438 
L 835.08 328.498438 
" style="fill: none; stroke: #1f77b4; stroke-width: 1.5; stroke-linecap: square"/>
    </g>
    <g id="text_21">
     <!-- star -->
     <g style="fill: #a9a9a9" transform="translate(843.08 331.998438) scale(0.1 -0.1)">
      <defs>
       <path id="DejaVuSans-61" d="M 2194 1759 
Q 1497 1759 1228 1600 
Q 959 1441 959 1056 
Q 959 750 1161 570 
Q 1363 391 1709 391 
Q 2188 391 2477 730 
Q 2766 1069 2766 1631 
L 2766 1759 
L 2194 1759 
z
M 3341 1997 
L 3341 0 
L 2766 0 
L 2766 531 
Q 2569 213 2275 61 
Q 1981 -91 1556 -91 
Q 1019 -91 701 211 
Q 384 513 384 1019 
Q 384 1609 779 1909 
Q 1175 2209 1959 2209 
L 2766 2209 
L 2766 2266 
Q 2766 2663 2505 2880 
Q 2244 3097 1772 3097 
Q 1472 3097 1187 3025 
Q 903 2953 641 2809 
L 641 3341 
Q 956 3463 1253 3523 
Q 1550 3584 1831 3584 
Q 2591 3584 2966 3190 
Q 3341 2797 3341 1997 
z
" transform="scale(0.015625)"/>
      </defs>
      <use xlink:href="#DejaVuSans-73"/>
      <use xlink:href="#DejaVuSans-74" x="52.099609"/>
      <use xlink:href="#DejaVuSans-61" x="91.308594"/>
      <use xlink:href="#DejaVuSans-72" x="152.587891"/>
     </g>
    </g>
    <g id="line2d_42">
     <path d="M 815.08 343.176562 
L 825.08 343.176562 
L 835.08 343.176562 
" style="fill: none; stroke: #ff7f0e; stroke-width: 1.5; stroke-linecap: square"/>
    </g>
    <g id="text_22">
     <!-- fork -->
     <g style="fill: #a9a9a9" transform="translate(843.08 346.676562) scale(0.1 -0.1)">
      <defs>
       <path id="DejaVuSans-66" d="M 2375 4863 
L 2375 4384 
L 1825 4384 
Q 1516 4384 1395 4259 
Q 1275 4134 1275 3809 
L 1275 3500 
L 2222 3500 
L 2222 3053 
L 1275 3053 
L 1275 0 
L 697 0 
L 697 3053 
L 147 3053 
L 147 3500 
L 697 3500 
L 697 3744 
Q 697 4328 969 4595 
Q 1241 4863 1831 4863 
L 2375 4863 
z
" transform="scale(0.015625)"/>
       <path id="DejaVuSans-6b" d="M 581 4863 
L 1159 4863 
L 1159 1991 
L 2875 3500 
L 3609 3500 
L 1753 1863 
L 3688 0 
L 2938 0 
L 1159 1709 
L 1159 0 
L 581 0 
L 581 4863 
z
" transform="scale(0.015625)"/>
      </defs>
      <use xlink:href="#DejaVuSans-66"/>
      <use xlink:href="#DejaVuSans-6f" x="35.205078"/>
      <use xlink:href="#DejaVuSans-72" x="96.386719"/>
      <use xlink:href="#DejaVuSans-6b" x="137.5"/>
     </g>
    </g>
   </g>
  </g>
 </g>
 <defs>
  <clipPath id="pc871b892eb">
   <rect x="108" y="43.2" width="669.6" height="277.2"/>
  </clipPath>
 </defs>
</svg>
