<?xml version="1.0" encoding="utf-8" standalone="no"?>
<!DOCTYPE svg PUBLIC "-//W3C//DTD SVG 1.1//EN"
  "http://www.w3.org/Graphics/SVG/1.1/DTD/svg11.dtd">
<svg xmlns:xlink="http://www.w3.org/1999/xlink" width="864pt" height="360pt" viewBox="0 0 864 360" xmlns="http://www.w3.org/2000/svg" version="1.1">
 <metadata>
  <rdf:RDF xmlns:dc="http://purl.org/dc/elements/1.1/" xmlns:cc="http://creativecommons.org/ns#" xmlns:rdf="http://www.w3.org/1999/02/22-rdf-syntax-ns#">
   <cc:Work>
    <dc:type rdf:resource="http://purl.org/dc/dcmitype/StillImage"/>
    <dc:date>2023-02-08T08:59:13.469057</dc:date>
    <dc:format>image/svg+xml</dc:format>
    <dc:creator>
     <cc:Agent>
      <dc:title>Matplotlib v3.6.3, https://matplotlib.org/</dc:title>
     </cc:Agent>
    </dc:creator>
   </cc:Work>
  </rdf:RDF>
 </metadata>
 <defs>
  <style type="text/css">*{stroke-linejoin: round; stroke-linecap: butt}</style>
 </defs>
 <g id="figure_1">
  <g id="patch_1">
   <path d="M 0 360 
L 864 360 
L 864 0 
L 0 0 
L 0 360 
z
" style="fill: none; opacity: 0"/>
  </g>
  <g id="axes_1">
   <g id="patch_2">
    <path d="M 108 320.4 
L 777.6 320.4 
L 777.6 43.2 
L 108 43.2 
L 108 320.4 
z
" style="fill: none; opacity: 0"/>
   </g>
   <g id="matplotlib.axis_1">
    <g id="xtick_1">
     <g id="line2d_1">
      <path d="M 113.612379 320.4 
L 113.612379 43.2 
" clip-path="url(#pc89db146e8)" style="fill: none; stroke-dasharray: 5.12,1.28,0.8,1.28; stroke-dashoffset: 0; stroke: #b0b0b0; stroke-width: 0.8"/>
     </g>
     <g id="line2d_2">
      <defs>
       <path id="mc33e3aaabf" d="M 0 0 
L 0 3.5 
" style="stroke: #a9a9a9; stroke-width: 0.8"/>
      </defs>
      <g>
       <use xlink:href="#mc33e3aaabf" x="113.612379" y="320.4" style="fill: #a9a9a9; stroke: #a9a9a9; stroke-width: 0.8"/>
      </g>
     </g>
     <g id="text_1">
      <!-- 2021-07 -->
      <g style="fill: #a9a9a9" transform="translate(92.720973 334.998438) scale(0.1 -0.1)">
       <defs>
        <path id="DejaVuSans-32" d="M 1228 531 
L 3431 531 
L 3431 0 
L 469 0 
L 469 531 
Q 828 903 1448 1529 
Q 2069 2156 2228 2338 
Q 2531 2678 2651 2914 
Q 2772 3150 2772 3378 
Q 2772 3750 2511 3984 
Q 2250 4219 1831 4219 
Q 1534 4219 1204 4116 
Q 875 4013 500 3803 
L 500 4441 
Q 881 4594 1212 4672 
Q 1544 4750 1819 4750 
Q 2544 4750 2975 4387 
Q 3406 4025 3406 3419 
Q 3406 3131 3298 2873 
Q 3191 2616 2906 2266 
Q 2828 2175 2409 1742 
Q 1991 1309 1228 531 
z
" transform="scale(0.015625)"/>
        <path id="DejaVuSans-30" d="M 2034 4250 
Q 1547 4250 1301 3770 
Q 1056 3291 1056 2328 
Q 1056 1369 1301 889 
Q 1547 409 2034 409 
Q 2525 409 2770 889 
Q 3016 1369 3016 2328 
Q 3016 3291 2770 3770 
Q 2525 4250 2034 4250 
z
M 2034 4750 
Q 2819 4750 3233 4129 
Q 3647 3509 3647 2328 
Q 3647 1150 3233 529 
Q 2819 -91 2034 -91 
Q 1250 -91 836 529 
Q 422 1150 422 2328 
Q 422 3509 836 4129 
Q 1250 4750 2034 4750 
z
" transform="scale(0.015625)"/>
        <path id="DejaVuSans-31" d="M 794 531 
L 1825 531 
L 1825 4091 
L 703 3866 
L 703 4441 
L 1819 4666 
L 2450 4666 
L 2450 531 
L 3481 531 
L 3481 0 
L 794 0 
L 794 531 
z
" transform="scale(0.015625)"/>
        <path id="DejaVuSans-2d" d="M 313 2009 
L 1997 2009 
L 1997 1497 
L 313 1497 
L 313 2009 
z
" transform="scale(0.015625)"/>
        <path id="DejaVuSans-37" d="M 525 4666 
L 3525 4666 
L 3525 4397 
L 1831 0 
L 1172 0 
L 2766 4134 
L 525 4134 
L 525 4666 
z
" transform="scale(0.015625)"/>
       </defs>
       <use xlink:href="#DejaVuSans-32"/>
       <use xlink:href="#DejaVuSans-30" x="63.623047"/>
       <use xlink:href="#DejaVuSans-32" x="127.246094"/>
       <use xlink:href="#DejaVuSans-31" x="190.869141"/>
       <use xlink:href="#DejaVuSans-2d" x="254.492188"/>
       <use xlink:href="#DejaVuSans-30" x="290.576172"/>
       <use xlink:href="#DejaVuSans-37" x="354.199219"/>
      </g>
     </g>
    </g>
    <g id="xtick_2">
     <g id="line2d_3">
      <path d="M 180.529207 320.4 
L 180.529207 43.2 
" clip-path="url(#pc89db146e8)" style="fill: none; stroke-dasharray: 5.12,1.28,0.8,1.28; stroke-dashoffset: 0; stroke: #b0b0b0; stroke-width: 0.8"/>
     </g>
     <g id="line2d_4">
      <g>
       <use xlink:href="#mc33e3aaabf" x="180.529207" y="320.4" style="fill: #a9a9a9; stroke: #a9a9a9; stroke-width: 0.8"/>
      </g>
     </g>
     <g id="text_2">
      <!-- 2021-09 -->
      <g style="fill: #a9a9a9" transform="translate(159.637801 334.998438) scale(0.1 -0.1)">
       <defs>
        <path id="DejaVuSans-39" d="M 703 97 
L 703 672 
Q 941 559 1184 500 
Q 1428 441 1663 441 
Q 2288 441 2617 861 
Q 2947 1281 2994 2138 
Q 2813 1869 2534 1725 
Q 2256 1581 1919 1581 
Q 1219 1581 811 2004 
Q 403 2428 403 3163 
Q 403 3881 828 4315 
Q 1253 4750 1959 4750 
Q 2769 4750 3195 4129 
Q 3622 3509 3622 2328 
Q 3622 1225 3098 567 
Q 2575 -91 1691 -91 
Q 1453 -91 1209 -44 
Q 966 3 703 97 
z
M 1959 2075 
Q 2384 2075 2632 2365 
Q 2881 2656 2881 3163 
Q 2881 3666 2632 3958 
Q 2384 4250 1959 4250 
Q 1534 4250 1286 3958 
Q 1038 3666 1038 3163 
Q 1038 2656 1286 2365 
Q 1534 2075 1959 2075 
z
" transform="scale(0.015625)"/>
       </defs>
       <use xlink:href="#DejaVuSans-32"/>
       <use xlink:href="#DejaVuSans-30" x="63.623047"/>
       <use xlink:href="#DejaVuSans-32" x="127.246094"/>
       <use xlink:href="#DejaVuSans-31" x="190.869141"/>
       <use xlink:href="#DejaVuSans-2d" x="254.492188"/>
       <use xlink:href="#DejaVuSans-30" x="290.576172"/>
       <use xlink:href="#DejaVuSans-39" x="354.199219"/>
      </g>
     </g>
    </g>
    <g id="xtick_3">
     <g id="line2d_5">
      <path d="M 246.366731 320.4 
L 246.366731 43.2 
" clip-path="url(#pc89db146e8)" style="fill: none; stroke-dasharray: 5.12,1.28,0.8,1.28; stroke-dashoffset: 0; stroke: #b0b0b0; stroke-width: 0.8"/>
     </g>
     <g id="line2d_6">
      <g>
       <use xlink:href="#mc33e3aaabf" x="246.366731" y="320.4" style="fill: #a9a9a9; stroke: #a9a9a9; stroke-width: 0.8"/>
      </g>
     </g>
     <g id="text_3">
      <!-- 2021-11 -->
      <g style="fill: #a9a9a9" transform="translate(225.475325 334.998438) scale(0.1 -0.1)">
       <use xlink:href="#DejaVuSans-32"/>
       <use xlink:href="#DejaVuSans-30" x="63.623047"/>
       <use xlink:href="#DejaVuSans-32" x="127.246094"/>
       <use xlink:href="#DejaVuSans-31" x="190.869141"/>
       <use xlink:href="#DejaVuSans-2d" x="254.492188"/>
       <use xlink:href="#DejaVuSans-31" x="290.576172"/>
       <use xlink:href="#DejaVuSans-31" x="354.199219"/>
      </g>
     </g>
    </g>
    <g id="xtick_4">
     <g id="line2d_7">
      <path d="M 312.204255 320.4 
L 312.204255 43.2 
" clip-path="url(#pc89db146e8)" style="fill: none; stroke-dasharray: 5.12,1.28,0.8,1.28; stroke-dashoffset: 0; stroke: #b0b0b0; stroke-width: 0.8"/>
     </g>
     <g id="line2d_8">
      <g>
       <use xlink:href="#mc33e3aaabf" x="312.204255" y="320.4" style="fill: #a9a9a9; stroke: #a9a9a9; stroke-width: 0.8"/>
      </g>
     </g>
     <g id="text_4">
      <!-- 2022-01 -->
      <g style="fill: #a9a9a9" transform="translate(291.312849 334.998438) scale(0.1 -0.1)">
       <use xlink:href="#DejaVuSans-32"/>
       <use xlink:href="#DejaVuSans-30" x="63.623047"/>
       <use xlink:href="#DejaVuSans-32" x="127.246094"/>
       <use xlink:href="#DejaVuSans-32" x="190.869141"/>
       <use xlink:href="#DejaVuSans-2d" x="254.492188"/>
       <use xlink:href="#DejaVuSans-30" x="290.576172"/>
       <use xlink:href="#DejaVuSans-31" x="354.199219"/>
      </g>
     </g>
    </g>
    <g id="xtick_5">
     <g id="line2d_9">
      <path d="M 375.883172 320.4 
L 375.883172 43.2 
" clip-path="url(#pc89db146e8)" style="fill: none; stroke-dasharray: 5.12,1.28,0.8,1.28; stroke-dashoffset: 0; stroke: #b0b0b0; stroke-width: 0.8"/>
     </g>
     <g id="line2d_10">
      <g>
       <use xlink:href="#mc33e3aaabf" x="375.883172" y="320.4" style="fill: #a9a9a9; stroke: #a9a9a9; stroke-width: 0.8"/>
      </g>
     </g>
     <g id="text_5">
      <!-- 2022-03 -->
      <g style="fill: #a9a9a9" transform="translate(354.991766 334.998438) scale(0.1 -0.1)">
       <defs>
        <path id="DejaVuSans-33" d="M 2597 2516 
Q 3050 2419 3304 2112 
Q 3559 1806 3559 1356 
Q 3559 666 3084 287 
Q 2609 -91 1734 -91 
Q 1441 -91 1130 -33 
Q 819 25 488 141 
L 488 750 
Q 750 597 1062 519 
Q 1375 441 1716 441 
Q 2309 441 2620 675 
Q 2931 909 2931 1356 
Q 2931 1769 2642 2001 
Q 2353 2234 1838 2234 
L 1294 2234 
L 1294 2753 
L 1863 2753 
Q 2328 2753 2575 2939 
Q 2822 3125 2822 3475 
Q 2822 3834 2567 4026 
Q 2313 4219 1838 4219 
Q 1578 4219 1281 4162 
Q 984 4106 628 3988 
L 628 4550 
Q 988 4650 1302 4700 
Q 1616 4750 1894 4750 
Q 2613 4750 3031 4423 
Q 3450 4097 3450 3541 
Q 3450 3153 3228 2886 
Q 3006 2619 2597 2516 
z
" transform="scale(0.015625)"/>
       </defs>
       <use xlink:href="#DejaVuSans-32"/>
       <use xlink:href="#DejaVuSans-30" x="63.623047"/>
       <use xlink:href="#DejaVuSans-32" x="127.246094"/>
       <use xlink:href="#DejaVuSans-32" x="190.869141"/>
       <use xlink:href="#DejaVuSans-2d" x="254.492188"/>
       <use xlink:href="#DejaVuSans-30" x="290.576172"/>
       <use xlink:href="#DejaVuSans-33" x="354.199219"/>
      </g>
     </g>
    </g>
    <g id="xtick_6">
     <g id="line2d_11">
      <path d="M 441.720696 320.4 
L 441.720696 43.2 
" clip-path="url(#pc89db146e8)" style="fill: none; stroke-dasharray: 5.12,1.28,0.8,1.28; stroke-dashoffset: 0; stroke: #b0b0b0; stroke-width: 0.8"/>
     </g>
     <g id="line2d_12">
      <g>
       <use xlink:href="#mc33e3aaabf" x="441.720696" y="320.4" style="fill: #a9a9a9; stroke: #a9a9a9; stroke-width: 0.8"/>
      </g>
     </g>
     <g id="text_6">
      <!-- 2022-05 -->
      <g style="fill: #a9a9a9" transform="translate(420.82929 334.998438) scale(0.1 -0.1)">
       <defs>
        <path id="DejaVuSans-35" d="M 691 4666 
L 3169 4666 
L 3169 4134 
L 1269 4134 
L 1269 2991 
Q 1406 3038 1543 3061 
Q 1681 3084 1819 3084 
Q 2600 3084 3056 2656 
Q 3513 2228 3513 1497 
Q 3513 744 3044 326 
Q 2575 -91 1722 -91 
Q 1428 -91 1123 -41 
Q 819 9 494 109 
L 494 744 
Q 775 591 1075 516 
Q 1375 441 1709 441 
Q 2250 441 2565 725 
Q 2881 1009 2881 1497 
Q 2881 1984 2565 2268 
Q 2250 2553 1709 2553 
Q 1456 2553 1204 2497 
Q 953 2441 691 2322 
L 691 4666 
z
" transform="scale(0.015625)"/>
       </defs>
       <use xlink:href="#DejaVuSans-32"/>
       <use xlink:href="#DejaVuSans-30" x="63.623047"/>
       <use xlink:href="#DejaVuSans-32" x="127.246094"/>
       <use xlink:href="#DejaVuSans-32" x="190.869141"/>
       <use xlink:href="#DejaVuSans-2d" x="254.492188"/>
       <use xlink:href="#DejaVuSans-30" x="290.576172"/>
       <use xlink:href="#DejaVuSans-35" x="354.199219"/>
      </g>
     </g>
    </g>
    <g id="xtick_7">
     <g id="line2d_13">
      <path d="M 507.558221 320.4 
L 507.558221 43.2 
" clip-path="url(#pc89db146e8)" style="fill: none; stroke-dasharray: 5.12,1.28,0.8,1.28; stroke-dashoffset: 0; stroke: #b0b0b0; stroke-width: 0.8"/>
     </g>
     <g id="line2d_14">
      <g>
       <use xlink:href="#mc33e3aaabf" x="507.558221" y="320.4" style="fill: #a9a9a9; stroke: #a9a9a9; stroke-width: 0.8"/>
      </g>
     </g>
     <g id="text_7">
      <!-- 2022-07 -->
      <g style="fill: #a9a9a9" transform="translate(486.666814 334.998438) scale(0.1 -0.1)">
       <use xlink:href="#DejaVuSans-32"/>
       <use xlink:href="#DejaVuSans-30" x="63.623047"/>
       <use xlink:href="#DejaVuSans-32" x="127.246094"/>
       <use xlink:href="#DejaVuSans-32" x="190.869141"/>
       <use xlink:href="#DejaVuSans-2d" x="254.492188"/>
       <use xlink:href="#DejaVuSans-30" x="290.576172"/>
       <use xlink:href="#DejaVuSans-37" x="354.199219"/>
      </g>
     </g>
    </g>
    <g id="xtick_8">
     <g id="line2d_15">
      <path d="M 574.475048 320.4 
L 574.475048 43.2 
" clip-path="url(#pc89db146e8)" style="fill: none; stroke-dasharray: 5.12,1.28,0.8,1.28; stroke-dashoffset: 0; stroke: #b0b0b0; stroke-width: 0.8"/>
     </g>
     <g id="line2d_16">
      <g>
       <use xlink:href="#mc33e3aaabf" x="574.475048" y="320.4" style="fill: #a9a9a9; stroke: #a9a9a9; stroke-width: 0.8"/>
      </g>
     </g>
     <g id="text_8">
      <!-- 2022-09 -->
      <g style="fill: #a9a9a9" transform="translate(553.583642 334.998438) scale(0.1 -0.1)">
       <use xlink:href="#DejaVuSans-32"/>
       <use xlink:href="#DejaVuSans-30" x="63.623047"/>
       <use xlink:href="#DejaVuSans-32" x="127.246094"/>
       <use xlink:href="#DejaVuSans-32" x="190.869141"/>
       <use xlink:href="#DejaVuSans-2d" x="254.492188"/>
       <use xlink:href="#DejaVuSans-30" x="290.576172"/>
       <use xlink:href="#DejaVuSans-39" x="354.199219"/>
      </g>
     </g>
    </g>
    <g id="xtick_9">
     <g id="line2d_17">
      <path d="M 640.312573 320.4 
L 640.312573 43.2 
" clip-path="url(#pc89db146e8)" style="fill: none; stroke-dasharray: 5.12,1.28,0.8,1.28; stroke-dashoffset: 0; stroke: #b0b0b0; stroke-width: 0.8"/>
     </g>
     <g id="line2d_18">
      <g>
       <use xlink:href="#mc33e3aaabf" x="640.312573" y="320.4" style="fill: #a9a9a9; stroke: #a9a9a9; stroke-width: 0.8"/>
      </g>
     </g>
     <g id="text_9">
      <!-- 2022-11 -->
      <g style="fill: #a9a9a9" transform="translate(619.421166 334.998438) scale(0.1 -0.1)">
       <use xlink:href="#DejaVuSans-32"/>
       <use xlink:href="#DejaVuSans-30" x="63.623047"/>
       <use xlink:href="#DejaVuSans-32" x="127.246094"/>
       <use xlink:href="#DejaVuSans-32" x="190.869141"/>
       <use xlink:href="#DejaVuSans-2d" x="254.492188"/>
       <use xlink:href="#DejaVuSans-31" x="290.576172"/>
       <use xlink:href="#DejaVuSans-31" x="354.199219"/>
      </g>
     </g>
    </g>
    <g id="xtick_10">
     <g id="line2d_19">
      <path d="M 706.150097 320.4 
L 706.150097 43.2 
" clip-path="url(#pc89db146e8)" style="fill: none; stroke-dasharray: 5.12,1.28,0.8,1.28; stroke-dashoffset: 0; stroke: #b0b0b0; stroke-width: 0.8"/>
     </g>
     <g id="line2d_20">
      <g>
       <use xlink:href="#mc33e3aaabf" x="706.150097" y="320.4" style="fill: #a9a9a9; stroke: #a9a9a9; stroke-width: 0.8"/>
      </g>
     </g>
     <g id="text_10">
      <!-- 2023-01 -->
      <g style="fill: #a9a9a9" transform="translate(685.25869 334.998438) scale(0.1 -0.1)">
       <use xlink:href="#DejaVuSans-32"/>
       <use xlink:href="#DejaVuSans-30" x="63.623047"/>
       <use xlink:href="#DejaVuSans-32" x="127.246094"/>
       <use xlink:href="#DejaVuSans-33" x="190.869141"/>
       <use xlink:href="#DejaVuSans-2d" x="254.492188"/>
       <use xlink:href="#DejaVuSans-30" x="290.576172"/>
       <use xlink:href="#DejaVuSans-31" x="354.199219"/>
      </g>
     </g>
    </g>
    <g id="xtick_11">
     <g id="line2d_21">
      <path d="M 769.829014 320.4 
L 769.829014 43.2 
" clip-path="url(#pc89db146e8)" style="fill: none; stroke-dasharray: 5.12,1.28,0.8,1.28; stroke-dashoffset: 0; stroke: #b0b0b0; stroke-width: 0.8"/>
     </g>
     <g id="line2d_22">
      <g>
       <use xlink:href="#mc33e3aaabf" x="769.829014" y="320.4" style="fill: #a9a9a9; stroke: #a9a9a9; stroke-width: 0.8"/>
      </g>
     </g>
     <g id="text_11">
      <!-- 2023-03 -->
      <g style="fill: #a9a9a9" transform="translate(748.937607 334.998438) scale(0.1 -0.1)">
       <use xlink:href="#DejaVuSans-32"/>
       <use xlink:href="#DejaVuSans-30" x="63.623047"/>
       <use xlink:href="#DejaVuSans-32" x="127.246094"/>
       <use xlink:href="#DejaVuSans-33" x="190.869141"/>
       <use xlink:href="#DejaVuSans-2d" x="254.492188"/>
       <use xlink:href="#DejaVuSans-30" x="290.576172"/>
       <use xlink:href="#DejaVuSans-33" x="354.199219"/>
      </g>
     </g>
    </g>
   </g>
   <g id="matplotlib.axis_2">
    <g id="ytick_1">
     <g id="line2d_23">
      <path d="M 108 307.866403 
L 777.6 307.866403 
" clip-path="url(#pc89db146e8)" style="fill: none; stroke-dasharray: 5.12,1.28,0.8,1.28; stroke-dashoffset: 0; stroke: #b0b0b0; stroke-width: 0.8"/>
     </g>
     <g id="line2d_24">
      <defs>
       <path id="m01b7feed69" d="M 0 0 
L -3.5 0 
" style="stroke: #a9a9a9; stroke-width: 0.8"/>
      </defs>
      <g>
       <use xlink:href="#m01b7feed69" x="108" y="307.866403" style="fill: #a9a9a9; stroke: #a9a9a9; stroke-width: 0.8"/>
      </g>
     </g>
     <g id="text_12">
      <!-- 0 -->
      <g style="fill: #a9a9a9" transform="translate(94.6375 311.665622) scale(0.1 -0.1)">
       <use xlink:href="#DejaVuSans-30"/>
      </g>
     </g>
    </g>
    <g id="ytick_2">
     <g id="line2d_25">
      <path d="M 108 274.664822 
L 777.6 274.664822 
" clip-path="url(#pc89db146e8)" style="fill: none; stroke-dasharray: 5.12,1.28,0.8,1.28; stroke-dashoffset: 0; stroke: #b0b0b0; stroke-width: 0.8"/>
     </g>
     <g id="line2d_26">
      <g>
       <use xlink:href="#m01b7feed69" x="108" y="274.664822" style="fill: #a9a9a9; stroke: #a9a9a9; stroke-width: 0.8"/>
      </g>
     </g>
     <g id="text_13">
      <!-- 500 -->
      <g style="fill: #a9a9a9" transform="translate(81.9125 278.464041) scale(0.1 -0.1)">
       <use xlink:href="#DejaVuSans-35"/>
       <use xlink:href="#DejaVuSans-30" x="63.623047"/>
       <use xlink:href="#DejaVuSans-30" x="127.246094"/>
      </g>
     </g>
    </g>
    <g id="ytick_3">
     <g id="line2d_27">
      <path d="M 108 241.463241 
L 777.6 241.463241 
" clip-path="url(#pc89db146e8)" style="fill: none; stroke-dasharray: 5.12,1.28,0.8,1.28; stroke-dashoffset: 0; stroke: #b0b0b0; stroke-width: 0.8"/>
     </g>
     <g id="line2d_28">
      <g>
       <use xlink:href="#m01b7feed69" x="108" y="241.463241" style="fill: #a9a9a9; stroke: #a9a9a9; stroke-width: 0.8"/>
      </g>
     </g>
     <g id="text_14">
      <!-- 1000 -->
      <g style="fill: #a9a9a9" transform="translate(75.55 245.26246) scale(0.1 -0.1)">
       <use xlink:href="#DejaVuSans-31"/>
       <use xlink:href="#DejaVuSans-30" x="63.623047"/>
       <use xlink:href="#DejaVuSans-30" x="127.246094"/>
       <use xlink:href="#DejaVuSans-30" x="190.869141"/>
      </g>
     </g>
    </g>
    <g id="ytick_4">
     <g id="line2d_29">
      <path d="M 108 208.26166 
L 777.6 208.26166 
" clip-path="url(#pc89db146e8)" style="fill: none; stroke-dasharray: 5.12,1.28,0.8,1.28; stroke-dashoffset: 0; stroke: #b0b0b0; stroke-width: 0.8"/>
     </g>
     <g id="line2d_30">
      <g>
       <use xlink:href="#m01b7feed69" x="108" y="208.26166" style="fill: #a9a9a9; stroke: #a9a9a9; stroke-width: 0.8"/>
      </g>
     </g>
     <g id="text_15">
      <!-- 1500 -->
      <g style="fill: #a9a9a9" transform="translate(75.55 212.060879) scale(0.1 -0.1)">
       <use xlink:href="#DejaVuSans-31"/>
       <use xlink:href="#DejaVuSans-35" x="63.623047"/>
       <use xlink:href="#DejaVuSans-30" x="127.246094"/>
       <use xlink:href="#DejaVuSans-30" x="190.869141"/>
      </g>
     </g>
    </g>
    <g id="ytick_5">
     <g id="line2d_31">
      <path d="M 108 175.060079 
L 777.6 175.060079 
" clip-path="url(#pc89db146e8)" style="fill: none; stroke-dasharray: 5.12,1.28,0.8,1.28; stroke-dashoffset: 0; stroke: #b0b0b0; stroke-width: 0.8"/>
     </g>
     <g id="line2d_32">
      <g>
       <use xlink:href="#m01b7feed69" x="108" y="175.060079" style="fill: #a9a9a9; stroke: #a9a9a9; stroke-width: 0.8"/>
      </g>
     </g>
     <g id="text_16">
      <!-- 2000 -->
      <g style="fill: #a9a9a9" transform="translate(75.55 178.859298) scale(0.1 -0.1)">
       <use xlink:href="#DejaVuSans-32"/>
       <use xlink:href="#DejaVuSans-30" x="63.623047"/>
       <use xlink:href="#DejaVuSans-30" x="127.246094"/>
       <use xlink:href="#DejaVuSans-30" x="190.869141"/>
      </g>
     </g>
    </g>
    <g id="ytick_6">
     <g id="line2d_33">
      <path d="M 108 141.858498 
L 777.6 141.858498 
" clip-path="url(#pc89db146e8)" style="fill: none; stroke-dasharray: 5.12,1.28,0.8,1.28; stroke-dashoffset: 0; stroke: #b0b0b0; stroke-width: 0.8"/>
     </g>
     <g id="line2d_34">
      <g>
       <use xlink:href="#m01b7feed69" x="108" y="141.858498" style="fill: #a9a9a9; stroke: #a9a9a9; stroke-width: 0.8"/>
      </g>
     </g>
     <g id="text_17">
      <!-- 2500 -->
      <g style="fill: #a9a9a9" transform="translate(75.55 145.657717) scale(0.1 -0.1)">
       <use xlink:href="#DejaVuSans-32"/>
       <use xlink:href="#DejaVuSans-35" x="63.623047"/>
       <use xlink:href="#DejaVuSans-30" x="127.246094"/>
       <use xlink:href="#DejaVuSans-30" x="190.869141"/>
      </g>
     </g>
    </g>
    <g id="ytick_7">
     <g id="line2d_35">
      <path d="M 108 108.656917 
L 777.6 108.656917 
" clip-path="url(#pc89db146e8)" style="fill: none; stroke-dasharray: 5.12,1.28,0.8,1.28; stroke-dashoffset: 0; stroke: #b0b0b0; stroke-width: 0.8"/>
     </g>
     <g id="line2d_36">
      <g>
       <use xlink:href="#m01b7feed69" x="108" y="108.656917" style="fill: #a9a9a9; stroke: #a9a9a9; stroke-width: 0.8"/>
      </g>
     </g>
     <g id="text_18">
      <!-- 3000 -->
      <g style="fill: #a9a9a9" transform="translate(75.55 112.456136) scale(0.1 -0.1)">
       <use xlink:href="#DejaVuSans-33"/>
       <use xlink:href="#DejaVuSans-30" x="63.623047"/>
       <use xlink:href="#DejaVuSans-30" x="127.246094"/>
       <use xlink:href="#DejaVuSans-30" x="190.869141"/>
      </g>
     </g>
    </g>
    <g id="ytick_8">
     <g id="line2d_37">
      <path d="M 108 75.455336 
L 777.6 75.455336 
" clip-path="url(#pc89db146e8)" style="fill: none; stroke-dasharray: 5.12,1.28,0.8,1.28; stroke-dashoffset: 0; stroke: #b0b0b0; stroke-width: 0.8"/>
     </g>
     <g id="line2d_38">
      <g>
       <use xlink:href="#m01b7feed69" x="108" y="75.455336" style="fill: #a9a9a9; stroke: #a9a9a9; stroke-width: 0.8"/>
      </g>
     </g>
     <g id="text_19">
      <!-- 3500 -->
      <g style="fill: #a9a9a9" transform="translate(75.55 79.254555) scale(0.1 -0.1)">
       <use xlink:href="#DejaVuSans-33"/>
       <use xlink:href="#DejaVuSans-35" x="63.623047"/>
       <use xlink:href="#DejaVuSans-30" x="127.246094"/>
       <use xlink:href="#DejaVuSans-30" x="190.869141"/>
      </g>
     </g>
    </g>
   </g>
   <g id="line2d_39">
    <path d="M 138.436364 307.600791 
L 142.753578 307.268775 
L 143.832882 307.135968 
L 144.912186 307.135968 
L 145.991489 306.737549 
L 148.150097 306.604743 
L 155.705222 305.210277 
L 157.86383 305.07747 
L 158.943133 304.878261 
L 162.181044 304.679051 
L 163.260348 304.147826 
L 164.339652 303.882213 
L 165.418956 302.686957 
L 166.498259 302.022925 
L 167.577563 299.765217 
L 168.656867 299.632411 
L 169.73617 298.901976 
L 170.815474 298.503557 
L 171.894778 297.972332 
L 175.132689 295.515415 
L 176.211992 294.98419 
L 178.3706 294.187352 
L 179.449903 293.456917 
L 180.529207 293.058498 
L 181.608511 292.527273 
L 182.687814 291.863241 
L 183.767118 291.531225 
L 184.846422 289.937549 
L 185.925725 289.140711 
L 187.005029 288.543083 
L 188.084333 288.078261 
L 192.401547 287.480632 
L 195.639458 286.949407 
L 197.798066 286.816601 
L 198.877369 286.617391 
L 199.956673 286.086166 
L 204.273888 285.75415 
L 207.511799 285.422134 
L 208.591103 285.090119 
L 213.987621 284.094071 
L 216.146228 283.894862 
L 217.225532 283.629249 
L 220.463443 283.23083 
L 221.542747 282.699605 
L 222.62205 282.566798 
L 224.780658 281.836364 
L 226.939265 281.637154 
L 228.018569 281.305138 
L 232.335783 280.70751 
L 233.415087 280.375494 
L 235.573694 280.043478 
L 236.652998 280.043478 
L 242.049516 279.379447 
L 244.208124 278.781818 
L 245.287427 278.516206 
L 247.446035 278.316996 
L 248.525338 278.250593 
L 251.76325 277.652964 
L 252.842553 277.254545 
L 253.921857 275.926482 
L 255.001161 275.528063 
L 256.080464 274.996838 
L 257.159768 274.864032 
L 258.239072 274.598419 
L 259.318375 274.465613 
L 261.476983 273.602372 
L 262.556286 273.535968 
L 267.952805 272.207905 
L 269.032108 272.207905 
L 271.190716 271.942292 
L 273.349323 271.344664 
L 276.587234 270.547826 
L 277.666538 270.481423 
L 279.825145 269.618182 
L 280.904449 269.485375 
L 281.983752 269.020553 
L 284.14236 268.821344 
L 285.221663 268.754941 
L 288.459574 268.223715 
L 290.618182 267.8917 
L 296.0147 266.895652 
L 298.173308 266.165217 
L 299.252611 265.567589 
L 300.331915 265.301976 
L 301.411219 265.16917 
L 303.569826 264.505138 
L 305.728433 263.376285 
L 306.807737 262.712253 
L 307.887041 262.579447 
L 308.966344 262.247431 
L 310.045648 262.114625 
L 311.124952 261.849012 
L 312.204255 261.716206 
L 313.283559 261.251383 
L 315.442166 260.919368 
L 316.52147 260.388142 
L 317.600774 259.989723 
L 318.680077 259.724111 
L 319.759381 259.591304 
L 320.838685 259.192885 
L 325.155899 258.396047 
L 327.314507 257.532806 
L 328.39381 257.333597 
L 329.473114 256.935178 
L 330.552418 256.802372 
L 331.631721 256.337549 
L 332.711025 256.071937 
L 334.869632 255.93913 
L 337.02824 255.275099 
L 338.107544 255.142292 
L 339.186847 255.142292 
L 340.266151 254.67747 
L 342.424758 254.345455 
L 343.504062 253.947036 
L 345.662669 253.880632 
L 346.741973 253.747826 
L 347.821277 253.747826 
L 349.979884 253.41581 
L 352.138491 252.419763 
L 354.297099 251.490119 
L 355.376402 251.224506 
L 356.455706 250.560474 
L 357.53501 250.228458 
L 359.693617 249.298814 
L 360.772921 249.099605 
L 362.931528 248.36917 
L 364.010832 247.705138 
L 365.090135 247.173913 
L 366.169439 246.111462 
L 367.248743 244.451383 
L 368.328046 243.189723 
L 369.40735 242.857708 
L 370.486654 242.857708 
L 371.565957 242.193676 
L 372.645261 241.396838 
L 373.724565 241.131225 
L 374.803868 240.6 
L 375.883172 240.400791 
L 376.962476 239.471146 
L 378.041779 239.205534 
L 381.279691 237.811067 
L 382.358994 236.61581 
L 383.438298 235.088538 
L 384.517602 234.490909 
L 385.596905 232.83083 
L 386.676209 231.834783 
L 387.755513 231.36996 
L 388.834816 231.104348 
L 389.91412 230.440316 
L 392.072727 229.444269 
L 396.389942 226.52253 
L 397.469246 225.128063 
L 398.548549 222.803953 
L 399.627853 221.343083 
L 400.707157 220.546245 
L 401.78646 220.081423 
L 406.103675 216.694862 
L 408.262282 215.101186 
L 409.341586 214.237945 
L 410.42089 212.843478 
L 411.500193 211.913834 
L 417.976015 207.531225 
L 419.055319 207.265613 
L 420.134623 206.800791 
L 421.213926 206.203162 
L 422.29323 205.73834 
L 424.451838 204.609486 
L 425.531141 204.211067 
L 427.689749 202.418182 
L 428.769052 201.156522 
L 430.92766 199.828458 
L 432.006963 199.562846 
L 433.086267 199.031621 
L 434.165571 198.301186 
L 436.324178 197.238735 
L 437.403482 197.039526 
L 438.482785 196.375494 
L 440.641393 195.313043 
L 441.720696 194.316996 
L 442.8 193.586561 
L 443.879304 193.254545 
L 444.958607 192.590514 
L 446.037911 192.125692 
L 447.117215 191.46166 
L 448.196518 191.063241 
L 449.275822 190.399209 
L 450.355126 189.535968 
L 452.513733 188.805534 
L 453.593037 188.340711 
L 454.67234 188.141502 
L 455.751644 187.47747 
L 456.830948 187.278261 
L 458.989555 186.547826 
L 460.068859 186.21581 
L 462.227466 185.352569 
L 463.30677 184.95415 
L 464.386074 184.688538 
L 465.465377 184.290119 
L 467.623985 183.958103 
L 469.782592 182.231621 
L 470.861896 181.833202 
L 473.020503 180.704348 
L 475.17911 179.575494 
L 477.337718 178.977866 
L 478.417021 178.181028 
L 479.496325 177.915415 
L 481.654932 176.587352 
L 482.734236 176.056126 
L 485.972147 175.392095 
L 488.130754 174.794466 
L 491.368665 173.067984 
L 492.447969 172.935178 
L 493.527273 172.536759 
L 494.606576 172.403953 
L 495.68588 172.005534 
L 496.765184 171.341502 
L 498.923791 169.880632 
L 500.003095 169.681423 
L 501.082398 169.283004 
L 502.161702 169.150198 
L 503.241006 168.818182 
L 504.320309 168.087747 
L 505.399613 167.755731 
L 506.478917 167.290909 
L 510.796132 166.162055 
L 511.875435 166.095652 
L 512.954739 165.763636 
L 515.113346 164.900395 
L 516.19265 164.568379 
L 517.271954 164.36917 
L 518.351257 163.904348 
L 519.430561 163.572332 
L 520.509865 163.10751 
L 522.668472 162.509881 
L 523.747776 162.443478 
L 525.906383 161.978656 
L 526.985687 161.513834 
L 528.06499 161.314625 
L 530.223598 160.451383 
L 533.461509 159.056917 
L 535.620116 157.728854 
L 536.69942 157.463241 
L 537.778723 156.865613 
L 538.858027 156.467194 
L 539.937331 155.869565 
L 542.095938 155.404743 
L 543.175242 154.807115 
L 544.254545 154.342292 
L 545.333849 154.010277 
L 547.492456 153.678261 
L 548.57176 152.947826 
L 549.651064 152.416601 
L 550.730368 152.217391 
L 552.888975 151.35415 
L 553.968279 151.154941 
L 555.047582 150.623715 
L 559.364797 150.026087 
L 561.523404 149.096443 
L 562.602708 148.299605 
L 563.682012 146.506719 
L 564.761315 146.241107 
L 565.840619 146.1083 
L 566.919923 145.842688 
L 569.07853 144.713834 
L 570.157834 144.315415 
L 571.237137 143.78419 
L 572.316441 143.518577 
L 574.475048 142.52253 
L 576.633656 141.526482 
L 578.792263 140.663241 
L 579.871567 139.999209 
L 580.95087 139.600791 
L 584.188781 139.003162 
L 586.347389 138.007115 
L 587.426692 137.542292 
L 588.505996 137.343083 
L 591.743907 136.147826 
L 593.902515 134.886166 
L 594.981818 134.222134 
L 596.061122 133.690909 
L 597.140426 133.4917 
L 598.219729 133.159684 
L 599.299033 133.093281 
L 603.616248 131.765217 
L 604.695551 131.698814 
L 605.774855 130.968379 
L 606.854159 130.702767 
L 607.933462 130.237945 
L 611.171373 129.3083 
L 612.250677 128.710672 
L 613.329981 128.378656 
L 614.409284 127.714625 
L 615.488588 127.249802 
L 616.567892 126.652174 
L 621.96441 124.660079 
L 623.043714 124.062451 
L 624.123017 123.332016 
L 625.202321 122.203162 
L 626.281625 121.53913 
L 627.360928 121.339921 
L 629.519536 119.812648 
L 630.598839 119.480632 
L 631.678143 118.019763 
L 632.757447 117.621344 
L 633.83675 116.890909 
L 634.916054 116.758103 
L 635.995358 116.094071 
L 637.074662 115.629249 
L 638.153965 115.43004 
L 639.233269 115.031621 
L 640.312573 114.234783 
L 641.391876 113.902767 
L 644.629787 111.844269 
L 645.709091 111.379447 
L 647.867698 110.250593 
L 648.947002 109.785771 
L 650.026306 109.652964 
L 651.105609 109.254545 
L 653.264217 108.125692 
L 654.34352 106.532016 
L 655.422824 105.535968 
L 656.502128 104.93834 
L 657.581431 104.672727 
L 659.740039 103.47747 
L 660.819342 103.278261 
L 661.898646 102.747036 
L 665.136557 101.551779 
L 666.215861 101.020553 
L 668.374468 99.626087 
L 670.533075 97.501186 
L 671.612379 96.704348 
L 673.770986 95.442688 
L 674.85029 94.44664 
L 678.088201 92.056126 
L 679.167505 91.524901 
L 680.246809 90.396047 
L 681.326112 89.665613 
L 683.48472 88.935178 
L 684.564023 88.005534 
L 686.722631 87.009486 
L 687.801934 86.743874 
L 688.881238 86.013439 
L 689.960542 85.747826 
L 692.119149 84.884585 
L 694.277756 83.423715 
L 695.35706 82.89249 
L 697.515667 82.294862 
L 698.594971 81.697233 
L 703.991489 79.970751 
L 706.150097 78.974704 
L 707.2294 78.111462 
L 708.308704 77.64664 
L 710.467311 76.916206 
L 711.546615 76.451383 
L 712.625919 76.119368 
L 713.705222 75.388933 
L 716.943133 73.994466 
L 718.022437 73.264032 
L 719.101741 72.732806 
L 720.181044 70.607905 
L 721.260348 68.81502 
L 723.418956 66.424506 
L 724.498259 65.694071 
L 726.656867 64.631621 
L 728.815474 63.768379 
L 729.894778 63.56917 
L 730.974081 63.037945 
L 732.053385 62.772332 
L 733.132689 62.373913 
L 734.211992 62.1083 
L 737.449903 60.448221 
L 739.608511 58.920949 
L 741.767118 58.124111 
L 745.005029 56.530435 
L 746.084333 55.8 
L 747.163636 55.8 
L 747.163636 55.8 
" clip-path="url(#pc89db146e8)" style="fill: none; stroke: #1f77b4; stroke-width: 1.5; stroke-linecap: square"/>
   </g>
   <g id="line2d_40">
    <path d="M 139.515667 307.8 
L 141.674275 307.8 
L 143.832882 307.534387 
L 150.308704 307.467984 
L 153.546615 307.335178 
L 156.784526 307.268775 
L 158.943133 307.202372 
L 162.181044 307.202372 
L 163.260348 306.936759 
L 166.498259 306.870356 
L 171.894778 306.272727 
L 180.529207 305.807905 
L 181.608511 305.807905 
L 182.687814 305.608696 
L 185.925725 305.542292 
L 188.084333 305.27668 
L 192.401547 305.27668 
L 193.480851 305.143874 
L 198.877369 305.07747 
L 202.11528 304.944664 
L 211.829014 304.878261 
L 213.987621 304.811858 
L 218.304836 304.745455 
L 221.542747 304.612648 
L 225.859961 304.612648 
L 226.939265 304.479842 
L 230.177176 304.413439 
L 234.494391 304.214229 
L 242.049516 304.147826 
L 244.208124 304.081423 
L 248.525338 304.01502 
L 251.76325 303.616601 
L 257.159768 303.550198 
L 262.556286 303.284585 
L 267.952805 303.218182 
L 271.190716 303.085375 
L 273.349323 303.018972 
L 275.50793 302.819763 
L 279.825145 302.620553 
L 283.063056 302.55415 
L 285.221663 302.487747 
L 287.380271 302.487747 
L 288.459574 302.354941 
L 291.697485 302.354941 
L 293.856093 302.155731 
L 297.094004 302.022925 
L 302.490522 301.956522 
L 305.728433 301.624506 
L 307.887041 301.4917 
L 308.966344 301.29249 
L 313.283559 301.226087 
L 316.52147 300.960474 
L 318.680077 300.761265 
L 324.076596 300.495652 
L 327.314507 300.429249 
L 330.552418 300.296443 
L 331.631721 300.296443 
L 333.790329 300.097233 
L 335.948936 300.03083 
L 337.02824 300.03083 
L 338.107544 299.898024 
L 340.266151 299.831621 
L 345.662669 299.566008 
L 347.821277 299.499605 
L 351.059188 299.366798 
L 354.297099 299.300395 
L 356.455706 299.233992 
L 361.852224 299.167589 
L 366.169439 298.702767 
L 367.248743 298.702767 
L 369.40735 298.503557 
L 371.565957 298.437154 
L 376.962476 298.038735 
L 378.041779 297.773123 
L 380.200387 297.640316 
L 381.279691 297.374704 
L 384.517602 297.109091 
L 386.676209 296.644269 
L 388.834816 296.577866 
L 390.993424 296.577866 
L 392.072727 296.445059 
L 393.152031 296.445059 
L 395.310638 296.113043 
L 399.627853 295.382609 
L 400.707157 295.382609 
L 401.78646 295.249802 
L 405.024371 295.183399 
L 419.055319 294.320158 
L 420.134623 294.120949 
L 423.372534 293.921739 
L 425.531141 293.589723 
L 427.689749 293.390514 
L 429.848356 293.324111 
L 432.006963 293.324111 
L 433.086267 293.058498 
L 434.165571 292.925692 
L 438.482785 292.859289 
L 440.641393 292.660079 
L 441.720696 292.660079 
L 444.958607 292.195257 
L 446.037911 291.929644 
L 447.117215 291.796838 
L 449.275822 291.730435 
L 454.67234 291.464822 
L 457.910251 291.398419 
L 471.941199 290.601581 
L 474.099807 290.601581 
L 476.258414 290.402372 
L 478.417021 290.402372 
L 481.654932 290.070356 
L 485.972147 289.871146 
L 488.130754 289.804743 
L 489.210058 289.671937 
L 493.527273 289.605534 
L 501.082398 289.207115 
L 506.478917 289.140711 
L 508.637524 289.074308 
L 509.716828 289.074308 
L 510.796132 288.875099 
L 512.954739 288.808696 
L 519.430561 288.742292 
L 522.668472 288.609486 
L 526.985687 288.543083 
L 528.06499 288.343874 
L 534.540812 288.27747 
L 536.69942 288.211067 
L 538.858027 288.144664 
L 541.016634 288.078261 
L 543.175242 288.011858 
L 550.730368 287.613439 
L 557.20619 287.547036 
L 560.444101 287.281423 
L 562.602708 287.082213 
L 564.761315 287.01581 
L 566.919923 287.01581 
L 567.999226 286.883004 
L 571.237137 286.816601 
L 572.316441 286.550988 
L 576.633656 286.351779 
L 586.347389 286.285375 
L 591.743907 285.886957 
L 594.981818 285.554941 
L 600.378337 285.488538 
L 603.616248 285.156522 
L 610.09207 284.824506 
L 612.250677 284.758103 
L 616.567892 284.558893 
L 620.885106 284.49249 
L 624.123017 284.359684 
L 628.440232 284.293281 
L 631.678143 283.961265 
L 633.83675 283.894862 
L 638.153965 283.828458 
L 641.391876 283.562846 
L 642.47118 283.43004 
L 643.550484 283.43004 
L 644.629787 283.23083 
L 646.788395 283.164427 
L 651.105609 283.098024 
L 653.264217 282.766008 
L 662.97795 282.699605 
L 665.136557 282.500395 
L 666.215861 282.367589 
L 668.374468 282.301186 
L 670.533075 282.234783 
L 671.612379 281.96917 
L 673.770986 281.902767 
L 674.85029 281.703557 
L 677.008897 281.703557 
L 680.246809 281.371542 
L 700.753578 280.176285 
L 702.912186 280.109881 
L 705.070793 280.043478 
L 718.022437 279.977075 
L 721.260348 279.844269 
L 722.339652 279.844269 
L 723.418956 279.512253 
L 725.577563 279.44585 
L 730.974081 279.379447 
L 733.132689 279.313043 
L 736.3706 279.313043 
L 737.449903 279.180237 
L 741.767118 279.113834 
L 743.925725 279.047431 
L 745.005029 279.047431 
L 746.084333 278.914625 
L 747.163636 278.914625 
L 747.163636 278.914625 
" clip-path="url(#pc89db146e8)" style="fill: none; stroke: #ff7f0e; stroke-width: 1.5; stroke-linecap: square"/>
   </g>
   <g id="patch_3">
    <path d="M 108 320.4 
L 108 43.2 
" style="fill: none; stroke: #a9a9a9; stroke-width: 0.8; stroke-linejoin: miter; stroke-linecap: square"/>
   </g>
   <g id="patch_4">
    <path d="M 777.6 320.4 
L 777.6 43.2 
" style="fill: none"/>
   </g>
   <g id="patch_5">
    <path d="M 108 320.4 
L 777.6 320.4 
" style="fill: none; stroke: #a9a9a9; stroke-width: 0.8; stroke-linejoin: miter; stroke-linecap: square"/>
   </g>
   <g id="patch_6">
    <path d="M 108 43.2 
L 777.6 43.2 
" style="fill: none"/>
   </g>
   <g id="text_20">
    <!-- get_subscribe history -->
    <g style="fill: #a9a9a9" transform="translate(378.6075 37.2) scale(0.12 -0.12)">
     <defs>
      <path id="DejaVuSans-67" d="M 2906 1791 
Q 2906 2416 2648 2759 
Q 2391 3103 1925 3103 
Q 1463 3103 1205 2759 
Q 947 2416 947 1791 
Q 947 1169 1205 825 
Q 1463 481 1925 481 
Q 2391 481 2648 825 
Q 2906 1169 2906 1791 
z
M 3481 434 
Q 3481 -459 3084 -895 
Q 2688 -1331 1869 -1331 
Q 1566 -1331 1297 -1286 
Q 1028 -1241 775 -1147 
L 775 -588 
Q 1028 -725 1275 -790 
Q 1522 -856 1778 -856 
Q 2344 -856 2625 -561 
Q 2906 -266 2906 331 
L 2906 616 
Q 2728 306 2450 153 
Q 2172 0 1784 0 
Q 1141 0 747 490 
Q 353 981 353 1791 
Q 353 2603 747 3093 
Q 1141 3584 1784 3584 
Q 2172 3584 2450 3431 
Q 2728 3278 2906 2969 
L 2906 3500 
L 3481 3500 
L 3481 434 
z
" transform="scale(0.015625)"/>
      <path id="DejaVuSans-65" d="M 3597 1894 
L 3597 1613 
L 953 1613 
Q 991 1019 1311 708 
Q 1631 397 2203 397 
Q 2534 397 2845 478 
Q 3156 559 3463 722 
L 3463 178 
Q 3153 47 2828 -22 
Q 2503 -91 2169 -91 
Q 1331 -91 842 396 
Q 353 884 353 1716 
Q 353 2575 817 3079 
Q 1281 3584 2069 3584 
Q 2775 3584 3186 3129 
Q 3597 2675 3597 1894 
z
M 3022 2063 
Q 3016 2534 2758 2815 
Q 2500 3097 2075 3097 
Q 1594 3097 1305 2825 
Q 1016 2553 972 2059 
L 3022 2063 
z
" transform="scale(0.015625)"/>
      <path id="DejaVuSans-74" d="M 1172 4494 
L 1172 3500 
L 2356 3500 
L 2356 3053 
L 1172 3053 
L 1172 1153 
Q 1172 725 1289 603 
Q 1406 481 1766 481 
L 2356 481 
L 2356 0 
L 1766 0 
Q 1100 0 847 248 
Q 594 497 594 1153 
L 594 3053 
L 172 3053 
L 172 3500 
L 594 3500 
L 594 4494 
L 1172 4494 
z
" transform="scale(0.015625)"/>
      <path id="DejaVuSans-5f" d="M 3263 -1063 
L 3263 -1509 
L -63 -1509 
L -63 -1063 
L 3263 -1063 
z
" transform="scale(0.015625)"/>
      <path id="DejaVuSans-73" d="M 2834 3397 
L 2834 2853 
Q 2591 2978 2328 3040 
Q 2066 3103 1784 3103 
Q 1356 3103 1142 2972 
Q 928 2841 928 2578 
Q 928 2378 1081 2264 
Q 1234 2150 1697 2047 
L 1894 2003 
Q 2506 1872 2764 1633 
Q 3022 1394 3022 966 
Q 3022 478 2636 193 
Q 2250 -91 1575 -91 
Q 1294 -91 989 -36 
Q 684 19 347 128 
L 347 722 
Q 666 556 975 473 
Q 1284 391 1588 391 
Q 1994 391 2212 530 
Q 2431 669 2431 922 
Q 2431 1156 2273 1281 
Q 2116 1406 1581 1522 
L 1381 1569 
Q 847 1681 609 1914 
Q 372 2147 372 2553 
Q 372 3047 722 3315 
Q 1072 3584 1716 3584 
Q 2034 3584 2315 3537 
Q 2597 3491 2834 3397 
z
" transform="scale(0.015625)"/>
      <path id="DejaVuSans-75" d="M 544 1381 
L 544 3500 
L 1119 3500 
L 1119 1403 
Q 1119 906 1312 657 
Q 1506 409 1894 409 
Q 2359 409 2629 706 
Q 2900 1003 2900 1516 
L 2900 3500 
L 3475 3500 
L 3475 0 
L 2900 0 
L 2900 538 
Q 2691 219 2414 64 
Q 2138 -91 1772 -91 
Q 1169 -91 856 284 
Q 544 659 544 1381 
z
M 1991 3584 
L 1991 3584 
z
" transform="scale(0.015625)"/>
      <path id="DejaVuSans-62" d="M 3116 1747 
Q 3116 2381 2855 2742 
Q 2594 3103 2138 3103 
Q 1681 3103 1420 2742 
Q 1159 2381 1159 1747 
Q 1159 1113 1420 752 
Q 1681 391 2138 391 
Q 2594 391 2855 752 
Q 3116 1113 3116 1747 
z
M 1159 2969 
Q 1341 3281 1617 3432 
Q 1894 3584 2278 3584 
Q 2916 3584 3314 3078 
Q 3713 2572 3713 1747 
Q 3713 922 3314 415 
Q 2916 -91 2278 -91 
Q 1894 -91 1617 61 
Q 1341 213 1159 525 
L 1159 0 
L 581 0 
L 581 4863 
L 1159 4863 
L 1159 2969 
z
" transform="scale(0.015625)"/>
      <path id="DejaVuSans-63" d="M 3122 3366 
L 3122 2828 
Q 2878 2963 2633 3030 
Q 2388 3097 2138 3097 
Q 1578 3097 1268 2742 
Q 959 2388 959 1747 
Q 959 1106 1268 751 
Q 1578 397 2138 397 
Q 2388 397 2633 464 
Q 2878 531 3122 666 
L 3122 134 
Q 2881 22 2623 -34 
Q 2366 -91 2075 -91 
Q 1284 -91 818 406 
Q 353 903 353 1747 
Q 353 2603 823 3093 
Q 1294 3584 2113 3584 
Q 2378 3584 2631 3529 
Q 2884 3475 3122 3366 
z
" transform="scale(0.015625)"/>
      <path id="DejaVuSans-72" d="M 2631 2963 
Q 2534 3019 2420 3045 
Q 2306 3072 2169 3072 
Q 1681 3072 1420 2755 
Q 1159 2438 1159 1844 
L 1159 0 
L 581 0 
L 581 3500 
L 1159 3500 
L 1159 2956 
Q 1341 3275 1631 3429 
Q 1922 3584 2338 3584 
Q 2397 3584 2469 3576 
Q 2541 3569 2628 3553 
L 2631 2963 
z
" transform="scale(0.015625)"/>
      <path id="DejaVuSans-69" d="M 603 3500 
L 1178 3500 
L 1178 0 
L 603 0 
L 603 3500 
z
M 603 4863 
L 1178 4863 
L 1178 4134 
L 603 4134 
L 603 4863 
z
" transform="scale(0.015625)"/>
      <path id="DejaVuSans-20" transform="scale(0.015625)"/>
      <path id="DejaVuSans-68" d="M 3513 2113 
L 3513 0 
L 2938 0 
L 2938 2094 
Q 2938 2591 2744 2837 
Q 2550 3084 2163 3084 
Q 1697 3084 1428 2787 
Q 1159 2491 1159 1978 
L 1159 0 
L 581 0 
L 581 4863 
L 1159 4863 
L 1159 2956 
Q 1366 3272 1645 3428 
Q 1925 3584 2291 3584 
Q 2894 3584 3203 3211 
Q 3513 2838 3513 2113 
z
" transform="scale(0.015625)"/>
      <path id="DejaVuSans-6f" d="M 1959 3097 
Q 1497 3097 1228 2736 
Q 959 2375 959 1747 
Q 959 1119 1226 758 
Q 1494 397 1959 397 
Q 2419 397 2687 759 
Q 2956 1122 2956 1747 
Q 2956 2369 2687 2733 
Q 2419 3097 1959 3097 
z
M 1959 3584 
Q 2709 3584 3137 3096 
Q 3566 2609 3566 1747 
Q 3566 888 3137 398 
Q 2709 -91 1959 -91 
Q 1206 -91 779 398 
Q 353 888 353 1747 
Q 353 2609 779 3096 
Q 1206 3584 1959 3584 
z
" transform="scale(0.015625)"/>
      <path id="DejaVuSans-79" d="M 2059 -325 
Q 1816 -950 1584 -1140 
Q 1353 -1331 966 -1331 
L 506 -1331 
L 506 -850 
L 844 -850 
Q 1081 -850 1212 -737 
Q 1344 -625 1503 -206 
L 1606 56 
L 191 3500 
L 800 3500 
L 1894 763 
L 2988 3500 
L 3597 3500 
L 2059 -325 
z
" transform="scale(0.015625)"/>
     </defs>
     <use xlink:href="#DejaVuSans-67"/>
     <use xlink:href="#DejaVuSans-65" x="63.476562"/>
     <use xlink:href="#DejaVuSans-74" x="125"/>
     <use xlink:href="#DejaVuSans-5f" x="164.208984"/>
     <use xlink:href="#DejaVuSans-73" x="214.208984"/>
     <use xlink:href="#DejaVuSans-75" x="266.308594"/>
     <use xlink:href="#DejaVuSans-62" x="329.6875"/>
     <use xlink:href="#DejaVuSans-73" x="393.164062"/>
     <use xlink:href="#DejaVuSans-63" x="445.263672"/>
     <use xlink:href="#DejaVuSans-72" x="500.244141"/>
     <use xlink:href="#DejaVuSans-69" x="541.357422"/>
     <use xlink:href="#DejaVuSans-62" x="569.140625"/>
     <use xlink:href="#DejaVuSans-65" x="632.617188"/>
     <use xlink:href="#DejaVuSans-20" x="694.140625"/>
     <use xlink:href="#DejaVuSans-68" x="725.927734"/>
     <use xlink:href="#DejaVuSans-69" x="789.306641"/>
     <use xlink:href="#DejaVuSans-73" x="817.089844"/>
     <use xlink:href="#DejaVuSans-74" x="869.189453"/>
     <use xlink:href="#DejaVuSans-6f" x="908.398438"/>
     <use xlink:href="#DejaVuSans-72" x="969.580078"/>
     <use xlink:href="#DejaVuSans-79" x="1010.693359"/>
    </g>
   </g>
   <g id="legend_1">
    <g id="line2d_41">
     <path d="M 815.08 328.498438 
L 825.08 328.498438 
L 835.08 328.498438 
" style="fill: none; stroke: #1f77b4; stroke-width: 1.5; stroke-linecap: square"/>
    </g>
    <g id="text_21">
     <!-- star -->
     <g style="fill: #a9a9a9" transform="translate(843.08 331.998438) scale(0.1 -0.1)">
      <defs>
       <path id="DejaVuSans-61" d="M 2194 1759 
Q 1497 1759 1228 1600 
Q 959 1441 959 1056 
Q 959 750 1161 570 
Q 1363 391 1709 391 
Q 2188 391 2477 730 
Q 2766 1069 2766 1631 
L 2766 1759 
L 2194 1759 
z
M 3341 1997 
L 3341 0 
L 2766 0 
L 2766 531 
Q 2569 213 2275 61 
Q 1981 -91 1556 -91 
Q 1019 -91 701 211 
Q 384 513 384 1019 
Q 384 1609 779 1909 
Q 1175 2209 1959 2209 
L 2766 2209 
L 2766 2266 
Q 2766 2663 2505 2880 
Q 2244 3097 1772 3097 
Q 1472 3097 1187 3025 
Q 903 2953 641 2809 
L 641 3341 
Q 956 3463 1253 3523 
Q 1550 3584 1831 3584 
Q 2591 3584 2966 3190 
Q 3341 2797 3341 1997 
z
" transform="scale(0.015625)"/>
      </defs>
      <use xlink:href="#DejaVuSans-73"/>
      <use xlink:href="#DejaVuSans-74" x="52.099609"/>
      <use xlink:href="#DejaVuSans-61" x="91.308594"/>
      <use xlink:href="#DejaVuSans-72" x="152.587891"/>
     </g>
    </g>
    <g id="line2d_42">
     <path d="M 815.08 343.176562 
L 825.08 343.176562 
L 835.08 343.176562 
" style="fill: none; stroke: #ff7f0e; stroke-width: 1.5; stroke-linecap: square"/>
    </g>
    <g id="text_22">
     <!-- fork -->
     <g style="fill: #a9a9a9" transform="translate(843.08 346.676562) scale(0.1 -0.1)">
      <defs>
       <path id="DejaVuSans-66" d="M 2375 4863 
L 2375 4384 
L 1825 4384 
Q 1516 4384 1395 4259 
Q 1275 4134 1275 3809 
L 1275 3500 
L 2222 3500 
L 2222 3053 
L 1275 3053 
L 1275 0 
L 697 0 
L 697 3053 
L 147 3053 
L 147 3500 
L 697 3500 
L 697 3744 
Q 697 4328 969 4595 
Q 1241 4863 1831 4863 
L 2375 4863 
z
" transform="scale(0.015625)"/>
       <path id="DejaVuSans-6b" d="M 581 4863 
L 1159 4863 
L 1159 1991 
L 2875 3500 
L 3609 3500 
L 1753 1863 
L 3688 0 
L 2938 0 
L 1159 1709 
L 1159 0 
L 581 0 
L 581 4863 
z
" transform="scale(0.015625)"/>
      </defs>
      <use xlink:href="#DejaVuSans-66"/>
      <use xlink:href="#DejaVuSans-6f" x="35.205078"/>
      <use xlink:href="#DejaVuSans-72" x="96.386719"/>
      <use xlink:href="#DejaVuSans-6b" x="137.5"/>
     </g>
    </g>
   </g>
  </g>
 </g>
 <defs>
  <clipPath id="pc89db146e8">
   <rect x="108" y="43.2" width="669.6" height="277.2"/>
  </clipPath>
 </defs>
</svg>
