<?xml version="1.0" encoding="utf-8" standalone="no"?>
<!DOCTYPE svg PUBLIC "-//W3C//DTD SVG 1.1//EN"
  "http://www.w3.org/Graphics/SVG/1.1/DTD/svg11.dtd">
<svg xmlns:xlink="http://www.w3.org/1999/xlink" width="864pt" height="360pt" viewBox="0 0 864 360" xmlns="http://www.w3.org/2000/svg" version="1.1">
 <metadata>
  <rdf:RDF xmlns:dc="http://purl.org/dc/elements/1.1/" xmlns:cc="http://creativecommons.org/ns#" xmlns:rdf="http://www.w3.org/1999/02/22-rdf-syntax-ns#">
   <cc:Work>
    <dc:type rdf:resource="http://purl.org/dc/dcmitype/StillImage"/>
    <dc:date>2023-02-08T20:22:08.593463</dc:date>
    <dc:format>image/svg+xml</dc:format>
    <dc:creator>
     <cc:Agent>
      <dc:title>Matplotlib v3.6.3, https://matplotlib.org/</dc:title>
     </cc:Agent>
    </dc:creator>
   </cc:Work>
  </rdf:RDF>
 </metadata>
 <defs>
  <style type="text/css">*{stroke-linejoin: round; stroke-linecap: butt}</style>
 </defs>
 <g id="figure_1">
  <g id="patch_1">
   <path d="M 0 360 
L 864 360 
L 864 0 
L 0 0 
L 0 360 
z
" style="fill: none; opacity: 0"/>
  </g>
  <g id="axes_1">
   <g id="patch_2">
    <path d="M 108 320.4 
L 777.6 320.4 
L 777.6 43.2 
L 108 43.2 
L 108 320.4 
z
" style="fill: none; opacity: 0"/>
   </g>
   <g id="matplotlib.axis_1">
    <g id="xtick_1">
     <g id="line2d_1">
      <path d="M 113.612379 320.4 
L 113.612379 43.2 
" clip-path="url(#p8b1103e91a)" style="fill: none; stroke-dasharray: 5.12,1.28,0.8,1.28; stroke-dashoffset: 0; stroke: #b0b0b0; stroke-width: 0.8"/>
     </g>
     <g id="line2d_2">
      <defs>
       <path id="mc75d16bb35" d="M 0 0 
L 0 3.5 
" style="stroke: #a9a9a9; stroke-width: 0.8"/>
      </defs>
      <g>
       <use xlink:href="#mc75d16bb35" x="113.612379" y="320.4" style="fill: #a9a9a9; stroke: #a9a9a9; stroke-width: 0.8"/>
      </g>
     </g>
     <g id="text_1">
      <!-- 2021-07 -->
      <g style="fill: #a9a9a9" transform="translate(92.720973 334.998438) scale(0.1 -0.1)">
       <defs>
        <path id="DejaVuSans-32" d="M 1228 531 
L 3431 531 
L 3431 0 
L 469 0 
L 469 531 
Q 828 903 1448 1529 
Q 2069 2156 2228 2338 
Q 2531 2678 2651 2914 
Q 2772 3150 2772 3378 
Q 2772 3750 2511 3984 
Q 2250 4219 1831 4219 
Q 1534 4219 1204 4116 
Q 875 4013 500 3803 
L 500 4441 
Q 881 4594 1212 4672 
Q 1544 4750 1819 4750 
Q 2544 4750 2975 4387 
Q 3406 4025 3406 3419 
Q 3406 3131 3298 2873 
Q 3191 2616 2906 2266 
Q 2828 2175 2409 1742 
Q 1991 1309 1228 531 
z
" transform="scale(0.015625)"/>
        <path id="DejaVuSans-30" d="M 2034 4250 
Q 1547 4250 1301 3770 
Q 1056 3291 1056 2328 
Q 1056 1369 1301 889 
Q 1547 409 2034 409 
Q 2525 409 2770 889 
Q 3016 1369 3016 2328 
Q 3016 3291 2770 3770 
Q 2525 4250 2034 4250 
z
M 2034 4750 
Q 2819 4750 3233 4129 
Q 3647 3509 3647 2328 
Q 3647 1150 3233 529 
Q 2819 -91 2034 -91 
Q 1250 -91 836 529 
Q 422 1150 422 2328 
Q 422 3509 836 4129 
Q 1250 4750 2034 4750 
z
" transform="scale(0.015625)"/>
        <path id="DejaVuSans-31" d="M 794 531 
L 1825 531 
L 1825 4091 
L 703 3866 
L 703 4441 
L 1819 4666 
L 2450 4666 
L 2450 531 
L 3481 531 
L 3481 0 
L 794 0 
L 794 531 
z
" transform="scale(0.015625)"/>
        <path id="DejaVuSans-2d" d="M 313 2009 
L 1997 2009 
L 1997 1497 
L 313 1497 
L 313 2009 
z
" transform="scale(0.015625)"/>
        <path id="DejaVuSans-37" d="M 525 4666 
L 3525 4666 
L 3525 4397 
L 1831 0 
L 1172 0 
L 2766 4134 
L 525 4134 
L 525 4666 
z
" transform="scale(0.015625)"/>
       </defs>
       <use xlink:href="#DejaVuSans-32"/>
       <use xlink:href="#DejaVuSans-30" x="63.623047"/>
       <use xlink:href="#DejaVuSans-32" x="127.246094"/>
       <use xlink:href="#DejaVuSans-31" x="190.869141"/>
       <use xlink:href="#DejaVuSans-2d" x="254.492188"/>
       <use xlink:href="#DejaVuSans-30" x="290.576172"/>
       <use xlink:href="#DejaVuSans-37" x="354.199219"/>
      </g>
     </g>
    </g>
    <g id="xtick_2">
     <g id="line2d_3">
      <path d="M 180.529207 320.4 
L 180.529207 43.2 
" clip-path="url(#p8b1103e91a)" style="fill: none; stroke-dasharray: 5.12,1.28,0.8,1.28; stroke-dashoffset: 0; stroke: #b0b0b0; stroke-width: 0.8"/>
     </g>
     <g id="line2d_4">
      <g>
       <use xlink:href="#mc75d16bb35" x="180.529207" y="320.4" style="fill: #a9a9a9; stroke: #a9a9a9; stroke-width: 0.8"/>
      </g>
     </g>
     <g id="text_2">
      <!-- 2021-09 -->
      <g style="fill: #a9a9a9" transform="translate(159.637801 334.998438) scale(0.1 -0.1)">
       <defs>
        <path id="DejaVuSans-39" d="M 703 97 
L 703 672 
Q 941 559 1184 500 
Q 1428 441 1663 441 
Q 2288 441 2617 861 
Q 2947 1281 2994 2138 
Q 2813 1869 2534 1725 
Q 2256 1581 1919 1581 
Q 1219 1581 811 2004 
Q 403 2428 403 3163 
Q 403 3881 828 4315 
Q 1253 4750 1959 4750 
Q 2769 4750 3195 4129 
Q 3622 3509 3622 2328 
Q 3622 1225 3098 567 
Q 2575 -91 1691 -91 
Q 1453 -91 1209 -44 
Q 966 3 703 97 
z
M 1959 2075 
Q 2384 2075 2632 2365 
Q 2881 2656 2881 3163 
Q 2881 3666 2632 3958 
Q 2384 4250 1959 4250 
Q 1534 4250 1286 3958 
Q 1038 3666 1038 3163 
Q 1038 2656 1286 2365 
Q 1534 2075 1959 2075 
z
" transform="scale(0.015625)"/>
       </defs>
       <use xlink:href="#DejaVuSans-32"/>
       <use xlink:href="#DejaVuSans-30" x="63.623047"/>
       <use xlink:href="#DejaVuSans-32" x="127.246094"/>
       <use xlink:href="#DejaVuSans-31" x="190.869141"/>
       <use xlink:href="#DejaVuSans-2d" x="254.492188"/>
       <use xlink:href="#DejaVuSans-30" x="290.576172"/>
       <use xlink:href="#DejaVuSans-39" x="354.199219"/>
      </g>
     </g>
    </g>
    <g id="xtick_3">
     <g id="line2d_5">
      <path d="M 246.366731 320.4 
L 246.366731 43.2 
" clip-path="url(#p8b1103e91a)" style="fill: none; stroke-dasharray: 5.12,1.28,0.8,1.28; stroke-dashoffset: 0; stroke: #b0b0b0; stroke-width: 0.8"/>
     </g>
     <g id="line2d_6">
      <g>
       <use xlink:href="#mc75d16bb35" x="246.366731" y="320.4" style="fill: #a9a9a9; stroke: #a9a9a9; stroke-width: 0.8"/>
      </g>
     </g>
     <g id="text_3">
      <!-- 2021-11 -->
      <g style="fill: #a9a9a9" transform="translate(225.475325 334.998438) scale(0.1 -0.1)">
       <use xlink:href="#DejaVuSans-32"/>
       <use xlink:href="#DejaVuSans-30" x="63.623047"/>
       <use xlink:href="#DejaVuSans-32" x="127.246094"/>
       <use xlink:href="#DejaVuSans-31" x="190.869141"/>
       <use xlink:href="#DejaVuSans-2d" x="254.492188"/>
       <use xlink:href="#DejaVuSans-31" x="290.576172"/>
       <use xlink:href="#DejaVuSans-31" x="354.199219"/>
      </g>
     </g>
    </g>
    <g id="xtick_4">
     <g id="line2d_7">
      <path d="M 312.204255 320.4 
L 312.204255 43.2 
" clip-path="url(#p8b1103e91a)" style="fill: none; stroke-dasharray: 5.12,1.28,0.8,1.28; stroke-dashoffset: 0; stroke: #b0b0b0; stroke-width: 0.8"/>
     </g>
     <g id="line2d_8">
      <g>
       <use xlink:href="#mc75d16bb35" x="312.204255" y="320.4" style="fill: #a9a9a9; stroke: #a9a9a9; stroke-width: 0.8"/>
      </g>
     </g>
     <g id="text_4">
      <!-- 2022-01 -->
      <g style="fill: #a9a9a9" transform="translate(291.312849 334.998438) scale(0.1 -0.1)">
       <use xlink:href="#DejaVuSans-32"/>
       <use xlink:href="#DejaVuSans-30" x="63.623047"/>
       <use xlink:href="#DejaVuSans-32" x="127.246094"/>
       <use xlink:href="#DejaVuSans-32" x="190.869141"/>
       <use xlink:href="#DejaVuSans-2d" x="254.492188"/>
       <use xlink:href="#DejaVuSans-30" x="290.576172"/>
       <use xlink:href="#DejaVuSans-31" x="354.199219"/>
      </g>
     </g>
    </g>
    <g id="xtick_5">
     <g id="line2d_9">
      <path d="M 375.883172 320.4 
L 375.883172 43.2 
" clip-path="url(#p8b1103e91a)" style="fill: none; stroke-dasharray: 5.12,1.28,0.8,1.28; stroke-dashoffset: 0; stroke: #b0b0b0; stroke-width: 0.8"/>
     </g>
     <g id="line2d_10">
      <g>
       <use xlink:href="#mc75d16bb35" x="375.883172" y="320.4" style="fill: #a9a9a9; stroke: #a9a9a9; stroke-width: 0.8"/>
      </g>
     </g>
     <g id="text_5">
      <!-- 2022-03 -->
      <g style="fill: #a9a9a9" transform="translate(354.991766 334.998438) scale(0.1 -0.1)">
       <defs>
        <path id="DejaVuSans-33" d="M 2597 2516 
Q 3050 2419 3304 2112 
Q 3559 1806 3559 1356 
Q 3559 666 3084 287 
Q 2609 -91 1734 -91 
Q 1441 -91 1130 -33 
Q 819 25 488 141 
L 488 750 
Q 750 597 1062 519 
Q 1375 441 1716 441 
Q 2309 441 2620 675 
Q 2931 909 2931 1356 
Q 2931 1769 2642 2001 
Q 2353 2234 1838 2234 
L 1294 2234 
L 1294 2753 
L 1863 2753 
Q 2328 2753 2575 2939 
Q 2822 3125 2822 3475 
Q 2822 3834 2567 4026 
Q 2313 4219 1838 4219 
Q 1578 4219 1281 4162 
Q 984 4106 628 3988 
L 628 4550 
Q 988 4650 1302 4700 
Q 1616 4750 1894 4750 
Q 2613 4750 3031 4423 
Q 3450 4097 3450 3541 
Q 3450 3153 3228 2886 
Q 3006 2619 2597 2516 
z
" transform="scale(0.015625)"/>
       </defs>
       <use xlink:href="#DejaVuSans-32"/>
       <use xlink:href="#DejaVuSans-30" x="63.623047"/>
       <use xlink:href="#DejaVuSans-32" x="127.246094"/>
       <use xlink:href="#DejaVuSans-32" x="190.869141"/>
       <use xlink:href="#DejaVuSans-2d" x="254.492188"/>
       <use xlink:href="#DejaVuSans-30" x="290.576172"/>
       <use xlink:href="#DejaVuSans-33" x="354.199219"/>
      </g>
     </g>
    </g>
    <g id="xtick_6">
     <g id="line2d_11">
      <path d="M 441.720696 320.4 
L 441.720696 43.2 
" clip-path="url(#p8b1103e91a)" style="fill: none; stroke-dasharray: 5.12,1.28,0.8,1.28; stroke-dashoffset: 0; stroke: #b0b0b0; stroke-width: 0.8"/>
     </g>
     <g id="line2d_12">
      <g>
       <use xlink:href="#mc75d16bb35" x="441.720696" y="320.4" style="fill: #a9a9a9; stroke: #a9a9a9; stroke-width: 0.8"/>
      </g>
     </g>
     <g id="text_6">
      <!-- 2022-05 -->
      <g style="fill: #a9a9a9" transform="translate(420.82929 334.998438) scale(0.1 -0.1)">
       <defs>
        <path id="DejaVuSans-35" d="M 691 4666 
L 3169 4666 
L 3169 4134 
L 1269 4134 
L 1269 2991 
Q 1406 3038 1543 3061 
Q 1681 3084 1819 3084 
Q 2600 3084 3056 2656 
Q 3513 2228 3513 1497 
Q 3513 744 3044 326 
Q 2575 -91 1722 -91 
Q 1428 -91 1123 -41 
Q 819 9 494 109 
L 494 744 
Q 775 591 1075 516 
Q 1375 441 1709 441 
Q 2250 441 2565 725 
Q 2881 1009 2881 1497 
Q 2881 1984 2565 2268 
Q 2250 2553 1709 2553 
Q 1456 2553 1204 2497 
Q 953 2441 691 2322 
L 691 4666 
z
" transform="scale(0.015625)"/>
       </defs>
       <use xlink:href="#DejaVuSans-32"/>
       <use xlink:href="#DejaVuSans-30" x="63.623047"/>
       <use xlink:href="#DejaVuSans-32" x="127.246094"/>
       <use xlink:href="#DejaVuSans-32" x="190.869141"/>
       <use xlink:href="#DejaVuSans-2d" x="254.492188"/>
       <use xlink:href="#DejaVuSans-30" x="290.576172"/>
       <use xlink:href="#DejaVuSans-35" x="354.199219"/>
      </g>
     </g>
    </g>
    <g id="xtick_7">
     <g id="line2d_13">
      <path d="M 507.558221 320.4 
L 507.558221 43.2 
" clip-path="url(#p8b1103e91a)" style="fill: none; stroke-dasharray: 5.12,1.28,0.8,1.28; stroke-dashoffset: 0; stroke: #b0b0b0; stroke-width: 0.8"/>
     </g>
     <g id="line2d_14">
      <g>
       <use xlink:href="#mc75d16bb35" x="507.558221" y="320.4" style="fill: #a9a9a9; stroke: #a9a9a9; stroke-width: 0.8"/>
      </g>
     </g>
     <g id="text_7">
      <!-- 2022-07 -->
      <g style="fill: #a9a9a9" transform="translate(486.666814 334.998438) scale(0.1 -0.1)">
       <use xlink:href="#DejaVuSans-32"/>
       <use xlink:href="#DejaVuSans-30" x="63.623047"/>
       <use xlink:href="#DejaVuSans-32" x="127.246094"/>
       <use xlink:href="#DejaVuSans-32" x="190.869141"/>
       <use xlink:href="#DejaVuSans-2d" x="254.492188"/>
       <use xlink:href="#DejaVuSans-30" x="290.576172"/>
       <use xlink:href="#DejaVuSans-37" x="354.199219"/>
      </g>
     </g>
    </g>
    <g id="xtick_8">
     <g id="line2d_15">
      <path d="M 574.475048 320.4 
L 574.475048 43.2 
" clip-path="url(#p8b1103e91a)" style="fill: none; stroke-dasharray: 5.12,1.28,0.8,1.28; stroke-dashoffset: 0; stroke: #b0b0b0; stroke-width: 0.8"/>
     </g>
     <g id="line2d_16">
      <g>
       <use xlink:href="#mc75d16bb35" x="574.475048" y="320.4" style="fill: #a9a9a9; stroke: #a9a9a9; stroke-width: 0.8"/>
      </g>
     </g>
     <g id="text_8">
      <!-- 2022-09 -->
      <g style="fill: #a9a9a9" transform="translate(553.583642 334.998438) scale(0.1 -0.1)">
       <use xlink:href="#DejaVuSans-32"/>
       <use xlink:href="#DejaVuSans-30" x="63.623047"/>
       <use xlink:href="#DejaVuSans-32" x="127.246094"/>
       <use xlink:href="#DejaVuSans-32" x="190.869141"/>
       <use xlink:href="#DejaVuSans-2d" x="254.492188"/>
       <use xlink:href="#DejaVuSans-30" x="290.576172"/>
       <use xlink:href="#DejaVuSans-39" x="354.199219"/>
      </g>
     </g>
    </g>
    <g id="xtick_9">
     <g id="line2d_17">
      <path d="M 640.312573 320.4 
L 640.312573 43.2 
" clip-path="url(#p8b1103e91a)" style="fill: none; stroke-dasharray: 5.12,1.28,0.8,1.28; stroke-dashoffset: 0; stroke: #b0b0b0; stroke-width: 0.8"/>
     </g>
     <g id="line2d_18">
      <g>
       <use xlink:href="#mc75d16bb35" x="640.312573" y="320.4" style="fill: #a9a9a9; stroke: #a9a9a9; stroke-width: 0.8"/>
      </g>
     </g>
     <g id="text_9">
      <!-- 2022-11 -->
      <g style="fill: #a9a9a9" transform="translate(619.421166 334.998438) scale(0.1 -0.1)">
       <use xlink:href="#DejaVuSans-32"/>
       <use xlink:href="#DejaVuSans-30" x="63.623047"/>
       <use xlink:href="#DejaVuSans-32" x="127.246094"/>
       <use xlink:href="#DejaVuSans-32" x="190.869141"/>
       <use xlink:href="#DejaVuSans-2d" x="254.492188"/>
       <use xlink:href="#DejaVuSans-31" x="290.576172"/>
       <use xlink:href="#DejaVuSans-31" x="354.199219"/>
      </g>
     </g>
    </g>
    <g id="xtick_10">
     <g id="line2d_19">
      <path d="M 706.150097 320.4 
L 706.150097 43.2 
" clip-path="url(#p8b1103e91a)" style="fill: none; stroke-dasharray: 5.12,1.28,0.8,1.28; stroke-dashoffset: 0; stroke: #b0b0b0; stroke-width: 0.8"/>
     </g>
     <g id="line2d_20">
      <g>
       <use xlink:href="#mc75d16bb35" x="706.150097" y="320.4" style="fill: #a9a9a9; stroke: #a9a9a9; stroke-width: 0.8"/>
      </g>
     </g>
     <g id="text_10">
      <!-- 2023-01 -->
      <g style="fill: #a9a9a9" transform="translate(685.25869 334.998438) scale(0.1 -0.1)">
       <use xlink:href="#DejaVuSans-32"/>
       <use xlink:href="#DejaVuSans-30" x="63.623047"/>
       <use xlink:href="#DejaVuSans-32" x="127.246094"/>
       <use xlink:href="#DejaVuSans-33" x="190.869141"/>
       <use xlink:href="#DejaVuSans-2d" x="254.492188"/>
       <use xlink:href="#DejaVuSans-30" x="290.576172"/>
       <use xlink:href="#DejaVuSans-31" x="354.199219"/>
      </g>
     </g>
    </g>
    <g id="xtick_11">
     <g id="line2d_21">
      <path d="M 769.829014 320.4 
L 769.829014 43.2 
" clip-path="url(#p8b1103e91a)" style="fill: none; stroke-dasharray: 5.12,1.28,0.8,1.28; stroke-dashoffset: 0; stroke: #b0b0b0; stroke-width: 0.8"/>
     </g>
     <g id="line2d_22">
      <g>
       <use xlink:href="#mc75d16bb35" x="769.829014" y="320.4" style="fill: #a9a9a9; stroke: #a9a9a9; stroke-width: 0.8"/>
      </g>
     </g>
     <g id="text_11">
      <!-- 2023-03 -->
      <g style="fill: #a9a9a9" transform="translate(748.937607 334.998438) scale(0.1 -0.1)">
       <use xlink:href="#DejaVuSans-32"/>
       <use xlink:href="#DejaVuSans-30" x="63.623047"/>
       <use xlink:href="#DejaVuSans-32" x="127.246094"/>
       <use xlink:href="#DejaVuSans-33" x="190.869141"/>
       <use xlink:href="#DejaVuSans-2d" x="254.492188"/>
       <use xlink:href="#DejaVuSans-30" x="290.576172"/>
       <use xlink:href="#DejaVuSans-33" x="354.199219"/>
      </g>
     </g>
    </g>
   </g>
   <g id="matplotlib.axis_2">
    <g id="ytick_1">
     <g id="line2d_23">
      <path d="M 108 307.866333 
L 777.6 307.866333 
" clip-path="url(#p8b1103e91a)" style="fill: none; stroke-dasharray: 5.12,1.28,0.8,1.28; stroke-dashoffset: 0; stroke: #b0b0b0; stroke-width: 0.8"/>
     </g>
     <g id="line2d_24">
      <defs>
       <path id="m6755c378d8" d="M 0 0 
L -3.5 0 
" style="stroke: #a9a9a9; stroke-width: 0.8"/>
      </defs>
      <g>
       <use xlink:href="#m6755c378d8" x="108" y="307.866333" style="fill: #a9a9a9; stroke: #a9a9a9; stroke-width: 0.8"/>
      </g>
     </g>
     <g id="text_12">
      <!-- 0 -->
      <g style="fill: #a9a9a9" transform="translate(94.6375 311.665552) scale(0.1 -0.1)">
       <use xlink:href="#DejaVuSans-30"/>
      </g>
     </g>
    </g>
    <g id="ytick_2">
     <g id="line2d_25">
      <path d="M 108 274.69971 
L 777.6 274.69971 
" clip-path="url(#p8b1103e91a)" style="fill: none; stroke-dasharray: 5.12,1.28,0.8,1.28; stroke-dashoffset: 0; stroke: #b0b0b0; stroke-width: 0.8"/>
     </g>
     <g id="line2d_26">
      <g>
       <use xlink:href="#m6755c378d8" x="108" y="274.69971" style="fill: #a9a9a9; stroke: #a9a9a9; stroke-width: 0.8"/>
      </g>
     </g>
     <g id="text_13">
      <!-- 500 -->
      <g style="fill: #a9a9a9" transform="translate(81.9125 278.498929) scale(0.1 -0.1)">
       <use xlink:href="#DejaVuSans-35"/>
       <use xlink:href="#DejaVuSans-30" x="63.623047"/>
       <use xlink:href="#DejaVuSans-30" x="127.246094"/>
      </g>
     </g>
    </g>
    <g id="ytick_3">
     <g id="line2d_27">
      <path d="M 108 241.533088 
L 777.6 241.533088 
" clip-path="url(#p8b1103e91a)" style="fill: none; stroke-dasharray: 5.12,1.28,0.8,1.28; stroke-dashoffset: 0; stroke: #b0b0b0; stroke-width: 0.8"/>
     </g>
     <g id="line2d_28">
      <g>
       <use xlink:href="#m6755c378d8" x="108" y="241.533088" style="fill: #a9a9a9; stroke: #a9a9a9; stroke-width: 0.8"/>
      </g>
     </g>
     <g id="text_14">
      <!-- 1000 -->
      <g style="fill: #a9a9a9" transform="translate(75.55 245.332306) scale(0.1 -0.1)">
       <use xlink:href="#DejaVuSans-31"/>
       <use xlink:href="#DejaVuSans-30" x="63.623047"/>
       <use xlink:href="#DejaVuSans-30" x="127.246094"/>
       <use xlink:href="#DejaVuSans-30" x="190.869141"/>
      </g>
     </g>
    </g>
    <g id="ytick_4">
     <g id="line2d_29">
      <path d="M 108 208.366465 
L 777.6 208.366465 
" clip-path="url(#p8b1103e91a)" style="fill: none; stroke-dasharray: 5.12,1.28,0.8,1.28; stroke-dashoffset: 0; stroke: #b0b0b0; stroke-width: 0.8"/>
     </g>
     <g id="line2d_30">
      <g>
       <use xlink:href="#m6755c378d8" x="108" y="208.366465" style="fill: #a9a9a9; stroke: #a9a9a9; stroke-width: 0.8"/>
      </g>
     </g>
     <g id="text_15">
      <!-- 1500 -->
      <g style="fill: #a9a9a9" transform="translate(75.55 212.165684) scale(0.1 -0.1)">
       <use xlink:href="#DejaVuSans-31"/>
       <use xlink:href="#DejaVuSans-35" x="63.623047"/>
       <use xlink:href="#DejaVuSans-30" x="127.246094"/>
       <use xlink:href="#DejaVuSans-30" x="190.869141"/>
      </g>
     </g>
    </g>
    <g id="ytick_5">
     <g id="line2d_31">
      <path d="M 108 175.199842 
L 777.6 175.199842 
" clip-path="url(#p8b1103e91a)" style="fill: none; stroke-dasharray: 5.12,1.28,0.8,1.28; stroke-dashoffset: 0; stroke: #b0b0b0; stroke-width: 0.8"/>
     </g>
     <g id="line2d_32">
      <g>
       <use xlink:href="#m6755c378d8" x="108" y="175.199842" style="fill: #a9a9a9; stroke: #a9a9a9; stroke-width: 0.8"/>
      </g>
     </g>
     <g id="text_16">
      <!-- 2000 -->
      <g style="fill: #a9a9a9" transform="translate(75.55 178.999061) scale(0.1 -0.1)">
       <use xlink:href="#DejaVuSans-32"/>
       <use xlink:href="#DejaVuSans-30" x="63.623047"/>
       <use xlink:href="#DejaVuSans-30" x="127.246094"/>
       <use xlink:href="#DejaVuSans-30" x="190.869141"/>
      </g>
     </g>
    </g>
    <g id="ytick_6">
     <g id="line2d_33">
      <path d="M 108 142.033219 
L 777.6 142.033219 
" clip-path="url(#p8b1103e91a)" style="fill: none; stroke-dasharray: 5.12,1.28,0.8,1.28; stroke-dashoffset: 0; stroke: #b0b0b0; stroke-width: 0.8"/>
     </g>
     <g id="line2d_34">
      <g>
       <use xlink:href="#m6755c378d8" x="108" y="142.033219" style="fill: #a9a9a9; stroke: #a9a9a9; stroke-width: 0.8"/>
      </g>
     </g>
     <g id="text_17">
      <!-- 2500 -->
      <g style="fill: #a9a9a9" transform="translate(75.55 145.832438) scale(0.1 -0.1)">
       <use xlink:href="#DejaVuSans-32"/>
       <use xlink:href="#DejaVuSans-35" x="63.623047"/>
       <use xlink:href="#DejaVuSans-30" x="127.246094"/>
       <use xlink:href="#DejaVuSans-30" x="190.869141"/>
      </g>
     </g>
    </g>
    <g id="ytick_7">
     <g id="line2d_35">
      <path d="M 108 108.866596 
L 777.6 108.866596 
" clip-path="url(#p8b1103e91a)" style="fill: none; stroke-dasharray: 5.12,1.28,0.8,1.28; stroke-dashoffset: 0; stroke: #b0b0b0; stroke-width: 0.8"/>
     </g>
     <g id="line2d_36">
      <g>
       <use xlink:href="#m6755c378d8" x="108" y="108.866596" style="fill: #a9a9a9; stroke: #a9a9a9; stroke-width: 0.8"/>
      </g>
     </g>
     <g id="text_18">
      <!-- 3000 -->
      <g style="fill: #a9a9a9" transform="translate(75.55 112.665815) scale(0.1 -0.1)">
       <use xlink:href="#DejaVuSans-33"/>
       <use xlink:href="#DejaVuSans-30" x="63.623047"/>
       <use xlink:href="#DejaVuSans-30" x="127.246094"/>
       <use xlink:href="#DejaVuSans-30" x="190.869141"/>
      </g>
     </g>
    </g>
    <g id="ytick_8">
     <g id="line2d_37">
      <path d="M 108 75.699974 
L 777.6 75.699974 
" clip-path="url(#p8b1103e91a)" style="fill: none; stroke-dasharray: 5.12,1.28,0.8,1.28; stroke-dashoffset: 0; stroke: #b0b0b0; stroke-width: 0.8"/>
     </g>
     <g id="line2d_38">
      <g>
       <use xlink:href="#m6755c378d8" x="108" y="75.699974" style="fill: #a9a9a9; stroke: #a9a9a9; stroke-width: 0.8"/>
      </g>
     </g>
     <g id="text_19">
      <!-- 3500 -->
      <g style="fill: #a9a9a9" transform="translate(75.55 79.499192) scale(0.1 -0.1)">
       <use xlink:href="#DejaVuSans-33"/>
       <use xlink:href="#DejaVuSans-35" x="63.623047"/>
       <use xlink:href="#DejaVuSans-30" x="127.246094"/>
       <use xlink:href="#DejaVuSans-30" x="190.869141"/>
      </g>
     </g>
    </g>
   </g>
   <g id="line2d_39">
    <path d="M 138.436364 307.601 
L 142.753578 307.269334 
L 143.832882 307.136668 
L 144.912186 307.136668 
L 145.991489 306.738668 
L 148.150097 306.606002 
L 155.705222 305.213003 
L 157.86383 305.080337 
L 158.943133 304.881337 
L 162.181044 304.682337 
L 163.260348 304.151671 
L 164.339652 303.886339 
L 165.418956 302.69234 
L 166.498259 302.029008 
L 167.577563 299.773677 
L 168.656867 299.641011 
L 169.73617 298.911345 
L 170.815474 298.513346 
L 171.894778 297.98268 
L 175.132689 295.52835 
L 176.211992 294.997684 
L 178.3706 294.201685 
L 179.449903 293.472019 
L 180.529207 293.074019 
L 181.608511 292.543354 
L 182.687814 291.880021 
L 183.767118 291.548355 
L 184.846422 289.956357 
L 185.925725 289.160358 
L 187.005029 288.563359 
L 188.084333 288.099026 
L 192.401547 287.502027 
L 195.639458 286.971361 
L 197.798066 286.838694 
L 198.877369 286.639695 
L 199.956673 286.109029 
L 204.273888 285.777362 
L 207.511799 285.445696 
L 208.591103 285.11403 
L 213.987621 284.119031 
L 216.146228 283.920032 
L 217.225532 283.654699 
L 220.463443 283.256699 
L 221.542747 282.726033 
L 222.62205 282.593367 
L 224.780658 281.863701 
L 226.939265 281.664701 
L 228.018569 281.333035 
L 232.335783 280.736036 
L 233.415087 280.40437 
L 235.573694 280.072703 
L 236.652998 280.072703 
L 242.049516 279.409371 
L 244.208124 278.812372 
L 245.287427 278.547039 
L 247.446035 278.348039 
L 248.525338 278.281706 
L 251.76325 277.684707 
L 252.842553 277.286707 
L 253.921857 275.960042 
L 255.001161 275.562043 
L 256.080464 275.031377 
L 257.159768 274.89871 
L 258.239072 274.633377 
L 259.318375 274.500711 
L 261.476983 273.638379 
L 262.556286 273.572045 
L 267.952805 272.24538 
L 269.032108 272.24538 
L 271.190716 271.980047 
L 273.349323 271.383048 
L 276.587234 270.587049 
L 277.666538 270.520716 
L 279.825145 269.658384 
L 280.904449 269.525717 
L 281.983752 269.061385 
L 284.14236 268.862385 
L 285.221663 268.796052 
L 288.459574 268.265386 
L 290.618182 267.933719 
L 296.0147 266.938721 
L 298.173308 266.209055 
L 299.252611 265.612056 
L 300.331915 265.346723 
L 301.411219 265.214056 
L 303.569826 264.550724 
L 305.728433 263.423059 
L 306.807737 262.759726 
L 307.887041 262.62706 
L 308.966344 262.295394 
L 310.045648 262.162727 
L 311.124952 261.897394 
L 312.204255 261.764728 
L 313.283559 261.300395 
L 315.442166 260.968729 
L 316.52147 260.438063 
L 317.600774 260.040063 
L 318.680077 259.77473 
L 319.759381 259.642064 
L 320.838685 259.244064 
L 325.155899 258.448065 
L 327.314507 257.585733 
L 328.39381 257.386733 
L 329.473114 256.988734 
L 330.552418 256.856067 
L 331.631721 256.391735 
L 332.711025 256.126402 
L 334.869632 255.993735 
L 337.02824 255.330403 
L 338.107544 255.197736 
L 339.186847 255.197736 
L 340.266151 254.733404 
L 342.424758 254.401737 
L 343.504062 254.003738 
L 345.662669 253.937405 
L 346.741973 253.804738 
L 347.821277 253.804738 
L 349.979884 253.473072 
L 352.138491 252.478073 
L 354.297099 251.549408 
L 355.376402 251.284075 
L 356.455706 250.620742 
L 357.53501 250.289076 
L 359.693617 249.360411 
L 360.772921 249.161411 
L 362.931528 248.431745 
L 364.010832 247.768413 
L 365.090135 247.237747 
L 366.169439 246.176415 
L 367.248743 244.518084 
L 368.328046 243.257752 
L 369.40735 242.926086 
L 370.486654 242.926086 
L 371.565957 242.262753 
L 372.645261 241.466754 
L 373.724565 241.201421 
L 374.803868 240.670755 
L 375.883172 240.471756 
L 376.962476 239.54309 
L 378.041779 239.277757 
L 381.279691 237.884759 
L 382.358994 236.690761 
L 383.438298 235.165096 
L 384.517602 234.568097 
L 385.596905 232.909766 
L 386.676209 231.914767 
L 387.755513 231.450434 
L 388.834816 231.185101 
L 389.91412 230.521769 
L 392.072727 229.52677 
L 396.389942 226.608107 
L 397.469246 225.215109 
L 398.548549 222.893446 
L 399.627853 221.434114 
L 400.707157 220.638115 
L 401.78646 220.173783 
L 406.103675 216.790787 
L 408.262282 215.198789 
L 409.341586 214.336457 
L 410.42089 212.943459 
L 411.500193 212.014793 
L 417.976015 207.636799 
L 419.055319 207.371466 
L 420.134623 206.907133 
L 421.213926 206.310134 
L 422.29323 205.845802 
L 424.451838 204.718136 
L 425.531141 204.320137 
L 427.689749 202.529139 
L 428.769052 201.268808 
L 430.92766 199.942143 
L 432.006963 199.67681 
L 433.086267 199.146144 
L 434.165571 198.416478 
L 436.324178 197.355146 
L 437.403482 197.156146 
L 438.482785 196.492814 
L 440.641393 195.431482 
L 441.720696 194.436483 
L 442.8 193.706818 
L 443.879304 193.375151 
L 444.958607 192.711819 
L 446.037911 192.247486 
L 447.117215 191.584154 
L 448.196518 191.186154 
L 449.275822 190.522822 
L 450.355126 189.66049 
L 452.513733 188.930824 
L 453.593037 188.466491 
L 454.67234 188.267491 
L 455.751644 187.604159 
L 456.830948 187.405159 
L 458.989555 186.675494 
L 460.068859 186.343827 
L 462.227466 185.481495 
L 463.30677 185.083496 
L 464.386074 184.818163 
L 465.465377 184.420163 
L 467.623985 184.088497 
L 469.782592 182.363833 
L 470.861896 181.965833 
L 473.020503 180.838168 
L 475.17911 179.710503 
L 477.337718 179.113504 
L 478.417021 178.317505 
L 479.496325 178.052172 
L 481.654932 176.725507 
L 482.734236 176.194841 
L 485.972147 175.531508 
L 488.130754 174.934509 
L 491.368665 173.209845 
L 492.447969 173.077178 
L 493.527273 172.679179 
L 494.606576 172.546512 
L 495.68588 172.148513 
L 496.765184 171.48518 
L 498.923791 170.025849 
L 500.003095 169.826849 
L 501.082398 169.42885 
L 502.161702 169.296183 
L 503.241006 168.964517 
L 504.320309 168.234851 
L 505.399613 167.903185 
L 506.478917 167.438852 
L 510.796132 166.311187 
L 511.875435 166.244854 
L 512.954739 165.913188 
L 515.113346 165.050855 
L 516.19265 164.719189 
L 517.271954 164.52019 
L 518.351257 164.055857 
L 519.430561 163.724191 
L 520.509865 163.259858 
L 522.668472 162.662859 
L 523.747776 162.596525 
L 525.906383 162.132193 
L 526.985687 161.66786 
L 528.06499 161.46886 
L 530.223598 160.606528 
L 533.461509 159.21353 
L 535.620116 157.886865 
L 536.69942 157.621532 
L 537.778723 157.024533 
L 538.858027 156.626533 
L 539.937331 156.029534 
L 542.095938 155.565201 
L 543.175242 154.968202 
L 544.254545 154.503869 
L 545.333849 154.172203 
L 547.492456 153.840537 
L 548.57176 153.110871 
L 549.651064 152.580205 
L 550.730368 152.381206 
L 552.888975 151.518873 
L 553.968279 151.319874 
L 555.047582 150.789208 
L 559.364797 150.192208 
L 561.523404 149.263543 
L 562.602708 148.467544 
L 563.682012 146.676546 
L 564.761315 146.411213 
L 565.840619 146.278547 
L 566.919923 146.013214 
L 569.07853 144.885549 
L 570.157834 144.487549 
L 571.237137 143.956883 
L 572.316441 143.69155 
L 574.475048 142.696552 
L 576.633656 141.701553 
L 578.792263 140.839221 
L 579.871567 140.175888 
L 580.95087 139.777889 
L 584.188781 139.18089 
L 586.347389 138.185891 
L 587.426692 137.721558 
L 588.505996 137.522559 
L 591.743907 136.32856 
L 593.902515 135.068228 
L 594.981818 134.404896 
L 596.061122 133.87423 
L 597.140426 133.67523 
L 598.219729 133.343564 
L 599.299033 133.277231 
L 603.616248 131.950566 
L 604.695551 131.884233 
L 605.774855 131.154567 
L 606.854159 130.889234 
L 607.933462 130.424901 
L 611.171373 129.496236 
L 612.250677 128.899237 
L 613.329981 128.56757 
L 614.409284 127.904238 
L 615.488588 127.439905 
L 616.567892 126.842906 
L 621.96441 124.852909 
L 623.043714 124.255909 
L 624.123017 123.526244 
L 625.202321 122.398579 
L 626.281625 121.735246 
L 627.360928 121.536246 
L 629.519536 120.010582 
L 630.598839 119.678916 
L 631.678143 118.219584 
L 632.757447 117.821585 
L 633.83675 117.091919 
L 634.916054 116.959252 
L 635.995358 116.29592 
L 637.074662 115.831587 
L 638.153965 115.632588 
L 639.233269 115.234588 
L 640.312573 114.438589 
L 641.391876 114.106923 
L 644.629787 112.050592 
L 645.709091 111.58626 
L 647.867698 110.458594 
L 648.947002 109.994262 
L 650.026306 109.861595 
L 651.105609 109.463596 
L 653.264217 108.335931 
L 654.34352 106.743933 
L 655.422824 105.748934 
L 656.502128 105.151935 
L 657.581431 104.886602 
L 659.740039 103.692603 
L 660.819342 103.493604 
L 661.898646 102.962938 
L 665.136557 101.768939 
L 666.215861 101.238273 
L 668.374468 99.845275 
L 670.533075 97.722611 
L 671.612379 96.926612 
L 673.770986 95.666281 
L 674.85029 94.671282 
L 678.088201 92.283285 
L 679.167505 91.752619 
L 680.246809 90.624954 
L 681.326112 89.895288 
L 683.48472 89.165623 
L 684.564023 88.236957 
L 686.722631 87.241958 
L 687.801934 86.976625 
L 688.881238 86.24696 
L 689.960542 85.981627 
L 692.119149 85.119295 
L 694.277756 83.659963 
L 695.35706 83.129297 
L 697.515667 82.532298 
L 698.594971 81.935299 
L 703.991489 80.210634 
L 706.150097 79.215636 
L 707.2294 78.353304 
L 708.308704 77.888971 
L 710.467311 77.159305 
L 711.546615 76.694972 
L 712.625919 76.363306 
L 713.705222 75.63364 
L 716.943133 74.240642 
L 718.022437 73.510977 
L 719.101741 72.980311 
L 720.181044 70.857647 
L 721.260348 69.066649 
L 723.418956 66.678652 
L 724.498259 65.948987 
L 726.656867 64.887655 
L 728.815474 64.025322 
L 729.894778 63.826323 
L 730.974081 63.295657 
L 732.053385 63.030324 
L 733.132689 62.632324 
L 734.211992 62.366991 
L 737.449903 60.70866 
L 739.608511 59.182996 
L 741.767118 58.386997 
L 745.005029 56.794999 
L 746.084333 56.065333 
L 747.163636 55.8 
L 747.163636 55.8 
" clip-path="url(#p8b1103e91a)" style="fill: none; stroke: #1f77b4; stroke-width: 1.5; stroke-linecap: square"/>
   </g>
   <g id="line2d_40">
    <path d="M 139.515667 307.8 
L 141.674275 307.8 
L 143.832882 307.534667 
L 150.308704 307.468334 
L 153.546615 307.335667 
L 156.784526 307.269334 
L 158.943133 307.203001 
L 162.181044 307.203001 
L 163.260348 306.937668 
L 166.498259 306.871335 
L 171.894778 306.274335 
L 180.529207 305.810003 
L 181.608511 305.810003 
L 182.687814 305.611003 
L 185.925725 305.54467 
L 188.084333 305.279337 
L 192.401547 305.279337 
L 193.480851 305.14667 
L 198.877369 305.080337 
L 202.11528 304.94767 
L 211.829014 304.881337 
L 213.987621 304.815004 
L 218.304836 304.748671 
L 221.542747 304.616004 
L 225.859961 304.616004 
L 226.939265 304.483338 
L 230.177176 304.417004 
L 234.494391 304.218005 
L 242.049516 304.151671 
L 244.208124 304.085338 
L 248.525338 304.019005 
L 251.76325 303.621006 
L 257.159768 303.554672 
L 262.556286 303.289339 
L 267.952805 303.223006 
L 271.190716 303.09034 
L 273.349323 303.024006 
L 275.50793 302.825007 
L 279.825145 302.626007 
L 283.063056 302.559674 
L 285.221663 302.49334 
L 287.380271 302.49334 
L 288.459574 302.360674 
L 291.697485 302.360674 
L 293.856093 302.161674 
L 297.094004 302.029008 
L 302.490522 301.962674 
L 305.728433 301.631008 
L 307.887041 301.498342 
L 308.966344 301.299342 
L 313.283559 301.233009 
L 316.52147 300.967676 
L 318.680077 300.768676 
L 324.076596 300.503343 
L 327.314507 300.43701 
L 330.552418 300.304343 
L 331.631721 300.304343 
L 333.790329 300.105344 
L 335.948936 300.03901 
L 337.02824 300.03901 
L 338.107544 299.906344 
L 340.266151 299.840011 
L 345.662669 299.574678 
L 347.821277 299.508344 
L 351.059188 299.375678 
L 354.297099 299.309345 
L 356.455706 299.243011 
L 361.852224 299.176678 
L 366.169439 298.712345 
L 367.248743 298.712345 
L 369.40735 298.513346 
L 371.565957 298.447012 
L 376.962476 298.049013 
L 378.041779 297.78368 
L 380.200387 297.651013 
L 381.279691 297.38568 
L 384.517602 297.120347 
L 386.676209 296.656015 
L 388.834816 296.589681 
L 390.993424 296.589681 
L 392.072727 296.457015 
L 393.152031 296.457015 
L 395.310638 296.125349 
L 399.627853 295.395683 
L 400.707157 295.395683 
L 401.78646 295.263017 
L 405.024371 295.196683 
L 419.055319 294.334351 
L 420.134623 294.135351 
L 423.372534 293.936352 
L 425.531141 293.604685 
L 427.689749 293.405686 
L 429.848356 293.339352 
L 432.006963 293.339352 
L 433.086267 293.074019 
L 434.165571 292.941353 
L 438.482785 292.87502 
L 440.641393 292.67602 
L 441.720696 292.67602 
L 444.958607 292.211687 
L 446.037911 291.946354 
L 447.117215 291.813688 
L 449.275822 291.747355 
L 454.67234 291.482022 
L 457.910251 291.415688 
L 471.941199 290.619689 
L 474.099807 290.619689 
L 476.258414 290.42069 
L 478.417021 290.42069 
L 481.654932 290.089023 
L 485.972147 289.890024 
L 488.130754 289.82369 
L 489.210058 289.691024 
L 493.527273 289.624691 
L 501.082398 289.226691 
L 506.478917 289.160358 
L 508.637524 289.094025 
L 509.716828 289.094025 
L 510.796132 288.895025 
L 512.954739 288.828692 
L 519.430561 288.762359 
L 522.668472 288.629692 
L 526.985687 288.563359 
L 528.06499 288.364359 
L 534.540812 288.298026 
L 536.69942 288.231693 
L 538.858027 288.165359 
L 541.016634 288.099026 
L 543.175242 288.032693 
L 550.730368 287.634693 
L 557.20619 287.56836 
L 560.444101 287.303027 
L 562.602708 287.104027 
L 564.761315 287.037694 
L 566.919923 287.037694 
L 567.999226 286.905028 
L 571.237137 286.838694 
L 572.316441 286.573361 
L 576.633656 286.374362 
L 586.347389 286.308028 
L 591.743907 285.910029 
L 594.981818 285.578363 
L 600.378337 285.512029 
L 603.616248 285.180363 
L 610.09207 284.848697 
L 612.250677 284.782364 
L 616.567892 284.583364 
L 620.885106 284.517031 
L 624.123017 284.384364 
L 628.440232 284.318031 
L 631.678143 283.986365 
L 633.83675 283.920032 
L 638.153965 283.853698 
L 641.391876 283.588365 
L 642.47118 283.455699 
L 643.550484 283.455699 
L 644.629787 283.256699 
L 646.788395 283.190366 
L 651.105609 283.124033 
L 653.264217 282.792366 
L 662.97795 282.726033 
L 665.136557 282.527033 
L 666.215861 282.394367 
L 668.374468 282.328034 
L 670.533075 282.2617 
L 671.612379 281.996367 
L 673.770986 281.930034 
L 674.85029 281.731034 
L 677.008897 281.731034 
L 680.246809 281.399368 
L 700.753578 280.20537 
L 702.912186 280.139037 
L 705.070793 280.072703 
L 718.022437 280.00637 
L 721.260348 279.873704 
L 722.339652 279.873704 
L 723.418956 279.542037 
L 725.577563 279.475704 
L 730.974081 279.409371 
L 733.132689 279.343038 
L 736.3706 279.343038 
L 737.449903 279.210371 
L 741.767118 279.144038 
L 743.925725 279.077705 
L 745.005029 279.077705 
L 747.163636 278.878705 
L 747.163636 278.878705 
" clip-path="url(#p8b1103e91a)" style="fill: none; stroke: #ff7f0e; stroke-width: 1.5; stroke-linecap: square"/>
   </g>
   <g id="patch_3">
    <path d="M 108 320.4 
L 108 43.2 
" style="fill: none; stroke: #a9a9a9; stroke-width: 0.8; stroke-linejoin: miter; stroke-linecap: square"/>
   </g>
   <g id="patch_4">
    <path d="M 777.6 320.4 
L 777.6 43.2 
" style="fill: none"/>
   </g>
   <g id="patch_5">
    <path d="M 108 320.4 
L 777.6 320.4 
" style="fill: none; stroke: #a9a9a9; stroke-width: 0.8; stroke-linejoin: miter; stroke-linecap: square"/>
   </g>
   <g id="patch_6">
    <path d="M 108 43.2 
L 777.6 43.2 
" style="fill: none"/>
   </g>
   <g id="text_20">
    <!-- get_subscribe history -->
    <g style="fill: #a9a9a9" transform="translate(378.6075 37.2) scale(0.12 -0.12)">
     <defs>
      <path id="DejaVuSans-67" d="M 2906 1791 
Q 2906 2416 2648 2759 
Q 2391 3103 1925 3103 
Q 1463 3103 1205 2759 
Q 947 2416 947 1791 
Q 947 1169 1205 825 
Q 1463 481 1925 481 
Q 2391 481 2648 825 
Q 2906 1169 2906 1791 
z
M 3481 434 
Q 3481 -459 3084 -895 
Q 2688 -1331 1869 -1331 
Q 1566 -1331 1297 -1286 
Q 1028 -1241 775 -1147 
L 775 -588 
Q 1028 -725 1275 -790 
Q 1522 -856 1778 -856 
Q 2344 -856 2625 -561 
Q 2906 -266 2906 331 
L 2906 616 
Q 2728 306 2450 153 
Q 2172 0 1784 0 
Q 1141 0 747 490 
Q 353 981 353 1791 
Q 353 2603 747 3093 
Q 1141 3584 1784 3584 
Q 2172 3584 2450 3431 
Q 2728 3278 2906 2969 
L 2906 3500 
L 3481 3500 
L 3481 434 
z
" transform="scale(0.015625)"/>
      <path id="DejaVuSans-65" d="M 3597 1894 
L 3597 1613 
L 953 1613 
Q 991 1019 1311 708 
Q 1631 397 2203 397 
Q 2534 397 2845 478 
Q 3156 559 3463 722 
L 3463 178 
Q 3153 47 2828 -22 
Q 2503 -91 2169 -91 
Q 1331 -91 842 396 
Q 353 884 353 1716 
Q 353 2575 817 3079 
Q 1281 3584 2069 3584 
Q 2775 3584 3186 3129 
Q 3597 2675 3597 1894 
z
M 3022 2063 
Q 3016 2534 2758 2815 
Q 2500 3097 2075 3097 
Q 1594 3097 1305 2825 
Q 1016 2553 972 2059 
L 3022 2063 
z
" transform="scale(0.015625)"/>
      <path id="DejaVuSans-74" d="M 1172 4494 
L 1172 3500 
L 2356 3500 
L 2356 3053 
L 1172 3053 
L 1172 1153 
Q 1172 725 1289 603 
Q 1406 481 1766 481 
L 2356 481 
L 2356 0 
L 1766 0 
Q 1100 0 847 248 
Q 594 497 594 1153 
L 594 3053 
L 172 3053 
L 172 3500 
L 594 3500 
L 594 4494 
L 1172 4494 
z
" transform="scale(0.015625)"/>
      <path id="DejaVuSans-5f" d="M 3263 -1063 
L 3263 -1509 
L -63 -1509 
L -63 -1063 
L 3263 -1063 
z
" transform="scale(0.015625)"/>
      <path id="DejaVuSans-73" d="M 2834 3397 
L 2834 2853 
Q 2591 2978 2328 3040 
Q 2066 3103 1784 3103 
Q 1356 3103 1142 2972 
Q 928 2841 928 2578 
Q 928 2378 1081 2264 
Q 1234 2150 1697 2047 
L 1894 2003 
Q 2506 1872 2764 1633 
Q 3022 1394 3022 966 
Q 3022 478 2636 193 
Q 2250 -91 1575 -91 
Q 1294 -91 989 -36 
Q 684 19 347 128 
L 347 722 
Q 666 556 975 473 
Q 1284 391 1588 391 
Q 1994 391 2212 530 
Q 2431 669 2431 922 
Q 2431 1156 2273 1281 
Q 2116 1406 1581 1522 
L 1381 1569 
Q 847 1681 609 1914 
Q 372 2147 372 2553 
Q 372 3047 722 3315 
Q 1072 3584 1716 3584 
Q 2034 3584 2315 3537 
Q 2597 3491 2834 3397 
z
" transform="scale(0.015625)"/>
      <path id="DejaVuSans-75" d="M 544 1381 
L 544 3500 
L 1119 3500 
L 1119 1403 
Q 1119 906 1312 657 
Q 1506 409 1894 409 
Q 2359 409 2629 706 
Q 2900 1003 2900 1516 
L 2900 3500 
L 3475 3500 
L 3475 0 
L 2900 0 
L 2900 538 
Q 2691 219 2414 64 
Q 2138 -91 1772 -91 
Q 1169 -91 856 284 
Q 544 659 544 1381 
z
M 1991 3584 
L 1991 3584 
z
" transform="scale(0.015625)"/>
      <path id="DejaVuSans-62" d="M 3116 1747 
Q 3116 2381 2855 2742 
Q 2594 3103 2138 3103 
Q 1681 3103 1420 2742 
Q 1159 2381 1159 1747 
Q 1159 1113 1420 752 
Q 1681 391 2138 391 
Q 2594 391 2855 752 
Q 3116 1113 3116 1747 
z
M 1159 2969 
Q 1341 3281 1617 3432 
Q 1894 3584 2278 3584 
Q 2916 3584 3314 3078 
Q 3713 2572 3713 1747 
Q 3713 922 3314 415 
Q 2916 -91 2278 -91 
Q 1894 -91 1617 61 
Q 1341 213 1159 525 
L 1159 0 
L 581 0 
L 581 4863 
L 1159 4863 
L 1159 2969 
z
" transform="scale(0.015625)"/>
      <path id="DejaVuSans-63" d="M 3122 3366 
L 3122 2828 
Q 2878 2963 2633 3030 
Q 2388 3097 2138 3097 
Q 1578 3097 1268 2742 
Q 959 2388 959 1747 
Q 959 1106 1268 751 
Q 1578 397 2138 397 
Q 2388 397 2633 464 
Q 2878 531 3122 666 
L 3122 134 
Q 2881 22 2623 -34 
Q 2366 -91 2075 -91 
Q 1284 -91 818 406 
Q 353 903 353 1747 
Q 353 2603 823 3093 
Q 1294 3584 2113 3584 
Q 2378 3584 2631 3529 
Q 2884 3475 3122 3366 
z
" transform="scale(0.015625)"/>
      <path id="DejaVuSans-72" d="M 2631 2963 
Q 2534 3019 2420 3045 
Q 2306 3072 2169 3072 
Q 1681 3072 1420 2755 
Q 1159 2438 1159 1844 
L 1159 0 
L 581 0 
L 581 3500 
L 1159 3500 
L 1159 2956 
Q 1341 3275 1631 3429 
Q 1922 3584 2338 3584 
Q 2397 3584 2469 3576 
Q 2541 3569 2628 3553 
L 2631 2963 
z
" transform="scale(0.015625)"/>
      <path id="DejaVuSans-69" d="M 603 3500 
L 1178 3500 
L 1178 0 
L 603 0 
L 603 3500 
z
M 603 4863 
L 1178 4863 
L 1178 4134 
L 603 4134 
L 603 4863 
z
" transform="scale(0.015625)"/>
      <path id="DejaVuSans-20" transform="scale(0.015625)"/>
      <path id="DejaVuSans-68" d="M 3513 2113 
L 3513 0 
L 2938 0 
L 2938 2094 
Q 2938 2591 2744 2837 
Q 2550 3084 2163 3084 
Q 1697 3084 1428 2787 
Q 1159 2491 1159 1978 
L 1159 0 
L 581 0 
L 581 4863 
L 1159 4863 
L 1159 2956 
Q 1366 3272 1645 3428 
Q 1925 3584 2291 3584 
Q 2894 3584 3203 3211 
Q 3513 2838 3513 2113 
z
" transform="scale(0.015625)"/>
      <path id="DejaVuSans-6f" d="M 1959 3097 
Q 1497 3097 1228 2736 
Q 959 2375 959 1747 
Q 959 1119 1226 758 
Q 1494 397 1959 397 
Q 2419 397 2687 759 
Q 2956 1122 2956 1747 
Q 2956 2369 2687 2733 
Q 2419 3097 1959 3097 
z
M 1959 3584 
Q 2709 3584 3137 3096 
Q 3566 2609 3566 1747 
Q 3566 888 3137 398 
Q 2709 -91 1959 -91 
Q 1206 -91 779 398 
Q 353 888 353 1747 
Q 353 2609 779 3096 
Q 1206 3584 1959 3584 
z
" transform="scale(0.015625)"/>
      <path id="DejaVuSans-79" d="M 2059 -325 
Q 1816 -950 1584 -1140 
Q 1353 -1331 966 -1331 
L 506 -1331 
L 506 -850 
L 844 -850 
Q 1081 -850 1212 -737 
Q 1344 -625 1503 -206 
L 1606 56 
L 191 3500 
L 800 3500 
L 1894 763 
L 2988 3500 
L 3597 3500 
L 2059 -325 
z
" transform="scale(0.015625)"/>
     </defs>
     <use xlink:href="#DejaVuSans-67"/>
     <use xlink:href="#DejaVuSans-65" x="63.476562"/>
     <use xlink:href="#DejaVuSans-74" x="125"/>
     <use xlink:href="#DejaVuSans-5f" x="164.208984"/>
     <use xlink:href="#DejaVuSans-73" x="214.208984"/>
     <use xlink:href="#DejaVuSans-75" x="266.308594"/>
     <use xlink:href="#DejaVuSans-62" x="329.6875"/>
     <use xlink:href="#DejaVuSans-73" x="393.164062"/>
     <use xlink:href="#DejaVuSans-63" x="445.263672"/>
     <use xlink:href="#DejaVuSans-72" x="500.244141"/>
     <use xlink:href="#DejaVuSans-69" x="541.357422"/>
     <use xlink:href="#DejaVuSans-62" x="569.140625"/>
     <use xlink:href="#DejaVuSans-65" x="632.617188"/>
     <use xlink:href="#DejaVuSans-20" x="694.140625"/>
     <use xlink:href="#DejaVuSans-68" x="725.927734"/>
     <use xlink:href="#DejaVuSans-69" x="789.306641"/>
     <use xlink:href="#DejaVuSans-73" x="817.089844"/>
     <use xlink:href="#DejaVuSans-74" x="869.189453"/>
     <use xlink:href="#DejaVuSans-6f" x="908.398438"/>
     <use xlink:href="#DejaVuSans-72" x="969.580078"/>
     <use xlink:href="#DejaVuSans-79" x="1010.693359"/>
    </g>
   </g>
   <g id="legend_1">
    <g id="line2d_41">
     <path d="M 815.08 328.498438 
L 825.08 328.498438 
L 835.08 328.498438 
" style="fill: none; stroke: #1f77b4; stroke-width: 1.5; stroke-linecap: square"/>
    </g>
    <g id="text_21">
     <!-- star -->
     <g style="fill: #a9a9a9" transform="translate(843.08 331.998438) scale(0.1 -0.1)">
      <defs>
       <path id="DejaVuSans-61" d="M 2194 1759 
Q 1497 1759 1228 1600 
Q 959 1441 959 1056 
Q 959 750 1161 570 
Q 1363 391 1709 391 
Q 2188 391 2477 730 
Q 2766 1069 2766 1631 
L 2766 1759 
L 2194 1759 
z
M 3341 1997 
L 3341 0 
L 2766 0 
L 2766 531 
Q 2569 213 2275 61 
Q 1981 -91 1556 -91 
Q 1019 -91 701 211 
Q 384 513 384 1019 
Q 384 1609 779 1909 
Q 1175 2209 1959 2209 
L 2766 2209 
L 2766 2266 
Q 2766 2663 2505 2880 
Q 2244 3097 1772 3097 
Q 1472 3097 1187 3025 
Q 903 2953 641 2809 
L 641 3341 
Q 956 3463 1253 3523 
Q 1550 3584 1831 3584 
Q 2591 3584 2966 3190 
Q 3341 2797 3341 1997 
z
" transform="scale(0.015625)"/>
      </defs>
      <use xlink:href="#DejaVuSans-73"/>
      <use xlink:href="#DejaVuSans-74" x="52.099609"/>
      <use xlink:href="#DejaVuSans-61" x="91.308594"/>
      <use xlink:href="#DejaVuSans-72" x="152.587891"/>
     </g>
    </g>
    <g id="line2d_42">
     <path d="M 815.08 343.176562 
L 825.08 343.176562 
L 835.08 343.176562 
" style="fill: none; stroke: #ff7f0e; stroke-width: 1.5; stroke-linecap: square"/>
    </g>
    <g id="text_22">
     <!-- fork -->
     <g style="fill: #a9a9a9" transform="translate(843.08 346.676562) scale(0.1 -0.1)">
      <defs>
       <path id="DejaVuSans-66" d="M 2375 4863 
L 2375 4384 
L 1825 4384 
Q 1516 4384 1395 4259 
Q 1275 4134 1275 3809 
L 1275 3500 
L 2222 3500 
L 2222 3053 
L 1275 3053 
L 1275 0 
L 697 0 
L 697 3053 
L 147 3053 
L 147 3500 
L 697 3500 
L 697 3744 
Q 697 4328 969 4595 
Q 1241 4863 1831 4863 
L 2375 4863 
z
" transform="scale(0.015625)"/>
       <path id="DejaVuSans-6b" d="M 581 4863 
L 1159 4863 
L 1159 1991 
L 2875 3500 
L 3609 3500 
L 1753 1863 
L 3688 0 
L 2938 0 
L 1159 1709 
L 1159 0 
L 581 0 
L 581 4863 
z
" transform="scale(0.015625)"/>
      </defs>
      <use xlink:href="#DejaVuSans-66"/>
      <use xlink:href="#DejaVuSans-6f" x="35.205078"/>
      <use xlink:href="#DejaVuSans-72" x="96.386719"/>
      <use xlink:href="#DejaVuSans-6b" x="137.5"/>
     </g>
    </g>
   </g>
  </g>
 </g>
 <defs>
  <clipPath id="p8b1103e91a">
   <rect x="108" y="43.2" width="669.6" height="277.2"/>
  </clipPath>
 </defs>
</svg>
