<?xml version="1.0" encoding="utf-8" standalone="no"?>
<!DOCTYPE svg PUBLIC "-//W3C//DTD SVG 1.1//EN"
  "http://www.w3.org/Graphics/SVG/1.1/DTD/svg11.dtd">
<svg xmlns:xlink="http://www.w3.org/1999/xlink" width="864pt" height="360pt" viewBox="0 0 864 360" xmlns="http://www.w3.org/2000/svg" version="1.1">
 <metadata>
  <rdf:RDF xmlns:dc="http://purl.org/dc/elements/1.1/" xmlns:cc="http://creativecommons.org/ns#" xmlns:rdf="http://www.w3.org/1999/02/22-rdf-syntax-ns#">
   <cc:Work>
    <dc:type rdf:resource="http://purl.org/dc/dcmitype/StillImage"/>
    <dc:date>2023-02-09T20:24:34.276614</dc:date>
    <dc:format>image/svg+xml</dc:format>
    <dc:creator>
     <cc:Agent>
      <dc:title>Matplotlib v3.6.3, https://matplotlib.org/</dc:title>
     </cc:Agent>
    </dc:creator>
   </cc:Work>
  </rdf:RDF>
 </metadata>
 <defs>
  <style type="text/css">*{stroke-linejoin: round; stroke-linecap: butt}</style>
 </defs>
 <g id="figure_1">
  <g id="patch_1">
   <path d="M 0 360 
L 864 360 
L 864 0 
L 0 0 
L 0 360 
z
" style="fill: none; opacity: 0"/>
  </g>
  <g id="axes_1">
   <g id="patch_2">
    <path d="M 108 320.4 
L 777.6 320.4 
L 777.6 43.2 
L 108 43.2 
L 108 320.4 
z
" style="fill: none; opacity: 0"/>
   </g>
   <g id="matplotlib.axis_1">
    <g id="xtick_1">
     <g id="line2d_1">
      <path d="M 113.656315 320.4 
L 113.656315 43.2 
" clip-path="url(#p3ef59addd9)" style="fill: none; stroke-dasharray: 5.12,1.28,0.8,1.28; stroke-dashoffset: 0; stroke: #b0b0b0; stroke-width: 0.8"/>
     </g>
     <g id="line2d_2">
      <defs>
       <path id="me7d45cebfc" d="M 0 0 
L 0 3.5 
" style="stroke: #a9a9a9; stroke-width: 0.8"/>
      </defs>
      <g>
       <use xlink:href="#me7d45cebfc" x="113.656315" y="320.4" style="fill: #a9a9a9; stroke: #a9a9a9; stroke-width: 0.8"/>
      </g>
     </g>
     <g id="text_1">
      <!-- 2021-07 -->
      <g style="fill: #a9a9a9" transform="translate(92.764909 334.998438) scale(0.1 -0.1)">
       <defs>
        <path id="DejaVuSans-32" d="M 1228 531 
L 3431 531 
L 3431 0 
L 469 0 
L 469 531 
Q 828 903 1448 1529 
Q 2069 2156 2228 2338 
Q 2531 2678 2651 2914 
Q 2772 3150 2772 3378 
Q 2772 3750 2511 3984 
Q 2250 4219 1831 4219 
Q 1534 4219 1204 4116 
Q 875 4013 500 3803 
L 500 4441 
Q 881 4594 1212 4672 
Q 1544 4750 1819 4750 
Q 2544 4750 2975 4387 
Q 3406 4025 3406 3419 
Q 3406 3131 3298 2873 
Q 3191 2616 2906 2266 
Q 2828 2175 2409 1742 
Q 1991 1309 1228 531 
z
" transform="scale(0.015625)"/>
        <path id="DejaVuSans-30" d="M 2034 4250 
Q 1547 4250 1301 3770 
Q 1056 3291 1056 2328 
Q 1056 1369 1301 889 
Q 1547 409 2034 409 
Q 2525 409 2770 889 
Q 3016 1369 3016 2328 
Q 3016 3291 2770 3770 
Q 2525 4250 2034 4250 
z
M 2034 4750 
Q 2819 4750 3233 4129 
Q 3647 3509 3647 2328 
Q 3647 1150 3233 529 
Q 2819 -91 2034 -91 
Q 1250 -91 836 529 
Q 422 1150 422 2328 
Q 422 3509 836 4129 
Q 1250 4750 2034 4750 
z
" transform="scale(0.015625)"/>
        <path id="DejaVuSans-31" d="M 794 531 
L 1825 531 
L 1825 4091 
L 703 3866 
L 703 4441 
L 1819 4666 
L 2450 4666 
L 2450 531 
L 3481 531 
L 3481 0 
L 794 0 
L 794 531 
z
" transform="scale(0.015625)"/>
        <path id="DejaVuSans-2d" d="M 313 2009 
L 1997 2009 
L 1997 1497 
L 313 1497 
L 313 2009 
z
" transform="scale(0.015625)"/>
        <path id="DejaVuSans-37" d="M 525 4666 
L 3525 4666 
L 3525 4397 
L 1831 0 
L 1172 0 
L 2766 4134 
L 525 4134 
L 525 4666 
z
" transform="scale(0.015625)"/>
       </defs>
       <use xlink:href="#DejaVuSans-32"/>
       <use xlink:href="#DejaVuSans-30" x="63.623047"/>
       <use xlink:href="#DejaVuSans-32" x="127.246094"/>
       <use xlink:href="#DejaVuSans-31" x="190.869141"/>
       <use xlink:href="#DejaVuSans-2d" x="254.492188"/>
       <use xlink:href="#DejaVuSans-30" x="290.576172"/>
       <use xlink:href="#DejaVuSans-37" x="354.199219"/>
      </g>
     </g>
    </g>
    <g id="xtick_2">
     <g id="line2d_3">
      <path d="M 180.454706 320.4 
L 180.454706 43.2 
" clip-path="url(#p3ef59addd9)" style="fill: none; stroke-dasharray: 5.12,1.28,0.8,1.28; stroke-dashoffset: 0; stroke: #b0b0b0; stroke-width: 0.8"/>
     </g>
     <g id="line2d_4">
      <g>
       <use xlink:href="#me7d45cebfc" x="180.454706" y="320.4" style="fill: #a9a9a9; stroke: #a9a9a9; stroke-width: 0.8"/>
      </g>
     </g>
     <g id="text_2">
      <!-- 2021-09 -->
      <g style="fill: #a9a9a9" transform="translate(159.5633 334.998438) scale(0.1 -0.1)">
       <defs>
        <path id="DejaVuSans-39" d="M 703 97 
L 703 672 
Q 941 559 1184 500 
Q 1428 441 1663 441 
Q 2288 441 2617 861 
Q 2947 1281 2994 2138 
Q 2813 1869 2534 1725 
Q 2256 1581 1919 1581 
Q 1219 1581 811 2004 
Q 403 2428 403 3163 
Q 403 3881 828 4315 
Q 1253 4750 1959 4750 
Q 2769 4750 3195 4129 
Q 3622 3509 3622 2328 
Q 3622 1225 3098 567 
Q 2575 -91 1691 -91 
Q 1453 -91 1209 -44 
Q 966 3 703 97 
z
M 1959 2075 
Q 2384 2075 2632 2365 
Q 2881 2656 2881 3163 
Q 2881 3666 2632 3958 
Q 2384 4250 1959 4250 
Q 1534 4250 1286 3958 
Q 1038 3666 1038 3163 
Q 1038 2656 1286 2365 
Q 1534 2075 1959 2075 
z
" transform="scale(0.015625)"/>
       </defs>
       <use xlink:href="#DejaVuSans-32"/>
       <use xlink:href="#DejaVuSans-30" x="63.623047"/>
       <use xlink:href="#DejaVuSans-32" x="127.246094"/>
       <use xlink:href="#DejaVuSans-31" x="190.869141"/>
       <use xlink:href="#DejaVuSans-2d" x="254.492188"/>
       <use xlink:href="#DejaVuSans-30" x="290.576172"/>
       <use xlink:href="#DejaVuSans-39" x="354.199219"/>
      </g>
     </g>
    </g>
    <g id="xtick_3">
     <g id="line2d_5">
      <path d="M 246.175704 320.4 
L 246.175704 43.2 
" clip-path="url(#p3ef59addd9)" style="fill: none; stroke-dasharray: 5.12,1.28,0.8,1.28; stroke-dashoffset: 0; stroke: #b0b0b0; stroke-width: 0.8"/>
     </g>
     <g id="line2d_6">
      <g>
       <use xlink:href="#me7d45cebfc" x="246.175704" y="320.4" style="fill: #a9a9a9; stroke: #a9a9a9; stroke-width: 0.8"/>
      </g>
     </g>
     <g id="text_3">
      <!-- 2021-11 -->
      <g style="fill: #a9a9a9" transform="translate(225.284298 334.998438) scale(0.1 -0.1)">
       <use xlink:href="#DejaVuSans-32"/>
       <use xlink:href="#DejaVuSans-30" x="63.623047"/>
       <use xlink:href="#DejaVuSans-32" x="127.246094"/>
       <use xlink:href="#DejaVuSans-31" x="190.869141"/>
       <use xlink:href="#DejaVuSans-2d" x="254.492188"/>
       <use xlink:href="#DejaVuSans-31" x="290.576172"/>
       <use xlink:href="#DejaVuSans-31" x="354.199219"/>
      </g>
     </g>
    </g>
    <g id="xtick_4">
     <g id="line2d_7">
      <path d="M 311.896702 320.4 
L 311.896702 43.2 
" clip-path="url(#p3ef59addd9)" style="fill: none; stroke-dasharray: 5.12,1.28,0.8,1.28; stroke-dashoffset: 0; stroke: #b0b0b0; stroke-width: 0.8"/>
     </g>
     <g id="line2d_8">
      <g>
       <use xlink:href="#me7d45cebfc" x="311.896702" y="320.4" style="fill: #a9a9a9; stroke: #a9a9a9; stroke-width: 0.8"/>
      </g>
     </g>
     <g id="text_4">
      <!-- 2022-01 -->
      <g style="fill: #a9a9a9" transform="translate(291.005295 334.998438) scale(0.1 -0.1)">
       <use xlink:href="#DejaVuSans-32"/>
       <use xlink:href="#DejaVuSans-30" x="63.623047"/>
       <use xlink:href="#DejaVuSans-32" x="127.246094"/>
       <use xlink:href="#DejaVuSans-32" x="190.869141"/>
       <use xlink:href="#DejaVuSans-2d" x="254.492188"/>
       <use xlink:href="#DejaVuSans-30" x="290.576172"/>
       <use xlink:href="#DejaVuSans-31" x="354.199219"/>
      </g>
     </g>
    </g>
    <g id="xtick_5">
     <g id="line2d_9">
      <path d="M 375.462912 320.4 
L 375.462912 43.2 
" clip-path="url(#p3ef59addd9)" style="fill: none; stroke-dasharray: 5.12,1.28,0.8,1.28; stroke-dashoffset: 0; stroke: #b0b0b0; stroke-width: 0.8"/>
     </g>
     <g id="line2d_10">
      <g>
       <use xlink:href="#me7d45cebfc" x="375.462912" y="320.4" style="fill: #a9a9a9; stroke: #a9a9a9; stroke-width: 0.8"/>
      </g>
     </g>
     <g id="text_5">
      <!-- 2022-03 -->
      <g style="fill: #a9a9a9" transform="translate(354.571506 334.998438) scale(0.1 -0.1)">
       <defs>
        <path id="DejaVuSans-33" d="M 2597 2516 
Q 3050 2419 3304 2112 
Q 3559 1806 3559 1356 
Q 3559 666 3084 287 
Q 2609 -91 1734 -91 
Q 1441 -91 1130 -33 
Q 819 25 488 141 
L 488 750 
Q 750 597 1062 519 
Q 1375 441 1716 441 
Q 2309 441 2620 675 
Q 2931 909 2931 1356 
Q 2931 1769 2642 2001 
Q 2353 2234 1838 2234 
L 1294 2234 
L 1294 2753 
L 1863 2753 
Q 2328 2753 2575 2939 
Q 2822 3125 2822 3475 
Q 2822 3834 2567 4026 
Q 2313 4219 1838 4219 
Q 1578 4219 1281 4162 
Q 984 4106 628 3988 
L 628 4550 
Q 988 4650 1302 4700 
Q 1616 4750 1894 4750 
Q 2613 4750 3031 4423 
Q 3450 4097 3450 3541 
Q 3450 3153 3228 2886 
Q 3006 2619 2597 2516 
z
" transform="scale(0.015625)"/>
       </defs>
       <use xlink:href="#DejaVuSans-32"/>
       <use xlink:href="#DejaVuSans-30" x="63.623047"/>
       <use xlink:href="#DejaVuSans-32" x="127.246094"/>
       <use xlink:href="#DejaVuSans-32" x="190.869141"/>
       <use xlink:href="#DejaVuSans-2d" x="254.492188"/>
       <use xlink:href="#DejaVuSans-30" x="290.576172"/>
       <use xlink:href="#DejaVuSans-33" x="354.199219"/>
      </g>
     </g>
    </g>
    <g id="xtick_6">
     <g id="line2d_11">
      <path d="M 441.18391 320.4 
L 441.18391 43.2 
" clip-path="url(#p3ef59addd9)" style="fill: none; stroke-dasharray: 5.12,1.28,0.8,1.28; stroke-dashoffset: 0; stroke: #b0b0b0; stroke-width: 0.8"/>
     </g>
     <g id="line2d_12">
      <g>
       <use xlink:href="#me7d45cebfc" x="441.18391" y="320.4" style="fill: #a9a9a9; stroke: #a9a9a9; stroke-width: 0.8"/>
      </g>
     </g>
     <g id="text_6">
      <!-- 2022-05 -->
      <g style="fill: #a9a9a9" transform="translate(420.292504 334.998438) scale(0.1 -0.1)">
       <defs>
        <path id="DejaVuSans-35" d="M 691 4666 
L 3169 4666 
L 3169 4134 
L 1269 4134 
L 1269 2991 
Q 1406 3038 1543 3061 
Q 1681 3084 1819 3084 
Q 2600 3084 3056 2656 
Q 3513 2228 3513 1497 
Q 3513 744 3044 326 
Q 2575 -91 1722 -91 
Q 1428 -91 1123 -41 
Q 819 9 494 109 
L 494 744 
Q 775 591 1075 516 
Q 1375 441 1709 441 
Q 2250 441 2565 725 
Q 2881 1009 2881 1497 
Q 2881 1984 2565 2268 
Q 2250 2553 1709 2553 
Q 1456 2553 1204 2497 
Q 953 2441 691 2322 
L 691 4666 
z
" transform="scale(0.015625)"/>
       </defs>
       <use xlink:href="#DejaVuSans-32"/>
       <use xlink:href="#DejaVuSans-30" x="63.623047"/>
       <use xlink:href="#DejaVuSans-32" x="127.246094"/>
       <use xlink:href="#DejaVuSans-32" x="190.869141"/>
       <use xlink:href="#DejaVuSans-2d" x="254.492188"/>
       <use xlink:href="#DejaVuSans-30" x="290.576172"/>
       <use xlink:href="#DejaVuSans-35" x="354.199219"/>
      </g>
     </g>
    </g>
    <g id="xtick_7">
     <g id="line2d_13">
      <path d="M 506.904907 320.4 
L 506.904907 43.2 
" clip-path="url(#p3ef59addd9)" style="fill: none; stroke-dasharray: 5.12,1.28,0.8,1.28; stroke-dashoffset: 0; stroke: #b0b0b0; stroke-width: 0.8"/>
     </g>
     <g id="line2d_14">
      <g>
       <use xlink:href="#me7d45cebfc" x="506.904907" y="320.4" style="fill: #a9a9a9; stroke: #a9a9a9; stroke-width: 0.8"/>
      </g>
     </g>
     <g id="text_7">
      <!-- 2022-07 -->
      <g style="fill: #a9a9a9" transform="translate(486.013501 334.998438) scale(0.1 -0.1)">
       <use xlink:href="#DejaVuSans-32"/>
       <use xlink:href="#DejaVuSans-30" x="63.623047"/>
       <use xlink:href="#DejaVuSans-32" x="127.246094"/>
       <use xlink:href="#DejaVuSans-32" x="190.869141"/>
       <use xlink:href="#DejaVuSans-2d" x="254.492188"/>
       <use xlink:href="#DejaVuSans-30" x="290.576172"/>
       <use xlink:href="#DejaVuSans-37" x="354.199219"/>
      </g>
     </g>
    </g>
    <g id="xtick_8">
     <g id="line2d_15">
      <path d="M 573.703298 320.4 
L 573.703298 43.2 
" clip-path="url(#p3ef59addd9)" style="fill: none; stroke-dasharray: 5.12,1.28,0.8,1.28; stroke-dashoffset: 0; stroke: #b0b0b0; stroke-width: 0.8"/>
     </g>
     <g id="line2d_16">
      <g>
       <use xlink:href="#me7d45cebfc" x="573.703298" y="320.4" style="fill: #a9a9a9; stroke: #a9a9a9; stroke-width: 0.8"/>
      </g>
     </g>
     <g id="text_8">
      <!-- 2022-09 -->
      <g style="fill: #a9a9a9" transform="translate(552.811892 334.998438) scale(0.1 -0.1)">
       <use xlink:href="#DejaVuSans-32"/>
       <use xlink:href="#DejaVuSans-30" x="63.623047"/>
       <use xlink:href="#DejaVuSans-32" x="127.246094"/>
       <use xlink:href="#DejaVuSans-32" x="190.869141"/>
       <use xlink:href="#DejaVuSans-2d" x="254.492188"/>
       <use xlink:href="#DejaVuSans-30" x="290.576172"/>
       <use xlink:href="#DejaVuSans-39" x="354.199219"/>
      </g>
     </g>
    </g>
    <g id="xtick_9">
     <g id="line2d_17">
      <path d="M 639.424296 320.4 
L 639.424296 43.2 
" clip-path="url(#p3ef59addd9)" style="fill: none; stroke-dasharray: 5.12,1.28,0.8,1.28; stroke-dashoffset: 0; stroke: #b0b0b0; stroke-width: 0.8"/>
     </g>
     <g id="line2d_18">
      <g>
       <use xlink:href="#me7d45cebfc" x="639.424296" y="320.4" style="fill: #a9a9a9; stroke: #a9a9a9; stroke-width: 0.8"/>
      </g>
     </g>
     <g id="text_9">
      <!-- 2022-11 -->
      <g style="fill: #a9a9a9" transform="translate(618.53289 334.998438) scale(0.1 -0.1)">
       <use xlink:href="#DejaVuSans-32"/>
       <use xlink:href="#DejaVuSans-30" x="63.623047"/>
       <use xlink:href="#DejaVuSans-32" x="127.246094"/>
       <use xlink:href="#DejaVuSans-32" x="190.869141"/>
       <use xlink:href="#DejaVuSans-2d" x="254.492188"/>
       <use xlink:href="#DejaVuSans-31" x="290.576172"/>
       <use xlink:href="#DejaVuSans-31" x="354.199219"/>
      </g>
     </g>
    </g>
    <g id="xtick_10">
     <g id="line2d_19">
      <path d="M 705.145294 320.4 
L 705.145294 43.2 
" clip-path="url(#p3ef59addd9)" style="fill: none; stroke-dasharray: 5.12,1.28,0.8,1.28; stroke-dashoffset: 0; stroke: #b0b0b0; stroke-width: 0.8"/>
     </g>
     <g id="line2d_20">
      <g>
       <use xlink:href="#me7d45cebfc" x="705.145294" y="320.4" style="fill: #a9a9a9; stroke: #a9a9a9; stroke-width: 0.8"/>
      </g>
     </g>
     <g id="text_10">
      <!-- 2023-01 -->
      <g style="fill: #a9a9a9" transform="translate(684.253887 334.998438) scale(0.1 -0.1)">
       <use xlink:href="#DejaVuSans-32"/>
       <use xlink:href="#DejaVuSans-30" x="63.623047"/>
       <use xlink:href="#DejaVuSans-32" x="127.246094"/>
       <use xlink:href="#DejaVuSans-33" x="190.869141"/>
       <use xlink:href="#DejaVuSans-2d" x="254.492188"/>
       <use xlink:href="#DejaVuSans-30" x="290.576172"/>
       <use xlink:href="#DejaVuSans-31" x="354.199219"/>
      </g>
     </g>
    </g>
    <g id="xtick_11">
     <g id="line2d_21">
      <path d="M 768.711504 320.4 
L 768.711504 43.2 
" clip-path="url(#p3ef59addd9)" style="fill: none; stroke-dasharray: 5.12,1.28,0.8,1.28; stroke-dashoffset: 0; stroke: #b0b0b0; stroke-width: 0.8"/>
     </g>
     <g id="line2d_22">
      <g>
       <use xlink:href="#me7d45cebfc" x="768.711504" y="320.4" style="fill: #a9a9a9; stroke: #a9a9a9; stroke-width: 0.8"/>
      </g>
     </g>
     <g id="text_11">
      <!-- 2023-03 -->
      <g style="fill: #a9a9a9" transform="translate(747.820098 334.998438) scale(0.1 -0.1)">
       <use xlink:href="#DejaVuSans-32"/>
       <use xlink:href="#DejaVuSans-30" x="63.623047"/>
       <use xlink:href="#DejaVuSans-32" x="127.246094"/>
       <use xlink:href="#DejaVuSans-33" x="190.869141"/>
       <use xlink:href="#DejaVuSans-2d" x="254.492188"/>
       <use xlink:href="#DejaVuSans-30" x="290.576172"/>
       <use xlink:href="#DejaVuSans-33" x="354.199219"/>
      </g>
     </g>
    </g>
   </g>
   <g id="matplotlib.axis_2">
    <g id="ytick_1">
     <g id="line2d_23">
      <path d="M 108 307.866211 
L 777.6 307.866211 
" clip-path="url(#p3ef59addd9)" style="fill: none; stroke-dasharray: 5.12,1.28,0.8,1.28; stroke-dashoffset: 0; stroke: #b0b0b0; stroke-width: 0.8"/>
     </g>
     <g id="line2d_24">
      <defs>
       <path id="ma0faba5aff" d="M 0 0 
L -3.5 0 
" style="stroke: #a9a9a9; stroke-width: 0.8"/>
      </defs>
      <g>
       <use xlink:href="#ma0faba5aff" x="108" y="307.866211" style="fill: #a9a9a9; stroke: #a9a9a9; stroke-width: 0.8"/>
      </g>
     </g>
     <g id="text_12">
      <!-- 0 -->
      <g style="fill: #a9a9a9" transform="translate(94.6375 311.66543) scale(0.1 -0.1)">
       <use xlink:href="#DejaVuSans-30"/>
      </g>
     </g>
    </g>
    <g id="ytick_2">
     <g id="line2d_25">
      <path d="M 108 274.760589 
L 777.6 274.760589 
" clip-path="url(#p3ef59addd9)" style="fill: none; stroke-dasharray: 5.12,1.28,0.8,1.28; stroke-dashoffset: 0; stroke: #b0b0b0; stroke-width: 0.8"/>
     </g>
     <g id="line2d_26">
      <g>
       <use xlink:href="#ma0faba5aff" x="108" y="274.760589" style="fill: #a9a9a9; stroke: #a9a9a9; stroke-width: 0.8"/>
      </g>
     </g>
     <g id="text_13">
      <!-- 500 -->
      <g style="fill: #a9a9a9" transform="translate(81.9125 278.559807) scale(0.1 -0.1)">
       <use xlink:href="#DejaVuSans-35"/>
       <use xlink:href="#DejaVuSans-30" x="63.623047"/>
       <use xlink:href="#DejaVuSans-30" x="127.246094"/>
      </g>
     </g>
    </g>
    <g id="ytick_3">
     <g id="line2d_27">
      <path d="M 108 241.654966 
L 777.6 241.654966 
" clip-path="url(#p3ef59addd9)" style="fill: none; stroke-dasharray: 5.12,1.28,0.8,1.28; stroke-dashoffset: 0; stroke: #b0b0b0; stroke-width: 0.8"/>
     </g>
     <g id="line2d_28">
      <g>
       <use xlink:href="#ma0faba5aff" x="108" y="241.654966" style="fill: #a9a9a9; stroke: #a9a9a9; stroke-width: 0.8"/>
      </g>
     </g>
     <g id="text_14">
      <!-- 1000 -->
      <g style="fill: #a9a9a9" transform="translate(75.55 245.454185) scale(0.1 -0.1)">
       <use xlink:href="#DejaVuSans-31"/>
       <use xlink:href="#DejaVuSans-30" x="63.623047"/>
       <use xlink:href="#DejaVuSans-30" x="127.246094"/>
       <use xlink:href="#DejaVuSans-30" x="190.869141"/>
      </g>
     </g>
    </g>
    <g id="ytick_4">
     <g id="line2d_29">
      <path d="M 108 208.549343 
L 777.6 208.549343 
" clip-path="url(#p3ef59addd9)" style="fill: none; stroke-dasharray: 5.12,1.28,0.8,1.28; stroke-dashoffset: 0; stroke: #b0b0b0; stroke-width: 0.8"/>
     </g>
     <g id="line2d_30">
      <g>
       <use xlink:href="#ma0faba5aff" x="108" y="208.549343" style="fill: #a9a9a9; stroke: #a9a9a9; stroke-width: 0.8"/>
      </g>
     </g>
     <g id="text_15">
      <!-- 1500 -->
      <g style="fill: #a9a9a9" transform="translate(75.55 212.348562) scale(0.1 -0.1)">
       <use xlink:href="#DejaVuSans-31"/>
       <use xlink:href="#DejaVuSans-35" x="63.623047"/>
       <use xlink:href="#DejaVuSans-30" x="127.246094"/>
       <use xlink:href="#DejaVuSans-30" x="190.869141"/>
      </g>
     </g>
    </g>
    <g id="ytick_5">
     <g id="line2d_31">
      <path d="M 108 175.44372 
L 777.6 175.44372 
" clip-path="url(#p3ef59addd9)" style="fill: none; stroke-dasharray: 5.12,1.28,0.8,1.28; stroke-dashoffset: 0; stroke: #b0b0b0; stroke-width: 0.8"/>
     </g>
     <g id="line2d_32">
      <g>
       <use xlink:href="#ma0faba5aff" x="108" y="175.44372" style="fill: #a9a9a9; stroke: #a9a9a9; stroke-width: 0.8"/>
      </g>
     </g>
     <g id="text_16">
      <!-- 2000 -->
      <g style="fill: #a9a9a9" transform="translate(75.55 179.242939) scale(0.1 -0.1)">
       <use xlink:href="#DejaVuSans-32"/>
       <use xlink:href="#DejaVuSans-30" x="63.623047"/>
       <use xlink:href="#DejaVuSans-30" x="127.246094"/>
       <use xlink:href="#DejaVuSans-30" x="190.869141"/>
      </g>
     </g>
    </g>
    <g id="ytick_6">
     <g id="line2d_33">
      <path d="M 108 142.338098 
L 777.6 142.338098 
" clip-path="url(#p3ef59addd9)" style="fill: none; stroke-dasharray: 5.12,1.28,0.8,1.28; stroke-dashoffset: 0; stroke: #b0b0b0; stroke-width: 0.8"/>
     </g>
     <g id="line2d_34">
      <g>
       <use xlink:href="#ma0faba5aff" x="108" y="142.338098" style="fill: #a9a9a9; stroke: #a9a9a9; stroke-width: 0.8"/>
      </g>
     </g>
     <g id="text_17">
      <!-- 2500 -->
      <g style="fill: #a9a9a9" transform="translate(75.55 146.137316) scale(0.1 -0.1)">
       <use xlink:href="#DejaVuSans-32"/>
       <use xlink:href="#DejaVuSans-35" x="63.623047"/>
       <use xlink:href="#DejaVuSans-30" x="127.246094"/>
       <use xlink:href="#DejaVuSans-30" x="190.869141"/>
      </g>
     </g>
    </g>
    <g id="ytick_7">
     <g id="line2d_35">
      <path d="M 108 109.232475 
L 777.6 109.232475 
" clip-path="url(#p3ef59addd9)" style="fill: none; stroke-dasharray: 5.12,1.28,0.8,1.28; stroke-dashoffset: 0; stroke: #b0b0b0; stroke-width: 0.8"/>
     </g>
     <g id="line2d_36">
      <g>
       <use xlink:href="#ma0faba5aff" x="108" y="109.232475" style="fill: #a9a9a9; stroke: #a9a9a9; stroke-width: 0.8"/>
      </g>
     </g>
     <g id="text_18">
      <!-- 3000 -->
      <g style="fill: #a9a9a9" transform="translate(75.55 113.031694) scale(0.1 -0.1)">
       <use xlink:href="#DejaVuSans-33"/>
       <use xlink:href="#DejaVuSans-30" x="63.623047"/>
       <use xlink:href="#DejaVuSans-30" x="127.246094"/>
       <use xlink:href="#DejaVuSans-30" x="190.869141"/>
      </g>
     </g>
    </g>
    <g id="ytick_8">
     <g id="line2d_37">
      <path d="M 108 76.126852 
L 777.6 76.126852 
" clip-path="url(#p3ef59addd9)" style="fill: none; stroke-dasharray: 5.12,1.28,0.8,1.28; stroke-dashoffset: 0; stroke: #b0b0b0; stroke-width: 0.8"/>
     </g>
     <g id="line2d_38">
      <g>
       <use xlink:href="#ma0faba5aff" x="108" y="76.126852" style="fill: #a9a9a9; stroke: #a9a9a9; stroke-width: 0.8"/>
      </g>
     </g>
     <g id="text_19">
      <!-- 3500 -->
      <g style="fill: #a9a9a9" transform="translate(75.55 79.926071) scale(0.1 -0.1)">
       <use xlink:href="#DejaVuSans-33"/>
       <use xlink:href="#DejaVuSans-35" x="63.623047"/>
       <use xlink:href="#DejaVuSans-30" x="127.246094"/>
       <use xlink:href="#DejaVuSans-30" x="190.869141"/>
      </g>
     </g>
    </g>
   </g>
   <g id="line2d_39">
    <path d="M 138.436364 307.601366 
L 142.745937 307.27031 
L 143.823331 307.137888 
L 144.900724 307.137888 
L 145.978117 306.74062 
L 148.132904 306.608198 
L 155.674658 305.217761 
L 157.829445 305.085339 
L 158.906838 304.886705 
L 162.139019 304.688071 
L 163.216412 304.158382 
L 164.293805 303.893537 
L 165.371199 302.701734 
L 166.448592 302.039622 
L 167.525986 299.788439 
L 168.603379 299.656017 
L 169.680772 298.927693 
L 170.758166 298.530426 
L 171.835559 298.000736 
L 175.067739 295.55092 
L 176.145133 295.02123 
L 178.29992 294.226695 
L 179.377313 293.498371 
L 180.454706 293.101104 
L 181.5321 292.571414 
L 182.609493 291.909301 
L 183.686887 291.578245 
L 184.76428 289.989175 
L 185.841673 289.19464 
L 186.919067 288.598739 
L 187.99646 288.13526 
L 192.306034 287.539359 
L 195.538214 287.009669 
L 197.693001 286.877246 
L 198.770394 286.678613 
L 199.847788 286.148923 
L 204.157361 285.817867 
L 207.389541 285.48681 
L 208.466935 285.155754 
L 213.853902 284.162585 
L 216.008689 283.963952 
L 217.086082 283.699107 
L 220.318262 283.301839 
L 221.395656 282.772149 
L 222.473049 282.639727 
L 224.627836 281.911403 
L 226.782623 281.712769 
L 227.860016 281.381713 
L 232.16959 280.785812 
L 233.246983 280.454756 
L 235.40177 280.123699 
L 236.479163 280.123699 
L 241.86613 279.461587 
L 244.020917 278.865686 
L 245.098311 278.600841 
L 247.253097 278.402207 
L 248.330491 278.335996 
L 251.562671 277.740095 
L 252.640064 277.342827 
L 253.717458 276.018602 
L 254.794851 275.621335 
L 255.872245 275.091645 
L 256.949638 274.959222 
L 258.027031 274.694377 
L 259.104425 274.561955 
L 261.259212 273.701209 
L 262.336605 273.634997 
L 267.723572 272.310772 
L 268.800965 272.310772 
L 270.955752 272.045927 
L 273.110539 271.450026 
L 276.342719 270.655491 
L 277.420113 270.58928 
L 279.574899 269.728534 
L 280.652293 269.596111 
L 281.729686 269.132633 
L 283.884473 268.933999 
L 284.961866 268.867788 
L 288.194047 268.338098 
L 290.348833 268.007042 
L 295.7358 267.013873 
L 297.890587 266.285549 
L 298.967981 265.689648 
L 300.045374 265.424803 
L 301.122767 265.29238 
L 303.277554 264.630268 
L 305.432341 263.504677 
L 306.509735 262.842564 
L 307.587128 262.710142 
L 308.664521 262.379086 
L 309.741915 262.246663 
L 310.819308 261.981818 
L 311.896702 261.849396 
L 312.974095 261.385917 
L 315.128882 261.054861 
L 316.206275 260.525171 
L 317.283669 260.127903 
L 318.361062 259.863058 
L 319.438455 259.730636 
L 320.515849 259.333368 
L 324.825422 258.538833 
L 326.980209 257.678087 
L 328.057603 257.479453 
L 329.134996 257.082186 
L 330.212389 256.949764 
L 331.289783 256.486285 
L 332.367176 256.22144 
L 334.521963 256.089017 
L 336.67675 255.426905 
L 337.754143 255.294482 
L 338.831537 255.294482 
L 339.90893 254.831004 
L 342.063717 254.499947 
L 343.14111 254.10268 
L 345.295897 254.036469 
L 346.37329 253.904046 
L 347.450684 253.904046 
L 349.605471 253.57299 
L 351.760257 252.579821 
L 353.915044 251.652864 
L 354.992438 251.388019 
L 356.069831 250.725906 
L 357.147224 250.39485 
L 359.302011 249.467893 
L 360.379405 249.269259 
L 362.534191 248.540935 
L 363.611585 247.878823 
L 364.688978 247.349133 
L 365.766372 246.289753 
L 366.843765 244.634472 
L 367.921158 243.376458 
L 368.998552 243.045402 
L 370.075945 243.045402 
L 371.153339 242.38329 
L 372.230732 241.588755 
L 373.308126 241.32391 
L 374.385519 240.79422 
L 375.462912 240.595586 
L 376.540306 239.668628 
L 377.617699 239.403783 
L 380.849879 238.013347 
L 381.927273 236.821545 
L 383.004666 235.298686 
L 384.08206 234.702785 
L 385.159453 233.047504 
L 386.236846 232.054335 
L 387.31424 231.590857 
L 388.391633 231.326012 
L 389.469027 230.663899 
L 391.623813 229.67073 
L 395.933387 226.757436 
L 397.01078 225.366999 
L 398.088174 223.049606 
L 399.165567 221.592958 
L 400.242961 220.798424 
L 401.320354 220.334945 
L 405.629928 216.958171 
L 407.784714 215.369101 
L 408.862108 214.508355 
L 409.939501 213.117919 
L 411.016895 212.190962 
L 417.481255 207.821019 
L 418.558648 207.556174 
L 419.636042 207.092696 
L 420.713435 206.496795 
L 421.790829 206.033316 
L 423.945615 204.907725 
L 425.023009 204.510457 
L 427.177796 202.722754 
L 428.255189 201.46474 
L 430.409976 200.140515 
L 431.487369 199.87567 
L 432.564763 199.34598 
L 433.642156 198.617656 
L 435.796943 197.558276 
L 436.874336 197.359643 
L 437.95173 196.69753 
L 440.106516 195.63815 
L 441.18391 194.644982 
L 442.261303 193.916658 
L 443.338697 193.585602 
L 444.41609 192.923489 
L 445.493484 192.460011 
L 446.570877 191.797898 
L 447.64827 191.400631 
L 448.725664 190.738518 
L 449.803057 189.877772 
L 451.957844 189.149448 
L 453.035237 188.68597 
L 454.112631 188.487336 
L 455.190024 187.825223 
L 456.267418 187.62659 
L 458.422204 186.898266 
L 459.499598 186.56721 
L 461.654385 185.706463 
L 462.731778 185.309196 
L 463.809171 185.044351 
L 464.886565 184.647084 
L 467.041352 184.316027 
L 469.196138 182.594535 
L 470.273532 182.197267 
L 472.428319 181.071676 
L 474.583105 179.946085 
L 476.737892 179.350184 
L 477.815286 178.555649 
L 478.892679 178.290804 
L 481.047466 176.966579 
L 482.124859 176.436889 
L 485.357039 175.774777 
L 487.511826 175.178875 
L 490.744006 173.457383 
L 491.8214 173.324961 
L 492.898793 172.927693 
L 493.976187 172.795271 
L 495.05358 172.398003 
L 496.130973 171.735891 
L 498.28576 170.279243 
L 499.363154 170.08061 
L 500.440547 169.683342 
L 501.51794 169.55092 
L 502.595334 169.219863 
L 503.672727 168.49154 
L 504.750121 168.160483 
L 505.827514 167.697005 
L 510.137088 166.571414 
L 511.214481 166.505202 
L 512.291874 166.174146 
L 514.446661 165.3134 
L 515.524055 164.982344 
L 516.601448 164.78371 
L 517.678842 164.320231 
L 518.756235 163.989175 
L 519.833628 163.525696 
L 521.988415 162.929795 
L 523.065809 162.863584 
L 525.220595 162.400105 
L 526.297989 161.936626 
L 527.375382 161.737993 
L 529.530169 160.877246 
L 532.762349 159.48681 
L 534.917136 158.162585 
L 535.994529 157.89774 
L 537.071923 157.301839 
L 538.149316 156.904572 
L 539.22671 156.308671 
L 541.381496 155.845192 
L 542.45889 155.249291 
L 543.536283 154.785812 
L 544.613677 154.454756 
L 546.768463 154.123699 
L 547.845857 153.395376 
L 548.92325 152.865686 
L 550.000644 152.667052 
L 552.15543 151.806306 
L 553.232824 151.607672 
L 554.310217 151.077982 
L 558.619791 150.482081 
L 560.774578 149.555123 
L 561.851971 148.760589 
L 562.929364 146.972885 
L 564.006758 146.70804 
L 565.084151 146.575617 
L 566.161545 146.310772 
L 568.316331 145.185181 
L 569.393725 144.787914 
L 570.471118 144.258224 
L 571.548512 143.993379 
L 573.703298 143.00021 
L 575.858085 142.007042 
L 578.012872 141.146295 
L 579.090265 140.484183 
L 580.167659 140.086915 
L 583.399839 139.491014 
L 585.554626 138.497846 
L 586.632019 138.034367 
L 587.709413 137.835733 
L 590.941593 136.643931 
L 593.09638 135.385917 
L 594.173773 134.723805 
L 595.251167 134.194115 
L 596.32856 133.995481 
L 597.405953 133.664425 
L 598.483347 133.598213 
L 602.79292 132.273988 
L 603.870314 132.207777 
L 604.947707 131.479453 
L 606.025101 131.214609 
L 607.102494 130.75113 
L 610.334674 129.824172 
L 611.412068 129.228271 
L 612.489461 128.897215 
L 613.566854 128.235102 
L 614.644248 127.771624 
L 615.721641 127.175723 
L 621.108608 125.189385 
L 622.186002 124.593484 
L 623.263395 123.86516 
L 624.340788 122.739569 
L 625.418182 122.077457 
L 626.495575 121.878823 
L 628.650362 120.355964 
L 629.727755 120.024908 
L 630.805149 118.568261 
L 631.882542 118.170993 
L 632.959936 117.442669 
L 634.037329 117.310247 
L 635.114722 116.648135 
L 636.192116 116.184656 
L 637.269509 115.986022 
L 638.346903 115.588755 
L 639.424296 114.79422 
L 640.501689 114.463163 
L 643.73387 112.410615 
L 644.811263 111.947136 
L 646.96605 110.821545 
L 648.043443 110.358066 
L 649.120837 110.225644 
L 650.19823 109.828376 
L 652.353017 108.702785 
L 653.43041 107.113715 
L 654.507804 106.120547 
L 655.585197 105.524645 
L 656.662591 105.2598 
L 658.817377 104.067998 
L 659.894771 103.869364 
L 660.972164 103.339674 
L 664.204344 102.147872 
L 665.281738 101.618182 
L 667.436525 100.227746 
L 669.591311 98.108986 
L 670.668705 97.314451 
L 672.823492 96.056437 
L 673.900885 95.063269 
L 677.133065 92.679664 
L 678.210459 92.149974 
L 679.287852 91.024383 
L 680.365245 90.296059 
L 682.520032 89.567735 
L 683.597426 88.640778 
L 685.752212 87.647609 
L 686.829606 87.382764 
L 687.906999 86.65444 
L 688.984393 86.389595 
L 691.139179 85.528849 
L 693.293966 84.072202 
L 694.37136 83.542512 
L 696.526146 82.946611 
L 697.60354 82.350709 
L 702.990507 80.629217 
L 705.145294 79.636048 
L 706.222687 78.775302 
L 707.30008 78.311823 
L 709.454867 77.5835 
L 710.532261 77.120021 
L 711.609654 76.788965 
L 712.687047 76.060641 
L 715.919228 74.670205 
L 716.996621 73.941881 
L 718.074014 73.412191 
L 719.151408 71.293431 
L 720.228801 69.505728 
L 722.383588 67.122123 
L 723.460981 66.393799 
L 725.615768 65.334419 
L 727.770555 64.473673 
L 728.847949 64.275039 
L 729.925342 63.745349 
L 731.002735 63.480504 
L 732.080129 63.083237 
L 733.157522 62.818392 
L 736.389702 61.163111 
L 738.544489 59.640252 
L 740.699276 58.845717 
L 743.931456 57.256647 
L 745.00885 56.528324 
L 747.163636 55.8 
L 747.163636 55.8 
" clip-path="url(#p3ef59addd9)" style="fill: none; stroke: #1f77b4; stroke-width: 1.5; stroke-linecap: square"/>
   </g>
   <g id="line2d_40">
    <path d="M 139.513757 307.8 
L 141.668544 307.8 
L 143.823331 307.535155 
L 150.287691 307.468944 
L 153.519871 307.336521 
L 156.752051 307.27031 
L 158.906838 307.204099 
L 162.139019 307.204099 
L 163.216412 306.939254 
L 166.448592 306.873043 
L 171.835559 306.277141 
L 180.454706 305.813663 
L 181.5321 305.813663 
L 182.609493 305.615029 
L 185.841673 305.548818 
L 187.99646 305.283973 
L 192.306034 305.283973 
L 193.383427 305.15155 
L 198.770394 305.085339 
L 202.002574 304.952916 
L 211.699115 304.886705 
L 213.853902 304.820494 
L 218.163475 304.754283 
L 221.395656 304.62186 
L 225.705229 304.62186 
L 226.782623 304.489438 
L 230.014803 304.423226 
L 234.324377 304.224593 
L 241.86613 304.158382 
L 244.020917 304.09217 
L 248.330491 304.025959 
L 251.562671 303.628692 
L 256.949638 303.56248 
L 262.336605 303.297635 
L 267.723572 303.231424 
L 270.955752 303.099002 
L 273.110539 303.03279 
L 275.265326 302.834157 
L 279.574899 302.635523 
L 282.80708 302.569312 
L 284.961866 302.5031 
L 287.116653 302.5031 
L 288.194047 302.370678 
L 291.426227 302.370678 
L 293.581014 302.172044 
L 296.813194 302.039622 
L 302.200161 301.97341 
L 305.432341 301.642354 
L 307.587128 301.509932 
L 308.664521 301.311298 
L 312.974095 301.245087 
L 316.206275 300.980242 
L 318.361062 300.781608 
L 323.748029 300.516763 
L 326.980209 300.450552 
L 330.212389 300.318129 
L 331.289783 300.318129 
L 333.44457 300.119496 
L 335.599356 300.053284 
L 336.67675 300.053284 
L 337.754143 299.920862 
L 339.90893 299.854651 
L 345.295897 299.589806 
L 347.450684 299.523594 
L 350.682864 299.391172 
L 353.915044 299.324961 
L 356.069831 299.258749 
L 361.456798 299.192538 
L 365.766372 298.729059 
L 366.843765 298.729059 
L 368.998552 298.530426 
L 371.153339 298.464214 
L 376.540306 298.066947 
L 377.617699 297.802102 
L 379.772486 297.669679 
L 380.849879 297.404834 
L 384.08206 297.139989 
L 386.236846 296.676511 
L 388.391633 296.6103 
L 390.54642 296.6103 
L 391.623813 296.477877 
L 392.701207 296.477877 
L 394.855994 296.146821 
L 399.165567 295.418497 
L 400.242961 295.418497 
L 401.320354 295.286075 
L 404.552534 295.219863 
L 418.558648 294.359117 
L 419.636042 294.160483 
L 422.868222 293.96185 
L 425.023009 293.630793 
L 427.177796 293.43216 
L 429.332582 293.365949 
L 431.487369 293.365949 
L 432.564763 293.101104 
L 433.642156 292.968681 
L 437.95173 292.90247 
L 440.106516 292.703836 
L 441.18391 292.703836 
L 444.41609 292.240357 
L 445.493484 291.975512 
L 446.570877 291.84309 
L 448.725664 291.776879 
L 454.112631 291.512034 
L 457.344811 291.445822 
L 471.350925 290.651287 
L 473.505712 290.651287 
L 475.660499 290.452654 
L 477.815286 290.452654 
L 481.047466 290.121597 
L 485.357039 289.922964 
L 487.511826 289.856752 
L 488.58922 289.72433 
L 492.898793 289.658119 
L 500.440547 289.260851 
L 505.827514 289.19464 
L 507.982301 289.128429 
L 509.059694 289.128429 
L 510.137088 288.929795 
L 512.291874 288.863584 
L 518.756235 288.797373 
L 521.988415 288.66495 
L 526.297989 288.598739 
L 527.375382 288.400105 
L 533.839743 288.333894 
L 535.994529 288.267683 
L 538.149316 288.201471 
L 540.304103 288.13526 
L 542.45889 288.069049 
L 550.000644 287.671781 
L 556.465004 287.60557 
L 559.697184 287.340725 
L 561.851971 287.142091 
L 564.006758 287.07588 
L 566.161545 287.07588 
L 567.238938 286.943458 
L 570.471118 286.877246 
L 571.548512 286.612401 
L 575.858085 286.413768 
L 585.554626 286.347556 
L 590.941593 285.950289 
L 594.173773 285.619233 
L 599.56074 285.553022 
L 602.79292 285.221965 
L 609.257281 284.890909 
L 611.412068 284.824698 
L 615.721641 284.626064 
L 620.031215 284.559853 
L 623.263395 284.42743 
L 627.572969 284.361219 
L 630.805149 284.030163 
L 632.959936 283.963952 
L 637.269509 283.89774 
L 640.501689 283.632895 
L 641.579083 283.500473 
L 642.656476 283.500473 
L 643.73387 283.301839 
L 645.888656 283.235628 
L 650.19823 283.169417 
L 652.353017 282.83836 
L 662.049558 282.772149 
L 664.204344 282.573516 
L 665.281738 282.441093 
L 667.436525 282.374882 
L 669.591311 282.308671 
L 670.668705 282.043826 
L 672.823492 281.977614 
L 673.900885 281.778981 
L 676.055672 281.778981 
L 679.287852 281.447924 
L 699.758327 280.256122 
L 701.913113 280.189911 
L 704.0679 280.123699 
L 716.996621 280.057488 
L 720.228801 279.925066 
L 721.306195 279.925066 
L 722.383588 279.594009 
L 724.538375 279.527798 
L 729.925342 279.461587 
L 732.080129 279.395376 
L 735.312309 279.395376 
L 736.389702 279.262953 
L 740.699276 279.196742 
L 742.854063 279.130531 
L 743.931456 279.130531 
L 746.086243 278.865686 
L 747.163636 278.865686 
L 747.163636 278.865686 
" clip-path="url(#p3ef59addd9)" style="fill: none; stroke: #ff7f0e; stroke-width: 1.5; stroke-linecap: square"/>
   </g>
   <g id="patch_3">
    <path d="M 108 320.4 
L 108 43.2 
" style="fill: none; stroke: #a9a9a9; stroke-width: 0.8; stroke-linejoin: miter; stroke-linecap: square"/>
   </g>
   <g id="patch_4">
    <path d="M 777.6 320.4 
L 777.6 43.2 
" style="fill: none"/>
   </g>
   <g id="patch_5">
    <path d="M 108 320.4 
L 777.6 320.4 
" style="fill: none; stroke: #a9a9a9; stroke-width: 0.8; stroke-linejoin: miter; stroke-linecap: square"/>
   </g>
   <g id="patch_6">
    <path d="M 108 43.2 
L 777.6 43.2 
" style="fill: none"/>
   </g>
   <g id="text_20">
    <!-- get_subscribe history -->
    <g style="fill: #a9a9a9" transform="translate(378.6075 37.2) scale(0.12 -0.12)">
     <defs>
      <path id="DejaVuSans-67" d="M 2906 1791 
Q 2906 2416 2648 2759 
Q 2391 3103 1925 3103 
Q 1463 3103 1205 2759 
Q 947 2416 947 1791 
Q 947 1169 1205 825 
Q 1463 481 1925 481 
Q 2391 481 2648 825 
Q 2906 1169 2906 1791 
z
M 3481 434 
Q 3481 -459 3084 -895 
Q 2688 -1331 1869 -1331 
Q 1566 -1331 1297 -1286 
Q 1028 -1241 775 -1147 
L 775 -588 
Q 1028 -725 1275 -790 
Q 1522 -856 1778 -856 
Q 2344 -856 2625 -561 
Q 2906 -266 2906 331 
L 2906 616 
Q 2728 306 2450 153 
Q 2172 0 1784 0 
Q 1141 0 747 490 
Q 353 981 353 1791 
Q 353 2603 747 3093 
Q 1141 3584 1784 3584 
Q 2172 3584 2450 3431 
Q 2728 3278 2906 2969 
L 2906 3500 
L 3481 3500 
L 3481 434 
z
" transform="scale(0.015625)"/>
      <path id="DejaVuSans-65" d="M 3597 1894 
L 3597 1613 
L 953 1613 
Q 991 1019 1311 708 
Q 1631 397 2203 397 
Q 2534 397 2845 478 
Q 3156 559 3463 722 
L 3463 178 
Q 3153 47 2828 -22 
Q 2503 -91 2169 -91 
Q 1331 -91 842 396 
Q 353 884 353 1716 
Q 353 2575 817 3079 
Q 1281 3584 2069 3584 
Q 2775 3584 3186 3129 
Q 3597 2675 3597 1894 
z
M 3022 2063 
Q 3016 2534 2758 2815 
Q 2500 3097 2075 3097 
Q 1594 3097 1305 2825 
Q 1016 2553 972 2059 
L 3022 2063 
z
" transform="scale(0.015625)"/>
      <path id="DejaVuSans-74" d="M 1172 4494 
L 1172 3500 
L 2356 3500 
L 2356 3053 
L 1172 3053 
L 1172 1153 
Q 1172 725 1289 603 
Q 1406 481 1766 481 
L 2356 481 
L 2356 0 
L 1766 0 
Q 1100 0 847 248 
Q 594 497 594 1153 
L 594 3053 
L 172 3053 
L 172 3500 
L 594 3500 
L 594 4494 
L 1172 4494 
z
" transform="scale(0.015625)"/>
      <path id="DejaVuSans-5f" d="M 3263 -1063 
L 3263 -1509 
L -63 -1509 
L -63 -1063 
L 3263 -1063 
z
" transform="scale(0.015625)"/>
      <path id="DejaVuSans-73" d="M 2834 3397 
L 2834 2853 
Q 2591 2978 2328 3040 
Q 2066 3103 1784 3103 
Q 1356 3103 1142 2972 
Q 928 2841 928 2578 
Q 928 2378 1081 2264 
Q 1234 2150 1697 2047 
L 1894 2003 
Q 2506 1872 2764 1633 
Q 3022 1394 3022 966 
Q 3022 478 2636 193 
Q 2250 -91 1575 -91 
Q 1294 -91 989 -36 
Q 684 19 347 128 
L 347 722 
Q 666 556 975 473 
Q 1284 391 1588 391 
Q 1994 391 2212 530 
Q 2431 669 2431 922 
Q 2431 1156 2273 1281 
Q 2116 1406 1581 1522 
L 1381 1569 
Q 847 1681 609 1914 
Q 372 2147 372 2553 
Q 372 3047 722 3315 
Q 1072 3584 1716 3584 
Q 2034 3584 2315 3537 
Q 2597 3491 2834 3397 
z
" transform="scale(0.015625)"/>
      <path id="DejaVuSans-75" d="M 544 1381 
L 544 3500 
L 1119 3500 
L 1119 1403 
Q 1119 906 1312 657 
Q 1506 409 1894 409 
Q 2359 409 2629 706 
Q 2900 1003 2900 1516 
L 2900 3500 
L 3475 3500 
L 3475 0 
L 2900 0 
L 2900 538 
Q 2691 219 2414 64 
Q 2138 -91 1772 -91 
Q 1169 -91 856 284 
Q 544 659 544 1381 
z
M 1991 3584 
L 1991 3584 
z
" transform="scale(0.015625)"/>
      <path id="DejaVuSans-62" d="M 3116 1747 
Q 3116 2381 2855 2742 
Q 2594 3103 2138 3103 
Q 1681 3103 1420 2742 
Q 1159 2381 1159 1747 
Q 1159 1113 1420 752 
Q 1681 391 2138 391 
Q 2594 391 2855 752 
Q 3116 1113 3116 1747 
z
M 1159 2969 
Q 1341 3281 1617 3432 
Q 1894 3584 2278 3584 
Q 2916 3584 3314 3078 
Q 3713 2572 3713 1747 
Q 3713 922 3314 415 
Q 2916 -91 2278 -91 
Q 1894 -91 1617 61 
Q 1341 213 1159 525 
L 1159 0 
L 581 0 
L 581 4863 
L 1159 4863 
L 1159 2969 
z
" transform="scale(0.015625)"/>
      <path id="DejaVuSans-63" d="M 3122 3366 
L 3122 2828 
Q 2878 2963 2633 3030 
Q 2388 3097 2138 3097 
Q 1578 3097 1268 2742 
Q 959 2388 959 1747 
Q 959 1106 1268 751 
Q 1578 397 2138 397 
Q 2388 397 2633 464 
Q 2878 531 3122 666 
L 3122 134 
Q 2881 22 2623 -34 
Q 2366 -91 2075 -91 
Q 1284 -91 818 406 
Q 353 903 353 1747 
Q 353 2603 823 3093 
Q 1294 3584 2113 3584 
Q 2378 3584 2631 3529 
Q 2884 3475 3122 3366 
z
" transform="scale(0.015625)"/>
      <path id="DejaVuSans-72" d="M 2631 2963 
Q 2534 3019 2420 3045 
Q 2306 3072 2169 3072 
Q 1681 3072 1420 2755 
Q 1159 2438 1159 1844 
L 1159 0 
L 581 0 
L 581 3500 
L 1159 3500 
L 1159 2956 
Q 1341 3275 1631 3429 
Q 1922 3584 2338 3584 
Q 2397 3584 2469 3576 
Q 2541 3569 2628 3553 
L 2631 2963 
z
" transform="scale(0.015625)"/>
      <path id="DejaVuSans-69" d="M 603 3500 
L 1178 3500 
L 1178 0 
L 603 0 
L 603 3500 
z
M 603 4863 
L 1178 4863 
L 1178 4134 
L 603 4134 
L 603 4863 
z
" transform="scale(0.015625)"/>
      <path id="DejaVuSans-20" transform="scale(0.015625)"/>
      <path id="DejaVuSans-68" d="M 3513 2113 
L 3513 0 
L 2938 0 
L 2938 2094 
Q 2938 2591 2744 2837 
Q 2550 3084 2163 3084 
Q 1697 3084 1428 2787 
Q 1159 2491 1159 1978 
L 1159 0 
L 581 0 
L 581 4863 
L 1159 4863 
L 1159 2956 
Q 1366 3272 1645 3428 
Q 1925 3584 2291 3584 
Q 2894 3584 3203 3211 
Q 3513 2838 3513 2113 
z
" transform="scale(0.015625)"/>
      <path id="DejaVuSans-6f" d="M 1959 3097 
Q 1497 3097 1228 2736 
Q 959 2375 959 1747 
Q 959 1119 1226 758 
Q 1494 397 1959 397 
Q 2419 397 2687 759 
Q 2956 1122 2956 1747 
Q 2956 2369 2687 2733 
Q 2419 3097 1959 3097 
z
M 1959 3584 
Q 2709 3584 3137 3096 
Q 3566 2609 3566 1747 
Q 3566 888 3137 398 
Q 2709 -91 1959 -91 
Q 1206 -91 779 398 
Q 353 888 353 1747 
Q 353 2609 779 3096 
Q 1206 3584 1959 3584 
z
" transform="scale(0.015625)"/>
      <path id="DejaVuSans-79" d="M 2059 -325 
Q 1816 -950 1584 -1140 
Q 1353 -1331 966 -1331 
L 506 -1331 
L 506 -850 
L 844 -850 
Q 1081 -850 1212 -737 
Q 1344 -625 1503 -206 
L 1606 56 
L 191 3500 
L 800 3500 
L 1894 763 
L 2988 3500 
L 3597 3500 
L 2059 -325 
z
" transform="scale(0.015625)"/>
     </defs>
     <use xlink:href="#DejaVuSans-67"/>
     <use xlink:href="#DejaVuSans-65" x="63.476562"/>
     <use xlink:href="#DejaVuSans-74" x="125"/>
     <use xlink:href="#DejaVuSans-5f" x="164.208984"/>
     <use xlink:href="#DejaVuSans-73" x="214.208984"/>
     <use xlink:href="#DejaVuSans-75" x="266.308594"/>
     <use xlink:href="#DejaVuSans-62" x="329.6875"/>
     <use xlink:href="#DejaVuSans-73" x="393.164062"/>
     <use xlink:href="#DejaVuSans-63" x="445.263672"/>
     <use xlink:href="#DejaVuSans-72" x="500.244141"/>
     <use xlink:href="#DejaVuSans-69" x="541.357422"/>
     <use xlink:href="#DejaVuSans-62" x="569.140625"/>
     <use xlink:href="#DejaVuSans-65" x="632.617188"/>
     <use xlink:href="#DejaVuSans-20" x="694.140625"/>
     <use xlink:href="#DejaVuSans-68" x="725.927734"/>
     <use xlink:href="#DejaVuSans-69" x="789.306641"/>
     <use xlink:href="#DejaVuSans-73" x="817.089844"/>
     <use xlink:href="#DejaVuSans-74" x="869.189453"/>
     <use xlink:href="#DejaVuSans-6f" x="908.398438"/>
     <use xlink:href="#DejaVuSans-72" x="969.580078"/>
     <use xlink:href="#DejaVuSans-79" x="1010.693359"/>
    </g>
   </g>
   <g id="legend_1">
    <g id="line2d_41">
     <path d="M 815.08 328.498438 
L 825.08 328.498438 
L 835.08 328.498438 
" style="fill: none; stroke: #1f77b4; stroke-width: 1.5; stroke-linecap: square"/>
    </g>
    <g id="text_21">
     <!-- star -->
     <g style="fill: #a9a9a9" transform="translate(843.08 331.998438) scale(0.1 -0.1)">
      <defs>
       <path id="DejaVuSans-61" d="M 2194 1759 
Q 1497 1759 1228 1600 
Q 959 1441 959 1056 
Q 959 750 1161 570 
Q 1363 391 1709 391 
Q 2188 391 2477 730 
Q 2766 1069 2766 1631 
L 2766 1759 
L 2194 1759 
z
M 3341 1997 
L 3341 0 
L 2766 0 
L 2766 531 
Q 2569 213 2275 61 
Q 1981 -91 1556 -91 
Q 1019 -91 701 211 
Q 384 513 384 1019 
Q 384 1609 779 1909 
Q 1175 2209 1959 2209 
L 2766 2209 
L 2766 2266 
Q 2766 2663 2505 2880 
Q 2244 3097 1772 3097 
Q 1472 3097 1187 3025 
Q 903 2953 641 2809 
L 641 3341 
Q 956 3463 1253 3523 
Q 1550 3584 1831 3584 
Q 2591 3584 2966 3190 
Q 3341 2797 3341 1997 
z
" transform="scale(0.015625)"/>
      </defs>
      <use xlink:href="#DejaVuSans-73"/>
      <use xlink:href="#DejaVuSans-74" x="52.099609"/>
      <use xlink:href="#DejaVuSans-61" x="91.308594"/>
      <use xlink:href="#DejaVuSans-72" x="152.587891"/>
     </g>
    </g>
    <g id="line2d_42">
     <path d="M 815.08 343.176562 
L 825.08 343.176562 
L 835.08 343.176562 
" style="fill: none; stroke: #ff7f0e; stroke-width: 1.5; stroke-linecap: square"/>
    </g>
    <g id="text_22">
     <!-- fork -->
     <g style="fill: #a9a9a9" transform="translate(843.08 346.676562) scale(0.1 -0.1)">
      <defs>
       <path id="DejaVuSans-66" d="M 2375 4863 
L 2375 4384 
L 1825 4384 
Q 1516 4384 1395 4259 
Q 1275 4134 1275 3809 
L 1275 3500 
L 2222 3500 
L 2222 3053 
L 1275 3053 
L 1275 0 
L 697 0 
L 697 3053 
L 147 3053 
L 147 3500 
L 697 3500 
L 697 3744 
Q 697 4328 969 4595 
Q 1241 4863 1831 4863 
L 2375 4863 
z
" transform="scale(0.015625)"/>
       <path id="DejaVuSans-6b" d="M 581 4863 
L 1159 4863 
L 1159 1991 
L 2875 3500 
L 3609 3500 
L 1753 1863 
L 3688 0 
L 2938 0 
L 1159 1709 
L 1159 0 
L 581 0 
L 581 4863 
z
" transform="scale(0.015625)"/>
      </defs>
      <use xlink:href="#DejaVuSans-66"/>
      <use xlink:href="#DejaVuSans-6f" x="35.205078"/>
      <use xlink:href="#DejaVuSans-72" x="96.386719"/>
      <use xlink:href="#DejaVuSans-6b" x="137.5"/>
     </g>
    </g>
   </g>
  </g>
 </g>
 <defs>
  <clipPath id="p3ef59addd9">
   <rect x="108" y="43.2" width="669.6" height="277.2"/>
  </clipPath>
 </defs>
</svg>
