<?xml version="1.0" encoding="utf-8" standalone="no"?>
<!DOCTYPE svg PUBLIC "-//W3C//DTD SVG 1.1//EN"
  "http://www.w3.org/Graphics/SVG/1.1/DTD/svg11.dtd">
<svg xmlns:xlink="http://www.w3.org/1999/xlink" width="864pt" height="360pt" viewBox="0 0 864 360" xmlns="http://www.w3.org/2000/svg" version="1.1">
 <metadata>
  <rdf:RDF xmlns:dc="http://purl.org/dc/elements/1.1/" xmlns:cc="http://creativecommons.org/ns#" xmlns:rdf="http://www.w3.org/1999/02/22-rdf-syntax-ns#">
   <cc:Work>
    <dc:type rdf:resource="http://purl.org/dc/dcmitype/StillImage"/>
    <dc:date>2023-02-07T08:58:17.002252</dc:date>
    <dc:format>image/svg+xml</dc:format>
    <dc:creator>
     <cc:Agent>
      <dc:title>Matplotlib v3.6.3, https://matplotlib.org/</dc:title>
     </cc:Agent>
    </dc:creator>
   </cc:Work>
  </rdf:RDF>
 </metadata>
 <defs>
  <style type="text/css">*{stroke-linejoin: round; stroke-linecap: butt}</style>
 </defs>
 <g id="figure_1">
  <g id="patch_1">
   <path d="M 0 360 
L 864 360 
L 864 0 
L 0 0 
L 0 360 
z
" style="fill: none; opacity: 0"/>
  </g>
  <g id="axes_1">
   <g id="patch_2">
    <path d="M 108 320.4 
L 777.6 320.4 
L 777.6 43.2 
L 108 43.2 
L 108 320.4 
z
" style="fill: none; opacity: 0"/>
   </g>
   <g id="matplotlib.axis_1">
    <g id="xtick_1">
     <g id="line2d_1">
      <path d="M 113.568287 320.4 
L 113.568287 43.2 
" clip-path="url(#p5bce9c51f6)" style="fill: none; stroke-dasharray: 5.12,1.28,0.8,1.28; stroke-dashoffset: 0; stroke: #b0b0b0; stroke-width: 0.8"/>
     </g>
     <g id="line2d_2">
      <defs>
       <path id="m4ddbfe551d" d="M 0 0 
L 0 3.5 
" style="stroke: #a9a9a9; stroke-width: 0.8"/>
      </defs>
      <g>
       <use xlink:href="#m4ddbfe551d" x="113.568287" y="320.4" style="fill: #a9a9a9; stroke: #a9a9a9; stroke-width: 0.8"/>
      </g>
     </g>
     <g id="text_1">
      <!-- 2021-07 -->
      <g style="fill: #a9a9a9" transform="translate(92.676881 334.998438) scale(0.1 -0.1)">
       <defs>
        <path id="DejaVuSans-32" d="M 1228 531 
L 3431 531 
L 3431 0 
L 469 0 
L 469 531 
Q 828 903 1448 1529 
Q 2069 2156 2228 2338 
Q 2531 2678 2651 2914 
Q 2772 3150 2772 3378 
Q 2772 3750 2511 3984 
Q 2250 4219 1831 4219 
Q 1534 4219 1204 4116 
Q 875 4013 500 3803 
L 500 4441 
Q 881 4594 1212 4672 
Q 1544 4750 1819 4750 
Q 2544 4750 2975 4387 
Q 3406 4025 3406 3419 
Q 3406 3131 3298 2873 
Q 3191 2616 2906 2266 
Q 2828 2175 2409 1742 
Q 1991 1309 1228 531 
z
" transform="scale(0.015625)"/>
        <path id="DejaVuSans-30" d="M 2034 4250 
Q 1547 4250 1301 3770 
Q 1056 3291 1056 2328 
Q 1056 1369 1301 889 
Q 1547 409 2034 409 
Q 2525 409 2770 889 
Q 3016 1369 3016 2328 
Q 3016 3291 2770 3770 
Q 2525 4250 2034 4250 
z
M 2034 4750 
Q 2819 4750 3233 4129 
Q 3647 3509 3647 2328 
Q 3647 1150 3233 529 
Q 2819 -91 2034 -91 
Q 1250 -91 836 529 
Q 422 1150 422 2328 
Q 422 3509 836 4129 
Q 1250 4750 2034 4750 
z
" transform="scale(0.015625)"/>
        <path id="DejaVuSans-31" d="M 794 531 
L 1825 531 
L 1825 4091 
L 703 3866 
L 703 4441 
L 1819 4666 
L 2450 4666 
L 2450 531 
L 3481 531 
L 3481 0 
L 794 0 
L 794 531 
z
" transform="scale(0.015625)"/>
        <path id="DejaVuSans-2d" d="M 313 2009 
L 1997 2009 
L 1997 1497 
L 313 1497 
L 313 2009 
z
" transform="scale(0.015625)"/>
        <path id="DejaVuSans-37" d="M 525 4666 
L 3525 4666 
L 3525 4397 
L 1831 0 
L 1172 0 
L 2766 4134 
L 525 4134 
L 525 4666 
z
" transform="scale(0.015625)"/>
       </defs>
       <use xlink:href="#DejaVuSans-32"/>
       <use xlink:href="#DejaVuSans-30" x="63.623047"/>
       <use xlink:href="#DejaVuSans-32" x="127.246094"/>
       <use xlink:href="#DejaVuSans-31" x="190.869141"/>
       <use xlink:href="#DejaVuSans-2d" x="254.492188"/>
       <use xlink:href="#DejaVuSans-30" x="290.576172"/>
       <use xlink:href="#DejaVuSans-37" x="354.199219"/>
      </g>
     </g>
    </g>
    <g id="xtick_2">
     <g id="line2d_3">
      <path d="M 180.603972 320.4 
L 180.603972 43.2 
" clip-path="url(#p5bce9c51f6)" style="fill: none; stroke-dasharray: 5.12,1.28,0.8,1.28; stroke-dashoffset: 0; stroke: #b0b0b0; stroke-width: 0.8"/>
     </g>
     <g id="line2d_4">
      <g>
       <use xlink:href="#m4ddbfe551d" x="180.603972" y="320.4" style="fill: #a9a9a9; stroke: #a9a9a9; stroke-width: 0.8"/>
      </g>
     </g>
     <g id="text_2">
      <!-- 2021-09 -->
      <g style="fill: #a9a9a9" transform="translate(159.712566 334.998438) scale(0.1 -0.1)">
       <defs>
        <path id="DejaVuSans-39" d="M 703 97 
L 703 672 
Q 941 559 1184 500 
Q 1428 441 1663 441 
Q 2288 441 2617 861 
Q 2947 1281 2994 2138 
Q 2813 1869 2534 1725 
Q 2256 1581 1919 1581 
Q 1219 1581 811 2004 
Q 403 2428 403 3163 
Q 403 3881 828 4315 
Q 1253 4750 1959 4750 
Q 2769 4750 3195 4129 
Q 3622 3509 3622 2328 
Q 3622 1225 3098 567 
Q 2575 -91 1691 -91 
Q 1453 -91 1209 -44 
Q 966 3 703 97 
z
M 1959 2075 
Q 2384 2075 2632 2365 
Q 2881 2656 2881 3163 
Q 2881 3666 2632 3958 
Q 2384 4250 1959 4250 
Q 1534 4250 1286 3958 
Q 1038 3666 1038 3163 
Q 1038 2656 1286 2365 
Q 1534 2075 1959 2075 
z
" transform="scale(0.015625)"/>
       </defs>
       <use xlink:href="#DejaVuSans-32"/>
       <use xlink:href="#DejaVuSans-30" x="63.623047"/>
       <use xlink:href="#DejaVuSans-32" x="127.246094"/>
       <use xlink:href="#DejaVuSans-31" x="190.869141"/>
       <use xlink:href="#DejaVuSans-2d" x="254.492188"/>
       <use xlink:href="#DejaVuSans-30" x="290.576172"/>
       <use xlink:href="#DejaVuSans-39" x="354.199219"/>
      </g>
     </g>
    </g>
    <g id="xtick_3">
     <g id="line2d_5">
      <path d="M 246.558437 320.4 
L 246.558437 43.2 
" clip-path="url(#p5bce9c51f6)" style="fill: none; stroke-dasharray: 5.12,1.28,0.8,1.28; stroke-dashoffset: 0; stroke: #b0b0b0; stroke-width: 0.8"/>
     </g>
     <g id="line2d_6">
      <g>
       <use xlink:href="#m4ddbfe551d" x="246.558437" y="320.4" style="fill: #a9a9a9; stroke: #a9a9a9; stroke-width: 0.8"/>
      </g>
     </g>
     <g id="text_3">
      <!-- 2021-11 -->
      <g style="fill: #a9a9a9" transform="translate(225.667031 334.998438) scale(0.1 -0.1)">
       <use xlink:href="#DejaVuSans-32"/>
       <use xlink:href="#DejaVuSans-30" x="63.623047"/>
       <use xlink:href="#DejaVuSans-32" x="127.246094"/>
       <use xlink:href="#DejaVuSans-31" x="190.869141"/>
       <use xlink:href="#DejaVuSans-2d" x="254.492188"/>
       <use xlink:href="#DejaVuSans-31" x="290.576172"/>
       <use xlink:href="#DejaVuSans-31" x="354.199219"/>
      </g>
     </g>
    </g>
    <g id="xtick_4">
     <g id="line2d_7">
      <path d="M 312.512902 320.4 
L 312.512902 43.2 
" clip-path="url(#p5bce9c51f6)" style="fill: none; stroke-dasharray: 5.12,1.28,0.8,1.28; stroke-dashoffset: 0; stroke: #b0b0b0; stroke-width: 0.8"/>
     </g>
     <g id="line2d_8">
      <g>
       <use xlink:href="#m4ddbfe551d" x="312.512902" y="320.4" style="fill: #a9a9a9; stroke: #a9a9a9; stroke-width: 0.8"/>
      </g>
     </g>
     <g id="text_4">
      <!-- 2022-01 -->
      <g style="fill: #a9a9a9" transform="translate(291.621495 334.998438) scale(0.1 -0.1)">
       <use xlink:href="#DejaVuSans-32"/>
       <use xlink:href="#DejaVuSans-30" x="63.623047"/>
       <use xlink:href="#DejaVuSans-32" x="127.246094"/>
       <use xlink:href="#DejaVuSans-32" x="190.869141"/>
       <use xlink:href="#DejaVuSans-2d" x="254.492188"/>
       <use xlink:href="#DejaVuSans-30" x="290.576172"/>
       <use xlink:href="#DejaVuSans-31" x="354.199219"/>
      </g>
     </g>
    </g>
    <g id="xtick_5">
     <g id="line2d_9">
      <path d="M 376.304925 320.4 
L 376.304925 43.2 
" clip-path="url(#p5bce9c51f6)" style="fill: none; stroke-dasharray: 5.12,1.28,0.8,1.28; stroke-dashoffset: 0; stroke: #b0b0b0; stroke-width: 0.8"/>
     </g>
     <g id="line2d_10">
      <g>
       <use xlink:href="#m4ddbfe551d" x="376.304925" y="320.4" style="fill: #a9a9a9; stroke: #a9a9a9; stroke-width: 0.8"/>
      </g>
     </g>
     <g id="text_5">
      <!-- 2022-03 -->
      <g style="fill: #a9a9a9" transform="translate(355.413519 334.998438) scale(0.1 -0.1)">
       <defs>
        <path id="DejaVuSans-33" d="M 2597 2516 
Q 3050 2419 3304 2112 
Q 3559 1806 3559 1356 
Q 3559 666 3084 287 
Q 2609 -91 1734 -91 
Q 1441 -91 1130 -33 
Q 819 25 488 141 
L 488 750 
Q 750 597 1062 519 
Q 1375 441 1716 441 
Q 2309 441 2620 675 
Q 2931 909 2931 1356 
Q 2931 1769 2642 2001 
Q 2353 2234 1838 2234 
L 1294 2234 
L 1294 2753 
L 1863 2753 
Q 2328 2753 2575 2939 
Q 2822 3125 2822 3475 
Q 2822 3834 2567 4026 
Q 2313 4219 1838 4219 
Q 1578 4219 1281 4162 
Q 984 4106 628 3988 
L 628 4550 
Q 988 4650 1302 4700 
Q 1616 4750 1894 4750 
Q 2613 4750 3031 4423 
Q 3450 4097 3450 3541 
Q 3450 3153 3228 2886 
Q 3006 2619 2597 2516 
z
" transform="scale(0.015625)"/>
       </defs>
       <use xlink:href="#DejaVuSans-32"/>
       <use xlink:href="#DejaVuSans-30" x="63.623047"/>
       <use xlink:href="#DejaVuSans-32" x="127.246094"/>
       <use xlink:href="#DejaVuSans-32" x="190.869141"/>
       <use xlink:href="#DejaVuSans-2d" x="254.492188"/>
       <use xlink:href="#DejaVuSans-30" x="290.576172"/>
       <use xlink:href="#DejaVuSans-33" x="354.199219"/>
      </g>
     </g>
    </g>
    <g id="xtick_6">
     <g id="line2d_11">
      <path d="M 442.25939 320.4 
L 442.25939 43.2 
" clip-path="url(#p5bce9c51f6)" style="fill: none; stroke-dasharray: 5.12,1.28,0.8,1.28; stroke-dashoffset: 0; stroke: #b0b0b0; stroke-width: 0.8"/>
     </g>
     <g id="line2d_12">
      <g>
       <use xlink:href="#m4ddbfe551d" x="442.25939" y="320.4" style="fill: #a9a9a9; stroke: #a9a9a9; stroke-width: 0.8"/>
      </g>
     </g>
     <g id="text_6">
      <!-- 2022-05 -->
      <g style="fill: #a9a9a9" transform="translate(421.367983 334.998438) scale(0.1 -0.1)">
       <defs>
        <path id="DejaVuSans-35" d="M 691 4666 
L 3169 4666 
L 3169 4134 
L 1269 4134 
L 1269 2991 
Q 1406 3038 1543 3061 
Q 1681 3084 1819 3084 
Q 2600 3084 3056 2656 
Q 3513 2228 3513 1497 
Q 3513 744 3044 326 
Q 2575 -91 1722 -91 
Q 1428 -91 1123 -41 
Q 819 9 494 109 
L 494 744 
Q 775 591 1075 516 
Q 1375 441 1709 441 
Q 2250 441 2565 725 
Q 2881 1009 2881 1497 
Q 2881 1984 2565 2268 
Q 2250 2553 1709 2553 
Q 1456 2553 1204 2497 
Q 953 2441 691 2322 
L 691 4666 
z
" transform="scale(0.015625)"/>
       </defs>
       <use xlink:href="#DejaVuSans-32"/>
       <use xlink:href="#DejaVuSans-30" x="63.623047"/>
       <use xlink:href="#DejaVuSans-32" x="127.246094"/>
       <use xlink:href="#DejaVuSans-32" x="190.869141"/>
       <use xlink:href="#DejaVuSans-2d" x="254.492188"/>
       <use xlink:href="#DejaVuSans-30" x="290.576172"/>
       <use xlink:href="#DejaVuSans-35" x="354.199219"/>
      </g>
     </g>
    </g>
    <g id="xtick_7">
     <g id="line2d_13">
      <path d="M 508.213854 320.4 
L 508.213854 43.2 
" clip-path="url(#p5bce9c51f6)" style="fill: none; stroke-dasharray: 5.12,1.28,0.8,1.28; stroke-dashoffset: 0; stroke: #b0b0b0; stroke-width: 0.8"/>
     </g>
     <g id="line2d_14">
      <g>
       <use xlink:href="#m4ddbfe551d" x="508.213854" y="320.4" style="fill: #a9a9a9; stroke: #a9a9a9; stroke-width: 0.8"/>
      </g>
     </g>
     <g id="text_7">
      <!-- 2022-07 -->
      <g style="fill: #a9a9a9" transform="translate(487.322448 334.998438) scale(0.1 -0.1)">
       <use xlink:href="#DejaVuSans-32"/>
       <use xlink:href="#DejaVuSans-30" x="63.623047"/>
       <use xlink:href="#DejaVuSans-32" x="127.246094"/>
       <use xlink:href="#DejaVuSans-32" x="190.869141"/>
       <use xlink:href="#DejaVuSans-2d" x="254.492188"/>
       <use xlink:href="#DejaVuSans-30" x="290.576172"/>
       <use xlink:href="#DejaVuSans-37" x="354.199219"/>
      </g>
     </g>
    </g>
    <g id="xtick_8">
     <g id="line2d_15">
      <path d="M 575.24954 320.4 
L 575.24954 43.2 
" clip-path="url(#p5bce9c51f6)" style="fill: none; stroke-dasharray: 5.12,1.28,0.8,1.28; stroke-dashoffset: 0; stroke: #b0b0b0; stroke-width: 0.8"/>
     </g>
     <g id="line2d_16">
      <g>
       <use xlink:href="#m4ddbfe551d" x="575.24954" y="320.4" style="fill: #a9a9a9; stroke: #a9a9a9; stroke-width: 0.8"/>
      </g>
     </g>
     <g id="text_8">
      <!-- 2022-09 -->
      <g style="fill: #a9a9a9" transform="translate(554.358134 334.998438) scale(0.1 -0.1)">
       <use xlink:href="#DejaVuSans-32"/>
       <use xlink:href="#DejaVuSans-30" x="63.623047"/>
       <use xlink:href="#DejaVuSans-32" x="127.246094"/>
       <use xlink:href="#DejaVuSans-32" x="190.869141"/>
       <use xlink:href="#DejaVuSans-2d" x="254.492188"/>
       <use xlink:href="#DejaVuSans-30" x="290.576172"/>
       <use xlink:href="#DejaVuSans-39" x="354.199219"/>
      </g>
     </g>
    </g>
    <g id="xtick_9">
     <g id="line2d_17">
      <path d="M 641.204005 320.4 
L 641.204005 43.2 
" clip-path="url(#p5bce9c51f6)" style="fill: none; stroke-dasharray: 5.12,1.28,0.8,1.28; stroke-dashoffset: 0; stroke: #b0b0b0; stroke-width: 0.8"/>
     </g>
     <g id="line2d_18">
      <g>
       <use xlink:href="#m4ddbfe551d" x="641.204005" y="320.4" style="fill: #a9a9a9; stroke: #a9a9a9; stroke-width: 0.8"/>
      </g>
     </g>
     <g id="text_9">
      <!-- 2022-11 -->
      <g style="fill: #a9a9a9" transform="translate(620.312598 334.998438) scale(0.1 -0.1)">
       <use xlink:href="#DejaVuSans-32"/>
       <use xlink:href="#DejaVuSans-30" x="63.623047"/>
       <use xlink:href="#DejaVuSans-32" x="127.246094"/>
       <use xlink:href="#DejaVuSans-32" x="190.869141"/>
       <use xlink:href="#DejaVuSans-2d" x="254.492188"/>
       <use xlink:href="#DejaVuSans-31" x="290.576172"/>
       <use xlink:href="#DejaVuSans-31" x="354.199219"/>
      </g>
     </g>
    </g>
    <g id="xtick_10">
     <g id="line2d_19">
      <path d="M 707.158469 320.4 
L 707.158469 43.2 
" clip-path="url(#p5bce9c51f6)" style="fill: none; stroke-dasharray: 5.12,1.28,0.8,1.28; stroke-dashoffset: 0; stroke: #b0b0b0; stroke-width: 0.8"/>
     </g>
     <g id="line2d_20">
      <g>
       <use xlink:href="#m4ddbfe551d" x="707.158469" y="320.4" style="fill: #a9a9a9; stroke: #a9a9a9; stroke-width: 0.8"/>
      </g>
     </g>
     <g id="text_10">
      <!-- 2023-01 -->
      <g style="fill: #a9a9a9" transform="translate(686.267063 334.998438) scale(0.1 -0.1)">
       <use xlink:href="#DejaVuSans-32"/>
       <use xlink:href="#DejaVuSans-30" x="63.623047"/>
       <use xlink:href="#DejaVuSans-32" x="127.246094"/>
       <use xlink:href="#DejaVuSans-33" x="190.869141"/>
       <use xlink:href="#DejaVuSans-2d" x="254.492188"/>
       <use xlink:href="#DejaVuSans-30" x="290.576172"/>
       <use xlink:href="#DejaVuSans-31" x="354.199219"/>
      </g>
     </g>
    </g>
    <g id="xtick_11">
     <g id="line2d_21">
      <path d="M 770.950492 320.4 
L 770.950492 43.2 
" clip-path="url(#p5bce9c51f6)" style="fill: none; stroke-dasharray: 5.12,1.28,0.8,1.28; stroke-dashoffset: 0; stroke: #b0b0b0; stroke-width: 0.8"/>
     </g>
     <g id="line2d_22">
      <g>
       <use xlink:href="#m4ddbfe551d" x="770.950492" y="320.4" style="fill: #a9a9a9; stroke: #a9a9a9; stroke-width: 0.8"/>
      </g>
     </g>
     <g id="text_11">
      <!-- 2023-03 -->
      <g style="fill: #a9a9a9" transform="translate(750.059086 334.998438) scale(0.1 -0.1)">
       <use xlink:href="#DejaVuSans-32"/>
       <use xlink:href="#DejaVuSans-30" x="63.623047"/>
       <use xlink:href="#DejaVuSans-32" x="127.246094"/>
       <use xlink:href="#DejaVuSans-33" x="190.869141"/>
       <use xlink:href="#DejaVuSans-2d" x="254.492188"/>
       <use xlink:href="#DejaVuSans-30" x="290.576172"/>
       <use xlink:href="#DejaVuSans-33" x="354.199219"/>
      </g>
     </g>
    </g>
   </g>
   <g id="matplotlib.axis_2">
    <g id="ytick_1">
     <g id="line2d_23">
      <path d="M 108 307.866579 
L 777.6 307.866579 
" clip-path="url(#p5bce9c51f6)" style="fill: none; stroke-dasharray: 5.12,1.28,0.8,1.28; stroke-dashoffset: 0; stroke: #b0b0b0; stroke-width: 0.8"/>
     </g>
     <g id="line2d_24">
      <defs>
       <path id="m6e28155a0a" d="M 0 0 
L -3.5 0 
" style="stroke: #a9a9a9; stroke-width: 0.8"/>
      </defs>
      <g>
       <use xlink:href="#m6e28155a0a" x="108" y="307.866579" style="fill: #a9a9a9; stroke: #a9a9a9; stroke-width: 0.8"/>
      </g>
     </g>
     <g id="text_12">
      <!-- 0 -->
      <g style="fill: #a9a9a9" transform="translate(94.6375 311.665797) scale(0.1 -0.1)">
       <use xlink:href="#DejaVuSans-30"/>
      </g>
     </g>
    </g>
    <g id="ytick_2">
     <g id="line2d_25">
      <path d="M 108 274.577279 
L 777.6 274.577279 
" clip-path="url(#p5bce9c51f6)" style="fill: none; stroke-dasharray: 5.12,1.28,0.8,1.28; stroke-dashoffset: 0; stroke: #b0b0b0; stroke-width: 0.8"/>
     </g>
     <g id="line2d_26">
      <g>
       <use xlink:href="#m6e28155a0a" x="108" y="274.577279" style="fill: #a9a9a9; stroke: #a9a9a9; stroke-width: 0.8"/>
      </g>
     </g>
     <g id="text_13">
      <!-- 500 -->
      <g style="fill: #a9a9a9" transform="translate(81.9125 278.376497) scale(0.1 -0.1)">
       <use xlink:href="#DejaVuSans-35"/>
       <use xlink:href="#DejaVuSans-30" x="63.623047"/>
       <use xlink:href="#DejaVuSans-30" x="127.246094"/>
      </g>
     </g>
    </g>
    <g id="ytick_3">
     <g id="line2d_27">
      <path d="M 108 241.287979 
L 777.6 241.287979 
" clip-path="url(#p5bce9c51f6)" style="fill: none; stroke-dasharray: 5.12,1.28,0.8,1.28; stroke-dashoffset: 0; stroke: #b0b0b0; stroke-width: 0.8"/>
     </g>
     <g id="line2d_28">
      <g>
       <use xlink:href="#m6e28155a0a" x="108" y="241.287979" style="fill: #a9a9a9; stroke: #a9a9a9; stroke-width: 0.8"/>
      </g>
     </g>
     <g id="text_14">
      <!-- 1000 -->
      <g style="fill: #a9a9a9" transform="translate(75.55 245.087198) scale(0.1 -0.1)">
       <use xlink:href="#DejaVuSans-31"/>
       <use xlink:href="#DejaVuSans-30" x="63.623047"/>
       <use xlink:href="#DejaVuSans-30" x="127.246094"/>
       <use xlink:href="#DejaVuSans-30" x="190.869141"/>
      </g>
     </g>
    </g>
    <g id="ytick_4">
     <g id="line2d_29">
      <path d="M 108 207.998679 
L 777.6 207.998679 
" clip-path="url(#p5bce9c51f6)" style="fill: none; stroke-dasharray: 5.12,1.28,0.8,1.28; stroke-dashoffset: 0; stroke: #b0b0b0; stroke-width: 0.8"/>
     </g>
     <g id="line2d_30">
      <g>
       <use xlink:href="#m6e28155a0a" x="108" y="207.998679" style="fill: #a9a9a9; stroke: #a9a9a9; stroke-width: 0.8"/>
      </g>
     </g>
     <g id="text_15">
      <!-- 1500 -->
      <g style="fill: #a9a9a9" transform="translate(75.55 211.797898) scale(0.1 -0.1)">
       <use xlink:href="#DejaVuSans-31"/>
       <use xlink:href="#DejaVuSans-35" x="63.623047"/>
       <use xlink:href="#DejaVuSans-30" x="127.246094"/>
       <use xlink:href="#DejaVuSans-30" x="190.869141"/>
      </g>
     </g>
    </g>
    <g id="ytick_5">
     <g id="line2d_31">
      <path d="M 108 174.709379 
L 777.6 174.709379 
" clip-path="url(#p5bce9c51f6)" style="fill: none; stroke-dasharray: 5.12,1.28,0.8,1.28; stroke-dashoffset: 0; stroke: #b0b0b0; stroke-width: 0.8"/>
     </g>
     <g id="line2d_32">
      <g>
       <use xlink:href="#m6e28155a0a" x="108" y="174.709379" style="fill: #a9a9a9; stroke: #a9a9a9; stroke-width: 0.8"/>
      </g>
     </g>
     <g id="text_16">
      <!-- 2000 -->
      <g style="fill: #a9a9a9" transform="translate(75.55 178.508598) scale(0.1 -0.1)">
       <use xlink:href="#DejaVuSans-32"/>
       <use xlink:href="#DejaVuSans-30" x="63.623047"/>
       <use xlink:href="#DejaVuSans-30" x="127.246094"/>
       <use xlink:href="#DejaVuSans-30" x="190.869141"/>
      </g>
     </g>
    </g>
    <g id="ytick_6">
     <g id="line2d_33">
      <path d="M 108 141.420079 
L 777.6 141.420079 
" clip-path="url(#p5bce9c51f6)" style="fill: none; stroke-dasharray: 5.12,1.28,0.8,1.28; stroke-dashoffset: 0; stroke: #b0b0b0; stroke-width: 0.8"/>
     </g>
     <g id="line2d_34">
      <g>
       <use xlink:href="#m6e28155a0a" x="108" y="141.420079" style="fill: #a9a9a9; stroke: #a9a9a9; stroke-width: 0.8"/>
      </g>
     </g>
     <g id="text_17">
      <!-- 2500 -->
      <g style="fill: #a9a9a9" transform="translate(75.55 145.219298) scale(0.1 -0.1)">
       <use xlink:href="#DejaVuSans-32"/>
       <use xlink:href="#DejaVuSans-35" x="63.623047"/>
       <use xlink:href="#DejaVuSans-30" x="127.246094"/>
       <use xlink:href="#DejaVuSans-30" x="190.869141"/>
      </g>
     </g>
    </g>
    <g id="ytick_7">
     <g id="line2d_35">
      <path d="M 108 108.130779 
L 777.6 108.130779 
" clip-path="url(#p5bce9c51f6)" style="fill: none; stroke-dasharray: 5.12,1.28,0.8,1.28; stroke-dashoffset: 0; stroke: #b0b0b0; stroke-width: 0.8"/>
     </g>
     <g id="line2d_36">
      <g>
       <use xlink:href="#m6e28155a0a" x="108" y="108.130779" style="fill: #a9a9a9; stroke: #a9a9a9; stroke-width: 0.8"/>
      </g>
     </g>
     <g id="text_18">
      <!-- 3000 -->
      <g style="fill: #a9a9a9" transform="translate(75.55 111.929998) scale(0.1 -0.1)">
       <use xlink:href="#DejaVuSans-33"/>
       <use xlink:href="#DejaVuSans-30" x="63.623047"/>
       <use xlink:href="#DejaVuSans-30" x="127.246094"/>
       <use xlink:href="#DejaVuSans-30" x="190.869141"/>
      </g>
     </g>
    </g>
    <g id="ytick_8">
     <g id="line2d_37">
      <path d="M 108 74.84148 
L 777.6 74.84148 
" clip-path="url(#p5bce9c51f6)" style="fill: none; stroke-dasharray: 5.12,1.28,0.8,1.28; stroke-dashoffset: 0; stroke: #b0b0b0; stroke-width: 0.8"/>
     </g>
     <g id="line2d_38">
      <g>
       <use xlink:href="#m6e28155a0a" x="108" y="74.84148" style="fill: #a9a9a9; stroke: #a9a9a9; stroke-width: 0.8"/>
      </g>
     </g>
     <g id="text_19">
      <!-- 3500 -->
      <g style="fill: #a9a9a9" transform="translate(75.55 78.640698) scale(0.1 -0.1)">
       <use xlink:href="#DejaVuSans-33"/>
       <use xlink:href="#DejaVuSans-35" x="63.623047"/>
       <use xlink:href="#DejaVuSans-30" x="127.246094"/>
       <use xlink:href="#DejaVuSans-30" x="190.869141"/>
      </g>
     </g>
    </g>
   </g>
   <g id="line2d_39">
    <path d="M 138.436364 307.600264 
L 142.761247 307.267371 
L 143.842467 307.134214 
L 144.923688 307.134214 
L 146.004909 306.734742 
L 148.16735 306.601585 
L 155.735895 305.203435 
L 157.898337 305.070277 
L 158.979558 304.870542 
L 162.22322 304.670806 
L 163.30444 304.138177 
L 164.385661 303.871863 
L 165.466882 302.673448 
L 166.548103 302.007662 
L 167.629323 299.743989 
L 168.710544 299.610832 
L 169.791765 298.878468 
L 170.872986 298.478996 
L 171.954206 297.946367 
L 175.197869 295.482959 
L 176.279089 294.95033 
L 178.441531 294.151387 
L 179.522751 293.419022 
L 180.603972 293.019551 
L 181.685193 292.486922 
L 182.766414 291.821136 
L 183.847634 291.488243 
L 184.928855 289.890357 
L 186.010076 289.091413 
L 187.091297 288.492206 
L 188.172517 288.026156 
L 192.4974 287.426948 
L 195.741062 286.89432 
L 197.903504 286.761162 
L 198.984725 286.561427 
L 200.065945 286.028798 
L 204.390828 285.695905 
L 207.634491 285.363012 
L 208.715711 285.030119 
L 214.121815 284.03144 
L 216.284256 283.831704 
L 217.365477 283.56539 
L 220.609139 283.165918 
L 221.69036 282.633289 
L 222.771581 282.500132 
L 224.934022 281.767768 
L 227.096464 281.568032 
L 228.177684 281.235139 
L 232.502567 280.635931 
L 233.583788 280.303038 
L 235.74623 279.970145 
L 236.82745 279.970145 
L 242.233554 279.304359 
L 244.395995 278.705152 
L 245.477216 278.438838 
L 247.639658 278.239102 
L 248.720878 278.172523 
L 251.964541 277.573316 
L 253.045761 277.173844 
L 254.126982 275.842272 
L 255.208203 275.442801 
L 256.289424 274.910172 
L 257.370644 274.777015 
L 258.451865 274.5107 
L 259.533086 274.377543 
L 261.695527 273.512021 
L 262.776748 273.445443 
L 268.182852 272.113871 
L 269.264072 272.113871 
L 271.426514 271.847556 
L 273.588955 271.248349 
L 276.832617 270.449406 
L 277.913838 270.382827 
L 280.07628 269.517305 
L 281.1575 269.384148 
L 282.238721 268.918098 
L 284.401163 268.718362 
L 285.482383 268.651783 
L 288.726046 268.119155 
L 290.888487 267.786262 
L 294.132149 267.187054 
L 295.21337 266.854161 
L 296.294591 266.721004 
L 298.457032 265.988639 
L 299.538253 265.389432 
L 300.619474 265.123118 
L 301.700694 264.98996 
L 303.863136 264.324174 
L 306.025577 263.192338 
L 307.106798 262.526552 
L 308.188019 262.393395 
L 309.269239 262.060502 
L 310.35046 261.927345 
L 311.431681 261.66103 
L 312.512902 261.527873 
L 313.594122 261.061823 
L 315.756564 260.72893 
L 316.837785 260.196301 
L 317.919005 259.79683 
L 319.000226 259.530515 
L 320.081447 259.397358 
L 321.162668 258.997886 
L 325.48755 258.198943 
L 327.649992 257.333421 
L 328.731213 257.133686 
L 329.812433 256.734214 
L 330.893654 256.601057 
L 331.974875 256.135007 
L 333.056096 255.868692 
L 335.218537 255.735535 
L 337.380979 255.069749 
L 338.462199 254.936592 
L 339.54342 254.936592 
L 340.624641 254.470542 
L 342.787082 254.137649 
L 343.868303 253.738177 
L 346.030744 253.671598 
L 347.111965 253.538441 
L 348.193186 253.538441 
L 350.355627 253.205548 
L 352.518069 252.206869 
L 354.68051 251.274769 
L 355.761731 251.008454 
L 356.842952 250.342668 
L 357.924172 250.009775 
L 360.086614 249.077675 
L 361.167835 248.877939 
L 363.330276 248.145575 
L 364.411497 247.479789 
L 365.492718 246.94716 
L 366.573938 245.881902 
L 367.655159 244.217437 
L 368.73638 242.952444 
L 369.817601 242.619551 
L 370.898821 242.619551 
L 371.980042 241.953765 
L 373.061263 241.154822 
L 374.142483 240.888507 
L 375.223704 240.355878 
L 376.304925 240.156143 
L 377.386146 239.224042 
L 378.467366 238.957728 
L 381.711029 237.559577 
L 382.792249 236.361162 
L 383.87347 234.829855 
L 384.954691 234.230647 
L 386.035912 232.566182 
L 387.117132 231.567503 
L 388.198353 231.101453 
L 389.279574 230.835139 
L 390.360794 230.169353 
L 392.523236 229.170674 
L 396.848119 226.241215 
L 397.92934 224.843065 
L 399.01056 222.512814 
L 400.091781 221.048085 
L 401.173002 220.249141 
L 402.254223 219.783091 
L 406.579105 216.387583 
L 408.741547 214.789696 
L 409.822768 213.924174 
L 410.903988 212.526024 
L 411.985209 211.593923 
L 418.472534 207.199736 
L 419.553754 206.933421 
L 420.634975 206.467371 
L 421.716196 205.868164 
L 422.797416 205.402114 
L 424.959858 204.270277 
L 426.041079 203.870806 
L 428.20352 202.073184 
L 429.284741 200.80819 
L 431.447182 199.476618 
L 432.528403 199.210304 
L 433.609624 198.677675 
L 434.690845 197.94531 
L 436.853286 196.880053 
L 437.934507 196.680317 
L 439.015727 196.014531 
L 441.178169 194.949273 
L 442.25939 193.950594 
L 443.34061 193.21823 
L 444.421831 192.885337 
L 445.503052 192.219551 
L 446.584273 191.753501 
L 447.665493 191.087715 
L 448.746714 190.688243 
L 449.827935 190.022457 
L 450.909155 189.156935 
L 453.071597 188.424571 
L 454.152818 187.95852 
L 455.234038 187.758785 
L 456.315259 187.092999 
L 457.39648 186.893263 
L 459.558921 186.160898 
L 460.640142 185.828005 
L 462.802584 184.962483 
L 463.883804 184.563012 
L 464.965025 184.296697 
L 466.046246 183.897226 
L 468.208687 183.564333 
L 470.371129 181.833289 
L 471.452349 181.433818 
L 473.614791 180.301982 
L 475.777232 179.170145 
L 477.939674 178.570938 
L 479.020895 177.771995 
L 480.102115 177.50568 
L 482.264557 176.174108 
L 483.345777 175.64148 
L 486.58944 174.975694 
L 488.751881 174.376486 
L 491.995543 172.645443 
L 493.076764 172.512285 
L 494.157985 172.112814 
L 495.239206 171.979657 
L 496.320426 171.580185 
L 497.401647 170.914399 
L 499.564088 169.44967 
L 500.645309 169.249934 
L 501.72653 168.850462 
L 502.807751 168.717305 
L 503.888971 168.384412 
L 504.970192 167.652048 
L 506.051413 167.319155 
L 507.132634 166.853104 
L 511.457517 165.721268 
L 512.538737 165.65469 
L 513.619958 165.321797 
L 515.782399 164.456275 
L 516.86362 164.123382 
L 517.944841 163.923646 
L 519.026062 163.457596 
L 520.107282 163.124703 
L 521.188503 162.658653 
L 523.350945 162.059445 
L 524.432165 161.992867 
L 526.594607 161.526816 
L 527.675828 161.060766 
L 528.757048 160.86103 
L 530.91949 159.995509 
L 534.163152 158.597358 
L 536.325593 157.265786 
L 537.406814 156.999472 
L 538.488035 156.400264 
L 539.569256 156.000793 
L 540.650476 155.401585 
L 542.812918 154.935535 
L 543.894139 154.336328 
L 544.975359 153.870277 
L 546.05658 153.537384 
L 548.219021 153.204491 
L 549.300242 152.472127 
L 550.381463 151.939498 
L 551.462684 151.739762 
L 553.625125 150.87424 
L 554.706346 150.674505 
L 555.787567 150.141876 
L 560.11245 149.542668 
L 562.274891 148.610568 
L 563.356112 147.811625 
L 564.437332 146.014003 
L 565.518553 145.747688 
L 566.599774 145.614531 
L 567.680995 145.348217 
L 569.843436 144.21638 
L 570.924657 143.816909 
L 572.005878 143.28428 
L 573.087098 143.017966 
L 575.24954 142.019287 
L 577.411981 141.020608 
L 579.574423 140.155086 
L 580.655643 139.4893 
L 581.736864 139.089828 
L 584.980526 138.490621 
L 587.142968 137.491942 
L 588.224189 137.025892 
L 589.305409 136.826156 
L 592.549072 135.627741 
L 594.711513 134.362748 
L 595.792734 133.696962 
L 596.873954 133.164333 
L 597.955175 132.964597 
L 599.036396 132.631704 
L 600.117617 132.565125 
L 604.4425 131.233554 
L 605.52372 131.166975 
L 606.604941 130.43461 
L 607.686162 130.168296 
L 608.767383 129.702246 
L 612.011045 128.770145 
L 613.092265 128.170938 
L 614.173486 127.838045 
L 615.254707 127.172259 
L 616.335928 126.706209 
L 617.417148 126.107001 
L 622.823252 124.109643 
L 623.904473 123.510436 
L 624.985694 122.778071 
L 626.066914 121.646235 
L 627.148135 120.980449 
L 628.229356 120.780713 
L 630.391797 119.249406 
L 631.473018 118.916513 
L 632.554239 117.451783 
L 633.635459 117.052312 
L 634.71668 116.319947 
L 635.797901 116.18679 
L 636.879122 115.521004 
L 637.960342 115.054954 
L 639.041563 114.855218 
L 640.122784 114.455746 
L 641.204005 113.656803 
L 642.285225 113.32391 
L 645.528887 111.259974 
L 646.610108 110.793923 
L 648.77255 109.662087 
L 649.85377 109.196037 
L 650.934991 109.06288 
L 652.016212 108.663408 
L 654.178653 107.531572 
L 655.259874 105.933686 
L 656.341095 104.935007 
L 657.422316 104.335799 
L 658.503536 104.069485 
L 660.665978 102.87107 
L 661.747198 102.671334 
L 662.828419 102.138705 
L 666.072081 100.940291 
L 667.153302 100.407662 
L 669.315744 99.009511 
L 671.478185 96.878996 
L 672.559406 96.080053 
L 674.721847 94.815059 
L 675.803068 93.81638 
L 679.04673 91.419551 
L 680.127951 90.886922 
L 681.209172 89.755086 
L 682.290392 89.022721 
L 684.452834 88.290357 
L 685.534055 87.358256 
L 687.696496 86.359577 
L 688.777717 86.093263 
L 689.858938 85.360898 
L 690.940158 85.094584 
L 693.1026 84.229062 
L 695.265041 82.764333 
L 696.346262 82.231704 
L 698.508703 81.632497 
L 699.589924 81.033289 
L 704.996028 79.302246 
L 707.158469 78.303567 
L 708.23969 77.438045 
L 709.320911 76.971995 
L 711.483352 76.23963 
L 712.564573 75.77358 
L 713.645794 75.440687 
L 714.727014 74.708322 
L 717.970677 73.310172 
L 719.051897 72.577807 
L 720.133118 72.045178 
L 721.214339 69.914663 
L 722.29556 68.117041 
L 724.458001 65.720211 
L 725.539222 64.987847 
L 727.701663 63.922589 
L 729.864105 63.057067 
L 730.945325 62.857332 
L 732.026546 62.324703 
L 733.107767 62.058388 
L 734.188988 61.658917 
L 735.270208 61.392602 
L 738.51387 59.728137 
L 740.676312 58.19683 
L 742.838753 57.397886 
L 746.082416 55.8 
L 747.163636 55.8 
L 747.163636 55.8 
" clip-path="url(#p5bce9c51f6)" style="fill: none; stroke: #1f77b4; stroke-width: 1.5; stroke-linecap: square"/>
   </g>
   <g id="line2d_40">
    <path d="M 139.517584 307.8 
L 141.680026 307.8 
L 143.842467 307.533686 
L 150.329792 307.467107 
L 153.573454 307.33395 
L 156.817116 307.267371 
L 158.979558 307.200793 
L 162.22322 307.200793 
L 163.30444 306.934478 
L 166.548103 306.8679 
L 171.954206 306.268692 
L 180.603972 305.802642 
L 181.685193 305.802642 
L 182.766414 305.602906 
L 186.010076 305.536328 
L 188.172517 305.270013 
L 192.4974 305.270013 
L 193.578621 305.136856 
L 198.984725 305.070277 
L 202.228387 304.93712 
L 211.959373 304.870542 
L 214.121815 304.803963 
L 218.446698 304.737384 
L 221.69036 304.604227 
L 226.015243 304.604227 
L 227.096464 304.47107 
L 230.340126 304.404491 
L 234.665009 304.204756 
L 242.233554 304.138177 
L 244.395995 304.071598 
L 248.720878 304.00502 
L 251.964541 303.605548 
L 257.370644 303.53897 
L 262.776748 303.272655 
L 268.182852 303.206077 
L 271.426514 303.072919 
L 273.588955 303.006341 
L 275.751397 302.806605 
L 280.07628 302.606869 
L 283.319942 302.540291 
L 285.482383 302.473712 
L 287.644825 302.473712 
L 288.726046 302.340555 
L 291.969708 302.340555 
L 294.132149 302.140819 
L 297.375811 302.007662 
L 302.781915 301.941083 
L 306.025577 301.60819 
L 308.188019 301.475033 
L 309.269239 301.275297 
L 313.594122 301.208719 
L 316.837785 300.942404 
L 319.000226 300.742668 
L 324.40633 300.476354 
L 327.649992 300.409775 
L 330.893654 300.276618 
L 331.974875 300.276618 
L 334.137316 300.076882 
L 336.299758 300.010304 
L 337.380979 300.010304 
L 338.462199 299.877147 
L 340.624641 299.810568 
L 346.030744 299.544254 
L 348.193186 299.477675 
L 351.436848 299.344518 
L 354.68051 299.277939 
L 356.842952 299.211361 
L 362.249055 299.144782 
L 366.573938 298.678732 
L 367.655159 298.678732 
L 369.817601 298.478996 
L 371.980042 298.412417 
L 377.386146 298.012946 
L 378.467366 297.746631 
L 380.629808 297.613474 
L 381.711029 297.34716 
L 384.954691 297.080845 
L 387.117132 296.614795 
L 389.279574 296.548217 
L 391.442015 296.548217 
L 392.523236 296.415059 
L 393.604457 296.415059 
L 395.766898 296.082166 
L 400.091781 295.349802 
L 401.173002 295.349802 
L 402.254223 295.216645 
L 405.497885 295.150066 
L 419.553754 294.284544 
L 420.634975 294.084808 
L 423.878637 293.885073 
L 426.041079 293.55218 
L 428.20352 293.352444 
L 430.365962 293.285865 
L 432.528403 293.285865 
L 433.609624 293.019551 
L 434.690845 292.886394 
L 439.015727 292.819815 
L 441.178169 292.620079 
L 442.25939 292.620079 
L 445.503052 292.154029 
L 446.584273 291.887715 
L 447.665493 291.754557 
L 449.827935 291.687979 
L 455.234038 291.421664 
L 458.477701 291.355086 
L 472.53357 290.556143 
L 474.696012 290.556143 
L 476.858453 290.356407 
L 479.020895 290.356407 
L 482.264557 290.023514 
L 486.58944 289.823778 
L 488.751881 289.757199 
L 489.833102 289.624042 
L 494.157985 289.557464 
L 501.72653 289.157992 
L 507.132634 289.091413 
L 509.295075 289.024835 
L 510.376296 289.024835 
L 511.457517 288.825099 
L 513.619958 288.75852 
L 520.107282 288.691942 
L 523.350945 288.558785 
L 527.675828 288.492206 
L 528.757048 288.29247 
L 535.244373 288.225892 
L 537.406814 288.159313 
L 539.569256 288.092734 
L 541.731697 288.026156 
L 543.894139 287.959577 
L 551.462684 287.560106 
L 557.950008 287.493527 
L 561.19367 287.227213 
L 563.356112 287.027477 
L 565.518553 286.960898 
L 567.680995 286.960898 
L 568.762215 286.827741 
L 572.005878 286.761162 
L 573.087098 286.494848 
L 577.411981 286.295112 
L 587.142968 286.228534 
L 592.549072 285.829062 
L 595.792734 285.496169 
L 601.198837 285.42959 
L 604.4425 285.096697 
L 610.929824 284.763804 
L 613.092265 284.697226 
L 617.417148 284.49749 
L 621.742031 284.430911 
L 624.985694 284.297754 
L 629.310576 284.231176 
L 632.554239 283.898283 
L 634.71668 283.831704 
L 639.041563 283.765125 
L 642.285225 283.498811 
L 643.366446 283.365654 
L 644.447667 283.365654 
L 645.528887 283.165918 
L 647.691329 283.099339 
L 652.016212 283.032761 
L 654.178653 282.699868 
L 663.90964 282.633289 
L 666.072081 282.433554 
L 667.153302 282.300396 
L 669.315744 282.233818 
L 671.478185 282.167239 
L 672.559406 281.900925 
L 674.721847 281.834346 
L 675.803068 281.63461 
L 677.965509 281.63461 
L 681.209172 281.301717 
L 701.752366 280.103303 
L 703.914807 280.036724 
L 706.077249 279.970145 
L 719.051897 279.903567 
L 722.29556 279.77041 
L 723.37678 279.77041 
L 724.458001 279.437517 
L 726.620442 279.370938 
L 732.026546 279.304359 
L 734.188988 279.237781 
L 737.43265 279.237781 
L 738.51387 279.104624 
L 742.838753 279.038045 
L 745.001195 278.971466 
L 747.163636 278.971466 
L 747.163636 278.971466 
" clip-path="url(#p5bce9c51f6)" style="fill: none; stroke: #ff7f0e; stroke-width: 1.5; stroke-linecap: square"/>
   </g>
   <g id="patch_3">
    <path d="M 108 320.4 
L 108 43.2 
" style="fill: none; stroke: #a9a9a9; stroke-width: 0.8; stroke-linejoin: miter; stroke-linecap: square"/>
   </g>
   <g id="patch_4">
    <path d="M 777.6 320.4 
L 777.6 43.2 
" style="fill: none"/>
   </g>
   <g id="patch_5">
    <path d="M 108 320.4 
L 777.6 320.4 
" style="fill: none; stroke: #a9a9a9; stroke-width: 0.8; stroke-linejoin: miter; stroke-linecap: square"/>
   </g>
   <g id="patch_6">
    <path d="M 108 43.2 
L 777.6 43.2 
" style="fill: none"/>
   </g>
   <g id="text_20">
    <!-- get_subscribe history -->
    <g style="fill: #a9a9a9" transform="translate(378.6075 37.2) scale(0.12 -0.12)">
     <defs>
      <path id="DejaVuSans-67" d="M 2906 1791 
Q 2906 2416 2648 2759 
Q 2391 3103 1925 3103 
Q 1463 3103 1205 2759 
Q 947 2416 947 1791 
Q 947 1169 1205 825 
Q 1463 481 1925 481 
Q 2391 481 2648 825 
Q 2906 1169 2906 1791 
z
M 3481 434 
Q 3481 -459 3084 -895 
Q 2688 -1331 1869 -1331 
Q 1566 -1331 1297 -1286 
Q 1028 -1241 775 -1147 
L 775 -588 
Q 1028 -725 1275 -790 
Q 1522 -856 1778 -856 
Q 2344 -856 2625 -561 
Q 2906 -266 2906 331 
L 2906 616 
Q 2728 306 2450 153 
Q 2172 0 1784 0 
Q 1141 0 747 490 
Q 353 981 353 1791 
Q 353 2603 747 3093 
Q 1141 3584 1784 3584 
Q 2172 3584 2450 3431 
Q 2728 3278 2906 2969 
L 2906 3500 
L 3481 3500 
L 3481 434 
z
" transform="scale(0.015625)"/>
      <path id="DejaVuSans-65" d="M 3597 1894 
L 3597 1613 
L 953 1613 
Q 991 1019 1311 708 
Q 1631 397 2203 397 
Q 2534 397 2845 478 
Q 3156 559 3463 722 
L 3463 178 
Q 3153 47 2828 -22 
Q 2503 -91 2169 -91 
Q 1331 -91 842 396 
Q 353 884 353 1716 
Q 353 2575 817 3079 
Q 1281 3584 2069 3584 
Q 2775 3584 3186 3129 
Q 3597 2675 3597 1894 
z
M 3022 2063 
Q 3016 2534 2758 2815 
Q 2500 3097 2075 3097 
Q 1594 3097 1305 2825 
Q 1016 2553 972 2059 
L 3022 2063 
z
" transform="scale(0.015625)"/>
      <path id="DejaVuSans-74" d="M 1172 4494 
L 1172 3500 
L 2356 3500 
L 2356 3053 
L 1172 3053 
L 1172 1153 
Q 1172 725 1289 603 
Q 1406 481 1766 481 
L 2356 481 
L 2356 0 
L 1766 0 
Q 1100 0 847 248 
Q 594 497 594 1153 
L 594 3053 
L 172 3053 
L 172 3500 
L 594 3500 
L 594 4494 
L 1172 4494 
z
" transform="scale(0.015625)"/>
      <path id="DejaVuSans-5f" d="M 3263 -1063 
L 3263 -1509 
L -63 -1509 
L -63 -1063 
L 3263 -1063 
z
" transform="scale(0.015625)"/>
      <path id="DejaVuSans-73" d="M 2834 3397 
L 2834 2853 
Q 2591 2978 2328 3040 
Q 2066 3103 1784 3103 
Q 1356 3103 1142 2972 
Q 928 2841 928 2578 
Q 928 2378 1081 2264 
Q 1234 2150 1697 2047 
L 1894 2003 
Q 2506 1872 2764 1633 
Q 3022 1394 3022 966 
Q 3022 478 2636 193 
Q 2250 -91 1575 -91 
Q 1294 -91 989 -36 
Q 684 19 347 128 
L 347 722 
Q 666 556 975 473 
Q 1284 391 1588 391 
Q 1994 391 2212 530 
Q 2431 669 2431 922 
Q 2431 1156 2273 1281 
Q 2116 1406 1581 1522 
L 1381 1569 
Q 847 1681 609 1914 
Q 372 2147 372 2553 
Q 372 3047 722 3315 
Q 1072 3584 1716 3584 
Q 2034 3584 2315 3537 
Q 2597 3491 2834 3397 
z
" transform="scale(0.015625)"/>
      <path id="DejaVuSans-75" d="M 544 1381 
L 544 3500 
L 1119 3500 
L 1119 1403 
Q 1119 906 1312 657 
Q 1506 409 1894 409 
Q 2359 409 2629 706 
Q 2900 1003 2900 1516 
L 2900 3500 
L 3475 3500 
L 3475 0 
L 2900 0 
L 2900 538 
Q 2691 219 2414 64 
Q 2138 -91 1772 -91 
Q 1169 -91 856 284 
Q 544 659 544 1381 
z
M 1991 3584 
L 1991 3584 
z
" transform="scale(0.015625)"/>
      <path id="DejaVuSans-62" d="M 3116 1747 
Q 3116 2381 2855 2742 
Q 2594 3103 2138 3103 
Q 1681 3103 1420 2742 
Q 1159 2381 1159 1747 
Q 1159 1113 1420 752 
Q 1681 391 2138 391 
Q 2594 391 2855 752 
Q 3116 1113 3116 1747 
z
M 1159 2969 
Q 1341 3281 1617 3432 
Q 1894 3584 2278 3584 
Q 2916 3584 3314 3078 
Q 3713 2572 3713 1747 
Q 3713 922 3314 415 
Q 2916 -91 2278 -91 
Q 1894 -91 1617 61 
Q 1341 213 1159 525 
L 1159 0 
L 581 0 
L 581 4863 
L 1159 4863 
L 1159 2969 
z
" transform="scale(0.015625)"/>
      <path id="DejaVuSans-63" d="M 3122 3366 
L 3122 2828 
Q 2878 2963 2633 3030 
Q 2388 3097 2138 3097 
Q 1578 3097 1268 2742 
Q 959 2388 959 1747 
Q 959 1106 1268 751 
Q 1578 397 2138 397 
Q 2388 397 2633 464 
Q 2878 531 3122 666 
L 3122 134 
Q 2881 22 2623 -34 
Q 2366 -91 2075 -91 
Q 1284 -91 818 406 
Q 353 903 353 1747 
Q 353 2603 823 3093 
Q 1294 3584 2113 3584 
Q 2378 3584 2631 3529 
Q 2884 3475 3122 3366 
z
" transform="scale(0.015625)"/>
      <path id="DejaVuSans-72" d="M 2631 2963 
Q 2534 3019 2420 3045 
Q 2306 3072 2169 3072 
Q 1681 3072 1420 2755 
Q 1159 2438 1159 1844 
L 1159 0 
L 581 0 
L 581 3500 
L 1159 3500 
L 1159 2956 
Q 1341 3275 1631 3429 
Q 1922 3584 2338 3584 
Q 2397 3584 2469 3576 
Q 2541 3569 2628 3553 
L 2631 2963 
z
" transform="scale(0.015625)"/>
      <path id="DejaVuSans-69" d="M 603 3500 
L 1178 3500 
L 1178 0 
L 603 0 
L 603 3500 
z
M 603 4863 
L 1178 4863 
L 1178 4134 
L 603 4134 
L 603 4863 
z
" transform="scale(0.015625)"/>
      <path id="DejaVuSans-20" transform="scale(0.015625)"/>
      <path id="DejaVuSans-68" d="M 3513 2113 
L 3513 0 
L 2938 0 
L 2938 2094 
Q 2938 2591 2744 2837 
Q 2550 3084 2163 3084 
Q 1697 3084 1428 2787 
Q 1159 2491 1159 1978 
L 1159 0 
L 581 0 
L 581 4863 
L 1159 4863 
L 1159 2956 
Q 1366 3272 1645 3428 
Q 1925 3584 2291 3584 
Q 2894 3584 3203 3211 
Q 3513 2838 3513 2113 
z
" transform="scale(0.015625)"/>
      <path id="DejaVuSans-6f" d="M 1959 3097 
Q 1497 3097 1228 2736 
Q 959 2375 959 1747 
Q 959 1119 1226 758 
Q 1494 397 1959 397 
Q 2419 397 2687 759 
Q 2956 1122 2956 1747 
Q 2956 2369 2687 2733 
Q 2419 3097 1959 3097 
z
M 1959 3584 
Q 2709 3584 3137 3096 
Q 3566 2609 3566 1747 
Q 3566 888 3137 398 
Q 2709 -91 1959 -91 
Q 1206 -91 779 398 
Q 353 888 353 1747 
Q 353 2609 779 3096 
Q 1206 3584 1959 3584 
z
" transform="scale(0.015625)"/>
      <path id="DejaVuSans-79" d="M 2059 -325 
Q 1816 -950 1584 -1140 
Q 1353 -1331 966 -1331 
L 506 -1331 
L 506 -850 
L 844 -850 
Q 1081 -850 1212 -737 
Q 1344 -625 1503 -206 
L 1606 56 
L 191 3500 
L 800 3500 
L 1894 763 
L 2988 3500 
L 3597 3500 
L 2059 -325 
z
" transform="scale(0.015625)"/>
     </defs>
     <use xlink:href="#DejaVuSans-67"/>
     <use xlink:href="#DejaVuSans-65" x="63.476562"/>
     <use xlink:href="#DejaVuSans-74" x="125"/>
     <use xlink:href="#DejaVuSans-5f" x="164.208984"/>
     <use xlink:href="#DejaVuSans-73" x="214.208984"/>
     <use xlink:href="#DejaVuSans-75" x="266.308594"/>
     <use xlink:href="#DejaVuSans-62" x="329.6875"/>
     <use xlink:href="#DejaVuSans-73" x="393.164062"/>
     <use xlink:href="#DejaVuSans-63" x="445.263672"/>
     <use xlink:href="#DejaVuSans-72" x="500.244141"/>
     <use xlink:href="#DejaVuSans-69" x="541.357422"/>
     <use xlink:href="#DejaVuSans-62" x="569.140625"/>
     <use xlink:href="#DejaVuSans-65" x="632.617188"/>
     <use xlink:href="#DejaVuSans-20" x="694.140625"/>
     <use xlink:href="#DejaVuSans-68" x="725.927734"/>
     <use xlink:href="#DejaVuSans-69" x="789.306641"/>
     <use xlink:href="#DejaVuSans-73" x="817.089844"/>
     <use xlink:href="#DejaVuSans-74" x="869.189453"/>
     <use xlink:href="#DejaVuSans-6f" x="908.398438"/>
     <use xlink:href="#DejaVuSans-72" x="969.580078"/>
     <use xlink:href="#DejaVuSans-79" x="1010.693359"/>
    </g>
   </g>
   <g id="legend_1">
    <g id="line2d_41">
     <path d="M 815.08 328.498438 
L 825.08 328.498438 
L 835.08 328.498438 
" style="fill: none; stroke: #1f77b4; stroke-width: 1.5; stroke-linecap: square"/>
    </g>
    <g id="text_21">
     <!-- star -->
     <g style="fill: #a9a9a9" transform="translate(843.08 331.998438) scale(0.1 -0.1)">
      <defs>
       <path id="DejaVuSans-61" d="M 2194 1759 
Q 1497 1759 1228 1600 
Q 959 1441 959 1056 
Q 959 750 1161 570 
Q 1363 391 1709 391 
Q 2188 391 2477 730 
Q 2766 1069 2766 1631 
L 2766 1759 
L 2194 1759 
z
M 3341 1997 
L 3341 0 
L 2766 0 
L 2766 531 
Q 2569 213 2275 61 
Q 1981 -91 1556 -91 
Q 1019 -91 701 211 
Q 384 513 384 1019 
Q 384 1609 779 1909 
Q 1175 2209 1959 2209 
L 2766 2209 
L 2766 2266 
Q 2766 2663 2505 2880 
Q 2244 3097 1772 3097 
Q 1472 3097 1187 3025 
Q 903 2953 641 2809 
L 641 3341 
Q 956 3463 1253 3523 
Q 1550 3584 1831 3584 
Q 2591 3584 2966 3190 
Q 3341 2797 3341 1997 
z
" transform="scale(0.015625)"/>
      </defs>
      <use xlink:href="#DejaVuSans-73"/>
      <use xlink:href="#DejaVuSans-74" x="52.099609"/>
      <use xlink:href="#DejaVuSans-61" x="91.308594"/>
      <use xlink:href="#DejaVuSans-72" x="152.587891"/>
     </g>
    </g>
    <g id="line2d_42">
     <path d="M 815.08 343.176562 
L 825.08 343.176562 
L 835.08 343.176562 
" style="fill: none; stroke: #ff7f0e; stroke-width: 1.5; stroke-linecap: square"/>
    </g>
    <g id="text_22">
     <!-- fork -->
     <g style="fill: #a9a9a9" transform="translate(843.08 346.676562) scale(0.1 -0.1)">
      <defs>
       <path id="DejaVuSans-66" d="M 2375 4863 
L 2375 4384 
L 1825 4384 
Q 1516 4384 1395 4259 
Q 1275 4134 1275 3809 
L 1275 3500 
L 2222 3500 
L 2222 3053 
L 1275 3053 
L 1275 0 
L 697 0 
L 697 3053 
L 147 3053 
L 147 3500 
L 697 3500 
L 697 3744 
Q 697 4328 969 4595 
Q 1241 4863 1831 4863 
L 2375 4863 
z
" transform="scale(0.015625)"/>
       <path id="DejaVuSans-6b" d="M 581 4863 
L 1159 4863 
L 1159 1991 
L 2875 3500 
L 3609 3500 
L 1753 1863 
L 3688 0 
L 2938 0 
L 1159 1709 
L 1159 0 
L 581 0 
L 581 4863 
z
" transform="scale(0.015625)"/>
      </defs>
      <use xlink:href="#DejaVuSans-66"/>
      <use xlink:href="#DejaVuSans-6f" x="35.205078"/>
      <use xlink:href="#DejaVuSans-72" x="96.386719"/>
      <use xlink:href="#DejaVuSans-6b" x="137.5"/>
     </g>
    </g>
   </g>
  </g>
 </g>
 <defs>
  <clipPath id="p5bce9c51f6">
   <rect x="108" y="43.2" width="669.6" height="277.2"/>
  </clipPath>
 </defs>
</svg>
