<?xml version="1.0" encoding="utf-8" standalone="no"?>
<!DOCTYPE svg PUBLIC "-//W3C//DTD SVG 1.1//EN"
  "http://www.w3.org/Graphics/SVG/1.1/DTD/svg11.dtd">
<svg xmlns:xlink="http://www.w3.org/1999/xlink" width="864pt" height="360pt" viewBox="0 0 864 360" xmlns="http://www.w3.org/2000/svg" version="1.1">
 <metadata>
  <rdf:RDF xmlns:dc="http://purl.org/dc/elements/1.1/" xmlns:cc="http://creativecommons.org/ns#" xmlns:rdf="http://www.w3.org/1999/02/22-rdf-syntax-ns#">
   <cc:Work>
    <dc:type rdf:resource="http://purl.org/dc/dcmitype/StillImage"/>
    <dc:date>2024-02-29T08:10:10.259180</dc:date>
    <dc:format>image/svg+xml</dc:format>
    <dc:creator>
     <cc:Agent>
      <dc:title>Matplotlib v3.8.3, https://matplotlib.org/</dc:title>
     </cc:Agent>
    </dc:creator>
   </cc:Work>
  </rdf:RDF>
 </metadata>
 <defs>
  <style type="text/css">*{stroke-linejoin: round; stroke-linecap: butt}</style>
 </defs>
 <g id="figure_1">
  <g id="patch_1">
   <path d="M 0 360 
L 864 360 
L 864 0 
L 0 0 
L 0 360 
z
" style="fill: none; opacity: 0"/>
  </g>
  <g id="axes_1">
   <g id="patch_2">
    <path d="M 108 320.4 
L 777.6 320.4 
L 777.6 43.2 
L 108 43.2 
L 108 320.4 
z
" style="fill: none; opacity: 0"/>
   </g>
   <g id="matplotlib.axis_1">
    <g id="xtick_1">
     <g id="line2d_1">
      <path d="M 163.42622 320.4 
L 163.42622 43.2 
" clip-path="url(#p278cc0c75b)" style="fill: none; stroke-dasharray: 5.12,1.28,0.8,1.28; stroke-dashoffset: 0; stroke: #b0b0b0; stroke-width: 0.8"/>
     </g>
     <g id="line2d_2">
      <defs>
       <path id="m6b31ba07ca" d="M 0 0 
L 0 3.5 
" style="stroke: #a9a9a9; stroke-width: 0.8"/>
      </defs>
      <g>
       <use xlink:href="#m6b31ba07ca" x="163.42622" y="320.4" style="fill: #a9a9a9; stroke: #a9a9a9; stroke-width: 0.8"/>
      </g>
     </g>
     <g id="text_1">
      <!-- 2021-09 -->
      <g style="fill: #a9a9a9" transform="translate(142.534814 334.998438) scale(0.1 -0.1)">
       <defs>
        <path id="DejaVuSans-32" d="M 1228 531 
L 3431 531 
L 3431 0 
L 469 0 
L 469 531 
Q 828 903 1448 1529 
Q 2069 2156 2228 2338 
Q 2531 2678 2651 2914 
Q 2772 3150 2772 3378 
Q 2772 3750 2511 3984 
Q 2250 4219 1831 4219 
Q 1534 4219 1204 4116 
Q 875 4013 500 3803 
L 500 4441 
Q 881 4594 1212 4672 
Q 1544 4750 1819 4750 
Q 2544 4750 2975 4387 
Q 3406 4025 3406 3419 
Q 3406 3131 3298 2873 
Q 3191 2616 2906 2266 
Q 2828 2175 2409 1742 
Q 1991 1309 1228 531 
z
" transform="scale(0.015625)"/>
        <path id="DejaVuSans-30" d="M 2034 4250 
Q 1547 4250 1301 3770 
Q 1056 3291 1056 2328 
Q 1056 1369 1301 889 
Q 1547 409 2034 409 
Q 2525 409 2770 889 
Q 3016 1369 3016 2328 
Q 3016 3291 2770 3770 
Q 2525 4250 2034 4250 
z
M 2034 4750 
Q 2819 4750 3233 4129 
Q 3647 3509 3647 2328 
Q 3647 1150 3233 529 
Q 2819 -91 2034 -91 
Q 1250 -91 836 529 
Q 422 1150 422 2328 
Q 422 3509 836 4129 
Q 1250 4750 2034 4750 
z
" transform="scale(0.015625)"/>
        <path id="DejaVuSans-31" d="M 794 531 
L 1825 531 
L 1825 4091 
L 703 3866 
L 703 4441 
L 1819 4666 
L 2450 4666 
L 2450 531 
L 3481 531 
L 3481 0 
L 794 0 
L 794 531 
z
" transform="scale(0.015625)"/>
        <path id="DejaVuSans-2d" d="M 313 2009 
L 1997 2009 
L 1997 1497 
L 313 1497 
L 313 2009 
z
" transform="scale(0.015625)"/>
        <path id="DejaVuSans-39" d="M 703 97 
L 703 672 
Q 941 559 1184 500 
Q 1428 441 1663 441 
Q 2288 441 2617 861 
Q 2947 1281 2994 2138 
Q 2813 1869 2534 1725 
Q 2256 1581 1919 1581 
Q 1219 1581 811 2004 
Q 403 2428 403 3163 
Q 403 3881 828 4315 
Q 1253 4750 1959 4750 
Q 2769 4750 3195 4129 
Q 3622 3509 3622 2328 
Q 3622 1225 3098 567 
Q 2575 -91 1691 -91 
Q 1453 -91 1209 -44 
Q 966 3 703 97 
z
M 1959 2075 
Q 2384 2075 2632 2365 
Q 2881 2656 2881 3163 
Q 2881 3666 2632 3958 
Q 2384 4250 1959 4250 
Q 1534 4250 1286 3958 
Q 1038 3666 1038 3163 
Q 1038 2656 1286 2365 
Q 1534 2075 1959 2075 
z
" transform="scale(0.015625)"/>
       </defs>
       <use xlink:href="#DejaVuSans-32"/>
       <use xlink:href="#DejaVuSans-30" x="63.623047"/>
       <use xlink:href="#DejaVuSans-32" x="127.246094"/>
       <use xlink:href="#DejaVuSans-31" x="190.869141"/>
       <use xlink:href="#DejaVuSans-2d" x="254.492188"/>
       <use xlink:href="#DejaVuSans-30" x="290.576172"/>
       <use xlink:href="#DejaVuSans-39" x="354.199219"/>
      </g>
     </g>
    </g>
    <g id="xtick_2">
     <g id="line2d_3">
      <path d="M 241.599617 320.4 
L 241.599617 43.2 
" clip-path="url(#p278cc0c75b)" style="fill: none; stroke-dasharray: 5.12,1.28,0.8,1.28; stroke-dashoffset: 0; stroke: #b0b0b0; stroke-width: 0.8"/>
     </g>
     <g id="line2d_4">
      <g>
       <use xlink:href="#m6b31ba07ca" x="241.599617" y="320.4" style="fill: #a9a9a9; stroke: #a9a9a9; stroke-width: 0.8"/>
      </g>
     </g>
     <g id="text_2">
      <!-- 2022-01 -->
      <g style="fill: #a9a9a9" transform="translate(220.708211 334.998438) scale(0.1 -0.1)">
       <use xlink:href="#DejaVuSans-32"/>
       <use xlink:href="#DejaVuSans-30" x="63.623047"/>
       <use xlink:href="#DejaVuSans-32" x="127.246094"/>
       <use xlink:href="#DejaVuSans-32" x="190.869141"/>
       <use xlink:href="#DejaVuSans-2d" x="254.492188"/>
       <use xlink:href="#DejaVuSans-30" x="290.576172"/>
       <use xlink:href="#DejaVuSans-31" x="354.199219"/>
      </g>
     </g>
    </g>
    <g id="xtick_3">
     <g id="line2d_5">
      <path d="M 318.491483 320.4 
L 318.491483 43.2 
" clip-path="url(#p278cc0c75b)" style="fill: none; stroke-dasharray: 5.12,1.28,0.8,1.28; stroke-dashoffset: 0; stroke: #b0b0b0; stroke-width: 0.8"/>
     </g>
     <g id="line2d_6">
      <g>
       <use xlink:href="#m6b31ba07ca" x="318.491483" y="320.4" style="fill: #a9a9a9; stroke: #a9a9a9; stroke-width: 0.8"/>
      </g>
     </g>
     <g id="text_3">
      <!-- 2022-05 -->
      <g style="fill: #a9a9a9" transform="translate(297.600077 334.998438) scale(0.1 -0.1)">
       <defs>
        <path id="DejaVuSans-35" d="M 691 4666 
L 3169 4666 
L 3169 4134 
L 1269 4134 
L 1269 2991 
Q 1406 3038 1543 3061 
Q 1681 3084 1819 3084 
Q 2600 3084 3056 2656 
Q 3513 2228 3513 1497 
Q 3513 744 3044 326 
Q 2575 -91 1722 -91 
Q 1428 -91 1123 -41 
Q 819 9 494 109 
L 494 744 
Q 775 591 1075 516 
Q 1375 441 1709 441 
Q 2250 441 2565 725 
Q 2881 1009 2881 1497 
Q 2881 1984 2565 2268 
Q 2250 2553 1709 2553 
Q 1456 2553 1204 2497 
Q 953 2441 691 2322 
L 691 4666 
z
" transform="scale(0.015625)"/>
       </defs>
       <use xlink:href="#DejaVuSans-32"/>
       <use xlink:href="#DejaVuSans-30" x="63.623047"/>
       <use xlink:href="#DejaVuSans-32" x="127.246094"/>
       <use xlink:href="#DejaVuSans-32" x="190.869141"/>
       <use xlink:href="#DejaVuSans-2d" x="254.492188"/>
       <use xlink:href="#DejaVuSans-30" x="290.576172"/>
       <use xlink:href="#DejaVuSans-35" x="354.199219"/>
      </g>
     </g>
    </g>
    <g id="xtick_4">
     <g id="line2d_7">
      <path d="M 397.305646 320.4 
L 397.305646 43.2 
" clip-path="url(#p278cc0c75b)" style="fill: none; stroke-dasharray: 5.12,1.28,0.8,1.28; stroke-dashoffset: 0; stroke: #b0b0b0; stroke-width: 0.8"/>
     </g>
     <g id="line2d_8">
      <g>
       <use xlink:href="#m6b31ba07ca" x="397.305646" y="320.4" style="fill: #a9a9a9; stroke: #a9a9a9; stroke-width: 0.8"/>
      </g>
     </g>
     <g id="text_4">
      <!-- 2022-09 -->
      <g style="fill: #a9a9a9" transform="translate(376.41424 334.998438) scale(0.1 -0.1)">
       <use xlink:href="#DejaVuSans-32"/>
       <use xlink:href="#DejaVuSans-30" x="63.623047"/>
       <use xlink:href="#DejaVuSans-32" x="127.246094"/>
       <use xlink:href="#DejaVuSans-32" x="190.869141"/>
       <use xlink:href="#DejaVuSans-2d" x="254.492188"/>
       <use xlink:href="#DejaVuSans-30" x="290.576172"/>
       <use xlink:href="#DejaVuSans-39" x="354.199219"/>
      </g>
     </g>
    </g>
    <g id="xtick_5">
     <g id="line2d_9">
      <path d="M 475.479043 320.4 
L 475.479043 43.2 
" clip-path="url(#p278cc0c75b)" style="fill: none; stroke-dasharray: 5.12,1.28,0.8,1.28; stroke-dashoffset: 0; stroke: #b0b0b0; stroke-width: 0.8"/>
     </g>
     <g id="line2d_10">
      <g>
       <use xlink:href="#m6b31ba07ca" x="475.479043" y="320.4" style="fill: #a9a9a9; stroke: #a9a9a9; stroke-width: 0.8"/>
      </g>
     </g>
     <g id="text_5">
      <!-- 2023-01 -->
      <g style="fill: #a9a9a9" transform="translate(454.587637 334.998438) scale(0.1 -0.1)">
       <defs>
        <path id="DejaVuSans-33" d="M 2597 2516 
Q 3050 2419 3304 2112 
Q 3559 1806 3559 1356 
Q 3559 666 3084 287 
Q 2609 -91 1734 -91 
Q 1441 -91 1130 -33 
Q 819 25 488 141 
L 488 750 
Q 750 597 1062 519 
Q 1375 441 1716 441 
Q 2309 441 2620 675 
Q 2931 909 2931 1356 
Q 2931 1769 2642 2001 
Q 2353 2234 1838 2234 
L 1294 2234 
L 1294 2753 
L 1863 2753 
Q 2328 2753 2575 2939 
Q 2822 3125 2822 3475 
Q 2822 3834 2567 4026 
Q 2313 4219 1838 4219 
Q 1578 4219 1281 4162 
Q 984 4106 628 3988 
L 628 4550 
Q 988 4650 1302 4700 
Q 1616 4750 1894 4750 
Q 2613 4750 3031 4423 
Q 3450 4097 3450 3541 
Q 3450 3153 3228 2886 
Q 3006 2619 2597 2516 
z
" transform="scale(0.015625)"/>
       </defs>
       <use xlink:href="#DejaVuSans-32"/>
       <use xlink:href="#DejaVuSans-30" x="63.623047"/>
       <use xlink:href="#DejaVuSans-32" x="127.246094"/>
       <use xlink:href="#DejaVuSans-33" x="190.869141"/>
       <use xlink:href="#DejaVuSans-2d" x="254.492188"/>
       <use xlink:href="#DejaVuSans-30" x="290.576172"/>
       <use xlink:href="#DejaVuSans-31" x="354.199219"/>
      </g>
     </g>
    </g>
    <g id="xtick_6">
     <g id="line2d_11">
      <path d="M 552.370909 320.4 
L 552.370909 43.2 
" clip-path="url(#p278cc0c75b)" style="fill: none; stroke-dasharray: 5.12,1.28,0.8,1.28; stroke-dashoffset: 0; stroke: #b0b0b0; stroke-width: 0.8"/>
     </g>
     <g id="line2d_12">
      <g>
       <use xlink:href="#m6b31ba07ca" x="552.370909" y="320.4" style="fill: #a9a9a9; stroke: #a9a9a9; stroke-width: 0.8"/>
      </g>
     </g>
     <g id="text_6">
      <!-- 2023-05 -->
      <g style="fill: #a9a9a9" transform="translate(531.479503 334.998438) scale(0.1 -0.1)">
       <use xlink:href="#DejaVuSans-32"/>
       <use xlink:href="#DejaVuSans-30" x="63.623047"/>
       <use xlink:href="#DejaVuSans-32" x="127.246094"/>
       <use xlink:href="#DejaVuSans-33" x="190.869141"/>
       <use xlink:href="#DejaVuSans-2d" x="254.492188"/>
       <use xlink:href="#DejaVuSans-30" x="290.576172"/>
       <use xlink:href="#DejaVuSans-35" x="354.199219"/>
      </g>
     </g>
    </g>
    <g id="xtick_7">
     <g id="line2d_13">
      <path d="M 631.185072 320.4 
L 631.185072 43.2 
" clip-path="url(#p278cc0c75b)" style="fill: none; stroke-dasharray: 5.12,1.28,0.8,1.28; stroke-dashoffset: 0; stroke: #b0b0b0; stroke-width: 0.8"/>
     </g>
     <g id="line2d_14">
      <g>
       <use xlink:href="#m6b31ba07ca" x="631.185072" y="320.4" style="fill: #a9a9a9; stroke: #a9a9a9; stroke-width: 0.8"/>
      </g>
     </g>
     <g id="text_7">
      <!-- 2023-09 -->
      <g style="fill: #a9a9a9" transform="translate(610.293666 334.998438) scale(0.1 -0.1)">
       <use xlink:href="#DejaVuSans-32"/>
       <use xlink:href="#DejaVuSans-30" x="63.623047"/>
       <use xlink:href="#DejaVuSans-32" x="127.246094"/>
       <use xlink:href="#DejaVuSans-33" x="190.869141"/>
       <use xlink:href="#DejaVuSans-2d" x="254.492188"/>
       <use xlink:href="#DejaVuSans-30" x="290.576172"/>
       <use xlink:href="#DejaVuSans-39" x="354.199219"/>
      </g>
     </g>
    </g>
    <g id="xtick_8">
     <g id="line2d_15">
      <path d="M 709.358469 320.4 
L 709.358469 43.2 
" clip-path="url(#p278cc0c75b)" style="fill: none; stroke-dasharray: 5.12,1.28,0.8,1.28; stroke-dashoffset: 0; stroke: #b0b0b0; stroke-width: 0.8"/>
     </g>
     <g id="line2d_16">
      <g>
       <use xlink:href="#m6b31ba07ca" x="709.358469" y="320.4" style="fill: #a9a9a9; stroke: #a9a9a9; stroke-width: 0.8"/>
      </g>
     </g>
     <g id="text_8">
      <!-- 2024-01 -->
      <g style="fill: #a9a9a9" transform="translate(688.467063 334.998438) scale(0.1 -0.1)">
       <defs>
        <path id="DejaVuSans-34" d="M 2419 4116 
L 825 1625 
L 2419 1625 
L 2419 4116 
z
M 2253 4666 
L 3047 4666 
L 3047 1625 
L 3713 1625 
L 3713 1100 
L 3047 1100 
L 3047 0 
L 2419 0 
L 2419 1100 
L 313 1100 
L 313 1709 
L 2253 4666 
z
" transform="scale(0.015625)"/>
       </defs>
       <use xlink:href="#DejaVuSans-32"/>
       <use xlink:href="#DejaVuSans-30" x="63.623047"/>
       <use xlink:href="#DejaVuSans-32" x="127.246094"/>
       <use xlink:href="#DejaVuSans-34" x="190.869141"/>
       <use xlink:href="#DejaVuSans-2d" x="254.492188"/>
       <use xlink:href="#DejaVuSans-30" x="290.576172"/>
       <use xlink:href="#DejaVuSans-31" x="354.199219"/>
      </g>
     </g>
    </g>
   </g>
   <g id="matplotlib.axis_2">
    <g id="ytick_1">
     <g id="line2d_17">
      <path d="M 108 307.84428 
L 777.6 307.84428 
" clip-path="url(#p278cc0c75b)" style="fill: none; stroke-dasharray: 5.12,1.28,0.8,1.28; stroke-dashoffset: 0; stroke: #b0b0b0; stroke-width: 0.8"/>
     </g>
     <g id="line2d_18">
      <defs>
       <path id="mf01f5f5182" d="M 0 0 
L -3.5 0 
" style="stroke: #a9a9a9; stroke-width: 0.8"/>
      </defs>
      <g>
       <use xlink:href="#mf01f5f5182" x="108" y="307.84428" style="fill: #a9a9a9; stroke: #a9a9a9; stroke-width: 0.8"/>
      </g>
     </g>
     <g id="text_9">
      <!-- 0 -->
      <g style="fill: #a9a9a9" transform="translate(94.6375 311.643499) scale(0.1 -0.1)">
       <use xlink:href="#DejaVuSans-30"/>
      </g>
     </g>
    </g>
    <g id="ytick_2">
     <g id="line2d_19">
      <path d="M 108 272.419926 
L 777.6 272.419926 
" clip-path="url(#p278cc0c75b)" style="fill: none; stroke-dasharray: 5.12,1.28,0.8,1.28; stroke-dashoffset: 0; stroke: #b0b0b0; stroke-width: 0.8"/>
     </g>
     <g id="line2d_20">
      <g>
       <use xlink:href="#mf01f5f5182" x="108" y="272.419926" style="fill: #a9a9a9; stroke: #a9a9a9; stroke-width: 0.8"/>
      </g>
     </g>
     <g id="text_10">
      <!-- 800 -->
      <g style="fill: #a9a9a9" transform="translate(81.9125 276.219145) scale(0.1 -0.1)">
       <defs>
        <path id="DejaVuSans-38" d="M 2034 2216 
Q 1584 2216 1326 1975 
Q 1069 1734 1069 1313 
Q 1069 891 1326 650 
Q 1584 409 2034 409 
Q 2484 409 2743 651 
Q 3003 894 3003 1313 
Q 3003 1734 2745 1975 
Q 2488 2216 2034 2216 
z
M 1403 2484 
Q 997 2584 770 2862 
Q 544 3141 544 3541 
Q 544 4100 942 4425 
Q 1341 4750 2034 4750 
Q 2731 4750 3128 4425 
Q 3525 4100 3525 3541 
Q 3525 3141 3298 2862 
Q 3072 2584 2669 2484 
Q 3125 2378 3379 2068 
Q 3634 1759 3634 1313 
Q 3634 634 3220 271 
Q 2806 -91 2034 -91 
Q 1263 -91 848 271 
Q 434 634 434 1313 
Q 434 1759 690 2068 
Q 947 2378 1403 2484 
z
M 1172 3481 
Q 1172 3119 1398 2916 
Q 1625 2713 2034 2713 
Q 2441 2713 2670 2916 
Q 2900 3119 2900 3481 
Q 2900 3844 2670 4047 
Q 2441 4250 2034 4250 
Q 1625 4250 1398 4047 
Q 1172 3844 1172 3481 
z
" transform="scale(0.015625)"/>
       </defs>
       <use xlink:href="#DejaVuSans-38"/>
       <use xlink:href="#DejaVuSans-30" x="63.623047"/>
       <use xlink:href="#DejaVuSans-30" x="127.246094"/>
      </g>
     </g>
    </g>
    <g id="ytick_3">
     <g id="line2d_21">
      <path d="M 108 236.995572 
L 777.6 236.995572 
" clip-path="url(#p278cc0c75b)" style="fill: none; stroke-dasharray: 5.12,1.28,0.8,1.28; stroke-dashoffset: 0; stroke: #b0b0b0; stroke-width: 0.8"/>
     </g>
     <g id="line2d_22">
      <g>
       <use xlink:href="#mf01f5f5182" x="108" y="236.995572" style="fill: #a9a9a9; stroke: #a9a9a9; stroke-width: 0.8"/>
      </g>
     </g>
     <g id="text_11">
      <!-- 1600 -->
      <g style="fill: #a9a9a9" transform="translate(75.55 240.794791) scale(0.1 -0.1)">
       <defs>
        <path id="DejaVuSans-36" d="M 2113 2584 
Q 1688 2584 1439 2293 
Q 1191 2003 1191 1497 
Q 1191 994 1439 701 
Q 1688 409 2113 409 
Q 2538 409 2786 701 
Q 3034 994 3034 1497 
Q 3034 2003 2786 2293 
Q 2538 2584 2113 2584 
z
M 3366 4563 
L 3366 3988 
Q 3128 4100 2886 4159 
Q 2644 4219 2406 4219 
Q 1781 4219 1451 3797 
Q 1122 3375 1075 2522 
Q 1259 2794 1537 2939 
Q 1816 3084 2150 3084 
Q 2853 3084 3261 2657 
Q 3669 2231 3669 1497 
Q 3669 778 3244 343 
Q 2819 -91 2113 -91 
Q 1303 -91 875 529 
Q 447 1150 447 2328 
Q 447 3434 972 4092 
Q 1497 4750 2381 4750 
Q 2619 4750 2861 4703 
Q 3103 4656 3366 4563 
z
" transform="scale(0.015625)"/>
       </defs>
       <use xlink:href="#DejaVuSans-31"/>
       <use xlink:href="#DejaVuSans-36" x="63.623047"/>
       <use xlink:href="#DejaVuSans-30" x="127.246094"/>
       <use xlink:href="#DejaVuSans-30" x="190.869141"/>
      </g>
     </g>
    </g>
    <g id="ytick_4">
     <g id="line2d_23">
      <path d="M 108 201.571218 
L 777.6 201.571218 
" clip-path="url(#p278cc0c75b)" style="fill: none; stroke-dasharray: 5.12,1.28,0.8,1.28; stroke-dashoffset: 0; stroke: #b0b0b0; stroke-width: 0.8"/>
     </g>
     <g id="line2d_24">
      <g>
       <use xlink:href="#mf01f5f5182" x="108" y="201.571218" style="fill: #a9a9a9; stroke: #a9a9a9; stroke-width: 0.8"/>
      </g>
     </g>
     <g id="text_12">
      <!-- 2400 -->
      <g style="fill: #a9a9a9" transform="translate(75.55 205.370436) scale(0.1 -0.1)">
       <use xlink:href="#DejaVuSans-32"/>
       <use xlink:href="#DejaVuSans-34" x="63.623047"/>
       <use xlink:href="#DejaVuSans-30" x="127.246094"/>
       <use xlink:href="#DejaVuSans-30" x="190.869141"/>
      </g>
     </g>
    </g>
    <g id="ytick_5">
     <g id="line2d_25">
      <path d="M 108 166.146863 
L 777.6 166.146863 
" clip-path="url(#p278cc0c75b)" style="fill: none; stroke-dasharray: 5.12,1.28,0.8,1.28; stroke-dashoffset: 0; stroke: #b0b0b0; stroke-width: 0.8"/>
     </g>
     <g id="line2d_26">
      <g>
       <use xlink:href="#mf01f5f5182" x="108" y="166.146863" style="fill: #a9a9a9; stroke: #a9a9a9; stroke-width: 0.8"/>
      </g>
     </g>
     <g id="text_13">
      <!-- 3200 -->
      <g style="fill: #a9a9a9" transform="translate(75.55 169.946082) scale(0.1 -0.1)">
       <use xlink:href="#DejaVuSans-33"/>
       <use xlink:href="#DejaVuSans-32" x="63.623047"/>
       <use xlink:href="#DejaVuSans-30" x="127.246094"/>
       <use xlink:href="#DejaVuSans-30" x="190.869141"/>
      </g>
     </g>
    </g>
    <g id="ytick_6">
     <g id="line2d_27">
      <path d="M 108 130.722509 
L 777.6 130.722509 
" clip-path="url(#p278cc0c75b)" style="fill: none; stroke-dasharray: 5.12,1.28,0.8,1.28; stroke-dashoffset: 0; stroke: #b0b0b0; stroke-width: 0.8"/>
     </g>
     <g id="line2d_28">
      <g>
       <use xlink:href="#mf01f5f5182" x="108" y="130.722509" style="fill: #a9a9a9; stroke: #a9a9a9; stroke-width: 0.8"/>
      </g>
     </g>
     <g id="text_14">
      <!-- 4000 -->
      <g style="fill: #a9a9a9" transform="translate(75.55 134.521728) scale(0.1 -0.1)">
       <use xlink:href="#DejaVuSans-34"/>
       <use xlink:href="#DejaVuSans-30" x="63.623047"/>
       <use xlink:href="#DejaVuSans-30" x="127.246094"/>
       <use xlink:href="#DejaVuSans-30" x="190.869141"/>
      </g>
     </g>
    </g>
    <g id="ytick_7">
     <g id="line2d_29">
      <path d="M 108 95.298155 
L 777.6 95.298155 
" clip-path="url(#p278cc0c75b)" style="fill: none; stroke-dasharray: 5.12,1.28,0.8,1.28; stroke-dashoffset: 0; stroke: #b0b0b0; stroke-width: 0.8"/>
     </g>
     <g id="line2d_30">
      <g>
       <use xlink:href="#mf01f5f5182" x="108" y="95.298155" style="fill: #a9a9a9; stroke: #a9a9a9; stroke-width: 0.8"/>
      </g>
     </g>
     <g id="text_15">
      <!-- 4800 -->
      <g style="fill: #a9a9a9" transform="translate(75.55 99.097374) scale(0.1 -0.1)">
       <use xlink:href="#DejaVuSans-34"/>
       <use xlink:href="#DejaVuSans-38" x="63.623047"/>
       <use xlink:href="#DejaVuSans-30" x="127.246094"/>
       <use xlink:href="#DejaVuSans-30" x="190.869141"/>
      </g>
     </g>
    </g>
    <g id="ytick_8">
     <g id="line2d_31">
      <path d="M 108 59.873801 
L 777.6 59.873801 
" clip-path="url(#p278cc0c75b)" style="fill: none; stroke-dasharray: 5.12,1.28,0.8,1.28; stroke-dashoffset: 0; stroke: #b0b0b0; stroke-width: 0.8"/>
     </g>
     <g id="line2d_32">
      <g>
       <use xlink:href="#mf01f5f5182" x="108" y="59.873801" style="fill: #a9a9a9; stroke: #a9a9a9; stroke-width: 0.8"/>
      </g>
     </g>
     <g id="text_16">
      <!-- 5600 -->
      <g style="fill: #a9a9a9" transform="translate(75.55 63.673019) scale(0.1 -0.1)">
       <use xlink:href="#DejaVuSans-35"/>
       <use xlink:href="#DejaVuSans-36" x="63.623047"/>
       <use xlink:href="#DejaVuSans-30" x="127.246094"/>
       <use xlink:href="#DejaVuSans-30" x="190.869141"/>
      </g>
     </g>
    </g>
   </g>
   <g id="line2d_33">
    <path d="M 138.436364 307.711439 
L 142.280957 307.401476 
L 142.921722 307.135793 
L 144.844019 306.914391 
L 148.688612 306.161624 
L 152.533206 305.851661 
L 153.173971 305.541697 
L 153.814737 305.364576 
L 154.455502 304.567528 
L 155.096268 304.124723 
L 155.737033 302.75203 
L 156.377799 302.663469 
L 157.018565 302.176384 
L 158.300096 301.556458 
L 160.863158 299.608118 
L 162.144689 299.076753 
L 162.785455 298.633948 
L 165.348517 297.526937 
L 165.989282 296.508487 
L 167.270813 295.578598 
L 167.911579 295.268635 
L 174.319234 294.383026 
L 174.96 294.073063 
L 179.445359 293.718819 
L 181.367656 293.231734 
L 187.134545 292.478967 
L 187.775311 292.124723 
L 188.416077 292.036162 
L 189.056842 291.77048 
L 190.338373 291.549077 
L 190.979139 291.504797 
L 191.619904 291.283395 
L 194.182967 290.884871 
L 195.464498 290.530627 
L 197.386794 290.353506 
L 198.668325 290.220664 
L 199.309091 290.043542 
L 199.949856 289.999262 
L 201.872153 289.423616 
L 205.716746 288.84797 
L 206.357512 288.670849 
L 206.998278 287.78524 
L 208.920574 287.076753 
L 210.842871 286.545387 
L 211.483636 286.235424 
L 212.124402 286.191144 
L 215.32823 285.305535 
L 216.609761 285.216974 
L 217.250526 285.128413 
L 219.172823 284.552768 
L 221.735885 283.932841 
L 222.376651 283.667159 
L 223.017416 283.578598 
L 223.658182 283.268635 
L 230.065837 282.294465 
L 233.269665 281.408856 
L 233.910431 281.010332 
L 236.473493 280.346125 
L 237.755024 279.593358 
L 238.395789 279.150554 
L 240.318086 278.79631 
L 244.162679 277.645018 
L 245.444211 277.246494 
L 246.084976 277.157934 
L 247.366507 276.80369 
L 248.648038 276.493727 
L 249.288804 276.405166 
L 250.570335 275.873801 
L 251.2111 275.740959 
L 251.851866 275.475277 
L 252.492632 275.386716 
L 253.133397 275.076753 
L 253.774163 274.899631 
L 255.055694 274.81107 
L 256.337225 274.368266 
L 257.618756 274.279705 
L 258.259522 273.969742 
L 260.822584 273.526937 
L 263.385646 273.305535 
L 264.026411 273.172694 
L 265.307943 272.552768 
L 272.356364 269.585978 
L 272.997129 269.231734 
L 273.637895 268.523247 
L 274.27866 267.460517 
L 274.919426 266.619188 
L 275.560191 266.442066 
L 276.200957 266.442066 
L 277.482488 265.512177 
L 278.123254 265.335055 
L 278.764019 264.980812 
L 279.404785 264.84797 
L 280.04555 264.272325 
L 280.686316 264.095203 
L 282.608612 263.165314 
L 283.890144 261.394096 
L 284.530909 260.995572 
L 285.171675 259.932841 
L 285.81244 259.268635 
L 286.453206 258.958672 
L 287.093971 258.78155 
L 289.657033 257.276015 
L 290.938565 256.257565 
L 291.57933 255.859041 
L 292.220096 254.929151 
L 292.860861 253.467897 
L 293.501627 252.538007 
L 294.142392 252.050923 
L 294.783158 251.78524 
L 297.34622 249.571218 
L 298.627751 248.552768 
L 299.268517 248.021402 
L 299.909282 247.180074 
L 301.190813 246.073063 
L 303.753876 244.434686 
L 304.394641 243.859041 
L 305.035407 243.726199 
L 305.676172 243.460517 
L 306.957703 242.75203 
L 308.88 241.77786 
L 310.161531 240.582288 
L 310.802297 239.82952 
L 312.083828 238.943911 
L 312.724593 238.76679 
L 313.365359 238.456827 
L 314.64689 237.615498 
L 315.287656 237.261255 
L 315.928421 237.172694 
L 317.209952 236.464207 
L 317.850718 236.109963 
L 318.491483 235.445756 
L 319.132249 235.047232 
L 319.773014 234.82583 
L 321.054545 234.073063 
L 321.695311 233.718819 
L 322.336077 233.497417 
L 324.258373 232.257565 
L 326.18067 231.681919 
L 326.821435 231.239114 
L 327.462201 231.106273 
L 328.743732 230.663469 
L 330.666029 229.910701 
L 332.588325 229.202214 
L 333.869856 228.980812 
L 335.151388 227.873801 
L 336.432919 227.253875 
L 338.355215 226.146863 
L 339.636746 225.79262 
L 340.277512 225.394096 
L 340.918278 225.216974 
L 342.840574 224.021402 
L 346.044402 223.268635 
L 347.966699 222.161624 
L 348.607464 222.073063 
L 349.24823 221.851661 
L 350.529761 221.585978 
L 352.452057 220.169004 
L 354.374354 219.726199 
L 355.01512 219.504797 
L 355.655885 219.017712 
L 359.500478 217.77786 
L 360.141244 217.733579 
L 364.626603 216.139483 
L 365.267368 215.82952 
L 367.189665 215.386716 
L 368.471196 215.076753 
L 369.111962 214.76679 
L 369.752727 214.633948 
L 371.675024 213.748339 
L 373.597321 212.81845 
L 374.238086 212.375646 
L 374.878852 212.198524 
L 376.801148 211.180074 
L 378.082679 210.870111 
L 379.364211 210.205904 
L 380.645742 209.851661 
L 381.286507 209.7631 
L 382.568038 209.010332 
L 383.208804 208.877491 
L 384.490335 208.346125 
L 385.1311 208.213284 
L 385.771866 207.859041 
L 388.334928 207.460517 
L 389.616459 206.84059 
L 390.257225 206.309225 
L 390.89799 205.202214 
L 392.179522 204.936531 
L 392.820287 204.80369 
L 395.383349 203.475277 
L 396.024115 203.342435 
L 401.150239 200.907011 
L 403.072536 200.508487 
L 403.713301 200.154244 
L 407.557895 198.82583 
L 408.839426 198.028782 
L 410.120957 197.276015 
L 410.761722 197.187454 
L 411.402488 196.966052 
L 412.043254 196.921771 
L 415.247081 196.080443 
L 415.887847 195.593358 
L 417.169378 195.150554 
L 419.091675 194.530627 
L 419.73244 194.132103 
L 420.373206 193.954982 
L 421.013971 193.512177 
L 421.654737 193.246494 
L 422.295502 192.84797 
L 423.577033 192.405166 
L 425.49933 191.78524 
L 426.140096 191.475277 
L 428.062392 190.014022 
L 428.703158 189.881181 
L 429.984689 188.907011 
L 430.625455 188.77417 
L 431.26622 187.8 
L 431.906986 187.534317 
L 432.547751 187.047232 
L 433.188517 186.958672 
L 434.470048 186.205904 
L 435.110813 186.073063 
L 435.751579 185.80738 
L 436.392344 185.320295 
L 437.03311 185.098893 
L 438.955407 183.81476 
L 441.518469 182.530627 
L 442.159234 182.442066 
L 443.440766 181.866421 
L 444.081531 181.512177 
L 444.722297 180.449446 
L 445.363062 179.873801 
L 446.003828 179.519557 
L 446.644593 179.386716 
L 447.926124 178.589668 
L 448.56689 178.456827 
L 449.848421 177.8369 
L 451.770718 177.039852 
L 453.052249 176.154244 
L 454.33378 174.82583 
L 457.537608 172.523247 
L 458.819139 171.460517 
L 459.459904 171.194834 
L 460.10067 170.486347 
L 460.741435 169.999262 
L 462.022967 169.556458 
L 462.663732 169.025092 
L 463.945263 168.360886 
L 464.586029 168.183764 
L 465.226794 167.740959 
L 465.86756 167.608118 
L 467.789856 166.589668 
L 469.071388 165.8369 
L 475.479043 163.578598 
L 476.119809 163.002952 
L 478.042105 162.294465 
L 479.323636 161.895941 
L 479.964402 161.408856 
L 482.527464 160.080443 
L 483.16823 159.726199 
L 484.449761 157.202214 
L 485.731292 155.696679 
L 487.012823 154.943911 
L 488.93512 154.191144 
L 489.575885 154.102583 
L 490.216651 153.748339 
L 492.138947 153.172694 
L 494.70201 152.021402 
L 495.342775 151.622878 
L 496.624306 151.180074 
L 500.4689 148.966052 
L 501.109665 148.301845 
L 502.391196 147.593358 
L 503.031962 147.239114 
L 503.672727 147.017712 
L 504.313493 146.574908 
L 505.595024 145.954982 
L 507.517321 144.936531 
L 508.158086 144.75941 
L 508.798852 144.272325 
L 509.439617 144.006642 
L 510.080383 143.873801 
L 511.361914 143.430996 
L 513.284211 142.722509 
L 513.924976 142.279705 
L 515.206507 141.925461 
L 516.488038 141.438376 
L 517.128804 140.907011 
L 518.410335 140.508487 
L 519.0511 140.198524 
L 519.691866 140.021402 
L 520.973397 139.135793 
L 522.254928 138.560148 
L 523.536459 137.585978 
L 524.81799 137.143173 
L 525.458756 136.611808 
L 526.099522 136.523247 
L 527.381053 135.593358 
L 528.662584 134.973432 
L 529.303349 134.707749 
L 529.944115 134.087823 
L 533.788708 132.715129 
L 535.711005 131.873801 
L 537.633301 131.298155 
L 538.914833 131.121033 
L 539.555598 130.855351 
L 540.196364 130.76679 
L 541.477895 130.235424 
L 542.11866 130.191144 
L 544.681722 129.261255 
L 546.604019 127.932841 
L 547.244785 127.667159 
L 547.88555 127.268635 
L 549.807847 126.427306 
L 551.730144 125.276015 
L 552.370909 124.877491 
L 553.65244 124.567528 
L 554.933971 123.681919 
L 557.497033 122.884871 
L 558.137799 122.619188 
L 559.41933 122.309225 
L 562.623158 121.290775 
L 564.545455 120.936531 
L 567.108517 120.139483 
L 567.749282 119.873801 
L 568.390048 119.78524 
L 569.030813 119.475277 
L 570.312344 119.209594 
L 570.95311 118.899631 
L 572.875407 118.456827 
L 574.156938 118.191144 
L 578.001531 117.482657 
L 579.283062 117.216974 
L 579.923828 117.084133 
L 580.564593 116.81845 
L 581.205359 116.77417 
L 583.127656 116.242804 
L 583.768421 115.888561 
L 586.972249 115.091513 
L 587.613014 114.958672 
L 588.894545 114.515867 
L 590.816842 113.851661 
L 591.457608 113.7631 
L 593.379904 113.098893 
L 594.02067 113.098893 
L 595.302201 112.656089 
L 595.942967 112.036162 
L 596.583732 111.726199 
L 597.865263 111.327675 
L 600.428325 110.353506 
L 601.069091 110.220664 
L 601.709856 109.82214 
L 602.350622 109.689299 
L 602.991388 109.290775 
L 606.195215 108.360886 
L 606.835981 107.962362 
L 607.476746 107.78524 
L 608.117512 107.253875 
L 610.039809 106.899631 
L 611.32134 106.191144 
L 611.962105 105.482657 
L 613.243636 105.216974 
L 617.728995 104.198524 
L 618.369761 104.021402 
L 619.651292 103.977122 
L 620.292057 103.667159 
L 622.85512 103.224354 
L 623.495885 102.914391 
L 625.418182 102.648708 
L 627.981244 101.851661 
L 629.903541 101.408856 
L 631.825837 100.921771 
L 634.3889 100.124723 
L 635.029665 99.991882 
L 635.670431 99.681919 
L 636.311196 99.593358 
L 636.951962 99.371956 
L 637.592727 98.973432 
L 639.515024 98.264945 
L 640.155789 97.77786 
L 641.437321 97.423616 
L 642.078086 97.157934 
L 643.359617 96.80369 
L 645.922679 95.652399 
L 647.844976 95.519557 
L 650.408038 94.722509 
L 651.048804 94.323985 
L 652.330335 93.925461 
L 654.252632 92.951292 
L 654.893397 92.81845 
L 655.534163 92.508487 
L 656.174928 92.419926 
L 663.223349 90.073063 
L 665.786411 89.453137 
L 666.427177 89.276015 
L 667.708708 88.656089 
L 668.349474 88.567528 
L 669.631005 88.213284 
L 670.27177 87.726199 
L 670.912536 87.416236 
L 671.553301 86.663469 
L 672.194067 86.220664 
L 673.475598 85.82214 
L 674.116364 85.290775 
L 681.164785 82.412546 
L 682.446316 82.102583 
L 683.727847 81.526937 
L 685.650144 80.375646 
L 686.290909 80.242804 
L 686.931675 79.75572 
L 688.213206 79.135793 
L 689.494737 78.338745 
L 691.417033 77.453137 
L 692.057799 77.010332 
L 693.33933 76.523247 
L 694.620861 75.77048 
L 695.261627 75.460517 
L 695.902392 75.017712 
L 697.183923 74.574908 
L 697.824689 74.442066 
L 700.387751 73.290775 
L 703.591579 72.183764 
L 704.232344 72.139483 
L 704.87311 71.962362 
L 705.513876 71.563838 
L 706.154641 71.475277 
L 706.795407 71.209594 
L 708.717703 70.855351 
L 711.921531 69.216974 
L 713.203062 68.508487 
L 713.843828 68.419926 
L 715.766124 67.401476 
L 717.688421 66.692989 
L 719.610718 65.851661 
L 722.17378 64.83321 
L 722.814545 64.656089 
L 723.455311 64.257565 
L 724.096077 64.213284 
L 724.736842 64.036162 
L 725.377608 63.637638 
L 726.018373 63.593358 
L 727.299904 63.194834 
L 728.581435 62.574908 
L 729.222201 62.486347 
L 729.862967 62.220664 
L 730.503732 62.087823 
L 732.426029 61.246494 
L 733.066794 61.113653 
L 733.70756 60.84797 
L 736.911388 60.095203 
L 738.833684 59.342435 
L 740.755981 58.191144 
L 743.319043 56.951292 
L 744.600574 56.685609 
L 745.24134 56.331365 
L 745.882105 56.198524 
L 746.522871 55.8 
L 747.163636 55.8 
L 747.163636 55.8 
" clip-path="url(#p278cc0c75b)" style="fill: none; stroke: #1f77b4; stroke-width: 1.5; stroke-linecap: square"/>
   </g>
   <g id="line2d_34">
    <path d="M 139.077129 307.8 
L 140.999426 307.711439 
L 142.921722 307.667159 
L 146.766316 307.578598 
L 149.970144 307.445756 
L 152.533206 307.445756 
L 153.173971 307.268635 
L 155.737033 307.180074 
L 157.65933 306.958672 
L 159.581627 306.78155 
L 163.42622 306.604428 
L 164.066986 306.604428 
L 164.707751 306.471587 
L 167.270813 306.383026 
L 168.552344 306.294465 
L 173.678469 306.205904 
L 176.882297 306.073063 
L 184.571483 305.984502 
L 187.775311 305.851661 
L 191.619904 305.7631 
L 194.182967 305.674539 
L 199.949856 305.585978 
L 201.872153 305.541697 
L 203.79445 305.497417 
L 205.716746 305.276015 
L 209.56134 305.231734 
L 210.842871 305.143173 
L 215.32823 305.054613 
L 222.376651 304.656089 
L 226.86201 304.567528 
L 228.143541 304.478967 
L 230.065837 304.390406 
L 233.910431 304.213284 
L 236.473493 304.169004 
L 238.395789 303.991882 
L 248.648038 303.371956 
L 251.2111 303.283395 
L 255.696459 303.061993 
L 257.618756 302.973432 
L 264.026411 302.619188 
L 271.074833 302.530627 
L 273.637895 302.264945 
L 274.919426 302.176384 
L 283.249378 301.512177 
L 287.093971 301.025092 
L 289.657033 300.936531 
L 294.783158 300.272325 
L 297.986986 300.183764 
L 306.316938 299.519557 
L 309.520766 299.165314 
L 312.083828 299.076753 
L 313.365359 298.988192 
L 315.928421 298.899631 
L 317.209952 298.81107 
L 320.41378 298.501107 
L 321.054545 298.323985 
L 324.899139 298.146863 
L 328.102967 298.058303 
L 336.432919 297.571218 
L 338.355215 297.482657 
L 346.685167 296.995572 
L 351.170526 296.907011 
L 351.811292 296.77417 
L 356.937416 296.685609 
L 361.422775 296.464207 
L 368.471196 296.375646 
L 372.956555 296.154244 
L 378.082679 296.065683 
L 383.208804 295.8 
L 387.694163 295.711439 
L 399.868708 294.958672 
L 404.994833 294.870111 
L 421.654737 293.80738 
L 425.49933 293.718819 
L 427.421627 293.674539 
L 429.343923 293.630258 
L 431.26622 293.453137 
L 436.392344 293.364576 
L 437.673876 293.143173 
L 438.955407 293.054613 
L 442.159234 292.921771 
L 443.440766 292.83321 
L 444.722297 292.744649 
L 450.489187 292.656089 
L 451.770718 292.523247 
L 454.33378 292.478967 
L 454.974545 292.346125 
L 456.256077 292.257565 
L 456.896842 292.124723 
L 458.819139 292.036162 
L 469.712153 291.371956 
L 471.63445 291.283395 
L 474.838278 291.150554 
L 483.808995 291.061993 
L 488.294354 290.84059 
L 493.420478 290.75203 
L 495.983541 290.663469 
L 498.546603 290.619188 
L 499.828134 290.486347 
L 502.391196 290.397786 
L 508.798852 290.043542 
L 512.643445 289.999262 
L 514.565742 289.82214 
L 516.488038 289.77786 
L 520.973397 289.689299 
L 523.536459 289.600738 
L 531.225646 289.512177 
L 534.429474 289.379336 
L 538.274067 289.290775 
L 540.196364 289.069373 
L 544.040957 289.025092 
L 545.963254 288.84797 
L 548.526316 288.75941 
L 556.215502 288.670849 
L 559.41933 288.538007 
L 570.312344 288.493727 
L 571.593876 288.405166 
L 573.516172 288.360886 
L 581.846124 288.272325 
L 583.127656 288.183764 
L 590.176077 288.095203 
L 592.739139 288.006642 
L 600.428325 287.962362 
L 601.709856 287.873801 
L 611.32134 287.82952 
L 613.243636 287.652399 
L 624.136651 287.563838 
L 626.058947 287.519557 
L 642.718852 287.430996 
L 644.641148 287.386716 
L 656.815694 287.298155 
L 659.378756 287.209594 
L 663.864115 287.121033 
L 668.990239 286.855351 
L 671.553301 286.76679 
L 674.116364 286.678229 
L 677.960957 286.589668 
L 679.883254 286.545387 
L 682.446316 286.456827 
L 684.368612 286.412546 
L 687.57244 286.323985 
L 688.853971 286.191144 
L 692.698565 286.102583 
L 695.902392 285.969742 
L 697.183923 285.925461 
L 699.10622 285.748339 
L 702.950813 285.659779 
L 705.513876 285.571218 
L 711.921531 285.482657 
L 715.125359 285.349815 
L 721.533014 285.261255 
L 726.018373 285.039852 
L 731.785263 284.951292 
L 733.066794 284.862731 
L 740.755981 284.77417 
L 742.678278 284.729889 
L 747.163636 284.685609 
L 747.163636 284.685609 
" clip-path="url(#p278cc0c75b)" style="fill: none; stroke: #ff7f0e; stroke-width: 1.5; stroke-linecap: square"/>
   </g>
   <g id="patch_3">
    <path d="M 108 320.4 
L 108 43.2 
" style="fill: none; stroke: #a9a9a9; stroke-width: 0.8; stroke-linejoin: miter; stroke-linecap: square"/>
   </g>
   <g id="patch_4">
    <path d="M 777.6 320.4 
L 777.6 43.2 
" style="fill: none"/>
   </g>
   <g id="patch_5">
    <path d="M 108 320.4 
L 777.6 320.4 
" style="fill: none; stroke: #a9a9a9; stroke-width: 0.8; stroke-linejoin: miter; stroke-linecap: square"/>
   </g>
   <g id="patch_6">
    <path d="M 108 43.2 
L 777.6 43.2 
" style="fill: none"/>
   </g>
   <g id="text_17">
    <!-- get_subscribe history -->
    <g style="fill: #a9a9a9" transform="translate(378.6075 37.2) scale(0.12 -0.12)">
     <defs>
      <path id="DejaVuSans-67" d="M 2906 1791 
Q 2906 2416 2648 2759 
Q 2391 3103 1925 3103 
Q 1463 3103 1205 2759 
Q 947 2416 947 1791 
Q 947 1169 1205 825 
Q 1463 481 1925 481 
Q 2391 481 2648 825 
Q 2906 1169 2906 1791 
z
M 3481 434 
Q 3481 -459 3084 -895 
Q 2688 -1331 1869 -1331 
Q 1566 -1331 1297 -1286 
Q 1028 -1241 775 -1147 
L 775 -588 
Q 1028 -725 1275 -790 
Q 1522 -856 1778 -856 
Q 2344 -856 2625 -561 
Q 2906 -266 2906 331 
L 2906 616 
Q 2728 306 2450 153 
Q 2172 0 1784 0 
Q 1141 0 747 490 
Q 353 981 353 1791 
Q 353 2603 747 3093 
Q 1141 3584 1784 3584 
Q 2172 3584 2450 3431 
Q 2728 3278 2906 2969 
L 2906 3500 
L 3481 3500 
L 3481 434 
z
" transform="scale(0.015625)"/>
      <path id="DejaVuSans-65" d="M 3597 1894 
L 3597 1613 
L 953 1613 
Q 991 1019 1311 708 
Q 1631 397 2203 397 
Q 2534 397 2845 478 
Q 3156 559 3463 722 
L 3463 178 
Q 3153 47 2828 -22 
Q 2503 -91 2169 -91 
Q 1331 -91 842 396 
Q 353 884 353 1716 
Q 353 2575 817 3079 
Q 1281 3584 2069 3584 
Q 2775 3584 3186 3129 
Q 3597 2675 3597 1894 
z
M 3022 2063 
Q 3016 2534 2758 2815 
Q 2500 3097 2075 3097 
Q 1594 3097 1305 2825 
Q 1016 2553 972 2059 
L 3022 2063 
z
" transform="scale(0.015625)"/>
      <path id="DejaVuSans-74" d="M 1172 4494 
L 1172 3500 
L 2356 3500 
L 2356 3053 
L 1172 3053 
L 1172 1153 
Q 1172 725 1289 603 
Q 1406 481 1766 481 
L 2356 481 
L 2356 0 
L 1766 0 
Q 1100 0 847 248 
Q 594 497 594 1153 
L 594 3053 
L 172 3053 
L 172 3500 
L 594 3500 
L 594 4494 
L 1172 4494 
z
" transform="scale(0.015625)"/>
      <path id="DejaVuSans-5f" d="M 3263 -1063 
L 3263 -1509 
L -63 -1509 
L -63 -1063 
L 3263 -1063 
z
" transform="scale(0.015625)"/>
      <path id="DejaVuSans-73" d="M 2834 3397 
L 2834 2853 
Q 2591 2978 2328 3040 
Q 2066 3103 1784 3103 
Q 1356 3103 1142 2972 
Q 928 2841 928 2578 
Q 928 2378 1081 2264 
Q 1234 2150 1697 2047 
L 1894 2003 
Q 2506 1872 2764 1633 
Q 3022 1394 3022 966 
Q 3022 478 2636 193 
Q 2250 -91 1575 -91 
Q 1294 -91 989 -36 
Q 684 19 347 128 
L 347 722 
Q 666 556 975 473 
Q 1284 391 1588 391 
Q 1994 391 2212 530 
Q 2431 669 2431 922 
Q 2431 1156 2273 1281 
Q 2116 1406 1581 1522 
L 1381 1569 
Q 847 1681 609 1914 
Q 372 2147 372 2553 
Q 372 3047 722 3315 
Q 1072 3584 1716 3584 
Q 2034 3584 2315 3537 
Q 2597 3491 2834 3397 
z
" transform="scale(0.015625)"/>
      <path id="DejaVuSans-75" d="M 544 1381 
L 544 3500 
L 1119 3500 
L 1119 1403 
Q 1119 906 1312 657 
Q 1506 409 1894 409 
Q 2359 409 2629 706 
Q 2900 1003 2900 1516 
L 2900 3500 
L 3475 3500 
L 3475 0 
L 2900 0 
L 2900 538 
Q 2691 219 2414 64 
Q 2138 -91 1772 -91 
Q 1169 -91 856 284 
Q 544 659 544 1381 
z
M 1991 3584 
L 1991 3584 
z
" transform="scale(0.015625)"/>
      <path id="DejaVuSans-62" d="M 3116 1747 
Q 3116 2381 2855 2742 
Q 2594 3103 2138 3103 
Q 1681 3103 1420 2742 
Q 1159 2381 1159 1747 
Q 1159 1113 1420 752 
Q 1681 391 2138 391 
Q 2594 391 2855 752 
Q 3116 1113 3116 1747 
z
M 1159 2969 
Q 1341 3281 1617 3432 
Q 1894 3584 2278 3584 
Q 2916 3584 3314 3078 
Q 3713 2572 3713 1747 
Q 3713 922 3314 415 
Q 2916 -91 2278 -91 
Q 1894 -91 1617 61 
Q 1341 213 1159 525 
L 1159 0 
L 581 0 
L 581 4863 
L 1159 4863 
L 1159 2969 
z
" transform="scale(0.015625)"/>
      <path id="DejaVuSans-63" d="M 3122 3366 
L 3122 2828 
Q 2878 2963 2633 3030 
Q 2388 3097 2138 3097 
Q 1578 3097 1268 2742 
Q 959 2388 959 1747 
Q 959 1106 1268 751 
Q 1578 397 2138 397 
Q 2388 397 2633 464 
Q 2878 531 3122 666 
L 3122 134 
Q 2881 22 2623 -34 
Q 2366 -91 2075 -91 
Q 1284 -91 818 406 
Q 353 903 353 1747 
Q 353 2603 823 3093 
Q 1294 3584 2113 3584 
Q 2378 3584 2631 3529 
Q 2884 3475 3122 3366 
z
" transform="scale(0.015625)"/>
      <path id="DejaVuSans-72" d="M 2631 2963 
Q 2534 3019 2420 3045 
Q 2306 3072 2169 3072 
Q 1681 3072 1420 2755 
Q 1159 2438 1159 1844 
L 1159 0 
L 581 0 
L 581 3500 
L 1159 3500 
L 1159 2956 
Q 1341 3275 1631 3429 
Q 1922 3584 2338 3584 
Q 2397 3584 2469 3576 
Q 2541 3569 2628 3553 
L 2631 2963 
z
" transform="scale(0.015625)"/>
      <path id="DejaVuSans-69" d="M 603 3500 
L 1178 3500 
L 1178 0 
L 603 0 
L 603 3500 
z
M 603 4863 
L 1178 4863 
L 1178 4134 
L 603 4134 
L 603 4863 
z
" transform="scale(0.015625)"/>
      <path id="DejaVuSans-20" transform="scale(0.015625)"/>
      <path id="DejaVuSans-68" d="M 3513 2113 
L 3513 0 
L 2938 0 
L 2938 2094 
Q 2938 2591 2744 2837 
Q 2550 3084 2163 3084 
Q 1697 3084 1428 2787 
Q 1159 2491 1159 1978 
L 1159 0 
L 581 0 
L 581 4863 
L 1159 4863 
L 1159 2956 
Q 1366 3272 1645 3428 
Q 1925 3584 2291 3584 
Q 2894 3584 3203 3211 
Q 3513 2838 3513 2113 
z
" transform="scale(0.015625)"/>
      <path id="DejaVuSans-6f" d="M 1959 3097 
Q 1497 3097 1228 2736 
Q 959 2375 959 1747 
Q 959 1119 1226 758 
Q 1494 397 1959 397 
Q 2419 397 2687 759 
Q 2956 1122 2956 1747 
Q 2956 2369 2687 2733 
Q 2419 3097 1959 3097 
z
M 1959 3584 
Q 2709 3584 3137 3096 
Q 3566 2609 3566 1747 
Q 3566 888 3137 398 
Q 2709 -91 1959 -91 
Q 1206 -91 779 398 
Q 353 888 353 1747 
Q 353 2609 779 3096 
Q 1206 3584 1959 3584 
z
" transform="scale(0.015625)"/>
      <path id="DejaVuSans-79" d="M 2059 -325 
Q 1816 -950 1584 -1140 
Q 1353 -1331 966 -1331 
L 506 -1331 
L 506 -850 
L 844 -850 
Q 1081 -850 1212 -737 
Q 1344 -625 1503 -206 
L 1606 56 
L 191 3500 
L 800 3500 
L 1894 763 
L 2988 3500 
L 3597 3500 
L 2059 -325 
z
" transform="scale(0.015625)"/>
     </defs>
     <use xlink:href="#DejaVuSans-67"/>
     <use xlink:href="#DejaVuSans-65" x="63.476562"/>
     <use xlink:href="#DejaVuSans-74" x="125"/>
     <use xlink:href="#DejaVuSans-5f" x="164.208984"/>
     <use xlink:href="#DejaVuSans-73" x="214.208984"/>
     <use xlink:href="#DejaVuSans-75" x="266.308594"/>
     <use xlink:href="#DejaVuSans-62" x="329.6875"/>
     <use xlink:href="#DejaVuSans-73" x="393.164062"/>
     <use xlink:href="#DejaVuSans-63" x="445.263672"/>
     <use xlink:href="#DejaVuSans-72" x="500.244141"/>
     <use xlink:href="#DejaVuSans-69" x="541.357422"/>
     <use xlink:href="#DejaVuSans-62" x="569.140625"/>
     <use xlink:href="#DejaVuSans-65" x="632.617188"/>
     <use xlink:href="#DejaVuSans-20" x="694.140625"/>
     <use xlink:href="#DejaVuSans-68" x="725.927734"/>
     <use xlink:href="#DejaVuSans-69" x="789.306641"/>
     <use xlink:href="#DejaVuSans-73" x="817.089844"/>
     <use xlink:href="#DejaVuSans-74" x="869.189453"/>
     <use xlink:href="#DejaVuSans-6f" x="908.398438"/>
     <use xlink:href="#DejaVuSans-72" x="969.580078"/>
     <use xlink:href="#DejaVuSans-79" x="1010.693359"/>
    </g>
   </g>
   <g id="legend_1">
    <g id="line2d_35">
     <path d="M 815.08 328.498438 
L 825.08 328.498438 
L 835.08 328.498438 
" style="fill: none; stroke: #1f77b4; stroke-width: 1.5; stroke-linecap: square"/>
    </g>
    <g id="text_18">
     <!-- star -->
     <g style="fill: #a9a9a9" transform="translate(843.08 331.998438) scale(0.1 -0.1)">
      <defs>
       <path id="DejaVuSans-61" d="M 2194 1759 
Q 1497 1759 1228 1600 
Q 959 1441 959 1056 
Q 959 750 1161 570 
Q 1363 391 1709 391 
Q 2188 391 2477 730 
Q 2766 1069 2766 1631 
L 2766 1759 
L 2194 1759 
z
M 3341 1997 
L 3341 0 
L 2766 0 
L 2766 531 
Q 2569 213 2275 61 
Q 1981 -91 1556 -91 
Q 1019 -91 701 211 
Q 384 513 384 1019 
Q 384 1609 779 1909 
Q 1175 2209 1959 2209 
L 2766 2209 
L 2766 2266 
Q 2766 2663 2505 2880 
Q 2244 3097 1772 3097 
Q 1472 3097 1187 3025 
Q 903 2953 641 2809 
L 641 3341 
Q 956 3463 1253 3523 
Q 1550 3584 1831 3584 
Q 2591 3584 2966 3190 
Q 3341 2797 3341 1997 
z
" transform="scale(0.015625)"/>
      </defs>
      <use xlink:href="#DejaVuSans-73"/>
      <use xlink:href="#DejaVuSans-74" x="52.099609"/>
      <use xlink:href="#DejaVuSans-61" x="91.308594"/>
      <use xlink:href="#DejaVuSans-72" x="152.587891"/>
     </g>
    </g>
    <g id="line2d_36">
     <path d="M 815.08 343.176562 
L 825.08 343.176562 
L 835.08 343.176562 
" style="fill: none; stroke: #ff7f0e; stroke-width: 1.5; stroke-linecap: square"/>
    </g>
    <g id="text_19">
     <!-- fork -->
     <g style="fill: #a9a9a9" transform="translate(843.08 346.676562) scale(0.1 -0.1)">
      <defs>
       <path id="DejaVuSans-66" d="M 2375 4863 
L 2375 4384 
L 1825 4384 
Q 1516 4384 1395 4259 
Q 1275 4134 1275 3809 
L 1275 3500 
L 2222 3500 
L 2222 3053 
L 1275 3053 
L 1275 0 
L 697 0 
L 697 3053 
L 147 3053 
L 147 3500 
L 697 3500 
L 697 3744 
Q 697 4328 969 4595 
Q 1241 4863 1831 4863 
L 2375 4863 
z
" transform="scale(0.015625)"/>
       <path id="DejaVuSans-6b" d="M 581 4863 
L 1159 4863 
L 1159 1991 
L 2875 3500 
L 3609 3500 
L 1753 1863 
L 3688 0 
L 2938 0 
L 1159 1709 
L 1159 0 
L 581 0 
L 581 4863 
z
" transform="scale(0.015625)"/>
      </defs>
      <use xlink:href="#DejaVuSans-66"/>
      <use xlink:href="#DejaVuSans-6f" x="35.205078"/>
      <use xlink:href="#DejaVuSans-72" x="96.386719"/>
      <use xlink:href="#DejaVuSans-6b" x="137.5"/>
     </g>
    </g>
   </g>
  </g>
 </g>
 <defs>
  <clipPath id="p278cc0c75b">
   <rect x="108" y="43.2" width="669.6" height="277.2"/>
  </clipPath>
 </defs>
</svg>
